G04 #@! TF.GenerationSoftware,KiCad,Pcbnew,(2017-07-14 revision d3b382c)-master*
G04 #@! TF.CreationDate,2017-07-17T01:29:14+02:00*
G04 #@! TF.ProjectId,Bornhack Make Tradition Badge,426F726E6861636B204D616B65205472,rev?*
G04 #@! TF.SameCoordinates,Original
G04 #@! TF.FileFunction,Paste,Top*
G04 #@! TF.FilePolarity,Positive*
%FSLAX46Y46*%
G04 Gerber Fmt 4.6, Leading zero omitted, Abs format (unit mm)*
G04 Created by KiCad (PCBNEW (2017-07-14 revision d3b382c)-master) date Monday, July 17, 2017 'AMt' 01:29:14 AM*
%MOMM*%
%LPD*%
G01*
G04 APERTURE LIST*
%ADD10R,1.000000X1.250000*%
%ADD11C,1.000000*%
%ADD12C,0.100000*%
%ADD13C,0.650000*%
%ADD14C,1.430000*%
%ADD15C,0.400000*%
%ADD16R,1.000000X0.700000*%
%ADD17C,0.700000*%
%ADD18R,0.700000X1.300000*%
%ADD19R,1.300000X1.550000*%
%ADD20C,1.300000*%
%ADD21R,1.550000X1.300000*%
%ADD22R,0.250000X1.300000*%
%ADD23R,1.300000X0.250000*%
G04 APERTURE END LIST*
D10*
X110600000Y-119700000D03*
X108600000Y-119700000D03*
X102092000Y-112268000D03*
X100092000Y-112268000D03*
D11*
X89607107Y-72952893D03*
D12*
G36*
X89518719Y-72157398D02*
X90402602Y-73041281D01*
X89695495Y-73748388D01*
X88811612Y-72864505D01*
X89518719Y-72157398D01*
X89518719Y-72157398D01*
G37*
D11*
X88192893Y-74367107D03*
D12*
G36*
X88104505Y-73571612D02*
X88988388Y-74455495D01*
X88281281Y-75162602D01*
X87397398Y-74278719D01*
X88104505Y-73571612D01*
X88104505Y-73571612D01*
G37*
D11*
X89716893Y-75891107D03*
D12*
G36*
X89628505Y-75095612D02*
X90512388Y-75979495D01*
X89805281Y-76686602D01*
X88921398Y-75802719D01*
X89628505Y-75095612D01*
X89628505Y-75095612D01*
G37*
D11*
X91131107Y-74476893D03*
D12*
G36*
X91042719Y-73681398D02*
X91926602Y-74565281D01*
X91219495Y-75272388D01*
X90335612Y-74388505D01*
X91042719Y-73681398D01*
X91042719Y-73681398D01*
G37*
D11*
X92655107Y-76000893D03*
D12*
G36*
X92566719Y-75205398D02*
X93450602Y-76089281D01*
X92743495Y-76796388D01*
X91859612Y-75912505D01*
X92566719Y-75205398D01*
X92566719Y-75205398D01*
G37*
D11*
X91240893Y-77415107D03*
D12*
G36*
X91152505Y-76619612D02*
X92036388Y-77503495D01*
X91329281Y-78210602D01*
X90445398Y-77326719D01*
X91152505Y-76619612D01*
X91152505Y-76619612D01*
G37*
D10*
X102600000Y-101900000D03*
X104600000Y-101900000D03*
D11*
X103323107Y-86668893D03*
D12*
G36*
X103411495Y-87464388D02*
X102527612Y-86580505D01*
X103234719Y-85873398D01*
X104118602Y-86757281D01*
X103411495Y-87464388D01*
X103411495Y-87464388D01*
G37*
D11*
X101908893Y-88083107D03*
D12*
G36*
X101997281Y-88878602D02*
X101113398Y-87994719D01*
X101820505Y-87287612D01*
X102704388Y-88171495D01*
X101997281Y-88878602D01*
X101997281Y-88878602D01*
G37*
D11*
X92764893Y-78939107D03*
D12*
G36*
X92676505Y-78143612D02*
X93560388Y-79027495D01*
X92853281Y-79734602D01*
X91969398Y-78850719D01*
X92676505Y-78143612D01*
X92676505Y-78143612D01*
G37*
D11*
X94179107Y-77524893D03*
D12*
G36*
X94090719Y-76729398D02*
X94974602Y-77613281D01*
X94267495Y-78320388D01*
X93383612Y-77436505D01*
X94090719Y-76729398D01*
X94090719Y-76729398D01*
G37*
D11*
X100384893Y-86559107D03*
D12*
G36*
X100473281Y-87354602D02*
X99589398Y-86470719D01*
X100296505Y-85763612D01*
X101180388Y-86647495D01*
X100473281Y-87354602D01*
X100473281Y-87354602D01*
G37*
D11*
X101799107Y-85144893D03*
D12*
G36*
X101887495Y-85940388D02*
X101003612Y-85056505D01*
X101710719Y-84349398D01*
X102594602Y-85233281D01*
X101887495Y-85940388D01*
X101887495Y-85940388D01*
G37*
D13*
X85141173Y-126196132D03*
D12*
G36*
X85070462Y-125665802D02*
X85671503Y-126266843D01*
X85211884Y-126726462D01*
X84610843Y-126125421D01*
X85070462Y-125665802D01*
X85070462Y-125665802D01*
G37*
D13*
X84540132Y-126797173D03*
D12*
G36*
X84469421Y-126266843D02*
X85070462Y-126867884D01*
X84610843Y-127327503D01*
X84009802Y-126726462D01*
X84469421Y-126266843D01*
X84469421Y-126266843D01*
G37*
D13*
X83514827Y-125771868D03*
D12*
G36*
X83444116Y-125241538D02*
X84045157Y-125842579D01*
X83585538Y-126302198D01*
X82984497Y-125701157D01*
X83444116Y-125241538D01*
X83444116Y-125241538D01*
G37*
D13*
X84115868Y-125170827D03*
D12*
G36*
X84045157Y-124640497D02*
X84646198Y-125241538D01*
X84186579Y-125701157D01*
X83585538Y-125100116D01*
X84045157Y-124640497D01*
X84045157Y-124640497D01*
G37*
D14*
X131302929Y-107796481D03*
D12*
G36*
X132692394Y-108174783D02*
X131681231Y-109185946D01*
X129913464Y-107418179D01*
X130924627Y-106407016D01*
X132692394Y-108174783D01*
X132692394Y-108174783D01*
G37*
D14*
X129945284Y-109154126D03*
D12*
G36*
X131334749Y-109532428D02*
X130323586Y-110543591D01*
X128555819Y-108775824D01*
X129566982Y-107764661D01*
X131334749Y-109532428D01*
X131334749Y-109532428D01*
G37*
D15*
X129337173Y-105349892D03*
D12*
G36*
X130061957Y-105791834D02*
X129779115Y-106074676D01*
X128612389Y-104907950D01*
X128895231Y-104625108D01*
X130061957Y-105791834D01*
X130061957Y-105791834D01*
G37*
D15*
X128877553Y-105809511D03*
D12*
G36*
X129602337Y-106251453D02*
X129319495Y-106534295D01*
X128152769Y-105367569D01*
X128435611Y-105084727D01*
X129602337Y-106251453D01*
X129602337Y-106251453D01*
G37*
D15*
X128417934Y-106269131D03*
D12*
G36*
X129142718Y-106711073D02*
X128859876Y-106993915D01*
X127693150Y-105827189D01*
X127975992Y-105544347D01*
X129142718Y-106711073D01*
X129142718Y-106711073D01*
G37*
D15*
X127958314Y-106728750D03*
D12*
G36*
X128683098Y-107170692D02*
X128400256Y-107453534D01*
X127233530Y-106286808D01*
X127516372Y-106003966D01*
X128683098Y-107170692D01*
X128683098Y-107170692D01*
G37*
D15*
X127498695Y-107188370D03*
D12*
G36*
X128223479Y-107630312D02*
X127940637Y-107913154D01*
X126773911Y-106746428D01*
X127056753Y-106463586D01*
X128223479Y-107630312D01*
X128223479Y-107630312D01*
G37*
D16*
X110520000Y-106680000D03*
X110520000Y-105730000D03*
X110520000Y-107630000D03*
X107920000Y-107630000D03*
X107920000Y-106680000D03*
X107920000Y-105730000D03*
D17*
X86704249Y-123607751D03*
D12*
G36*
X86916381Y-124314858D02*
X85997142Y-123395619D01*
X86492117Y-122900644D01*
X87411356Y-123819883D01*
X86916381Y-124314858D01*
X86916381Y-124314858D01*
G37*
D17*
X88047751Y-122264249D03*
D12*
G36*
X88259883Y-122971356D02*
X87340644Y-122052117D01*
X87835619Y-121557142D01*
X88754858Y-122476381D01*
X88259883Y-122971356D01*
X88259883Y-122971356D01*
G37*
D17*
X89571751Y-123788249D03*
D12*
G36*
X89783883Y-124495356D02*
X88864644Y-123576117D01*
X89359619Y-123081142D01*
X90278858Y-124000381D01*
X89783883Y-124495356D01*
X89783883Y-124495356D01*
G37*
D17*
X88228249Y-125131751D03*
D12*
G36*
X88440381Y-125838858D02*
X87521142Y-124919619D01*
X88016117Y-124424644D01*
X88935356Y-125343883D01*
X88440381Y-125838858D01*
X88440381Y-125838858D01*
G37*
D17*
X89752249Y-126655751D03*
D12*
G36*
X89964381Y-127362858D02*
X89045142Y-126443619D01*
X89540117Y-125948644D01*
X90459356Y-126867883D01*
X89964381Y-127362858D01*
X89964381Y-127362858D01*
G37*
D17*
X91095751Y-125312249D03*
D12*
G36*
X91307883Y-126019356D02*
X90388644Y-125100117D01*
X90883619Y-124605142D01*
X91802858Y-125524381D01*
X91307883Y-126019356D01*
X91307883Y-126019356D01*
G37*
D18*
X100142000Y-109728000D03*
X102042000Y-109728000D03*
X114750000Y-114800000D03*
X112850000Y-114800000D03*
X112842000Y-112776000D03*
X114742000Y-112776000D03*
X104582000Y-106400000D03*
X102682000Y-106400000D03*
X104582000Y-104140000D03*
X102682000Y-104140000D03*
D17*
X94324249Y-80427751D03*
D12*
G36*
X94112117Y-79720644D02*
X95031356Y-80639883D01*
X94536381Y-81134858D01*
X93617142Y-80215619D01*
X94112117Y-79720644D01*
X94112117Y-79720644D01*
G37*
D17*
X95667751Y-79084249D03*
D12*
G36*
X95455619Y-78377142D02*
X96374858Y-79296381D01*
X95879883Y-79791356D01*
X94960644Y-78872117D01*
X95455619Y-78377142D01*
X95455619Y-78377142D01*
G37*
D17*
X97372249Y-83475751D03*
D12*
G36*
X97160117Y-82768644D02*
X98079356Y-83687883D01*
X97584381Y-84182858D01*
X96665142Y-83263619D01*
X97160117Y-82768644D01*
X97160117Y-82768644D01*
G37*
D17*
X98715751Y-82132249D03*
D12*
G36*
X98503619Y-81425142D02*
X99422858Y-82344381D01*
X98927883Y-82839356D01*
X98008644Y-81920117D01*
X98503619Y-81425142D01*
X98503619Y-81425142D01*
G37*
D17*
X97191751Y-80608249D03*
D12*
G36*
X96979619Y-79901142D02*
X97898858Y-80820381D01*
X97403883Y-81315356D01*
X96484644Y-80396117D01*
X96979619Y-79901142D01*
X96979619Y-79901142D01*
G37*
D17*
X95848249Y-81951751D03*
D12*
G36*
X95636117Y-81244644D02*
X96555356Y-82163883D01*
X96060381Y-82658858D01*
X95141142Y-81739619D01*
X95636117Y-81244644D01*
X95636117Y-81244644D01*
G37*
D17*
X98896249Y-84999751D03*
D12*
G36*
X99108381Y-85706858D02*
X98189142Y-84787619D01*
X98684117Y-84292644D01*
X99603356Y-85211883D01*
X99108381Y-85706858D01*
X99108381Y-85706858D01*
G37*
D17*
X100239751Y-83656249D03*
D12*
G36*
X100451883Y-84363356D02*
X99532644Y-83444117D01*
X100027619Y-82949142D01*
X100946858Y-83868381D01*
X100451883Y-84363356D01*
X100451883Y-84363356D01*
G37*
D19*
X70830000Y-119296000D03*
X66330000Y-119296000D03*
X66330000Y-111336000D03*
X70830000Y-111336000D03*
D20*
X111085275Y-60244705D03*
D12*
G36*
X110996887Y-61252332D02*
X110077648Y-60333093D01*
X111173663Y-59237078D01*
X112092902Y-60156317D01*
X110996887Y-61252332D01*
X110996887Y-61252332D01*
G37*
D20*
X107903295Y-57062725D03*
D12*
G36*
X107814907Y-58070352D02*
X106895668Y-57151113D01*
X107991683Y-56055098D01*
X108910922Y-56974337D01*
X107814907Y-58070352D01*
X107814907Y-58070352D01*
G37*
D20*
X102274725Y-62691295D03*
D12*
G36*
X102186337Y-63698922D02*
X101267098Y-62779683D01*
X102363113Y-61683668D01*
X103282352Y-62602907D01*
X102186337Y-63698922D01*
X102186337Y-63698922D01*
G37*
D20*
X105456705Y-65873275D03*
D12*
G36*
X105368317Y-66880902D02*
X104449078Y-65961663D01*
X105545093Y-64865648D01*
X106464332Y-65784887D01*
X105368317Y-66880902D01*
X105368317Y-66880902D01*
G37*
D19*
X128234000Y-74084000D03*
X123734000Y-74084000D03*
X123734000Y-66124000D03*
X128234000Y-66124000D03*
X140426000Y-78316000D03*
X135926000Y-78316000D03*
X135926000Y-86276000D03*
X140426000Y-86276000D03*
D21*
X134196000Y-72354000D03*
X134196000Y-67854000D03*
X142156000Y-67854000D03*
X142156000Y-72354000D03*
X129964000Y-84546000D03*
X129964000Y-80046000D03*
X122004000Y-80046000D03*
X122004000Y-84546000D03*
D22*
X98850000Y-116046000D03*
X99350000Y-116046000D03*
X99850000Y-116046000D03*
X100350000Y-116046000D03*
X100850000Y-116046000D03*
X101350000Y-116046000D03*
X101850000Y-116046000D03*
X102350000Y-116046000D03*
X102850000Y-116046000D03*
X103350000Y-116046000D03*
X103850000Y-116046000D03*
X104350000Y-116046000D03*
D23*
X105950000Y-117646000D03*
X105950000Y-118146000D03*
X105950000Y-118646000D03*
X105950000Y-119146000D03*
X105950000Y-119646000D03*
X105950000Y-120146000D03*
X105950000Y-120646000D03*
X105950000Y-121146000D03*
X105950000Y-121646000D03*
X105950000Y-122146000D03*
X105950000Y-122646000D03*
X105950000Y-123146000D03*
D22*
X104350000Y-124746000D03*
X103850000Y-124746000D03*
X103350000Y-124746000D03*
X102850000Y-124746000D03*
X102350000Y-124746000D03*
X101850000Y-124746000D03*
X101350000Y-124746000D03*
X100850000Y-124746000D03*
X100350000Y-124746000D03*
X99850000Y-124746000D03*
X99350000Y-124746000D03*
X98850000Y-124746000D03*
D23*
X97250000Y-123146000D03*
X97250000Y-122646000D03*
X97250000Y-122146000D03*
X97250000Y-121646000D03*
X97250000Y-121146000D03*
X97250000Y-120646000D03*
X97250000Y-120146000D03*
X97250000Y-119646000D03*
X97250000Y-119146000D03*
X97250000Y-118646000D03*
X97250000Y-118146000D03*
X97250000Y-117646000D03*
D15*
X84562462Y-92208513D03*
D12*
G36*
X83523015Y-92965117D02*
X85319066Y-91169066D01*
X85601909Y-91451909D01*
X83805858Y-93247960D01*
X83523015Y-92965117D01*
X83523015Y-92965117D01*
G37*
D15*
X85057437Y-92703487D03*
D12*
G36*
X84017990Y-93460091D02*
X85814041Y-91664040D01*
X86096884Y-91946883D01*
X84300833Y-93742934D01*
X84017990Y-93460091D01*
X84017990Y-93460091D01*
G37*
D15*
X85552412Y-93198462D03*
D12*
G36*
X84512965Y-93955066D02*
X86309016Y-92159015D01*
X86591859Y-92441858D01*
X84795808Y-94237909D01*
X84512965Y-93955066D01*
X84512965Y-93955066D01*
G37*
D15*
X86047386Y-93693437D03*
D12*
G36*
X85007939Y-94450041D02*
X86803990Y-92653990D01*
X87086833Y-92936833D01*
X85290782Y-94732884D01*
X85007939Y-94450041D01*
X85007939Y-94450041D01*
G37*
D15*
X86542361Y-94188412D03*
D12*
G36*
X85502914Y-94945016D02*
X87298965Y-93148965D01*
X87581808Y-93431808D01*
X85785757Y-95227859D01*
X85502914Y-94945016D01*
X85502914Y-94945016D01*
G37*
D15*
X87037336Y-94683386D03*
D12*
G36*
X85997889Y-95439990D02*
X87793940Y-93643939D01*
X88076783Y-93926782D01*
X86280732Y-95722833D01*
X85997889Y-95439990D01*
X85997889Y-95439990D01*
G37*
D15*
X87532311Y-95178361D03*
D12*
G36*
X86492864Y-95934965D02*
X88288915Y-94138914D01*
X88571758Y-94421757D01*
X86775707Y-96217808D01*
X86492864Y-95934965D01*
X86492864Y-95934965D01*
G37*
D15*
X88027285Y-95673336D03*
D12*
G36*
X86987838Y-96429940D02*
X88783889Y-94633889D01*
X89066732Y-94916732D01*
X87270681Y-96712783D01*
X86987838Y-96429940D01*
X86987838Y-96429940D01*
G37*
D15*
X88522260Y-96168311D03*
D12*
G36*
X87482813Y-96924915D02*
X89278864Y-95128864D01*
X89561707Y-95411707D01*
X87765656Y-97207758D01*
X87482813Y-96924915D01*
X87482813Y-96924915D01*
G37*
D15*
X89017235Y-96663285D03*
D12*
G36*
X87977788Y-97419889D02*
X89773839Y-95623838D01*
X90056682Y-95906681D01*
X88260631Y-97702732D01*
X87977788Y-97419889D01*
X87977788Y-97419889D01*
G37*
D15*
X89512210Y-97158260D03*
D12*
G36*
X88472763Y-97914864D02*
X90268814Y-96118813D01*
X90551657Y-96401656D01*
X88755606Y-98197707D01*
X88472763Y-97914864D01*
X88472763Y-97914864D01*
G37*
D15*
X90007184Y-97653235D03*
D12*
G36*
X88967737Y-98409839D02*
X90763788Y-96613788D01*
X91046631Y-96896631D01*
X89250580Y-98692682D01*
X88967737Y-98409839D01*
X88967737Y-98409839D01*
G37*
D15*
X90502159Y-98148210D03*
D12*
G36*
X89462712Y-98904814D02*
X91258763Y-97108763D01*
X91541606Y-97391606D01*
X89745555Y-99187657D01*
X89462712Y-98904814D01*
X89462712Y-98904814D01*
G37*
D15*
X90997134Y-98643184D03*
D12*
G36*
X89957687Y-99399788D02*
X91753738Y-97603737D01*
X92036581Y-97886580D01*
X90240530Y-99682631D01*
X89957687Y-99399788D01*
X89957687Y-99399788D01*
G37*
D15*
X91492109Y-99138159D03*
D12*
G36*
X90452662Y-99894763D02*
X92248713Y-98098712D01*
X92531556Y-98381555D01*
X90735505Y-100177606D01*
X90452662Y-99894763D01*
X90452662Y-99894763D01*
G37*
D15*
X77137841Y-84783891D03*
D12*
G36*
X76098394Y-85540495D02*
X77894445Y-83744444D01*
X78177288Y-84027287D01*
X76381237Y-85823338D01*
X76098394Y-85540495D01*
X76098394Y-85540495D01*
G37*
D15*
X77632816Y-85278866D03*
D12*
G36*
X76593369Y-86035470D02*
X78389420Y-84239419D01*
X78672263Y-84522262D01*
X76876212Y-86318313D01*
X76593369Y-86035470D01*
X76593369Y-86035470D01*
G37*
D15*
X78127790Y-85773841D03*
D12*
G36*
X77088343Y-86530445D02*
X78884394Y-84734394D01*
X79167237Y-85017237D01*
X77371186Y-86813288D01*
X77088343Y-86530445D01*
X77088343Y-86530445D01*
G37*
D15*
X78622765Y-86268816D03*
D12*
G36*
X77583318Y-87025420D02*
X79379369Y-85229369D01*
X79662212Y-85512212D01*
X77866161Y-87308263D01*
X77583318Y-87025420D01*
X77583318Y-87025420D01*
G37*
D15*
X79117740Y-86763790D03*
D12*
G36*
X78078293Y-87520394D02*
X79874344Y-85724343D01*
X80157187Y-86007186D01*
X78361136Y-87803237D01*
X78078293Y-87520394D01*
X78078293Y-87520394D01*
G37*
D15*
X79612715Y-87258765D03*
D12*
G36*
X78573268Y-88015369D02*
X80369319Y-86219318D01*
X80652162Y-86502161D01*
X78856111Y-88298212D01*
X78573268Y-88015369D01*
X78573268Y-88015369D01*
G37*
D15*
X80107689Y-87753740D03*
D12*
G36*
X79068242Y-88510344D02*
X80864293Y-86714293D01*
X81147136Y-86997136D01*
X79351085Y-88793187D01*
X79068242Y-88510344D01*
X79068242Y-88510344D01*
G37*
D15*
X80602664Y-88248715D03*
D12*
G36*
X79563217Y-89005319D02*
X81359268Y-87209268D01*
X81642111Y-87492111D01*
X79846060Y-89288162D01*
X79563217Y-89005319D01*
X79563217Y-89005319D01*
G37*
D15*
X81097639Y-88743689D03*
D12*
G36*
X80058192Y-89500293D02*
X81854243Y-87704242D01*
X82137086Y-87987085D01*
X80341035Y-89783136D01*
X80058192Y-89500293D01*
X80058192Y-89500293D01*
G37*
D15*
X81592614Y-89238664D03*
D12*
G36*
X80553167Y-89995268D02*
X82349218Y-88199217D01*
X82632061Y-88482060D01*
X80836010Y-90278111D01*
X80553167Y-89995268D01*
X80553167Y-89995268D01*
G37*
D15*
X82087588Y-89733639D03*
D12*
G36*
X81048141Y-90490243D02*
X82844192Y-88694192D01*
X83127035Y-88977035D01*
X81330984Y-90773086D01*
X81048141Y-90490243D01*
X81048141Y-90490243D01*
G37*
D15*
X82582563Y-90228614D03*
D12*
G36*
X81543116Y-90985218D02*
X83339167Y-89189167D01*
X83622010Y-89472010D01*
X81825959Y-91268061D01*
X81543116Y-90985218D01*
X81543116Y-90985218D01*
G37*
D15*
X83077538Y-90723588D03*
D12*
G36*
X82038091Y-91480192D02*
X83834142Y-89684141D01*
X84116985Y-89966984D01*
X82320934Y-91763035D01*
X82038091Y-91480192D01*
X82038091Y-91480192D01*
G37*
D15*
X83572513Y-91218563D03*
D12*
G36*
X82533066Y-91975167D02*
X84329117Y-90179116D01*
X84611960Y-90461959D01*
X82815909Y-92258010D01*
X82533066Y-91975167D01*
X82533066Y-91975167D01*
G37*
D15*
X84067487Y-91713538D03*
D12*
G36*
X83028040Y-92470142D02*
X84824091Y-90674091D01*
X85106934Y-90956934D01*
X83310883Y-92752985D01*
X83028040Y-92470142D01*
X83028040Y-92470142D01*
G37*
M02*
