G04 #@! TF.GenerationSoftware,KiCad,Pcbnew,(2017-07-14 revision d3b382c)-master*
G04 #@! TF.CreationDate,2017-07-30T20:26:54+02:00*
G04 #@! TF.ProjectId,Bornhack Make Tradition Badge,426F726E6861636B204D616B65205472,rev?*
G04 #@! TF.SameCoordinates,Original
G04 #@! TF.FileFunction,Soldermask,Top*
G04 #@! TF.FilePolarity,Negative*
%FSLAX46Y46*%
G04 Gerber Fmt 4.6, Leading zero omitted, Abs format (unit mm)*
G04 Created by KiCad (PCBNEW (2017-07-14 revision d3b382c)-master) date Sunday, July 30, 2017 'PMt' 08:26:54 PM*
%MOMM*%
%LPD*%
G01*
G04 APERTURE LIST*
%ADD10C,1.830000*%
%ADD11C,0.100000*%
%ADD12C,1.600000*%
%ADD13C,1.600000*%
%ADD14C,1.500000*%
%ADD15C,1.500000*%
%ADD16C,0.800000*%
%ADD17C,2.100000*%
%ADD18C,2.100000*%
%ADD19R,2.100000X2.100000*%
%ADD20O,2.100000X2.100000*%
%ADD21R,1.700000X1.950000*%
%ADD22R,1.950000X1.700000*%
%ADD23C,1.700000*%
%ADD24R,1.400000X1.650000*%
%ADD25C,1.400000*%
%ADD26C,1.050000*%
%ADD27R,1.400000X1.100000*%
%ADD28C,1.100000*%
%ADD29R,1.100000X1.700000*%
%ADD30R,0.650000X1.700000*%
%ADD31R,1.700000X0.650000*%
G04 APERTURE END LIST*
D10*
X131302929Y-107796481D03*
D11*
G36*
X132975237Y-108174783D02*
X131681231Y-109468789D01*
X129630621Y-107418179D01*
X130924627Y-106124173D01*
X132975237Y-108174783D01*
X132975237Y-108174783D01*
G37*
D10*
X129945284Y-109154126D03*
D11*
G36*
X131617592Y-109532428D02*
X130323586Y-110826434D01*
X128272976Y-108775824D01*
X129566982Y-107481818D01*
X131617592Y-109532428D01*
X131617592Y-109532428D01*
G37*
D12*
X132384803Y-106375197D03*
D13*
X132561580Y-106551974D02*
X132208026Y-106198420D01*
D12*
X128524000Y-110236000D03*
D13*
X128700777Y-110412777D02*
X128347223Y-110059223D01*
D14*
X130044279Y-104473080D03*
D15*
X130185700Y-104614501D02*
X129902858Y-104331659D01*
D14*
X126621883Y-107895476D03*
D15*
X126763304Y-108036897D02*
X126480462Y-107754055D01*
D16*
X129337173Y-105349892D03*
D11*
G36*
X130344800Y-105791834D02*
X129779115Y-106357519D01*
X128329546Y-104907950D01*
X128895231Y-104342265D01*
X130344800Y-105791834D01*
X130344800Y-105791834D01*
G37*
D16*
X128877553Y-105809511D03*
D11*
G36*
X129885180Y-106251453D02*
X129319495Y-106817138D01*
X127869926Y-105367569D01*
X128435611Y-104801884D01*
X129885180Y-106251453D01*
X129885180Y-106251453D01*
G37*
D16*
X128417934Y-106269131D03*
D11*
G36*
X129425561Y-106711073D02*
X128859876Y-107276758D01*
X127410307Y-105827189D01*
X127975992Y-105261504D01*
X129425561Y-106711073D01*
X129425561Y-106711073D01*
G37*
D16*
X127958314Y-106728750D03*
D11*
G36*
X128965941Y-107170692D02*
X128400256Y-107736377D01*
X126950687Y-106286808D01*
X127516372Y-105721123D01*
X128965941Y-107170692D01*
X128965941Y-107170692D01*
G37*
D16*
X127498695Y-107188370D03*
D11*
G36*
X128506322Y-107630312D02*
X127940637Y-108195997D01*
X126491068Y-106746428D01*
X127056753Y-106180743D01*
X128506322Y-107630312D01*
X128506322Y-107630312D01*
G37*
D17*
X102888052Y-96247948D03*
D18*
X102888052Y-96247948D02*
X102888052Y-96247948D01*
D17*
X101092000Y-98044000D03*
D18*
X101092000Y-98044000D02*
X101092000Y-98044000D01*
D17*
X99295949Y-99840051D03*
D18*
X99295949Y-99840051D02*
X99295949Y-99840051D01*
D17*
X97499898Y-101636102D03*
D11*
G36*
X98984822Y-101636102D02*
X97499898Y-103121026D01*
X96014974Y-101636102D01*
X97499898Y-100151178D01*
X98984822Y-101636102D01*
X98984822Y-101636102D01*
G37*
D17*
X91476103Y-110744000D03*
D18*
X91476103Y-110744000D02*
X91476103Y-110744000D01*
D17*
X89680052Y-112540052D03*
D18*
X89680052Y-112540052D02*
X89680052Y-112540052D01*
D17*
X89680052Y-108947949D03*
D18*
X89680052Y-108947949D02*
X89680052Y-108947949D01*
D17*
X87884000Y-110744000D03*
D18*
X87884000Y-110744000D02*
X87884000Y-110744000D01*
D17*
X87884000Y-107151898D03*
D18*
X87884000Y-107151898D02*
X87884000Y-107151898D01*
D17*
X86087949Y-108947949D03*
D18*
X86087949Y-108947949D02*
X86087949Y-108947949D01*
D17*
X86087949Y-105355847D03*
D18*
X86087949Y-105355847D02*
X86087949Y-105355847D01*
D17*
X84291898Y-107151898D03*
D11*
G36*
X84291898Y-108636822D02*
X82806974Y-107151898D01*
X84291898Y-105666974D01*
X85776822Y-107151898D01*
X84291898Y-108636822D01*
X84291898Y-108636822D01*
G37*
D17*
X86396103Y-115824000D03*
D18*
X86396103Y-115824000D02*
X86396103Y-115824000D01*
D17*
X84600052Y-117620052D03*
D18*
X84600052Y-117620052D02*
X84600052Y-117620052D01*
D17*
X84600052Y-114027949D03*
D18*
X84600052Y-114027949D02*
X84600052Y-114027949D01*
D17*
X82804000Y-115824000D03*
D18*
X82804000Y-115824000D02*
X82804000Y-115824000D01*
D17*
X82804000Y-112231898D03*
D18*
X82804000Y-112231898D02*
X82804000Y-112231898D01*
D17*
X81007949Y-114027949D03*
D18*
X81007949Y-114027949D02*
X81007949Y-114027949D01*
D17*
X81007949Y-110435847D03*
D18*
X81007949Y-110435847D02*
X81007949Y-110435847D01*
D17*
X79211898Y-112231898D03*
D11*
G36*
X79211898Y-113716822D02*
X77726974Y-112231898D01*
X79211898Y-110746974D01*
X80696822Y-112231898D01*
X79211898Y-113716822D01*
X79211898Y-113716822D01*
G37*
D19*
X110744000Y-90424000D03*
D20*
X113284000Y-90424000D03*
X110744000Y-92964000D03*
X113284000Y-92964000D03*
X110744000Y-95504000D03*
X113284000Y-95504000D03*
X110744000Y-98044000D03*
X113284000Y-98044000D03*
D17*
X137123898Y-101636102D03*
D11*
G36*
X138608822Y-101636102D02*
X137123898Y-103121026D01*
X135638974Y-101636102D01*
X137123898Y-100151178D01*
X138608822Y-101636102D01*
X138608822Y-101636102D01*
G37*
D17*
X138919949Y-99840051D03*
D18*
X138919949Y-99840051D02*
X138919949Y-99840051D01*
D17*
X140716000Y-98044000D03*
D18*
X140716000Y-98044000D02*
X140716000Y-98044000D01*
D17*
X142512052Y-96247948D03*
D18*
X142512052Y-96247948D02*
X142512052Y-96247948D01*
D21*
X140426000Y-78316000D03*
X135926000Y-78316000D03*
X135926000Y-86276000D03*
X140426000Y-86276000D03*
D22*
X129964000Y-84546000D03*
X129964000Y-80046000D03*
X122004000Y-80046000D03*
X122004000Y-84546000D03*
X134196000Y-72354000D03*
X134196000Y-67854000D03*
X142156000Y-67854000D03*
X142156000Y-72354000D03*
D21*
X128234000Y-74084000D03*
X123734000Y-74084000D03*
X123734000Y-66124000D03*
X128234000Y-66124000D03*
X70830000Y-119296000D03*
X66330000Y-119296000D03*
X66330000Y-111336000D03*
X70830000Y-111336000D03*
D23*
X111085275Y-60244705D03*
D11*
G36*
X110996887Y-61535175D02*
X109794805Y-60333093D01*
X111173663Y-58954235D01*
X112375745Y-60156317D01*
X110996887Y-61535175D01*
X110996887Y-61535175D01*
G37*
D23*
X107903295Y-57062725D03*
D11*
G36*
X107814907Y-58353195D02*
X106612825Y-57151113D01*
X107991683Y-55772255D01*
X109193765Y-56974337D01*
X107814907Y-58353195D01*
X107814907Y-58353195D01*
G37*
D23*
X102274725Y-62691295D03*
D11*
G36*
X102186337Y-63981765D02*
X100984255Y-62779683D01*
X102363113Y-61400825D01*
X103565195Y-62602907D01*
X102186337Y-63981765D01*
X102186337Y-63981765D01*
G37*
D23*
X105456705Y-65873275D03*
D11*
G36*
X105368317Y-67163745D02*
X104166235Y-65961663D01*
X105545093Y-64582805D01*
X106747175Y-65784887D01*
X105368317Y-67163745D01*
X105368317Y-67163745D01*
G37*
D17*
X103668103Y-135091897D03*
D18*
X103668103Y-135091897D02*
X103668103Y-135091897D01*
D17*
X101872051Y-136887949D03*
D18*
X101872051Y-136887949D02*
X101872051Y-136887949D01*
D17*
X100076000Y-138684000D03*
D18*
X100076000Y-138684000D02*
X100076000Y-138684000D01*
D17*
X98279949Y-140480051D03*
D11*
G36*
X99764873Y-140480051D02*
X98279949Y-141964975D01*
X96795025Y-140480051D01*
X98279949Y-138995127D01*
X99764873Y-140480051D01*
X99764873Y-140480051D01*
G37*
D24*
X110600000Y-119700000D03*
X108600000Y-119700000D03*
X102092000Y-112268000D03*
X100092000Y-112268000D03*
D25*
X89607107Y-72952893D03*
D11*
G36*
X89518719Y-71874555D02*
X90685445Y-73041281D01*
X89695495Y-74031231D01*
X88528769Y-72864505D01*
X89518719Y-71874555D01*
X89518719Y-71874555D01*
G37*
D25*
X88192893Y-74367107D03*
D11*
G36*
X88104505Y-73288769D02*
X89271231Y-74455495D01*
X88281281Y-75445445D01*
X87114555Y-74278719D01*
X88104505Y-73288769D01*
X88104505Y-73288769D01*
G37*
D25*
X89716893Y-75891107D03*
D11*
G36*
X89628505Y-74812769D02*
X90795231Y-75979495D01*
X89805281Y-76969445D01*
X88638555Y-75802719D01*
X89628505Y-74812769D01*
X89628505Y-74812769D01*
G37*
D25*
X91131107Y-74476893D03*
D11*
G36*
X91042719Y-73398555D02*
X92209445Y-74565281D01*
X91219495Y-75555231D01*
X90052769Y-74388505D01*
X91042719Y-73398555D01*
X91042719Y-73398555D01*
G37*
D25*
X92655107Y-76000893D03*
D11*
G36*
X92566719Y-74922555D02*
X93733445Y-76089281D01*
X92743495Y-77079231D01*
X91576769Y-75912505D01*
X92566719Y-74922555D01*
X92566719Y-74922555D01*
G37*
D25*
X91240893Y-77415107D03*
D11*
G36*
X91152505Y-76336769D02*
X92319231Y-77503495D01*
X91329281Y-78493445D01*
X90162555Y-77326719D01*
X91152505Y-76336769D01*
X91152505Y-76336769D01*
G37*
D24*
X102600000Y-101900000D03*
X104600000Y-101900000D03*
D25*
X103323107Y-86668893D03*
D11*
G36*
X103411495Y-87747231D02*
X102244769Y-86580505D01*
X103234719Y-85590555D01*
X104401445Y-86757281D01*
X103411495Y-87747231D01*
X103411495Y-87747231D01*
G37*
D25*
X101908893Y-88083107D03*
D11*
G36*
X101997281Y-89161445D02*
X100830555Y-87994719D01*
X101820505Y-87004769D01*
X102987231Y-88171495D01*
X101997281Y-89161445D01*
X101997281Y-89161445D01*
G37*
D25*
X92764893Y-78939107D03*
D11*
G36*
X92676505Y-77860769D02*
X93843231Y-79027495D01*
X92853281Y-80017445D01*
X91686555Y-78850719D01*
X92676505Y-77860769D01*
X92676505Y-77860769D01*
G37*
D25*
X94179107Y-77524893D03*
D11*
G36*
X94090719Y-76446555D02*
X95257445Y-77613281D01*
X94267495Y-78603231D01*
X93100769Y-77436505D01*
X94090719Y-76446555D01*
X94090719Y-76446555D01*
G37*
D25*
X100384893Y-86559107D03*
D11*
G36*
X100473281Y-87637445D02*
X99306555Y-86470719D01*
X100296505Y-85480769D01*
X101463231Y-86647495D01*
X100473281Y-87637445D01*
X100473281Y-87637445D01*
G37*
D25*
X101799107Y-85144893D03*
D11*
G36*
X101887495Y-86223231D02*
X100720769Y-85056505D01*
X101710719Y-84066555D01*
X102877445Y-85233281D01*
X101887495Y-86223231D01*
X101887495Y-86223231D01*
G37*
D26*
X85141173Y-126196132D03*
D11*
G36*
X85070462Y-125382959D02*
X85954346Y-126266843D01*
X85211884Y-127009305D01*
X84328000Y-126125421D01*
X85070462Y-125382959D01*
X85070462Y-125382959D01*
G37*
D26*
X84540132Y-126797173D03*
D11*
G36*
X84469421Y-125984000D02*
X85353305Y-126867884D01*
X84610843Y-127610346D01*
X83726959Y-126726462D01*
X84469421Y-125984000D01*
X84469421Y-125984000D01*
G37*
D26*
X83514827Y-125771868D03*
D11*
G36*
X83444116Y-124958695D02*
X84328000Y-125842579D01*
X83585538Y-126585041D01*
X82701654Y-125701157D01*
X83444116Y-124958695D01*
X83444116Y-124958695D01*
G37*
D26*
X84115868Y-125170827D03*
D11*
G36*
X84045157Y-124357654D02*
X84929041Y-125241538D01*
X84186579Y-125984000D01*
X83302695Y-125100116D01*
X84045157Y-124357654D01*
X84045157Y-124357654D01*
G37*
D27*
X110520000Y-106680000D03*
X110520000Y-105730000D03*
X110520000Y-107630000D03*
X107920000Y-107630000D03*
X107920000Y-106680000D03*
X107920000Y-105730000D03*
D28*
X86704249Y-123607751D03*
D11*
G36*
X86916381Y-124597700D02*
X85714300Y-123395619D01*
X86492117Y-122617802D01*
X87694198Y-123819883D01*
X86916381Y-124597700D01*
X86916381Y-124597700D01*
G37*
D28*
X88047751Y-122264249D03*
D11*
G36*
X88259883Y-123254198D02*
X87057802Y-122052117D01*
X87835619Y-121274300D01*
X89037700Y-122476381D01*
X88259883Y-123254198D01*
X88259883Y-123254198D01*
G37*
D28*
X89571751Y-123788249D03*
D11*
G36*
X89783883Y-124778198D02*
X88581802Y-123576117D01*
X89359619Y-122798300D01*
X90561700Y-124000381D01*
X89783883Y-124778198D01*
X89783883Y-124778198D01*
G37*
D28*
X88228249Y-125131751D03*
D11*
G36*
X88440381Y-126121700D02*
X87238300Y-124919619D01*
X88016117Y-124141802D01*
X89218198Y-125343883D01*
X88440381Y-126121700D01*
X88440381Y-126121700D01*
G37*
D28*
X89752249Y-126655751D03*
D11*
G36*
X89964381Y-127645700D02*
X88762300Y-126443619D01*
X89540117Y-125665802D01*
X90742198Y-126867883D01*
X89964381Y-127645700D01*
X89964381Y-127645700D01*
G37*
D28*
X91095751Y-125312249D03*
D11*
G36*
X91307883Y-126302198D02*
X90105802Y-125100117D01*
X90883619Y-124322300D01*
X92085700Y-125524381D01*
X91307883Y-126302198D01*
X91307883Y-126302198D01*
G37*
D29*
X100142000Y-109728000D03*
X102042000Y-109728000D03*
X114750000Y-114800000D03*
X112850000Y-114800000D03*
X112842000Y-112776000D03*
X114742000Y-112776000D03*
X104582000Y-106400000D03*
X102682000Y-106400000D03*
X104582000Y-104140000D03*
X102682000Y-104140000D03*
D28*
X94324249Y-80427751D03*
D11*
G36*
X94112117Y-79437802D02*
X95314198Y-80639883D01*
X94536381Y-81417700D01*
X93334300Y-80215619D01*
X94112117Y-79437802D01*
X94112117Y-79437802D01*
G37*
D28*
X95667751Y-79084249D03*
D11*
G36*
X95455619Y-78094300D02*
X96657700Y-79296381D01*
X95879883Y-80074198D01*
X94677802Y-78872117D01*
X95455619Y-78094300D01*
X95455619Y-78094300D01*
G37*
D28*
X97372249Y-83475751D03*
D11*
G36*
X97160117Y-82485802D02*
X98362198Y-83687883D01*
X97584381Y-84465700D01*
X96382300Y-83263619D01*
X97160117Y-82485802D01*
X97160117Y-82485802D01*
G37*
D28*
X98715751Y-82132249D03*
D11*
G36*
X98503619Y-81142300D02*
X99705700Y-82344381D01*
X98927883Y-83122198D01*
X97725802Y-81920117D01*
X98503619Y-81142300D01*
X98503619Y-81142300D01*
G37*
D28*
X97191751Y-80608249D03*
D11*
G36*
X96979619Y-79618300D02*
X98181700Y-80820381D01*
X97403883Y-81598198D01*
X96201802Y-80396117D01*
X96979619Y-79618300D01*
X96979619Y-79618300D01*
G37*
D28*
X95848249Y-81951751D03*
D11*
G36*
X95636117Y-80961802D02*
X96838198Y-82163883D01*
X96060381Y-82941700D01*
X94858300Y-81739619D01*
X95636117Y-80961802D01*
X95636117Y-80961802D01*
G37*
D28*
X98896249Y-84999751D03*
D11*
G36*
X99108381Y-85989700D02*
X97906300Y-84787619D01*
X98684117Y-84009802D01*
X99886198Y-85211883D01*
X99108381Y-85989700D01*
X99108381Y-85989700D01*
G37*
D28*
X100239751Y-83656249D03*
D11*
G36*
X100451883Y-84646198D02*
X99249802Y-83444117D01*
X100027619Y-82666300D01*
X101229700Y-83868381D01*
X100451883Y-84646198D01*
X100451883Y-84646198D01*
G37*
D30*
X98850000Y-116046000D03*
X99350000Y-116046000D03*
X99850000Y-116046000D03*
X100350000Y-116046000D03*
X100850000Y-116046000D03*
X101350000Y-116046000D03*
X101850000Y-116046000D03*
X102350000Y-116046000D03*
X102850000Y-116046000D03*
X103350000Y-116046000D03*
X103850000Y-116046000D03*
X104350000Y-116046000D03*
D31*
X105950000Y-117646000D03*
X105950000Y-118146000D03*
X105950000Y-118646000D03*
X105950000Y-119146000D03*
X105950000Y-119646000D03*
X105950000Y-120146000D03*
X105950000Y-120646000D03*
X105950000Y-121146000D03*
X105950000Y-121646000D03*
X105950000Y-122146000D03*
X105950000Y-122646000D03*
X105950000Y-123146000D03*
D30*
X104350000Y-124746000D03*
X103850000Y-124746000D03*
X103350000Y-124746000D03*
X102850000Y-124746000D03*
X102350000Y-124746000D03*
X101850000Y-124746000D03*
X101350000Y-124746000D03*
X100850000Y-124746000D03*
X100350000Y-124746000D03*
X99850000Y-124746000D03*
X99350000Y-124746000D03*
X98850000Y-124746000D03*
D31*
X97250000Y-123146000D03*
X97250000Y-122646000D03*
X97250000Y-122146000D03*
X97250000Y-121646000D03*
X97250000Y-121146000D03*
X97250000Y-120646000D03*
X97250000Y-120146000D03*
X97250000Y-119646000D03*
X97250000Y-119146000D03*
X97250000Y-118646000D03*
X97250000Y-118146000D03*
X97250000Y-117646000D03*
D16*
X84562462Y-92208513D03*
D11*
G36*
X83240172Y-92965117D02*
X85319066Y-90886223D01*
X85884752Y-91451909D01*
X83805858Y-93530803D01*
X83240172Y-92965117D01*
X83240172Y-92965117D01*
G37*
D16*
X85057437Y-92703487D03*
D11*
G36*
X83735147Y-93460091D02*
X85814041Y-91381197D01*
X86379727Y-91946883D01*
X84300833Y-94025777D01*
X83735147Y-93460091D01*
X83735147Y-93460091D01*
G37*
D16*
X85552412Y-93198462D03*
D11*
G36*
X84230122Y-93955066D02*
X86309016Y-91876172D01*
X86874702Y-92441858D01*
X84795808Y-94520752D01*
X84230122Y-93955066D01*
X84230122Y-93955066D01*
G37*
D16*
X86047386Y-93693437D03*
D11*
G36*
X84725096Y-94450041D02*
X86803990Y-92371147D01*
X87369676Y-92936833D01*
X85290782Y-95015727D01*
X84725096Y-94450041D01*
X84725096Y-94450041D01*
G37*
D16*
X86542361Y-94188412D03*
D11*
G36*
X85220071Y-94945016D02*
X87298965Y-92866122D01*
X87864651Y-93431808D01*
X85785757Y-95510702D01*
X85220071Y-94945016D01*
X85220071Y-94945016D01*
G37*
D16*
X87037336Y-94683386D03*
D11*
G36*
X85715046Y-95439990D02*
X87793940Y-93361096D01*
X88359626Y-93926782D01*
X86280732Y-96005676D01*
X85715046Y-95439990D01*
X85715046Y-95439990D01*
G37*
D16*
X87532311Y-95178361D03*
D11*
G36*
X86210021Y-95934965D02*
X88288915Y-93856071D01*
X88854601Y-94421757D01*
X86775707Y-96500651D01*
X86210021Y-95934965D01*
X86210021Y-95934965D01*
G37*
D16*
X88027285Y-95673336D03*
D11*
G36*
X86704995Y-96429940D02*
X88783889Y-94351046D01*
X89349575Y-94916732D01*
X87270681Y-96995626D01*
X86704995Y-96429940D01*
X86704995Y-96429940D01*
G37*
D16*
X88522260Y-96168311D03*
D11*
G36*
X87199970Y-96924915D02*
X89278864Y-94846021D01*
X89844550Y-95411707D01*
X87765656Y-97490601D01*
X87199970Y-96924915D01*
X87199970Y-96924915D01*
G37*
D16*
X89017235Y-96663285D03*
D11*
G36*
X87694945Y-97419889D02*
X89773839Y-95340995D01*
X90339525Y-95906681D01*
X88260631Y-97985575D01*
X87694945Y-97419889D01*
X87694945Y-97419889D01*
G37*
D16*
X89512210Y-97158260D03*
D11*
G36*
X88189920Y-97914864D02*
X90268814Y-95835970D01*
X90834500Y-96401656D01*
X88755606Y-98480550D01*
X88189920Y-97914864D01*
X88189920Y-97914864D01*
G37*
D16*
X90007184Y-97653235D03*
D11*
G36*
X88684894Y-98409839D02*
X90763788Y-96330945D01*
X91329474Y-96896631D01*
X89250580Y-98975525D01*
X88684894Y-98409839D01*
X88684894Y-98409839D01*
G37*
D16*
X90502159Y-98148210D03*
D11*
G36*
X89179869Y-98904814D02*
X91258763Y-96825920D01*
X91824449Y-97391606D01*
X89745555Y-99470500D01*
X89179869Y-98904814D01*
X89179869Y-98904814D01*
G37*
D16*
X90997134Y-98643184D03*
D11*
G36*
X89674844Y-99399788D02*
X91753738Y-97320894D01*
X92319424Y-97886580D01*
X90240530Y-99965474D01*
X89674844Y-99399788D01*
X89674844Y-99399788D01*
G37*
D16*
X91492109Y-99138159D03*
D11*
G36*
X90169819Y-99894763D02*
X92248713Y-97815869D01*
X92814399Y-98381555D01*
X90735505Y-100460449D01*
X90169819Y-99894763D01*
X90169819Y-99894763D01*
G37*
D16*
X77137841Y-84783891D03*
D11*
G36*
X75815551Y-85540495D02*
X77894445Y-83461601D01*
X78460131Y-84027287D01*
X76381237Y-86106181D01*
X75815551Y-85540495D01*
X75815551Y-85540495D01*
G37*
D16*
X77632816Y-85278866D03*
D11*
G36*
X76310526Y-86035470D02*
X78389420Y-83956576D01*
X78955106Y-84522262D01*
X76876212Y-86601156D01*
X76310526Y-86035470D01*
X76310526Y-86035470D01*
G37*
D16*
X78127790Y-85773841D03*
D11*
G36*
X76805500Y-86530445D02*
X78884394Y-84451551D01*
X79450080Y-85017237D01*
X77371186Y-87096131D01*
X76805500Y-86530445D01*
X76805500Y-86530445D01*
G37*
D16*
X78622765Y-86268816D03*
D11*
G36*
X77300475Y-87025420D02*
X79379369Y-84946526D01*
X79945055Y-85512212D01*
X77866161Y-87591106D01*
X77300475Y-87025420D01*
X77300475Y-87025420D01*
G37*
D16*
X79117740Y-86763790D03*
D11*
G36*
X77795450Y-87520394D02*
X79874344Y-85441500D01*
X80440030Y-86007186D01*
X78361136Y-88086080D01*
X77795450Y-87520394D01*
X77795450Y-87520394D01*
G37*
D16*
X79612715Y-87258765D03*
D11*
G36*
X78290425Y-88015369D02*
X80369319Y-85936475D01*
X80935005Y-86502161D01*
X78856111Y-88581055D01*
X78290425Y-88015369D01*
X78290425Y-88015369D01*
G37*
D16*
X80107689Y-87753740D03*
D11*
G36*
X78785399Y-88510344D02*
X80864293Y-86431450D01*
X81429979Y-86997136D01*
X79351085Y-89076030D01*
X78785399Y-88510344D01*
X78785399Y-88510344D01*
G37*
D16*
X80602664Y-88248715D03*
D11*
G36*
X79280374Y-89005319D02*
X81359268Y-86926425D01*
X81924954Y-87492111D01*
X79846060Y-89571005D01*
X79280374Y-89005319D01*
X79280374Y-89005319D01*
G37*
D16*
X81097639Y-88743689D03*
D11*
G36*
X79775349Y-89500293D02*
X81854243Y-87421399D01*
X82419929Y-87987085D01*
X80341035Y-90065979D01*
X79775349Y-89500293D01*
X79775349Y-89500293D01*
G37*
D16*
X81592614Y-89238664D03*
D11*
G36*
X80270324Y-89995268D02*
X82349218Y-87916374D01*
X82914904Y-88482060D01*
X80836010Y-90560954D01*
X80270324Y-89995268D01*
X80270324Y-89995268D01*
G37*
D16*
X82087588Y-89733639D03*
D11*
G36*
X80765298Y-90490243D02*
X82844192Y-88411349D01*
X83409878Y-88977035D01*
X81330984Y-91055929D01*
X80765298Y-90490243D01*
X80765298Y-90490243D01*
G37*
D16*
X82582563Y-90228614D03*
D11*
G36*
X81260273Y-90985218D02*
X83339167Y-88906324D01*
X83904853Y-89472010D01*
X81825959Y-91550904D01*
X81260273Y-90985218D01*
X81260273Y-90985218D01*
G37*
D16*
X83077538Y-90723588D03*
D11*
G36*
X81755248Y-91480192D02*
X83834142Y-89401298D01*
X84399828Y-89966984D01*
X82320934Y-92045878D01*
X81755248Y-91480192D01*
X81755248Y-91480192D01*
G37*
D16*
X83572513Y-91218563D03*
D11*
G36*
X82250223Y-91975167D02*
X84329117Y-89896273D01*
X84894803Y-90461959D01*
X82815909Y-92540853D01*
X82250223Y-91975167D01*
X82250223Y-91975167D01*
G37*
D16*
X84067487Y-91713538D03*
D11*
G36*
X82745197Y-92470142D02*
X84824091Y-90391248D01*
X85389777Y-90956934D01*
X83310883Y-93035828D01*
X82745197Y-92470142D01*
X82745197Y-92470142D01*
G37*
M02*
