M48
;DRILL file {KiCad (2017-07-14 revision d3b382c)-master} date Monday, July 17, 2017 'AMt' 01:29:45 AM
;FORMAT={-:-/ absolute / inch / decimal}
FMAT,2
INCH,TZ
T1C0.016
T2C0.026
T3C0.028
T4C0.039
%
G90
G05
M72
T1
X2.5669Y-3.9705
X2.6102Y-4.5354
X2.7283Y-4.2835
X3.2835Y-3.7126
X3.4882Y-4.7165
X3.5079Y-3.5551
X3.5098Y-3.9265
X3.5315Y-3.6535
X3.5796Y-4.6713
X3.6063Y-4.5787
X3.6258Y-4.7894
X3.6299Y-4.4587
X3.6417Y-4.6299
X3.685Y-3.372
X3.6909Y-3.2441
X3.6909Y-3.7441
X3.7047Y-3.4823
X3.7155Y-2.9977
X3.7757Y-4.815
X3.8504Y-4.1142
X3.8506Y-4.5512
X3.8754Y-4.502
X3.8778Y-4.7289
X3.8975Y-4.7618
X3.8976Y-5.0512
X3.9154Y-4.815
X3.9213Y-3.5098
X3.937Y-4.5197
X3.9429Y-5.0276
X3.9508Y-4.6181
X3.9529Y-4.4862
X3.9665Y-4.9941
X3.9883Y-4.9685
X3.9921Y-3.248
X4.0138Y-2.7303
X4.0138Y-4.7244
X4.0256Y-4.6476
X4.0354Y-4.055
X4.0453Y-4.7382
X4.0492Y-4.7697
X4.0512Y-3.3071
X4.0807Y-4.2579
X4.0807Y-4.6772
X4.1102Y-3.3701
X4.1201Y-4.813
X4.1339Y-2.3622
X4.1378Y-4.9606
X4.1594Y-4.3051
X4.1693Y-4.2087
X4.1831Y-4.065
X4.1909Y-4.4843
X4.2146Y-4.9016
X4.2343Y-4.7972
X4.25Y-3.811
X4.2598Y-4.4429
X4.2756Y-4.0945
X4.2795Y-4.4035
X4.2987Y-4.2546
X4.3091Y-3.9921
X4.311Y-4.2815
X4.3248Y-4.0217
X4.3484Y-3.9528
X4.3543Y-4.7933
X4.3898Y-5.3248
X4.4508Y-4.1732
X4.8701Y-2.7598
X4.8917Y-4.9016
X4.9488Y-4.1535
X4.9606Y-3.1496
X5.3514Y-3.2412
X5.4134Y-3.8051
X5.4409Y-2.6693
X5.4843Y-3.4783
T4
X4.42Y-5.14
X4.4907Y-5.0693
X4.68Y-4.88
X4.7507Y-4.8093
X5.3986Y-4.0014
X5.4693Y-3.9307
X5.54Y-3.86
X5.6107Y-3.7893
X3.8693Y-5.5307
X3.94Y-5.46
X4.0107Y-5.3893
X4.0814Y-5.3186
X3.1186Y-4.4186
X3.1893Y-4.3479
X3.1893Y-4.4893
X3.26Y-4.4186
X3.26Y-4.56
X3.3307Y-4.4893
X3.3307Y-4.6307
X3.4014Y-4.56
X4.36Y-3.56
X4.36Y-3.66
X4.36Y-3.76
X4.36Y-3.86
X4.46Y-3.56
X4.46Y-3.66
X4.46Y-3.76
X4.46Y-3.86
X3.3186Y-4.2186
X3.3893Y-4.1479
X3.3893Y-4.2893
X3.46Y-4.2186
X3.46Y-4.36
X3.5307Y-4.2893
X3.5307Y-4.4307
X3.6014Y-4.36
X3.8386Y-4.0014
X3.9093Y-3.9307
X3.98Y-3.86
X4.0507Y-3.7893
T2
X4.9907Y-4.2534G85X4.9795Y-4.2423
G05
X5.1254Y-4.1187G85X5.1143Y-4.1075
G05
T3
X5.067Y-4.347G85X5.053Y-4.333
G05
X5.219Y-4.195G85X5.205Y-4.181
G05
T0
M30
