G04 #@! TF.GenerationSoftware,KiCad,Pcbnew,(2017-07-14 revision d3b382c)-master*
G04 #@! TF.CreationDate,2017-07-17T01:29:14+02:00*
G04 #@! TF.ProjectId,Bornhack Make Tradition Badge,426F726E6861636B204D616B65205472,rev?*
G04 #@! TF.SameCoordinates,Original
G04 #@! TF.FileFunction,Copper,L2,Bot,Signal*
G04 #@! TF.FilePolarity,Positive*
%FSLAX46Y46*%
G04 Gerber Fmt 4.6, Leading zero omitted, Abs format (unit mm)*
G04 Created by KiCad (PCBNEW (2017-07-14 revision d3b382c)-master) date Monday, July 17, 2017 'AMt' 01:29:14 AM*
%MOMM*%
%LPD*%
G01*
G04 APERTURE LIST*
%ADD10C,2.540000*%
%ADD11C,0.100000*%
%ADD12C,17.780000*%
%ADD13C,3.960000*%
%ADD14C,2.340000*%
%ADD15C,1.700000*%
%ADD16C,1.700000*%
%ADD17R,1.700000X1.700000*%
%ADD18O,1.700000X1.700000*%
%ADD19C,1.200000*%
%ADD20C,1.200000*%
%ADD21C,1.100000*%
%ADD22C,1.100000*%
%ADD23C,0.600000*%
%ADD24C,0.635000*%
%ADD25C,0.203200*%
%ADD26C,0.254000*%
G04 APERTURE END LIST*
D10*
X74122231Y-142702231D03*
D11*
G36*
X76816308Y-141804205D02*
X73224205Y-145396308D01*
X71428154Y-143600257D01*
X75020257Y-140008154D01*
X76816308Y-141804205D01*
X76816308Y-141804205D01*
G37*
D10*
X57957769Y-126537769D03*
D11*
G36*
X60651846Y-125639743D02*
X57059743Y-129231846D01*
X55263692Y-127435795D01*
X58855795Y-123843692D01*
X60651846Y-125639743D01*
X60651846Y-125639743D01*
G37*
D12*
X66040000Y-134620000D03*
D13*
X93300000Y-134000000D03*
D11*
G36*
X96496123Y-134395980D02*
X93695980Y-137196123D01*
X90103877Y-133604020D01*
X92904020Y-130803877D01*
X96496123Y-134395980D01*
X96496123Y-134395980D01*
G37*
D13*
X109931152Y-117368848D03*
D11*
G36*
X113127275Y-117764828D02*
X110327132Y-120564971D01*
X106735029Y-116972868D01*
X109535172Y-114172725D01*
X113127275Y-117764828D01*
X113127275Y-117764828D01*
G37*
D14*
X84051044Y-143248956D03*
D11*
G36*
X86278430Y-142676200D02*
X83478288Y-145476342D01*
X81823658Y-143821712D01*
X84623800Y-141021570D01*
X86278430Y-142676200D01*
X86278430Y-142676200D01*
G37*
D14*
X119180108Y-108119892D03*
D11*
G36*
X121407494Y-107547136D02*
X118607352Y-110347278D01*
X116952722Y-108692648D01*
X119752864Y-105892506D01*
X121407494Y-107547136D01*
X121407494Y-107547136D01*
G37*
D14*
X91732532Y-80479468D03*
D11*
G36*
X93959918Y-79906712D02*
X91159776Y-82706854D01*
X89505146Y-81052224D01*
X92305288Y-78252082D01*
X93959918Y-79906712D01*
X93959918Y-79906712D01*
G37*
D14*
X56603468Y-115608532D03*
D11*
G36*
X58830854Y-115035776D02*
X56030712Y-117835918D01*
X54376082Y-116181288D01*
X57176224Y-113381146D01*
X58830854Y-115035776D01*
X58830854Y-115035776D01*
G37*
D13*
X82483576Y-89728424D03*
D11*
G36*
X85679699Y-90124404D02*
X82879556Y-92924547D01*
X79287453Y-89332444D01*
X82087596Y-86532301D01*
X85679699Y-90124404D01*
X85679699Y-90124404D01*
G37*
D13*
X65852424Y-106359576D03*
D11*
G36*
X69048547Y-106755556D02*
X66248404Y-109555699D01*
X62656301Y-105963596D01*
X65456444Y-103163453D01*
X69048547Y-106755556D01*
X69048547Y-106755556D01*
G37*
D15*
X86396103Y-115824000D03*
D16*
X86396103Y-115824000D02*
X86396103Y-115824000D01*
D15*
X84600052Y-117620052D03*
D16*
X84600052Y-117620052D02*
X84600052Y-117620052D01*
D15*
X84600052Y-114027949D03*
D16*
X84600052Y-114027949D02*
X84600052Y-114027949D01*
D15*
X82804000Y-115824000D03*
D16*
X82804000Y-115824000D02*
X82804000Y-115824000D01*
D15*
X82804000Y-112231898D03*
D16*
X82804000Y-112231898D02*
X82804000Y-112231898D01*
D15*
X81007949Y-114027949D03*
D16*
X81007949Y-114027949D02*
X81007949Y-114027949D01*
D15*
X81007949Y-110435847D03*
D16*
X81007949Y-110435847D02*
X81007949Y-110435847D01*
D15*
X79211898Y-112231898D03*
D11*
G36*
X79211898Y-113433980D02*
X78009816Y-112231898D01*
X79211898Y-111029816D01*
X80413980Y-112231898D01*
X79211898Y-113433980D01*
X79211898Y-113433980D01*
G37*
D17*
X110744000Y-90424000D03*
D18*
X113284000Y-90424000D03*
X110744000Y-92964000D03*
X113284000Y-92964000D03*
X110744000Y-95504000D03*
X113284000Y-95504000D03*
X110744000Y-98044000D03*
X113284000Y-98044000D03*
D15*
X91476103Y-110744000D03*
D16*
X91476103Y-110744000D02*
X91476103Y-110744000D01*
D15*
X89680052Y-112540052D03*
D16*
X89680052Y-112540052D02*
X89680052Y-112540052D01*
D15*
X89680052Y-108947949D03*
D16*
X89680052Y-108947949D02*
X89680052Y-108947949D01*
D15*
X87884000Y-110744000D03*
D16*
X87884000Y-110744000D02*
X87884000Y-110744000D01*
D15*
X87884000Y-107151898D03*
D16*
X87884000Y-107151898D02*
X87884000Y-107151898D01*
D15*
X86087949Y-108947949D03*
D16*
X86087949Y-108947949D02*
X86087949Y-108947949D01*
D15*
X86087949Y-105355847D03*
D16*
X86087949Y-105355847D02*
X86087949Y-105355847D01*
D15*
X84291898Y-107151898D03*
D11*
G36*
X84291898Y-108353980D02*
X83089816Y-107151898D01*
X84291898Y-105949816D01*
X85493980Y-107151898D01*
X84291898Y-108353980D01*
X84291898Y-108353980D01*
G37*
D15*
X114064051Y-128759949D03*
D16*
X114064051Y-128759949D02*
X114064051Y-128759949D01*
D15*
X112268000Y-130556000D03*
D11*
G36*
X113470082Y-130556000D02*
X112268000Y-131758082D01*
X111065918Y-130556000D01*
X112268000Y-129353918D01*
X113470082Y-130556000D01*
X113470082Y-130556000D01*
G37*
D15*
X118872000Y-123952000D03*
D11*
G36*
X120074082Y-123952000D02*
X118872000Y-125154082D01*
X117669918Y-123952000D01*
X118872000Y-122749918D01*
X120074082Y-123952000D01*
X120074082Y-123952000D01*
G37*
D15*
X120668051Y-122155949D03*
D16*
X120668051Y-122155949D02*
X120668051Y-122155949D01*
D19*
X132384803Y-106375197D03*
D20*
X132561580Y-106551974D02*
X132208026Y-106198420D01*
D19*
X128524000Y-110236000D03*
D20*
X128700777Y-110412777D02*
X128347223Y-110059223D01*
D21*
X130044279Y-104473080D03*
D22*
X130185700Y-104614501D02*
X129902858Y-104331659D01*
D21*
X126621883Y-107895476D03*
D22*
X126763304Y-108036897D02*
X126480462Y-107754055D01*
D15*
X137123898Y-101636102D03*
D11*
G36*
X138325980Y-101636102D02*
X137123898Y-102838184D01*
X135921816Y-101636102D01*
X137123898Y-100434020D01*
X138325980Y-101636102D01*
X138325980Y-101636102D01*
G37*
D15*
X138919949Y-99840051D03*
D16*
X138919949Y-99840051D02*
X138919949Y-99840051D01*
D15*
X140716000Y-98044000D03*
D16*
X140716000Y-98044000D02*
X140716000Y-98044000D01*
D15*
X142512052Y-96247948D03*
D16*
X142512052Y-96247948D02*
X142512052Y-96247948D01*
D15*
X103668103Y-135091897D03*
D16*
X103668103Y-135091897D02*
X103668103Y-135091897D01*
D15*
X101872051Y-136887949D03*
D16*
X101872051Y-136887949D02*
X101872051Y-136887949D01*
D15*
X100076000Y-138684000D03*
D16*
X100076000Y-138684000D02*
X100076000Y-138684000D01*
D15*
X98279949Y-140480051D03*
D11*
G36*
X99482031Y-140480051D02*
X98279949Y-141682133D01*
X97077867Y-140480051D01*
X98279949Y-139277969D01*
X99482031Y-140480051D01*
X99482031Y-140480051D01*
G37*
D15*
X102888052Y-96247948D03*
D16*
X102888052Y-96247948D02*
X102888052Y-96247948D01*
D15*
X101092000Y-98044000D03*
D16*
X101092000Y-98044000D02*
X101092000Y-98044000D01*
D15*
X99295949Y-99840051D03*
D16*
X99295949Y-99840051D02*
X99295949Y-99840051D01*
D15*
X97499898Y-101636102D03*
D11*
G36*
X98701980Y-101636102D02*
X97499898Y-102838184D01*
X96297816Y-101636102D01*
X97499898Y-100434020D01*
X98701980Y-101636102D01*
X98701980Y-101636102D01*
G37*
D23*
X111500000Y-135250000D03*
X124250000Y-124500000D03*
X93750000Y-95100000D03*
X99600000Y-89150000D03*
X93750000Y-82400000D03*
X110450000Y-100400000D03*
X107950000Y-96800000D03*
X106250000Y-103250000D03*
X69300000Y-108800000D03*
X65200000Y-100850000D03*
X105100000Y-126000000D03*
X107050000Y-124500000D03*
X102250000Y-118050000D03*
X137500000Y-96650000D03*
X139300000Y-88350000D03*
X89700000Y-92800000D03*
X94100000Y-88450000D03*
X93600000Y-85650000D03*
X89100000Y-90300000D03*
X106450000Y-113900000D03*
X101304010Y-126200000D03*
X110600000Y-121750000D03*
X94374872Y-76141639D03*
X102500157Y-102995990D03*
X100404010Y-113950394D03*
X98495990Y-120114961D03*
X89147826Y-99732645D03*
X83400000Y-94300000D03*
X104400000Y-85600000D03*
X102900000Y-84000000D03*
X101400000Y-82500000D03*
X66300000Y-115200000D03*
X126000000Y-80000000D03*
X135926000Y-82326000D03*
X123700000Y-70100000D03*
X138200000Y-67800000D03*
X105000000Y-60000000D03*
X90922093Y-118650000D03*
X105900000Y-106900000D03*
X105650000Y-109350000D03*
X103650000Y-108150000D03*
X103650000Y-118800000D03*
X97804010Y-115600000D03*
X97800000Y-104500000D03*
X98434768Y-114349996D03*
X92095990Y-121650000D03*
X88599994Y-119800000D03*
X98995990Y-120950000D03*
X99450000Y-122300000D03*
X109450000Y-101400002D03*
X104650000Y-122250000D03*
X109850000Y-102149996D03*
X107550000Y-121850000D03*
X100000000Y-114800000D03*
X100350000Y-117300000D03*
X101950000Y-120000000D03*
X92500000Y-117600000D03*
X99000000Y-128300000D03*
X102750000Y-120350000D03*
X91600000Y-116300000D03*
X100150000Y-127700000D03*
X92200002Y-113250000D03*
X102850000Y-121150000D03*
X100750000Y-126850000D03*
X113050000Y-106000000D03*
X109500000Y-108750000D03*
X108700000Y-111849998D03*
X109186292Y-108066106D03*
X108199998Y-112850000D03*
X108600000Y-104000000D03*
X125700000Y-105500000D03*
X95904010Y-122300000D03*
X101950000Y-69350000D03*
D24*
X74122231Y-142702231D02*
X78620000Y-147200000D01*
X78620000Y-147200000D02*
X91550000Y-147200000D01*
X91550000Y-147200000D02*
X95500000Y-143250000D01*
X95500000Y-143250000D02*
X99574000Y-143250000D01*
X99574000Y-143250000D02*
X111596249Y-131227751D01*
X111596249Y-131227751D02*
X112268000Y-130556000D01*
X72255470Y-144568992D02*
X74122231Y-142702231D01*
X62136338Y-144568992D02*
X72255470Y-144568992D01*
X56091008Y-138523662D02*
X62136338Y-144568992D01*
X56091008Y-128404530D02*
X56091008Y-138523662D01*
X57957769Y-126537769D02*
X56091008Y-128404530D01*
X93300000Y-134000000D02*
X72000000Y-112700000D01*
X72000000Y-112700000D02*
X72000000Y-100212000D01*
X72000000Y-100212000D02*
X82483576Y-89728424D01*
X93300000Y-134000000D02*
X84051044Y-143248956D01*
X91732532Y-80479468D02*
X82483576Y-89728424D01*
X109931152Y-117368848D02*
X116514304Y-123952000D01*
X116514304Y-123952000D02*
X118872000Y-123952000D01*
X119180108Y-108119892D02*
X117709327Y-109590673D01*
X117709327Y-109590673D02*
X109931152Y-117368848D01*
D25*
X90622094Y-118350001D02*
X90922093Y-118650000D01*
X82707940Y-110435847D02*
X90622094Y-118350001D01*
X81007949Y-110435847D02*
X82707940Y-110435847D01*
X105650000Y-107150000D02*
X105900000Y-106900000D01*
X105650000Y-109350000D02*
X105650000Y-107150000D01*
X142512052Y-96247948D02*
X142447948Y-96247948D01*
X142447948Y-96247948D02*
X136624000Y-90424000D01*
X136624000Y-90424000D02*
X113284000Y-90424000D01*
X103650000Y-118800000D02*
X103650000Y-108150000D01*
X108899999Y-103700001D02*
X108600000Y-104000000D01*
X108971510Y-103628490D02*
X108899999Y-103700001D01*
X123828490Y-103628490D02*
X108971510Y-103628490D01*
X125700000Y-105500000D02*
X123828490Y-103628490D01*
X97800000Y-115595990D02*
X97804010Y-115600000D01*
X97800000Y-104500000D02*
X97800000Y-115595990D01*
X99295949Y-99840051D02*
X99295949Y-102804051D01*
X98434768Y-103665232D02*
X98434768Y-113925732D01*
X99295949Y-102804051D02*
X98434768Y-103665232D01*
X98434768Y-113925732D02*
X98434768Y-114349996D01*
X92095990Y-121523887D02*
X92095990Y-121650000D01*
X86396103Y-115824000D02*
X92095990Y-121523887D01*
X88299995Y-119500001D02*
X88599994Y-119800000D01*
X84600052Y-115800058D02*
X88299995Y-119500001D01*
X84600052Y-114027949D02*
X84600052Y-115800058D01*
X110744000Y-92964000D02*
X110708000Y-93000000D01*
X110708000Y-93000000D02*
X109644182Y-93000000D01*
X109644182Y-93000000D02*
X99050000Y-103594182D01*
X99050000Y-103594182D02*
X99050000Y-113344182D01*
X99050000Y-113344182D02*
X98988779Y-113405403D01*
X98988779Y-113405403D02*
X98988779Y-114794597D01*
X98988779Y-114794597D02*
X99050000Y-114855818D01*
X99050000Y-114855818D02*
X99050000Y-120471726D01*
X99050000Y-120471726D02*
X98995990Y-120525736D01*
X98995990Y-120525736D02*
X98995990Y-120950000D01*
X99450000Y-122300000D02*
X99749999Y-122000001D01*
X111998000Y-94250000D02*
X112434001Y-93813999D01*
X99749999Y-122000001D02*
X99749999Y-115369921D01*
X108897091Y-94250000D02*
X111998000Y-94250000D01*
X99749999Y-115369921D02*
X99444389Y-115064311D01*
X99444389Y-115064311D02*
X99444389Y-103702702D01*
X99444389Y-103702702D02*
X108897091Y-94250000D01*
X112434001Y-93813999D02*
X113284000Y-92964000D01*
X104650000Y-122250000D02*
X104350001Y-121950001D01*
X104350001Y-121950001D02*
X104350001Y-106500001D01*
X104350001Y-106500001D02*
X109150001Y-101700001D01*
X109150001Y-101700001D02*
X109450000Y-101400002D01*
X106600000Y-109400000D02*
X106600000Y-104975732D01*
X106600000Y-104975732D02*
X109425736Y-102149996D01*
X107550000Y-121850000D02*
X104800000Y-119100000D01*
X104800000Y-119100000D02*
X104800000Y-111200000D01*
X104800000Y-111200000D02*
X106600000Y-109400000D01*
X109425736Y-102149996D02*
X109850000Y-102149996D01*
X109541919Y-98044000D02*
X110744000Y-98044000D01*
X100000000Y-114375736D02*
X99850000Y-114225736D01*
X100000000Y-114800000D02*
X100000000Y-114375736D01*
X105606000Y-98044000D02*
X109541919Y-98044000D01*
X99850000Y-114225736D02*
X99850000Y-103800000D01*
X99850000Y-103800000D02*
X105606000Y-98044000D01*
X113284000Y-98044000D02*
X111928000Y-99400000D01*
X111928000Y-99400000D02*
X108500000Y-99400000D01*
X108500000Y-99400000D02*
X101800000Y-106100000D01*
X101800000Y-106100000D02*
X101800000Y-116274264D01*
X101800000Y-116274264D02*
X100774264Y-117300000D01*
X100774264Y-117300000D02*
X100350000Y-117300000D01*
X101950000Y-120000000D02*
X101600000Y-120350000D01*
X101600000Y-122300000D02*
X100211223Y-123688777D01*
X101600000Y-120350000D02*
X101600000Y-122300000D01*
X95322444Y-122566627D02*
X95322444Y-114972444D01*
X95322444Y-114972444D02*
X92550000Y-112200000D01*
X92550000Y-111817897D02*
X91476103Y-110744000D01*
X100211223Y-123688777D02*
X96444593Y-123688777D01*
X96444593Y-123688777D02*
X95322444Y-122566627D01*
X92550000Y-112200000D02*
X92550000Y-111817897D01*
X93150000Y-118650000D02*
X93150000Y-118250000D01*
X93150000Y-118250000D02*
X92500000Y-117600000D01*
X93150000Y-123900000D02*
X93150000Y-118650000D01*
X97550000Y-128300000D02*
X93150000Y-123900000D01*
X99000000Y-128300000D02*
X97550000Y-128300000D01*
X102750000Y-120350000D02*
X101955611Y-121144389D01*
X101955611Y-121144389D02*
X101955611Y-122447298D01*
X101955611Y-122447298D02*
X100358521Y-124044388D01*
X94966833Y-122713925D02*
X94966833Y-115166833D01*
X100358521Y-124044388D02*
X96297294Y-124044387D01*
X96297294Y-124044387D02*
X94966833Y-122713925D01*
X94966833Y-115166833D02*
X92300000Y-112500000D01*
X92300000Y-112500000D02*
X91450000Y-112500000D01*
X91450000Y-112500000D02*
X89680052Y-110730052D01*
X89680052Y-110730052D02*
X89680052Y-110150030D01*
X89680052Y-110150030D02*
X89680052Y-108947949D01*
X93900000Y-123900000D02*
X93900000Y-116900000D01*
X93900000Y-116900000D02*
X93300000Y-116300000D01*
X100150000Y-127700000D02*
X97700000Y-127700000D01*
X97700000Y-127700000D02*
X93900000Y-123900000D01*
X93300000Y-116300000D02*
X91600000Y-116300000D01*
X92500001Y-113549999D02*
X92200002Y-113250000D01*
X94611222Y-115661220D02*
X92500001Y-113549999D01*
X94611222Y-122861224D02*
X94611222Y-115661220D01*
X96149997Y-124399999D02*
X94611222Y-122861224D01*
X100505820Y-124399997D02*
X96149997Y-124399999D01*
X102850000Y-122055817D02*
X100505820Y-124399997D01*
X102850000Y-121150000D02*
X102850000Y-122055817D01*
X100750000Y-126850000D02*
X97500000Y-126850000D01*
X97500000Y-126850000D02*
X94255611Y-123605611D01*
X94255611Y-123605611D02*
X94255611Y-115855611D01*
X94255611Y-115855611D02*
X92500000Y-114100000D01*
X92500000Y-114100000D02*
X89400000Y-114100000D01*
X89400000Y-114100000D02*
X86087949Y-110787949D01*
X86087949Y-110787949D02*
X86087949Y-110150030D01*
X86087949Y-110150030D02*
X86087949Y-108947949D01*
D24*
X120668051Y-122155949D02*
X123000000Y-119824000D01*
X123000000Y-119824000D02*
X123000000Y-106700000D01*
X123000000Y-106700000D02*
X120500000Y-104200000D01*
X114850000Y-104200000D02*
X113349999Y-105700001D01*
X120500000Y-104200000D02*
X114850000Y-104200000D01*
X113349999Y-105700001D02*
X113050000Y-106000000D01*
D25*
X108700000Y-111849998D02*
X108700000Y-110100000D01*
X108700000Y-110100000D02*
X109500000Y-109300000D01*
X109500000Y-109300000D02*
X109500000Y-109174264D01*
X109500000Y-109174264D02*
X109500000Y-108750000D01*
X108199998Y-112850000D02*
X107899999Y-112550001D01*
X107899999Y-112550001D02*
X107899999Y-109352399D01*
X107899999Y-109352399D02*
X108886293Y-108366105D01*
X108886293Y-108366105D02*
X109186292Y-108066106D01*
D24*
X120668051Y-123358030D02*
X120668051Y-122155949D01*
X120668051Y-124931949D02*
X120668051Y-123358030D01*
X116840051Y-128759949D02*
X120668051Y-124931949D01*
X114064051Y-128759949D02*
X116840051Y-128759949D01*
D25*
X95904010Y-121875736D02*
X95904010Y-122300000D01*
X95904010Y-75395990D02*
X95904010Y-121875736D01*
X101950000Y-69350000D02*
X95904010Y-75395990D01*
D26*
G36*
X146717546Y-50853475D02*
X148173612Y-51826388D01*
X149146525Y-53282454D01*
X149498000Y-55049441D01*
X149498000Y-91792065D01*
X124445032Y-116845032D01*
X124402912Y-116908070D01*
X124355313Y-116967068D01*
X124348878Y-116988936D01*
X124336212Y-117007893D01*
X124321421Y-117082253D01*
X124300023Y-117154974D01*
X124302447Y-117177639D01*
X124297999Y-117200000D01*
X124312790Y-117274360D01*
X124320851Y-117349734D01*
X124331764Y-117369747D01*
X124336212Y-117392107D01*
X124378332Y-117455145D01*
X124414625Y-117521699D01*
X124432366Y-117536012D01*
X124445032Y-117554968D01*
X124508070Y-117597088D01*
X124567068Y-117644687D01*
X126405265Y-118607552D01*
X126589057Y-126234914D01*
X125048832Y-126721302D01*
X124979909Y-126759154D01*
X124908218Y-126791505D01*
X124894591Y-126806010D01*
X124877149Y-126815589D01*
X124827954Y-126876941D01*
X124774105Y-126934260D01*
X124767066Y-126952875D01*
X124754617Y-126968401D01*
X124732644Y-127043912D01*
X124704830Y-127117471D01*
X124577138Y-127883626D01*
X122016724Y-127798279D01*
X121936083Y-127811543D01*
X121854726Y-127819479D01*
X121839961Y-127827353D01*
X121823451Y-127830069D01*
X121754016Y-127873189D01*
X121681897Y-127911651D01*
X121671270Y-127924575D01*
X121657055Y-127933403D01*
X121609404Y-127999816D01*
X121557497Y-128062945D01*
X120199432Y-130598000D01*
X119800000Y-130598000D01*
X119704543Y-130616987D01*
X119608863Y-130635811D01*
X119608417Y-130636108D01*
X119607893Y-130636212D01*
X119527056Y-130690225D01*
X119445775Y-130744290D01*
X119445476Y-130744735D01*
X119445032Y-130745032D01*
X119390964Y-130825950D01*
X119336615Y-130906923D01*
X118367163Y-133233608D01*
X116151525Y-135818519D01*
X113054551Y-136100062D01*
X112982046Y-136121462D01*
X112907892Y-136136212D01*
X112888759Y-136148996D01*
X112866693Y-136155509D01*
X112807894Y-136203029D01*
X112745032Y-136245032D01*
X110899284Y-138090780D01*
X108217300Y-137998298D01*
X108208623Y-137999715D01*
X108200000Y-137998000D01*
X108112272Y-138015450D01*
X108023990Y-138029867D01*
X108016516Y-138034497D01*
X108007892Y-138036212D01*
X107933520Y-138085906D01*
X107857476Y-138133010D01*
X107852341Y-138140149D01*
X107845032Y-138145033D01*
X107066823Y-138923241D01*
X104837735Y-139201877D01*
X104794316Y-139216299D01*
X104748832Y-139221301D01*
X104702267Y-139246874D01*
X104651851Y-139263621D01*
X104617251Y-139293566D01*
X104577149Y-139315590D01*
X104543918Y-139357033D01*
X104503745Y-139391801D01*
X104483238Y-139432707D01*
X104454617Y-139468401D01*
X101978825Y-144229539D01*
X96646520Y-144800857D01*
X96578155Y-144822236D01*
X96507893Y-144836212D01*
X96485399Y-144851242D01*
X96459577Y-144859317D01*
X96404590Y-144905237D01*
X96345033Y-144945032D01*
X91792064Y-149498000D01*
X55049441Y-149498000D01*
X53282454Y-149146525D01*
X51826388Y-148173612D01*
X50853475Y-146717546D01*
X50502000Y-144950559D01*
X50502000Y-127435795D01*
X54828327Y-127435795D01*
X54861467Y-127602402D01*
X54955842Y-127743645D01*
X55391340Y-128179143D01*
X55346508Y-128404530D01*
X55346508Y-138523662D01*
X55403180Y-138808570D01*
X55509033Y-138966990D01*
X55564567Y-139050103D01*
X61609897Y-145095433D01*
X61851430Y-145256820D01*
X62136338Y-145313492D01*
X72255470Y-145313492D01*
X72480857Y-145268660D01*
X72916355Y-145704158D01*
X73057598Y-145798533D01*
X73224205Y-145831673D01*
X73390812Y-145798533D01*
X73532055Y-145704158D01*
X74801666Y-144434548D01*
X78093559Y-147726441D01*
X78335092Y-147887828D01*
X78620000Y-147944500D01*
X91550000Y-147944500D01*
X91834908Y-147887828D01*
X92076441Y-147726441D01*
X95808382Y-143994500D01*
X99574000Y-143994500D01*
X99858908Y-143937828D01*
X100100441Y-143776441D01*
X111885550Y-131991332D01*
X111960150Y-132065932D01*
X112101393Y-132160307D01*
X112268000Y-132193447D01*
X112434607Y-132160307D01*
X112575850Y-132065932D01*
X113777932Y-130863850D01*
X113872307Y-130722607D01*
X113905447Y-130556000D01*
X113872307Y-130389393D01*
X113777932Y-130248150D01*
X113274088Y-129744306D01*
X113593055Y-129957433D01*
X114081741Y-130054639D01*
X114570428Y-129957433D01*
X114984716Y-129680614D01*
X115102426Y-129504449D01*
X116840051Y-129504449D01*
X117124959Y-129447777D01*
X117366492Y-129286390D01*
X121194492Y-125458390D01*
X121355880Y-125216856D01*
X121412551Y-124931949D01*
X121412551Y-123194324D01*
X121588716Y-123076614D01*
X121865535Y-122662326D01*
X121962741Y-122173639D01*
X121919687Y-121957195D01*
X123526441Y-120350441D01*
X123618710Y-120212350D01*
X123687828Y-120108908D01*
X123744500Y-119824000D01*
X123744500Y-111091279D01*
X127848326Y-111091279D01*
X127871652Y-111344709D01*
X128291400Y-111591063D01*
X128773473Y-111658033D01*
X129244478Y-111535423D01*
X129320098Y-111481265D01*
X129366681Y-111258286D01*
X128524000Y-110415605D01*
X127848326Y-111091279D01*
X123744500Y-111091279D01*
X123744500Y-109986527D01*
X127101967Y-109986527D01*
X127168937Y-110468600D01*
X127415291Y-110888348D01*
X127668721Y-110911674D01*
X128344395Y-110236000D01*
X128703605Y-110236000D01*
X129546286Y-111078681D01*
X129769265Y-111032098D01*
X129823423Y-110956478D01*
X129946033Y-110485473D01*
X129879063Y-110003400D01*
X129632709Y-109583652D01*
X129379279Y-109560326D01*
X128703605Y-110236000D01*
X128344395Y-110236000D01*
X127501714Y-109393319D01*
X127278735Y-109439902D01*
X127224577Y-109515522D01*
X127101967Y-109986527D01*
X123744500Y-109986527D01*
X123744500Y-108713703D01*
X125983261Y-108713703D01*
X126005429Y-108955827D01*
X126414778Y-109175904D01*
X126877187Y-109222577D01*
X126906660Y-109213714D01*
X127681319Y-109213714D01*
X128524000Y-110056395D01*
X129199674Y-109380721D01*
X129176348Y-109127291D01*
X128756600Y-108880937D01*
X128274527Y-108813967D01*
X127803522Y-108936577D01*
X127727902Y-108990735D01*
X127681319Y-109213714D01*
X126906660Y-109213714D01*
X127322258Y-109088741D01*
X127353073Y-109064710D01*
X127393592Y-108846790D01*
X126621883Y-108075081D01*
X125983261Y-108713703D01*
X123744500Y-108713703D01*
X123744500Y-107640172D01*
X125294782Y-107640172D01*
X125341455Y-108102581D01*
X125561532Y-108511930D01*
X125803656Y-108534098D01*
X126442278Y-107895476D01*
X126801488Y-107895476D01*
X127573197Y-108667185D01*
X127791117Y-108626666D01*
X127815148Y-108595851D01*
X127948984Y-108150780D01*
X127902311Y-107688371D01*
X127682234Y-107279022D01*
X127440110Y-107256854D01*
X126801488Y-107895476D01*
X126442278Y-107895476D01*
X125670569Y-107123767D01*
X125452649Y-107164286D01*
X125428618Y-107195101D01*
X125294782Y-107640172D01*
X123744500Y-107640172D01*
X123744500Y-106944162D01*
X125850174Y-106944162D01*
X126621883Y-107715871D01*
X127107278Y-107230476D01*
X131709129Y-107230476D01*
X131732455Y-107483906D01*
X132152203Y-107730260D01*
X132634276Y-107797230D01*
X133105281Y-107674620D01*
X133180901Y-107620462D01*
X133227484Y-107397483D01*
X132384803Y-106554802D01*
X131709129Y-107230476D01*
X127107278Y-107230476D01*
X127260505Y-107077249D01*
X127238337Y-106835125D01*
X126828988Y-106615048D01*
X126366579Y-106568375D01*
X125921508Y-106702211D01*
X125890693Y-106726242D01*
X125850174Y-106944162D01*
X123744500Y-106944162D01*
X123744500Y-106700000D01*
X123687828Y-106415092D01*
X123526441Y-106173559D01*
X121509972Y-104157090D01*
X123609536Y-104157090D01*
X124972982Y-105520536D01*
X124972874Y-105643975D01*
X125083320Y-105911275D01*
X125287650Y-106115961D01*
X125554756Y-106226874D01*
X125843975Y-106227126D01*
X126089386Y-106125724D01*
X130962770Y-106125724D01*
X131029740Y-106607797D01*
X131276094Y-107027545D01*
X131529524Y-107050871D01*
X132205198Y-106375197D01*
X132564408Y-106375197D01*
X133407089Y-107217878D01*
X133630068Y-107171295D01*
X133684226Y-107095675D01*
X133806836Y-106624670D01*
X133739866Y-106142597D01*
X133493512Y-105722849D01*
X133240082Y-105699523D01*
X132564408Y-106375197D01*
X132205198Y-106375197D01*
X131362517Y-105532516D01*
X131139538Y-105579099D01*
X131085380Y-105654719D01*
X130962770Y-106125724D01*
X126089386Y-106125724D01*
X126111275Y-106116680D01*
X126315961Y-105912350D01*
X126426874Y-105645244D01*
X126427126Y-105356025D01*
X126400386Y-105291307D01*
X129405657Y-105291307D01*
X129427825Y-105533431D01*
X129837174Y-105753508D01*
X130299583Y-105800181D01*
X130744654Y-105666345D01*
X130775469Y-105642314D01*
X130815988Y-105424394D01*
X130744505Y-105352911D01*
X131542122Y-105352911D01*
X132384803Y-106195592D01*
X133060477Y-105519918D01*
X133037151Y-105266488D01*
X132617403Y-105020134D01*
X132135330Y-104953164D01*
X131664325Y-105075774D01*
X131588705Y-105129932D01*
X131542122Y-105352911D01*
X130744505Y-105352911D01*
X130044279Y-104652685D01*
X129405657Y-105291307D01*
X126400386Y-105291307D01*
X126316680Y-105088725D01*
X126112350Y-104884039D01*
X125845244Y-104773126D01*
X125720571Y-104773017D01*
X125165330Y-104217776D01*
X128717178Y-104217776D01*
X128763851Y-104680185D01*
X128983928Y-105089534D01*
X129226052Y-105111702D01*
X129864674Y-104473080D01*
X130223884Y-104473080D01*
X130995593Y-105244789D01*
X131213513Y-105204270D01*
X131237544Y-105173455D01*
X131371380Y-104728384D01*
X131324707Y-104265975D01*
X131104630Y-103856626D01*
X130862506Y-103834458D01*
X130223884Y-104473080D01*
X129864674Y-104473080D01*
X129092965Y-103701371D01*
X128875045Y-103741890D01*
X128851014Y-103772705D01*
X128717178Y-104217776D01*
X125165330Y-104217776D01*
X124469320Y-103521766D01*
X129272570Y-103521766D01*
X130044279Y-104293475D01*
X130682901Y-103654853D01*
X130660733Y-103412729D01*
X130251384Y-103192652D01*
X129788975Y-103145979D01*
X129343904Y-103279815D01*
X129313089Y-103303846D01*
X129272570Y-103521766D01*
X124469320Y-103521766D01*
X124202267Y-103254713D01*
X124030777Y-103140127D01*
X123828490Y-103099889D01*
X123828485Y-103099890D01*
X109223396Y-103099890D01*
X109522214Y-102801072D01*
X109704756Y-102876870D01*
X109993975Y-102877122D01*
X110261275Y-102766676D01*
X110364425Y-102663705D01*
X136275900Y-102663705D01*
X136275900Y-102888211D01*
X136764199Y-103376510D01*
X136997588Y-103473183D01*
X137250207Y-103473184D01*
X137483596Y-103376511D01*
X137971896Y-102888211D01*
X137971896Y-102663705D01*
X137123898Y-101815707D01*
X136275900Y-102663705D01*
X110364425Y-102663705D01*
X110465961Y-102562346D01*
X110576874Y-102295240D01*
X110577126Y-102006021D01*
X110466680Y-101738721D01*
X110262350Y-101534035D01*
X110203970Y-101509793D01*
X135286816Y-101509793D01*
X135286817Y-101762412D01*
X135383490Y-101995801D01*
X135871789Y-102484100D01*
X136096295Y-102484100D01*
X136944293Y-101636102D01*
X136096295Y-100788104D01*
X135871789Y-100788104D01*
X135383489Y-101276404D01*
X135286816Y-101509793D01*
X110203970Y-101509793D01*
X110176915Y-101498559D01*
X110177126Y-101256027D01*
X110066680Y-100988727D01*
X109862350Y-100784041D01*
X109595244Y-100673128D01*
X109306025Y-100672876D01*
X109038725Y-100783322D01*
X108834039Y-100987652D01*
X108723126Y-101254758D01*
X108723017Y-101379431D01*
X103976224Y-106126224D01*
X103861638Y-106297714D01*
X103821400Y-106500001D01*
X103821401Y-106500006D01*
X103821401Y-107433987D01*
X103795244Y-107423126D01*
X103506025Y-107422874D01*
X103238725Y-107533320D01*
X103034039Y-107737650D01*
X102923126Y-108004756D01*
X102922874Y-108293975D01*
X103033320Y-108561275D01*
X103121400Y-108649508D01*
X103121400Y-118300441D01*
X103034039Y-118387650D01*
X102923126Y-118654756D01*
X102922874Y-118943975D01*
X103033320Y-119211275D01*
X103237650Y-119415961D01*
X103504756Y-119526874D01*
X103793975Y-119527126D01*
X103821401Y-119515794D01*
X103821401Y-121949996D01*
X103821400Y-121950001D01*
X103861638Y-122152288D01*
X103923005Y-122244130D01*
X103922874Y-122393975D01*
X104033320Y-122661275D01*
X104237650Y-122865961D01*
X104504756Y-122976874D01*
X104793975Y-122977126D01*
X105061275Y-122866680D01*
X105265961Y-122662350D01*
X105376874Y-122395244D01*
X105377126Y-122106025D01*
X105266680Y-121838725D01*
X105062350Y-121634039D01*
X104878601Y-121557739D01*
X104878601Y-119926155D01*
X106822982Y-121870535D01*
X106822874Y-121993975D01*
X106933320Y-122261275D01*
X107137650Y-122465961D01*
X107404756Y-122576874D01*
X107693975Y-122577126D01*
X107961275Y-122466680D01*
X108165961Y-122262350D01*
X108276874Y-121995244D01*
X108277126Y-121706025D01*
X108166680Y-121438725D01*
X107962350Y-121234039D01*
X107695244Y-121123126D01*
X107570570Y-121123017D01*
X105328600Y-118881046D01*
X105328600Y-111418954D01*
X106973774Y-109773779D01*
X106973777Y-109773777D01*
X107088363Y-109602286D01*
X107128600Y-109400000D01*
X107128600Y-105194686D01*
X107962471Y-104360815D01*
X107983320Y-104411275D01*
X108187650Y-104615961D01*
X108454756Y-104726874D01*
X108743975Y-104727126D01*
X109011275Y-104616680D01*
X109215961Y-104412350D01*
X109321955Y-104157090D01*
X113840028Y-104157090D01*
X112523559Y-105473559D01*
X112473942Y-105547816D01*
X112434039Y-105587650D01*
X112412226Y-105640182D01*
X112362172Y-105715093D01*
X112344749Y-105802681D01*
X112323126Y-105854756D01*
X112323076Y-105911638D01*
X112305500Y-106000000D01*
X112322923Y-106087591D01*
X112322874Y-106143975D01*
X112344596Y-106196545D01*
X112362172Y-106284907D01*
X112411787Y-106359162D01*
X112433320Y-106411275D01*
X112473506Y-106451531D01*
X112523559Y-106526441D01*
X112597816Y-106576058D01*
X112637650Y-106615961D01*
X112690182Y-106637774D01*
X112765093Y-106687828D01*
X112852681Y-106705251D01*
X112904756Y-106726874D01*
X112961638Y-106726924D01*
X113050000Y-106744500D01*
X113137591Y-106727077D01*
X113193975Y-106727126D01*
X113246545Y-106705404D01*
X113334907Y-106687828D01*
X113409162Y-106638213D01*
X113461275Y-106616680D01*
X113501531Y-106576494D01*
X113576441Y-106526441D01*
X115158382Y-104944500D01*
X120191618Y-104944500D01*
X122255500Y-107008382D01*
X122255500Y-119515618D01*
X120866805Y-120904313D01*
X120650361Y-120861260D01*
X120161675Y-120958465D01*
X119747386Y-121235284D01*
X119470567Y-121649573D01*
X119373362Y-122138259D01*
X119470567Y-122626945D01*
X119683694Y-122945912D01*
X119179850Y-122442068D01*
X119038607Y-122347693D01*
X118872000Y-122314553D01*
X118705393Y-122347693D01*
X118564150Y-122442068D01*
X117798718Y-123207500D01*
X116822686Y-123207500D01*
X112561495Y-118946309D01*
X113435125Y-118072678D01*
X113529500Y-117931435D01*
X113562640Y-117764828D01*
X113557033Y-117736639D01*
X114910197Y-119089803D01*
X114951399Y-119117333D01*
X115000000Y-119127000D01*
X115048601Y-119117333D01*
X115089803Y-119089803D01*
X121089803Y-113089803D01*
X121117333Y-113048601D01*
X121127000Y-113000000D01*
X121117333Y-112951399D01*
X121089803Y-112910197D01*
X118866965Y-110687359D01*
X118915202Y-110655128D01*
X121715344Y-107854986D01*
X121809719Y-107713743D01*
X121842859Y-107547136D01*
X121809719Y-107380529D01*
X121715344Y-107239286D01*
X120060714Y-105584656D01*
X119919471Y-105490281D01*
X119752864Y-105457141D01*
X119586257Y-105490281D01*
X119445014Y-105584656D01*
X116644872Y-108384798D01*
X116612641Y-108433035D01*
X114589803Y-106410197D01*
X114548601Y-106382667D01*
X114500000Y-106373000D01*
X114451399Y-106382667D01*
X114410197Y-106410197D01*
X109335682Y-111484712D01*
X109316680Y-111438723D01*
X109228600Y-111350490D01*
X109228600Y-110318954D01*
X109873777Y-109673777D01*
X109988363Y-109502287D01*
X110028601Y-109300000D01*
X110028600Y-109299995D01*
X110028600Y-109249559D01*
X110115961Y-109162350D01*
X110226874Y-108895244D01*
X110227126Y-108606025D01*
X110116680Y-108338725D01*
X109913233Y-108134923D01*
X109913418Y-107922131D01*
X109802972Y-107654831D01*
X109598642Y-107450145D01*
X109331536Y-107339232D01*
X109042317Y-107338980D01*
X108775017Y-107449426D01*
X108570331Y-107653756D01*
X108459418Y-107920862D01*
X108459309Y-108045536D01*
X107526222Y-108978622D01*
X107411636Y-109150112D01*
X107371398Y-109352399D01*
X107371399Y-109352404D01*
X107371399Y-112549996D01*
X107371398Y-112550001D01*
X107411636Y-112752288D01*
X107473003Y-112844130D01*
X107472872Y-112993975D01*
X107583318Y-113261275D01*
X107787648Y-113465961D01*
X108054754Y-113576874D01*
X108343973Y-113577126D01*
X108611273Y-113466680D01*
X108815959Y-113262350D01*
X108894235Y-113073841D01*
X109563361Y-113742967D01*
X109535172Y-113737360D01*
X109368565Y-113770500D01*
X109227322Y-113864875D01*
X106427179Y-116665018D01*
X106332804Y-116806261D01*
X106299664Y-116972868D01*
X106332804Y-117139475D01*
X106427179Y-117280718D01*
X110019282Y-120872821D01*
X110160525Y-120967196D01*
X110327132Y-121000336D01*
X110493739Y-120967196D01*
X110634982Y-120872821D01*
X111508613Y-119999191D01*
X115987863Y-124478441D01*
X116229396Y-124639828D01*
X116514304Y-124696500D01*
X117798718Y-124696500D01*
X118564150Y-125461932D01*
X118705393Y-125556307D01*
X118872000Y-125589447D01*
X118978943Y-125568175D01*
X116531669Y-128015449D01*
X115078786Y-128015449D01*
X114984716Y-127874664D01*
X114949336Y-127839284D01*
X114535047Y-127562465D01*
X114046361Y-127465260D01*
X113557675Y-127562465D01*
X113143386Y-127839284D01*
X112866567Y-128253573D01*
X112769362Y-128742259D01*
X112866567Y-129230945D01*
X113079694Y-129549912D01*
X112575850Y-129046068D01*
X112434607Y-128951693D01*
X112268000Y-128918553D01*
X112101393Y-128951693D01*
X111960150Y-129046068D01*
X110758068Y-130248150D01*
X110663693Y-130389393D01*
X110630553Y-130556000D01*
X110663693Y-130722607D01*
X110758068Y-130863850D01*
X110832668Y-130938450D01*
X99265618Y-142505500D01*
X95500000Y-142505500D01*
X95215093Y-142562171D01*
X94973559Y-142723559D01*
X91241618Y-146455500D01*
X78928382Y-146455500D01*
X75854548Y-143381666D01*
X77124158Y-142112055D01*
X77218533Y-141970812D01*
X77251673Y-141804205D01*
X77218533Y-141637598D01*
X77124158Y-141496355D01*
X75328107Y-139700304D01*
X75186864Y-139605929D01*
X75020257Y-139572789D01*
X74853650Y-139605929D01*
X74712407Y-139700304D01*
X71120304Y-143292407D01*
X71025929Y-143433650D01*
X70992789Y-143600257D01*
X71025929Y-143766864D01*
X71064435Y-143824492D01*
X68640277Y-143824492D01*
X71222151Y-142833440D01*
X73970831Y-140225106D01*
X75512114Y-136763445D01*
X75611353Y-136264536D01*
X75592012Y-134747000D01*
X66167000Y-134747000D01*
X66167000Y-143824492D01*
X65913000Y-143824492D01*
X65913000Y-134926608D01*
X66025859Y-134813749D01*
X65846251Y-134634141D01*
X65733392Y-134747000D01*
X56835508Y-134747000D01*
X56835508Y-134493000D01*
X65913000Y-134493000D01*
X65913000Y-125067988D01*
X66167000Y-125067988D01*
X66167000Y-134493000D01*
X75592012Y-134493000D01*
X75611353Y-132975464D01*
X74253440Y-129437849D01*
X71645106Y-126689169D01*
X68183445Y-125147886D01*
X67684536Y-125048647D01*
X66167000Y-125067988D01*
X65913000Y-125067988D01*
X64395464Y-125048647D01*
X60857849Y-126406560D01*
X58109169Y-129014894D01*
X56835508Y-131875487D01*
X56835508Y-129595565D01*
X56893136Y-129634071D01*
X57059743Y-129667211D01*
X57226350Y-129634071D01*
X57367593Y-129539696D01*
X60959696Y-125947593D01*
X61054071Y-125806350D01*
X61087211Y-125639743D01*
X61054071Y-125473136D01*
X60959696Y-125331893D01*
X59163645Y-123535842D01*
X59022402Y-123441467D01*
X58855795Y-123408327D01*
X58689188Y-123441467D01*
X58547945Y-123535842D01*
X54955842Y-127127945D01*
X54861467Y-127269188D01*
X54828327Y-127435795D01*
X50502000Y-127435795D01*
X50502000Y-117435166D01*
X54956440Y-117435166D01*
X54956440Y-117659672D01*
X55671013Y-118374245D01*
X55904402Y-118470918D01*
X56157021Y-118470919D01*
X56390410Y-118374246D01*
X56569038Y-118195617D01*
X57677740Y-117086916D01*
X57677740Y-116862409D01*
X56603468Y-115788137D01*
X54956440Y-117435166D01*
X50502000Y-117435166D01*
X50502000Y-116054979D01*
X53741081Y-116054979D01*
X53741082Y-116307598D01*
X53837755Y-116540987D01*
X54552328Y-117255560D01*
X54776834Y-117255560D01*
X56423863Y-115608532D01*
X55349591Y-114534260D01*
X55125084Y-114534260D01*
X54016383Y-115642962D01*
X53837754Y-115821590D01*
X53741081Y-116054979D01*
X50502000Y-116054979D01*
X50502000Y-111000000D01*
X54873000Y-111000000D01*
X54882667Y-111048601D01*
X54910197Y-111089803D01*
X56739869Y-112919475D01*
X56637898Y-113021447D01*
X55529196Y-114130148D01*
X55529196Y-114354655D01*
X56603468Y-115428927D01*
X56617610Y-115414784D01*
X56797216Y-115594390D01*
X56783073Y-115608532D01*
X57857345Y-116682804D01*
X58081852Y-116682804D01*
X59190553Y-115574102D01*
X59292525Y-115472131D01*
X60910197Y-117089803D01*
X60951399Y-117117333D01*
X61000000Y-117127000D01*
X61048601Y-117117333D01*
X61089803Y-117089803D01*
X67089803Y-111089803D01*
X67117333Y-111048601D01*
X67127000Y-111000000D01*
X67117333Y-110951399D01*
X67089803Y-110910197D01*
X66370305Y-110190699D01*
X66374713Y-110190699D01*
X66608102Y-110094026D01*
X66786731Y-109915398D01*
X67895432Y-108806696D01*
X67895432Y-108582189D01*
X65852424Y-106539181D01*
X65838282Y-106553324D01*
X65658676Y-106373718D01*
X65672819Y-106359576D01*
X66032029Y-106359576D01*
X68075037Y-108402584D01*
X68299544Y-108402584D01*
X69408246Y-107293883D01*
X69586874Y-107115254D01*
X69683547Y-106881865D01*
X69683546Y-106629246D01*
X69586873Y-106395857D01*
X67903564Y-104712548D01*
X67679058Y-104712548D01*
X66032029Y-106359576D01*
X65672819Y-106359576D01*
X63629811Y-104316568D01*
X63405304Y-104316568D01*
X62296602Y-105425269D01*
X62117974Y-105603898D01*
X62021301Y-105837287D01*
X62021301Y-105841695D01*
X61089803Y-104910197D01*
X61048601Y-104882667D01*
X61000000Y-104873000D01*
X60951399Y-104882667D01*
X60910197Y-104910197D01*
X54910197Y-110910197D01*
X54882667Y-110951399D01*
X54873000Y-111000000D01*
X50502000Y-111000000D01*
X50502000Y-108207936D01*
X54797480Y-103912456D01*
X63809416Y-103912456D01*
X63809416Y-104136963D01*
X65852424Y-106179971D01*
X67499452Y-104532942D01*
X67499452Y-104308436D01*
X65816143Y-102625127D01*
X65582754Y-102528454D01*
X65330135Y-102528453D01*
X65096746Y-102625126D01*
X64918117Y-102803754D01*
X63809416Y-103912456D01*
X54797480Y-103912456D01*
X58497936Y-100212000D01*
X71255500Y-100212000D01*
X71255500Y-112700000D01*
X71312172Y-112984908D01*
X71457974Y-113203116D01*
X71473559Y-113226441D01*
X90669658Y-132422540D01*
X89796027Y-133296170D01*
X89701652Y-133437413D01*
X89687611Y-133508005D01*
X88589803Y-132410197D01*
X88548601Y-132382667D01*
X88500000Y-132373000D01*
X88451399Y-132382667D01*
X88410197Y-132410197D01*
X82410197Y-138410197D01*
X82382667Y-138451399D01*
X82373000Y-138500000D01*
X82382667Y-138548601D01*
X82410197Y-138589803D01*
X84446730Y-140626336D01*
X84315950Y-140713720D01*
X81515808Y-143513862D01*
X81421433Y-143655105D01*
X81388293Y-143821712D01*
X81421433Y-143988319D01*
X81515808Y-144129562D01*
X83170438Y-145784192D01*
X83311681Y-145878567D01*
X83478288Y-145911707D01*
X83644895Y-145878567D01*
X83786138Y-145784192D01*
X86586280Y-142984050D01*
X86673664Y-142853270D01*
X88910197Y-145089803D01*
X88951399Y-145117333D01*
X89000000Y-145127000D01*
X89048601Y-145117333D01*
X89089803Y-145089803D01*
X92671952Y-141507654D01*
X97431951Y-141507654D01*
X97431951Y-141732160D01*
X97920250Y-142220459D01*
X98153639Y-142317132D01*
X98406258Y-142317133D01*
X98639647Y-142220460D01*
X99127947Y-141732160D01*
X99127947Y-141507654D01*
X98279949Y-140659656D01*
X97431951Y-141507654D01*
X92671952Y-141507654D01*
X93825864Y-140353742D01*
X96442867Y-140353742D01*
X96442868Y-140606361D01*
X96539541Y-140839750D01*
X97027840Y-141328049D01*
X97252346Y-141328049D01*
X98100344Y-140480051D01*
X97252346Y-139632053D01*
X97027840Y-139632053D01*
X96539540Y-140120353D01*
X96442867Y-140353742D01*
X93825864Y-140353742D01*
X94951664Y-139227942D01*
X97431951Y-139227942D01*
X97431951Y-139452448D01*
X98279949Y-140300446D01*
X98294092Y-140286304D01*
X98473697Y-140465909D01*
X98459554Y-140480051D01*
X99307552Y-141328049D01*
X99532058Y-141328049D01*
X100020358Y-140839749D01*
X100117031Y-140606360D01*
X100117030Y-140353741D01*
X100020357Y-140120352D01*
X99825311Y-139925306D01*
X100093690Y-139978690D01*
X100582377Y-139881484D01*
X100996665Y-139604665D01*
X101273484Y-139190377D01*
X101370690Y-138701690D01*
X101273484Y-138213004D01*
X101016598Y-137828547D01*
X101401055Y-138085433D01*
X101889741Y-138182639D01*
X102378428Y-138085433D01*
X102792716Y-137808614D01*
X103069535Y-137394326D01*
X103166741Y-136905639D01*
X103069535Y-136416953D01*
X102812647Y-136032493D01*
X103197107Y-136289381D01*
X103685793Y-136386587D01*
X104174480Y-136289381D01*
X104588768Y-136012562D01*
X104865587Y-135598274D01*
X104962793Y-135109587D01*
X104865587Y-134620901D01*
X104588768Y-134206612D01*
X104553388Y-134171232D01*
X104139099Y-133894413D01*
X103650413Y-133797208D01*
X103161727Y-133894413D01*
X102747438Y-134171232D01*
X102470619Y-134585521D01*
X102373414Y-135074207D01*
X102470619Y-135562893D01*
X102727507Y-135947353D01*
X102343047Y-135690465D01*
X101854361Y-135593260D01*
X101365675Y-135690465D01*
X100951386Y-135967284D01*
X100674567Y-136381573D01*
X100577362Y-136870259D01*
X100674567Y-137358945D01*
X100931453Y-137743402D01*
X100546996Y-137486516D01*
X100058310Y-137389311D01*
X99569624Y-137486516D01*
X99155335Y-137763335D01*
X98878516Y-138177624D01*
X98781311Y-138666310D01*
X98834695Y-138934690D01*
X98639648Y-138739643D01*
X98406259Y-138642970D01*
X98153640Y-138642969D01*
X97920251Y-138739642D01*
X97431951Y-139227942D01*
X94951664Y-139227942D01*
X95089803Y-139089803D01*
X95117333Y-139048601D01*
X95127000Y-139000000D01*
X95117333Y-138951399D01*
X95089803Y-138910197D01*
X93791995Y-137612389D01*
X93862587Y-137598348D01*
X94003830Y-137503973D01*
X96803973Y-134703830D01*
X96898348Y-134562587D01*
X96931488Y-134395980D01*
X96898348Y-134229373D01*
X96803973Y-134088130D01*
X93211870Y-130496027D01*
X93070627Y-130401652D01*
X92904020Y-130368512D01*
X92737413Y-130401652D01*
X92596170Y-130496027D01*
X91722540Y-131369658D01*
X72744500Y-112391618D01*
X72744500Y-112358207D01*
X77374816Y-112358207D01*
X77471489Y-112591596D01*
X77959789Y-113079896D01*
X78184295Y-113079896D01*
X79032293Y-112231898D01*
X78184295Y-111383900D01*
X77959789Y-111383900D01*
X77471490Y-111872199D01*
X77374817Y-112105588D01*
X77374816Y-112358207D01*
X72744500Y-112358207D01*
X72744500Y-110979789D01*
X78363900Y-110979789D01*
X78363900Y-111204295D01*
X79211898Y-112052293D01*
X79226041Y-112038151D01*
X79405646Y-112217756D01*
X79391503Y-112231898D01*
X79405646Y-112246041D01*
X79226041Y-112425646D01*
X79211898Y-112411503D01*
X78363900Y-113259501D01*
X78363900Y-113484007D01*
X78852200Y-113972307D01*
X79085589Y-114068980D01*
X79338208Y-114068979D01*
X79571597Y-113972306D01*
X79766644Y-113777259D01*
X79713260Y-114045639D01*
X79810465Y-114534325D01*
X80087284Y-114948614D01*
X80501573Y-115225433D01*
X80990259Y-115322638D01*
X81478945Y-115225433D01*
X81863402Y-114968547D01*
X81606516Y-115353004D01*
X81509311Y-115841690D01*
X81606516Y-116330376D01*
X81883335Y-116744665D01*
X82297624Y-117021484D01*
X82786310Y-117118689D01*
X83274996Y-117021484D01*
X83659456Y-116764596D01*
X83402568Y-117149056D01*
X83305363Y-117637742D01*
X83402568Y-118126428D01*
X83679387Y-118540717D01*
X84093676Y-118817536D01*
X84582362Y-118914741D01*
X85071048Y-118817536D01*
X85485337Y-118540717D01*
X85520717Y-118505337D01*
X85797536Y-118091048D01*
X85854933Y-117802493D01*
X87872976Y-119820535D01*
X87872868Y-119943975D01*
X87983314Y-120211275D01*
X88187644Y-120415961D01*
X88454750Y-120526874D01*
X88743969Y-120527126D01*
X89011269Y-120416680D01*
X89215955Y-120212350D01*
X89326868Y-119945244D01*
X89327120Y-119656025D01*
X89219068Y-119394518D01*
X91369081Y-121544531D01*
X91368864Y-121793975D01*
X91479310Y-122061275D01*
X91683640Y-122265961D01*
X91950746Y-122376874D01*
X92239965Y-122377126D01*
X92507265Y-122266680D01*
X92621400Y-122152744D01*
X92621400Y-123899995D01*
X92621399Y-123900000D01*
X92661637Y-124102287D01*
X92776223Y-124273777D01*
X97176221Y-128673774D01*
X97176223Y-128673777D01*
X97203170Y-128691782D01*
X97347713Y-128788363D01*
X97550000Y-128828601D01*
X97550005Y-128828600D01*
X98500441Y-128828600D01*
X98587650Y-128915961D01*
X98854756Y-129026874D01*
X99143975Y-129027126D01*
X99411275Y-128916680D01*
X99615961Y-128712350D01*
X99726874Y-128445244D01*
X99726996Y-128305288D01*
X99737650Y-128315961D01*
X100004756Y-128426874D01*
X100293975Y-128427126D01*
X100561275Y-128316680D01*
X100765961Y-128112350D01*
X100876874Y-127845244D01*
X100877108Y-127577111D01*
X100893975Y-127577126D01*
X101161275Y-127466680D01*
X101365961Y-127262350D01*
X101476874Y-126995244D01*
X101477126Y-126706025D01*
X101366680Y-126438725D01*
X101162350Y-126234039D01*
X100895244Y-126123126D01*
X100606025Y-126122874D01*
X100338725Y-126233320D01*
X100250492Y-126321400D01*
X97718954Y-126321400D01*
X96326153Y-124928599D01*
X100505815Y-124928597D01*
X100505820Y-124928598D01*
X100708107Y-124888360D01*
X100879597Y-124773774D01*
X103223777Y-122429594D01*
X103261072Y-122373778D01*
X103338363Y-122258103D01*
X103378600Y-122055817D01*
X103378600Y-121649559D01*
X103465961Y-121562350D01*
X103576874Y-121295244D01*
X103577126Y-121006025D01*
X103466680Y-120738725D01*
X103402477Y-120674410D01*
X103476874Y-120495244D01*
X103477126Y-120206025D01*
X103366680Y-119938725D01*
X103162350Y-119734039D01*
X102895244Y-119623126D01*
X102606025Y-119622874D01*
X102584470Y-119631780D01*
X102566680Y-119588725D01*
X102362350Y-119384039D01*
X102095244Y-119273126D01*
X101806025Y-119272874D01*
X101538725Y-119383320D01*
X101334039Y-119587650D01*
X101223126Y-119854756D01*
X101223016Y-119981023D01*
X101111637Y-120147713D01*
X101071399Y-120350000D01*
X101071400Y-120350005D01*
X101071400Y-122081047D01*
X99992269Y-123160177D01*
X96663547Y-123160177D01*
X96367713Y-122864343D01*
X96519971Y-122712350D01*
X96630884Y-122445244D01*
X96631136Y-122156025D01*
X96520690Y-121888725D01*
X96432610Y-121800492D01*
X96432610Y-102663705D01*
X96651900Y-102663705D01*
X96651900Y-102888211D01*
X97140199Y-103376510D01*
X97373588Y-103473183D01*
X97626207Y-103473184D01*
X97859596Y-103376511D01*
X98347896Y-102888211D01*
X98347896Y-102663705D01*
X97499898Y-101815707D01*
X96651900Y-102663705D01*
X96432610Y-102663705D01*
X96432610Y-102484100D01*
X96472295Y-102484100D01*
X97320293Y-101636102D01*
X96472295Y-100788104D01*
X96432610Y-100788104D01*
X96432610Y-100383993D01*
X96651900Y-100383993D01*
X96651900Y-100608499D01*
X97499898Y-101456497D01*
X97514041Y-101442355D01*
X97693646Y-101621960D01*
X97679503Y-101636102D01*
X98527501Y-102484100D01*
X98752007Y-102484100D01*
X98767349Y-102468758D01*
X98767349Y-102585097D01*
X98060991Y-103291455D01*
X97946405Y-103462945D01*
X97906167Y-103665232D01*
X97906168Y-103665237D01*
X97906168Y-103773092D01*
X97656025Y-103772874D01*
X97388725Y-103883320D01*
X97184039Y-104087650D01*
X97073126Y-104354756D01*
X97072874Y-104643975D01*
X97183320Y-104911275D01*
X97271400Y-104999508D01*
X97271400Y-115104444D01*
X97188049Y-115187650D01*
X97077136Y-115454756D01*
X97076884Y-115743975D01*
X97187330Y-116011275D01*
X97391660Y-116215961D01*
X97658766Y-116326874D01*
X97947985Y-116327126D01*
X98215285Y-116216680D01*
X98419971Y-116012350D01*
X98521400Y-115768084D01*
X98521400Y-120302836D01*
X98507627Y-120323449D01*
X98486077Y-120431786D01*
X98380029Y-120537650D01*
X98269116Y-120804756D01*
X98268864Y-121093975D01*
X98379310Y-121361275D01*
X98583640Y-121565961D01*
X98850746Y-121676874D01*
X99053897Y-121677051D01*
X99038725Y-121683320D01*
X98834039Y-121887650D01*
X98723126Y-122154756D01*
X98722874Y-122443975D01*
X98833320Y-122711275D01*
X99037650Y-122915961D01*
X99304756Y-123026874D01*
X99593975Y-123027126D01*
X99861275Y-122916680D01*
X100065961Y-122712350D01*
X100176874Y-122445244D01*
X100177006Y-122294114D01*
X100195817Y-122265961D01*
X100238362Y-122202288D01*
X100278600Y-122000001D01*
X100278599Y-121999996D01*
X100278599Y-118026938D01*
X100493975Y-118027126D01*
X100761275Y-117916680D01*
X100868232Y-117809909D01*
X100976551Y-117788363D01*
X101148041Y-117673777D01*
X102173774Y-116648043D01*
X102173777Y-116648041D01*
X102255173Y-116526223D01*
X102288363Y-116476551D01*
X102328601Y-116274264D01*
X102328600Y-116274259D01*
X102328600Y-106318954D01*
X108718954Y-99928600D01*
X111927995Y-99928600D01*
X111928000Y-99928601D01*
X112130287Y-99888363D01*
X112301777Y-99773777D01*
X112838244Y-99237310D01*
X113258982Y-99321000D01*
X113309018Y-99321000D01*
X113797705Y-99223794D01*
X114211993Y-98946975D01*
X114488812Y-98532687D01*
X114586018Y-98044000D01*
X114488812Y-97555313D01*
X114211993Y-97141025D01*
X113797705Y-96864206D01*
X113344209Y-96774000D01*
X113797705Y-96683794D01*
X114211993Y-96406975D01*
X114488812Y-95992687D01*
X114586018Y-95504000D01*
X114488812Y-95015313D01*
X114211993Y-94601025D01*
X113797705Y-94324206D01*
X113344209Y-94234000D01*
X113797705Y-94143794D01*
X114211993Y-93866975D01*
X114488812Y-93452687D01*
X114586018Y-92964000D01*
X114488812Y-92475313D01*
X114211993Y-92061025D01*
X113797705Y-91784206D01*
X113344209Y-91694000D01*
X113797705Y-91603794D01*
X114211993Y-91326975D01*
X114462143Y-90952600D01*
X136405046Y-90952600D01*
X141294568Y-95842121D01*
X141217363Y-96230258D01*
X141314568Y-96718944D01*
X141571456Y-97103404D01*
X141186996Y-96846516D01*
X140698310Y-96749311D01*
X140209624Y-96846516D01*
X139795335Y-97123335D01*
X139518516Y-97537624D01*
X139421311Y-98026310D01*
X139518516Y-98514996D01*
X139775402Y-98899453D01*
X139390945Y-98642567D01*
X138902259Y-98545362D01*
X138413573Y-98642567D01*
X137999284Y-98919386D01*
X137722465Y-99333675D01*
X137625260Y-99822361D01*
X137678644Y-100090741D01*
X137483597Y-99895694D01*
X137250208Y-99799021D01*
X136997589Y-99799020D01*
X136764200Y-99895693D01*
X136275900Y-100383993D01*
X136275900Y-100608499D01*
X137123898Y-101456497D01*
X137138041Y-101442355D01*
X137317646Y-101621960D01*
X137303503Y-101636102D01*
X138151501Y-102484100D01*
X138376007Y-102484100D01*
X138864307Y-101995800D01*
X138960980Y-101762411D01*
X138960979Y-101509792D01*
X138864306Y-101276403D01*
X138669260Y-101081357D01*
X138937639Y-101134741D01*
X139426326Y-101037535D01*
X139840614Y-100760716D01*
X140117433Y-100346428D01*
X140214639Y-99857741D01*
X140117433Y-99369055D01*
X139860547Y-98984598D01*
X140245004Y-99241484D01*
X140733690Y-99338690D01*
X141222377Y-99241484D01*
X141636665Y-98964665D01*
X141913484Y-98550377D01*
X142010690Y-98061690D01*
X141913484Y-97573004D01*
X141656596Y-97188544D01*
X142041056Y-97445432D01*
X142529742Y-97542638D01*
X143018429Y-97445432D01*
X143432717Y-97168613D01*
X143709536Y-96754325D01*
X143806742Y-96265638D01*
X143709536Y-95776952D01*
X143432717Y-95362663D01*
X143397337Y-95327283D01*
X142983048Y-95050464D01*
X142494362Y-94953259D01*
X142005676Y-95050464D01*
X142001085Y-95053532D01*
X136997777Y-90050223D01*
X136826287Y-89935637D01*
X136624000Y-89895399D01*
X136623995Y-89895400D01*
X114462143Y-89895400D01*
X114211993Y-89521025D01*
X113797705Y-89244206D01*
X113309018Y-89147000D01*
X113258982Y-89147000D01*
X112770295Y-89244206D01*
X112356007Y-89521025D01*
X112229000Y-89711104D01*
X112229000Y-89447690D01*
X112132327Y-89214301D01*
X111953698Y-89035673D01*
X111720309Y-88939000D01*
X111029750Y-88939000D01*
X110871000Y-89097750D01*
X110871000Y-90297000D01*
X110891000Y-90297000D01*
X110891000Y-90551000D01*
X110871000Y-90551000D01*
X110871000Y-90571000D01*
X110617000Y-90571000D01*
X110617000Y-90551000D01*
X109417750Y-90551000D01*
X109259000Y-90709750D01*
X109259000Y-91400310D01*
X109355673Y-91633699D01*
X109534302Y-91812327D01*
X109767691Y-91909000D01*
X110043528Y-91909000D01*
X109816007Y-92061025D01*
X109539188Y-92475313D01*
X109535673Y-92492983D01*
X109441895Y-92511637D01*
X109270405Y-92626223D01*
X99824549Y-102072079D01*
X99824549Y-101022686D01*
X100216614Y-100760716D01*
X100493433Y-100346428D01*
X100590639Y-99857741D01*
X100493433Y-99369055D01*
X100236547Y-98984598D01*
X100621004Y-99241484D01*
X101109690Y-99338690D01*
X101598377Y-99241484D01*
X102012665Y-98964665D01*
X102289484Y-98550377D01*
X102386690Y-98061690D01*
X102289484Y-97573004D01*
X102032596Y-97188544D01*
X102417056Y-97445432D01*
X102905742Y-97542638D01*
X103394429Y-97445432D01*
X103808717Y-97168613D01*
X104085536Y-96754325D01*
X104182742Y-96265638D01*
X104085536Y-95776952D01*
X103808717Y-95362663D01*
X103773337Y-95327283D01*
X103359048Y-95050464D01*
X102870362Y-94953259D01*
X102381676Y-95050464D01*
X101967387Y-95327283D01*
X101690568Y-95741572D01*
X101593363Y-96230258D01*
X101690568Y-96718944D01*
X101947456Y-97103404D01*
X101562996Y-96846516D01*
X101074310Y-96749311D01*
X100585624Y-96846516D01*
X100171335Y-97123335D01*
X99894516Y-97537624D01*
X99797311Y-98026310D01*
X99894516Y-98514996D01*
X100151402Y-98899453D01*
X99766945Y-98642567D01*
X99278259Y-98545362D01*
X98789573Y-98642567D01*
X98375284Y-98919386D01*
X98098465Y-99333675D01*
X98001260Y-99822361D01*
X98054644Y-100090741D01*
X97859597Y-99895694D01*
X97626208Y-99799021D01*
X97373589Y-99799020D01*
X97140200Y-99895693D01*
X96651900Y-100383993D01*
X96432610Y-100383993D01*
X96432610Y-89447690D01*
X109259000Y-89447690D01*
X109259000Y-90138250D01*
X109417750Y-90297000D01*
X110617000Y-90297000D01*
X110617000Y-89097750D01*
X110458250Y-88939000D01*
X109767691Y-88939000D01*
X109534302Y-89035673D01*
X109355673Y-89214301D01*
X109259000Y-89447690D01*
X96432610Y-89447690D01*
X96432610Y-75614944D01*
X101970536Y-70077018D01*
X102093975Y-70077126D01*
X102361275Y-69966680D01*
X102565961Y-69762350D01*
X102676874Y-69495244D01*
X102677126Y-69206025D01*
X102566680Y-68938725D01*
X102362350Y-68734039D01*
X102095244Y-68623126D01*
X101806025Y-68622874D01*
X101538725Y-68733320D01*
X101334039Y-68937650D01*
X101223126Y-69204756D01*
X101223017Y-69329429D01*
X95530233Y-75022213D01*
X95415647Y-75193703D01*
X95375409Y-75395990D01*
X95375410Y-75395995D01*
X95375410Y-114277856D01*
X93078600Y-111981046D01*
X93078600Y-111817902D01*
X93078601Y-111817897D01*
X93038363Y-111615610D01*
X92948596Y-111481265D01*
X92923777Y-111444120D01*
X92923774Y-111444118D01*
X92677082Y-111197426D01*
X92770793Y-110726310D01*
X92673587Y-110237623D01*
X92396768Y-109823335D01*
X91982480Y-109546516D01*
X91493793Y-109449310D01*
X91005107Y-109546516D01*
X90620650Y-109803402D01*
X90877536Y-109418945D01*
X90974742Y-108930259D01*
X90877536Y-108441572D01*
X90600717Y-108027284D01*
X90186429Y-107750465D01*
X89697742Y-107653259D01*
X89209056Y-107750465D01*
X88824597Y-108007352D01*
X89081484Y-107622894D01*
X89178690Y-107134208D01*
X89081484Y-106645521D01*
X88804665Y-106231233D01*
X88390377Y-105954414D01*
X87901690Y-105857208D01*
X87413004Y-105954414D01*
X87028547Y-106211300D01*
X87285433Y-105826843D01*
X87382639Y-105338157D01*
X87285433Y-104849470D01*
X87008614Y-104435182D01*
X86594326Y-104158363D01*
X86105639Y-104061157D01*
X85616953Y-104158363D01*
X85202664Y-104435182D01*
X85167284Y-104470562D01*
X84890465Y-104884851D01*
X84793260Y-105373537D01*
X84837859Y-105597752D01*
X84651596Y-105411489D01*
X84418207Y-105314816D01*
X84165588Y-105314817D01*
X83932199Y-105411490D01*
X83443900Y-105899789D01*
X83443900Y-106124295D01*
X84291898Y-106972293D01*
X84306041Y-106958151D01*
X84485646Y-107137756D01*
X84471503Y-107151898D01*
X84485646Y-107166041D01*
X84306041Y-107345646D01*
X84291898Y-107331503D01*
X83443900Y-108179501D01*
X83443900Y-108404007D01*
X83932200Y-108892307D01*
X84165589Y-108988980D01*
X84418208Y-108988979D01*
X84651597Y-108892306D01*
X84846644Y-108697259D01*
X84793260Y-108965639D01*
X84890465Y-109454325D01*
X85167284Y-109868614D01*
X85559349Y-110130583D01*
X85559349Y-110787944D01*
X85559348Y-110787949D01*
X85599586Y-110990236D01*
X85714172Y-111161726D01*
X89026221Y-114473774D01*
X89026223Y-114473777D01*
X89197714Y-114588363D01*
X89400000Y-114628600D01*
X92281046Y-114628600D01*
X93454597Y-115802151D01*
X93300000Y-115771399D01*
X93299995Y-115771400D01*
X92099559Y-115771400D01*
X92012350Y-115684039D01*
X91745244Y-115573126D01*
X91456025Y-115572874D01*
X91188725Y-115683320D01*
X90984039Y-115887650D01*
X90873126Y-116154756D01*
X90872874Y-116443975D01*
X90983320Y-116711275D01*
X91187650Y-116915961D01*
X91454756Y-117026874D01*
X91743975Y-117027126D01*
X92011275Y-116916680D01*
X92099508Y-116828600D01*
X93081046Y-116828600D01*
X93371400Y-117118954D01*
X93371400Y-117723846D01*
X93227018Y-117579464D01*
X93227126Y-117456025D01*
X93116680Y-117188725D01*
X92912350Y-116984039D01*
X92645244Y-116873126D01*
X92356025Y-116872874D01*
X92088725Y-116983320D01*
X91884039Y-117187650D01*
X91773126Y-117454756D01*
X91772874Y-117743975D01*
X91883320Y-118011275D01*
X92087650Y-118215961D01*
X92354756Y-118326874D01*
X92479429Y-118326983D01*
X92621400Y-118468954D01*
X92621400Y-121147296D01*
X92508340Y-121034039D01*
X92243881Y-120924225D01*
X90639496Y-119319840D01*
X90776849Y-119376874D01*
X91066068Y-119377126D01*
X91333368Y-119266680D01*
X91538054Y-119062350D01*
X91648967Y-118795244D01*
X91649219Y-118506025D01*
X91538773Y-118238725D01*
X91334443Y-118034039D01*
X91067337Y-117923126D01*
X90942664Y-117923017D01*
X83081717Y-110062070D01*
X82910227Y-109947484D01*
X82707940Y-109907246D01*
X82707935Y-109907247D01*
X82190584Y-109907247D01*
X81928614Y-109515182D01*
X81514326Y-109238363D01*
X81025639Y-109141157D01*
X80536953Y-109238363D01*
X80122664Y-109515182D01*
X80087284Y-109550562D01*
X79810465Y-109964851D01*
X79713260Y-110453537D01*
X79757859Y-110677752D01*
X79571596Y-110491489D01*
X79338207Y-110394816D01*
X79085588Y-110394817D01*
X78852199Y-110491490D01*
X78363900Y-110979789D01*
X72744500Y-110979789D01*
X72744500Y-107278207D01*
X82454816Y-107278207D01*
X82551489Y-107511596D01*
X83039789Y-107999896D01*
X83264295Y-107999896D01*
X84112293Y-107151898D01*
X83264295Y-106303900D01*
X83039789Y-106303900D01*
X82551490Y-106792199D01*
X82454817Y-107025588D01*
X82454816Y-107278207D01*
X72744500Y-107278207D01*
X72744500Y-100520382D01*
X81302096Y-91962787D01*
X82571706Y-93232397D01*
X82712949Y-93326772D01*
X82879556Y-93359912D01*
X83046163Y-93326772D01*
X83187406Y-93232397D01*
X85987549Y-90432254D01*
X86081924Y-90291011D01*
X86086815Y-90266421D01*
X86910197Y-91089803D01*
X86951399Y-91117333D01*
X87000000Y-91127000D01*
X87048601Y-91117333D01*
X87089803Y-91089803D01*
X93089803Y-85089803D01*
X93117333Y-85048601D01*
X93127000Y-85000000D01*
X93117333Y-84951399D01*
X93089803Y-84910197D01*
X91294939Y-83115333D01*
X91326383Y-83109079D01*
X91467626Y-83014704D01*
X94267768Y-80214562D01*
X94362143Y-80073319D01*
X94395283Y-79906712D01*
X94362143Y-79740105D01*
X94267768Y-79598862D01*
X92613138Y-77944232D01*
X92471895Y-77849857D01*
X92305288Y-77816717D01*
X92138681Y-77849857D01*
X91997438Y-77944232D01*
X89197296Y-80744374D01*
X89102921Y-80885617D01*
X89096667Y-80917061D01*
X87089803Y-78910197D01*
X87048601Y-78882667D01*
X87000000Y-78873000D01*
X86951399Y-78882667D01*
X86910197Y-78910197D01*
X80910197Y-84910197D01*
X80882667Y-84951399D01*
X80873000Y-85000000D01*
X80882667Y-85048601D01*
X80910197Y-85089803D01*
X81945579Y-86125185D01*
X81920989Y-86130076D01*
X81779746Y-86224451D01*
X78979603Y-89024594D01*
X78885228Y-89165837D01*
X78852088Y-89332444D01*
X78885228Y-89499051D01*
X78979603Y-89640294D01*
X80249214Y-90909905D01*
X71473559Y-99685559D01*
X71312172Y-99927092D01*
X71255500Y-100212000D01*
X58497936Y-100212000D01*
X66954968Y-91754968D01*
X67063788Y-91592108D01*
X67102001Y-91400000D01*
X67063788Y-91207893D01*
X66992044Y-91100521D01*
X66954968Y-91045032D01*
X66954965Y-91045030D01*
X66318229Y-90408294D01*
X66688654Y-85592775D01*
X67391996Y-84713597D01*
X67417926Y-84663594D01*
X67451880Y-84618652D01*
X67462582Y-84577482D01*
X67482166Y-84539716D01*
X67486987Y-84483593D01*
X67501157Y-84429080D01*
X67495289Y-84386949D01*
X67498930Y-84344563D01*
X67481906Y-84290866D01*
X67474137Y-84235083D01*
X66827872Y-82377072D01*
X70597748Y-80761411D01*
X70650396Y-80725297D01*
X70707511Y-80696788D01*
X78707511Y-74496788D01*
X78708901Y-74495188D01*
X78710794Y-74494223D01*
X78773074Y-74421299D01*
X78835948Y-74348906D01*
X78836621Y-74346891D01*
X78837998Y-74345279D01*
X82980638Y-66947707D01*
X91735778Y-60946993D01*
X101481487Y-57168045D01*
X101486397Y-57164924D01*
X101492107Y-57163788D01*
X101568878Y-57112491D01*
X101646786Y-57062966D01*
X101650129Y-57058201D01*
X101654968Y-57054968D01*
X103709936Y-55000000D01*
X142498000Y-55000000D01*
X142688453Y-55957474D01*
X143230819Y-56769181D01*
X144042526Y-57311547D01*
X145000000Y-57502000D01*
X145957474Y-57311547D01*
X146769181Y-56769181D01*
X147311547Y-55957474D01*
X147502000Y-55000000D01*
X147311547Y-54042526D01*
X146769181Y-53230819D01*
X145957474Y-52688453D01*
X145000000Y-52498000D01*
X144042526Y-52688453D01*
X143230819Y-53230819D01*
X142688453Y-54042526D01*
X142498000Y-55000000D01*
X103709936Y-55000000D01*
X108207936Y-50502000D01*
X144950559Y-50502000D01*
X146717546Y-50853475D01*
X146717546Y-50853475D01*
G37*
X146717546Y-50853475D02*
X148173612Y-51826388D01*
X149146525Y-53282454D01*
X149498000Y-55049441D01*
X149498000Y-91792065D01*
X124445032Y-116845032D01*
X124402912Y-116908070D01*
X124355313Y-116967068D01*
X124348878Y-116988936D01*
X124336212Y-117007893D01*
X124321421Y-117082253D01*
X124300023Y-117154974D01*
X124302447Y-117177639D01*
X124297999Y-117200000D01*
X124312790Y-117274360D01*
X124320851Y-117349734D01*
X124331764Y-117369747D01*
X124336212Y-117392107D01*
X124378332Y-117455145D01*
X124414625Y-117521699D01*
X124432366Y-117536012D01*
X124445032Y-117554968D01*
X124508070Y-117597088D01*
X124567068Y-117644687D01*
X126405265Y-118607552D01*
X126589057Y-126234914D01*
X125048832Y-126721302D01*
X124979909Y-126759154D01*
X124908218Y-126791505D01*
X124894591Y-126806010D01*
X124877149Y-126815589D01*
X124827954Y-126876941D01*
X124774105Y-126934260D01*
X124767066Y-126952875D01*
X124754617Y-126968401D01*
X124732644Y-127043912D01*
X124704830Y-127117471D01*
X124577138Y-127883626D01*
X122016724Y-127798279D01*
X121936083Y-127811543D01*
X121854726Y-127819479D01*
X121839961Y-127827353D01*
X121823451Y-127830069D01*
X121754016Y-127873189D01*
X121681897Y-127911651D01*
X121671270Y-127924575D01*
X121657055Y-127933403D01*
X121609404Y-127999816D01*
X121557497Y-128062945D01*
X120199432Y-130598000D01*
X119800000Y-130598000D01*
X119704543Y-130616987D01*
X119608863Y-130635811D01*
X119608417Y-130636108D01*
X119607893Y-130636212D01*
X119527056Y-130690225D01*
X119445775Y-130744290D01*
X119445476Y-130744735D01*
X119445032Y-130745032D01*
X119390964Y-130825950D01*
X119336615Y-130906923D01*
X118367163Y-133233608D01*
X116151525Y-135818519D01*
X113054551Y-136100062D01*
X112982046Y-136121462D01*
X112907892Y-136136212D01*
X112888759Y-136148996D01*
X112866693Y-136155509D01*
X112807894Y-136203029D01*
X112745032Y-136245032D01*
X110899284Y-138090780D01*
X108217300Y-137998298D01*
X108208623Y-137999715D01*
X108200000Y-137998000D01*
X108112272Y-138015450D01*
X108023990Y-138029867D01*
X108016516Y-138034497D01*
X108007892Y-138036212D01*
X107933520Y-138085906D01*
X107857476Y-138133010D01*
X107852341Y-138140149D01*
X107845032Y-138145033D01*
X107066823Y-138923241D01*
X104837735Y-139201877D01*
X104794316Y-139216299D01*
X104748832Y-139221301D01*
X104702267Y-139246874D01*
X104651851Y-139263621D01*
X104617251Y-139293566D01*
X104577149Y-139315590D01*
X104543918Y-139357033D01*
X104503745Y-139391801D01*
X104483238Y-139432707D01*
X104454617Y-139468401D01*
X101978825Y-144229539D01*
X96646520Y-144800857D01*
X96578155Y-144822236D01*
X96507893Y-144836212D01*
X96485399Y-144851242D01*
X96459577Y-144859317D01*
X96404590Y-144905237D01*
X96345033Y-144945032D01*
X91792064Y-149498000D01*
X55049441Y-149498000D01*
X53282454Y-149146525D01*
X51826388Y-148173612D01*
X50853475Y-146717546D01*
X50502000Y-144950559D01*
X50502000Y-127435795D01*
X54828327Y-127435795D01*
X54861467Y-127602402D01*
X54955842Y-127743645D01*
X55391340Y-128179143D01*
X55346508Y-128404530D01*
X55346508Y-138523662D01*
X55403180Y-138808570D01*
X55509033Y-138966990D01*
X55564567Y-139050103D01*
X61609897Y-145095433D01*
X61851430Y-145256820D01*
X62136338Y-145313492D01*
X72255470Y-145313492D01*
X72480857Y-145268660D01*
X72916355Y-145704158D01*
X73057598Y-145798533D01*
X73224205Y-145831673D01*
X73390812Y-145798533D01*
X73532055Y-145704158D01*
X74801666Y-144434548D01*
X78093559Y-147726441D01*
X78335092Y-147887828D01*
X78620000Y-147944500D01*
X91550000Y-147944500D01*
X91834908Y-147887828D01*
X92076441Y-147726441D01*
X95808382Y-143994500D01*
X99574000Y-143994500D01*
X99858908Y-143937828D01*
X100100441Y-143776441D01*
X111885550Y-131991332D01*
X111960150Y-132065932D01*
X112101393Y-132160307D01*
X112268000Y-132193447D01*
X112434607Y-132160307D01*
X112575850Y-132065932D01*
X113777932Y-130863850D01*
X113872307Y-130722607D01*
X113905447Y-130556000D01*
X113872307Y-130389393D01*
X113777932Y-130248150D01*
X113274088Y-129744306D01*
X113593055Y-129957433D01*
X114081741Y-130054639D01*
X114570428Y-129957433D01*
X114984716Y-129680614D01*
X115102426Y-129504449D01*
X116840051Y-129504449D01*
X117124959Y-129447777D01*
X117366492Y-129286390D01*
X121194492Y-125458390D01*
X121355880Y-125216856D01*
X121412551Y-124931949D01*
X121412551Y-123194324D01*
X121588716Y-123076614D01*
X121865535Y-122662326D01*
X121962741Y-122173639D01*
X121919687Y-121957195D01*
X123526441Y-120350441D01*
X123618710Y-120212350D01*
X123687828Y-120108908D01*
X123744500Y-119824000D01*
X123744500Y-111091279D01*
X127848326Y-111091279D01*
X127871652Y-111344709D01*
X128291400Y-111591063D01*
X128773473Y-111658033D01*
X129244478Y-111535423D01*
X129320098Y-111481265D01*
X129366681Y-111258286D01*
X128524000Y-110415605D01*
X127848326Y-111091279D01*
X123744500Y-111091279D01*
X123744500Y-109986527D01*
X127101967Y-109986527D01*
X127168937Y-110468600D01*
X127415291Y-110888348D01*
X127668721Y-110911674D01*
X128344395Y-110236000D01*
X128703605Y-110236000D01*
X129546286Y-111078681D01*
X129769265Y-111032098D01*
X129823423Y-110956478D01*
X129946033Y-110485473D01*
X129879063Y-110003400D01*
X129632709Y-109583652D01*
X129379279Y-109560326D01*
X128703605Y-110236000D01*
X128344395Y-110236000D01*
X127501714Y-109393319D01*
X127278735Y-109439902D01*
X127224577Y-109515522D01*
X127101967Y-109986527D01*
X123744500Y-109986527D01*
X123744500Y-108713703D01*
X125983261Y-108713703D01*
X126005429Y-108955827D01*
X126414778Y-109175904D01*
X126877187Y-109222577D01*
X126906660Y-109213714D01*
X127681319Y-109213714D01*
X128524000Y-110056395D01*
X129199674Y-109380721D01*
X129176348Y-109127291D01*
X128756600Y-108880937D01*
X128274527Y-108813967D01*
X127803522Y-108936577D01*
X127727902Y-108990735D01*
X127681319Y-109213714D01*
X126906660Y-109213714D01*
X127322258Y-109088741D01*
X127353073Y-109064710D01*
X127393592Y-108846790D01*
X126621883Y-108075081D01*
X125983261Y-108713703D01*
X123744500Y-108713703D01*
X123744500Y-107640172D01*
X125294782Y-107640172D01*
X125341455Y-108102581D01*
X125561532Y-108511930D01*
X125803656Y-108534098D01*
X126442278Y-107895476D01*
X126801488Y-107895476D01*
X127573197Y-108667185D01*
X127791117Y-108626666D01*
X127815148Y-108595851D01*
X127948984Y-108150780D01*
X127902311Y-107688371D01*
X127682234Y-107279022D01*
X127440110Y-107256854D01*
X126801488Y-107895476D01*
X126442278Y-107895476D01*
X125670569Y-107123767D01*
X125452649Y-107164286D01*
X125428618Y-107195101D01*
X125294782Y-107640172D01*
X123744500Y-107640172D01*
X123744500Y-106944162D01*
X125850174Y-106944162D01*
X126621883Y-107715871D01*
X127107278Y-107230476D01*
X131709129Y-107230476D01*
X131732455Y-107483906D01*
X132152203Y-107730260D01*
X132634276Y-107797230D01*
X133105281Y-107674620D01*
X133180901Y-107620462D01*
X133227484Y-107397483D01*
X132384803Y-106554802D01*
X131709129Y-107230476D01*
X127107278Y-107230476D01*
X127260505Y-107077249D01*
X127238337Y-106835125D01*
X126828988Y-106615048D01*
X126366579Y-106568375D01*
X125921508Y-106702211D01*
X125890693Y-106726242D01*
X125850174Y-106944162D01*
X123744500Y-106944162D01*
X123744500Y-106700000D01*
X123687828Y-106415092D01*
X123526441Y-106173559D01*
X121509972Y-104157090D01*
X123609536Y-104157090D01*
X124972982Y-105520536D01*
X124972874Y-105643975D01*
X125083320Y-105911275D01*
X125287650Y-106115961D01*
X125554756Y-106226874D01*
X125843975Y-106227126D01*
X126089386Y-106125724D01*
X130962770Y-106125724D01*
X131029740Y-106607797D01*
X131276094Y-107027545D01*
X131529524Y-107050871D01*
X132205198Y-106375197D01*
X132564408Y-106375197D01*
X133407089Y-107217878D01*
X133630068Y-107171295D01*
X133684226Y-107095675D01*
X133806836Y-106624670D01*
X133739866Y-106142597D01*
X133493512Y-105722849D01*
X133240082Y-105699523D01*
X132564408Y-106375197D01*
X132205198Y-106375197D01*
X131362517Y-105532516D01*
X131139538Y-105579099D01*
X131085380Y-105654719D01*
X130962770Y-106125724D01*
X126089386Y-106125724D01*
X126111275Y-106116680D01*
X126315961Y-105912350D01*
X126426874Y-105645244D01*
X126427126Y-105356025D01*
X126400386Y-105291307D01*
X129405657Y-105291307D01*
X129427825Y-105533431D01*
X129837174Y-105753508D01*
X130299583Y-105800181D01*
X130744654Y-105666345D01*
X130775469Y-105642314D01*
X130815988Y-105424394D01*
X130744505Y-105352911D01*
X131542122Y-105352911D01*
X132384803Y-106195592D01*
X133060477Y-105519918D01*
X133037151Y-105266488D01*
X132617403Y-105020134D01*
X132135330Y-104953164D01*
X131664325Y-105075774D01*
X131588705Y-105129932D01*
X131542122Y-105352911D01*
X130744505Y-105352911D01*
X130044279Y-104652685D01*
X129405657Y-105291307D01*
X126400386Y-105291307D01*
X126316680Y-105088725D01*
X126112350Y-104884039D01*
X125845244Y-104773126D01*
X125720571Y-104773017D01*
X125165330Y-104217776D01*
X128717178Y-104217776D01*
X128763851Y-104680185D01*
X128983928Y-105089534D01*
X129226052Y-105111702D01*
X129864674Y-104473080D01*
X130223884Y-104473080D01*
X130995593Y-105244789D01*
X131213513Y-105204270D01*
X131237544Y-105173455D01*
X131371380Y-104728384D01*
X131324707Y-104265975D01*
X131104630Y-103856626D01*
X130862506Y-103834458D01*
X130223884Y-104473080D01*
X129864674Y-104473080D01*
X129092965Y-103701371D01*
X128875045Y-103741890D01*
X128851014Y-103772705D01*
X128717178Y-104217776D01*
X125165330Y-104217776D01*
X124469320Y-103521766D01*
X129272570Y-103521766D01*
X130044279Y-104293475D01*
X130682901Y-103654853D01*
X130660733Y-103412729D01*
X130251384Y-103192652D01*
X129788975Y-103145979D01*
X129343904Y-103279815D01*
X129313089Y-103303846D01*
X129272570Y-103521766D01*
X124469320Y-103521766D01*
X124202267Y-103254713D01*
X124030777Y-103140127D01*
X123828490Y-103099889D01*
X123828485Y-103099890D01*
X109223396Y-103099890D01*
X109522214Y-102801072D01*
X109704756Y-102876870D01*
X109993975Y-102877122D01*
X110261275Y-102766676D01*
X110364425Y-102663705D01*
X136275900Y-102663705D01*
X136275900Y-102888211D01*
X136764199Y-103376510D01*
X136997588Y-103473183D01*
X137250207Y-103473184D01*
X137483596Y-103376511D01*
X137971896Y-102888211D01*
X137971896Y-102663705D01*
X137123898Y-101815707D01*
X136275900Y-102663705D01*
X110364425Y-102663705D01*
X110465961Y-102562346D01*
X110576874Y-102295240D01*
X110577126Y-102006021D01*
X110466680Y-101738721D01*
X110262350Y-101534035D01*
X110203970Y-101509793D01*
X135286816Y-101509793D01*
X135286817Y-101762412D01*
X135383490Y-101995801D01*
X135871789Y-102484100D01*
X136096295Y-102484100D01*
X136944293Y-101636102D01*
X136096295Y-100788104D01*
X135871789Y-100788104D01*
X135383489Y-101276404D01*
X135286816Y-101509793D01*
X110203970Y-101509793D01*
X110176915Y-101498559D01*
X110177126Y-101256027D01*
X110066680Y-100988727D01*
X109862350Y-100784041D01*
X109595244Y-100673128D01*
X109306025Y-100672876D01*
X109038725Y-100783322D01*
X108834039Y-100987652D01*
X108723126Y-101254758D01*
X108723017Y-101379431D01*
X103976224Y-106126224D01*
X103861638Y-106297714D01*
X103821400Y-106500001D01*
X103821401Y-106500006D01*
X103821401Y-107433987D01*
X103795244Y-107423126D01*
X103506025Y-107422874D01*
X103238725Y-107533320D01*
X103034039Y-107737650D01*
X102923126Y-108004756D01*
X102922874Y-108293975D01*
X103033320Y-108561275D01*
X103121400Y-108649508D01*
X103121400Y-118300441D01*
X103034039Y-118387650D01*
X102923126Y-118654756D01*
X102922874Y-118943975D01*
X103033320Y-119211275D01*
X103237650Y-119415961D01*
X103504756Y-119526874D01*
X103793975Y-119527126D01*
X103821401Y-119515794D01*
X103821401Y-121949996D01*
X103821400Y-121950001D01*
X103861638Y-122152288D01*
X103923005Y-122244130D01*
X103922874Y-122393975D01*
X104033320Y-122661275D01*
X104237650Y-122865961D01*
X104504756Y-122976874D01*
X104793975Y-122977126D01*
X105061275Y-122866680D01*
X105265961Y-122662350D01*
X105376874Y-122395244D01*
X105377126Y-122106025D01*
X105266680Y-121838725D01*
X105062350Y-121634039D01*
X104878601Y-121557739D01*
X104878601Y-119926155D01*
X106822982Y-121870535D01*
X106822874Y-121993975D01*
X106933320Y-122261275D01*
X107137650Y-122465961D01*
X107404756Y-122576874D01*
X107693975Y-122577126D01*
X107961275Y-122466680D01*
X108165961Y-122262350D01*
X108276874Y-121995244D01*
X108277126Y-121706025D01*
X108166680Y-121438725D01*
X107962350Y-121234039D01*
X107695244Y-121123126D01*
X107570570Y-121123017D01*
X105328600Y-118881046D01*
X105328600Y-111418954D01*
X106973774Y-109773779D01*
X106973777Y-109773777D01*
X107088363Y-109602286D01*
X107128600Y-109400000D01*
X107128600Y-105194686D01*
X107962471Y-104360815D01*
X107983320Y-104411275D01*
X108187650Y-104615961D01*
X108454756Y-104726874D01*
X108743975Y-104727126D01*
X109011275Y-104616680D01*
X109215961Y-104412350D01*
X109321955Y-104157090D01*
X113840028Y-104157090D01*
X112523559Y-105473559D01*
X112473942Y-105547816D01*
X112434039Y-105587650D01*
X112412226Y-105640182D01*
X112362172Y-105715093D01*
X112344749Y-105802681D01*
X112323126Y-105854756D01*
X112323076Y-105911638D01*
X112305500Y-106000000D01*
X112322923Y-106087591D01*
X112322874Y-106143975D01*
X112344596Y-106196545D01*
X112362172Y-106284907D01*
X112411787Y-106359162D01*
X112433320Y-106411275D01*
X112473506Y-106451531D01*
X112523559Y-106526441D01*
X112597816Y-106576058D01*
X112637650Y-106615961D01*
X112690182Y-106637774D01*
X112765093Y-106687828D01*
X112852681Y-106705251D01*
X112904756Y-106726874D01*
X112961638Y-106726924D01*
X113050000Y-106744500D01*
X113137591Y-106727077D01*
X113193975Y-106727126D01*
X113246545Y-106705404D01*
X113334907Y-106687828D01*
X113409162Y-106638213D01*
X113461275Y-106616680D01*
X113501531Y-106576494D01*
X113576441Y-106526441D01*
X115158382Y-104944500D01*
X120191618Y-104944500D01*
X122255500Y-107008382D01*
X122255500Y-119515618D01*
X120866805Y-120904313D01*
X120650361Y-120861260D01*
X120161675Y-120958465D01*
X119747386Y-121235284D01*
X119470567Y-121649573D01*
X119373362Y-122138259D01*
X119470567Y-122626945D01*
X119683694Y-122945912D01*
X119179850Y-122442068D01*
X119038607Y-122347693D01*
X118872000Y-122314553D01*
X118705393Y-122347693D01*
X118564150Y-122442068D01*
X117798718Y-123207500D01*
X116822686Y-123207500D01*
X112561495Y-118946309D01*
X113435125Y-118072678D01*
X113529500Y-117931435D01*
X113562640Y-117764828D01*
X113557033Y-117736639D01*
X114910197Y-119089803D01*
X114951399Y-119117333D01*
X115000000Y-119127000D01*
X115048601Y-119117333D01*
X115089803Y-119089803D01*
X121089803Y-113089803D01*
X121117333Y-113048601D01*
X121127000Y-113000000D01*
X121117333Y-112951399D01*
X121089803Y-112910197D01*
X118866965Y-110687359D01*
X118915202Y-110655128D01*
X121715344Y-107854986D01*
X121809719Y-107713743D01*
X121842859Y-107547136D01*
X121809719Y-107380529D01*
X121715344Y-107239286D01*
X120060714Y-105584656D01*
X119919471Y-105490281D01*
X119752864Y-105457141D01*
X119586257Y-105490281D01*
X119445014Y-105584656D01*
X116644872Y-108384798D01*
X116612641Y-108433035D01*
X114589803Y-106410197D01*
X114548601Y-106382667D01*
X114500000Y-106373000D01*
X114451399Y-106382667D01*
X114410197Y-106410197D01*
X109335682Y-111484712D01*
X109316680Y-111438723D01*
X109228600Y-111350490D01*
X109228600Y-110318954D01*
X109873777Y-109673777D01*
X109988363Y-109502287D01*
X110028601Y-109300000D01*
X110028600Y-109299995D01*
X110028600Y-109249559D01*
X110115961Y-109162350D01*
X110226874Y-108895244D01*
X110227126Y-108606025D01*
X110116680Y-108338725D01*
X109913233Y-108134923D01*
X109913418Y-107922131D01*
X109802972Y-107654831D01*
X109598642Y-107450145D01*
X109331536Y-107339232D01*
X109042317Y-107338980D01*
X108775017Y-107449426D01*
X108570331Y-107653756D01*
X108459418Y-107920862D01*
X108459309Y-108045536D01*
X107526222Y-108978622D01*
X107411636Y-109150112D01*
X107371398Y-109352399D01*
X107371399Y-109352404D01*
X107371399Y-112549996D01*
X107371398Y-112550001D01*
X107411636Y-112752288D01*
X107473003Y-112844130D01*
X107472872Y-112993975D01*
X107583318Y-113261275D01*
X107787648Y-113465961D01*
X108054754Y-113576874D01*
X108343973Y-113577126D01*
X108611273Y-113466680D01*
X108815959Y-113262350D01*
X108894235Y-113073841D01*
X109563361Y-113742967D01*
X109535172Y-113737360D01*
X109368565Y-113770500D01*
X109227322Y-113864875D01*
X106427179Y-116665018D01*
X106332804Y-116806261D01*
X106299664Y-116972868D01*
X106332804Y-117139475D01*
X106427179Y-117280718D01*
X110019282Y-120872821D01*
X110160525Y-120967196D01*
X110327132Y-121000336D01*
X110493739Y-120967196D01*
X110634982Y-120872821D01*
X111508613Y-119999191D01*
X115987863Y-124478441D01*
X116229396Y-124639828D01*
X116514304Y-124696500D01*
X117798718Y-124696500D01*
X118564150Y-125461932D01*
X118705393Y-125556307D01*
X118872000Y-125589447D01*
X118978943Y-125568175D01*
X116531669Y-128015449D01*
X115078786Y-128015449D01*
X114984716Y-127874664D01*
X114949336Y-127839284D01*
X114535047Y-127562465D01*
X114046361Y-127465260D01*
X113557675Y-127562465D01*
X113143386Y-127839284D01*
X112866567Y-128253573D01*
X112769362Y-128742259D01*
X112866567Y-129230945D01*
X113079694Y-129549912D01*
X112575850Y-129046068D01*
X112434607Y-128951693D01*
X112268000Y-128918553D01*
X112101393Y-128951693D01*
X111960150Y-129046068D01*
X110758068Y-130248150D01*
X110663693Y-130389393D01*
X110630553Y-130556000D01*
X110663693Y-130722607D01*
X110758068Y-130863850D01*
X110832668Y-130938450D01*
X99265618Y-142505500D01*
X95500000Y-142505500D01*
X95215093Y-142562171D01*
X94973559Y-142723559D01*
X91241618Y-146455500D01*
X78928382Y-146455500D01*
X75854548Y-143381666D01*
X77124158Y-142112055D01*
X77218533Y-141970812D01*
X77251673Y-141804205D01*
X77218533Y-141637598D01*
X77124158Y-141496355D01*
X75328107Y-139700304D01*
X75186864Y-139605929D01*
X75020257Y-139572789D01*
X74853650Y-139605929D01*
X74712407Y-139700304D01*
X71120304Y-143292407D01*
X71025929Y-143433650D01*
X70992789Y-143600257D01*
X71025929Y-143766864D01*
X71064435Y-143824492D01*
X68640277Y-143824492D01*
X71222151Y-142833440D01*
X73970831Y-140225106D01*
X75512114Y-136763445D01*
X75611353Y-136264536D01*
X75592012Y-134747000D01*
X66167000Y-134747000D01*
X66167000Y-143824492D01*
X65913000Y-143824492D01*
X65913000Y-134926608D01*
X66025859Y-134813749D01*
X65846251Y-134634141D01*
X65733392Y-134747000D01*
X56835508Y-134747000D01*
X56835508Y-134493000D01*
X65913000Y-134493000D01*
X65913000Y-125067988D01*
X66167000Y-125067988D01*
X66167000Y-134493000D01*
X75592012Y-134493000D01*
X75611353Y-132975464D01*
X74253440Y-129437849D01*
X71645106Y-126689169D01*
X68183445Y-125147886D01*
X67684536Y-125048647D01*
X66167000Y-125067988D01*
X65913000Y-125067988D01*
X64395464Y-125048647D01*
X60857849Y-126406560D01*
X58109169Y-129014894D01*
X56835508Y-131875487D01*
X56835508Y-129595565D01*
X56893136Y-129634071D01*
X57059743Y-129667211D01*
X57226350Y-129634071D01*
X57367593Y-129539696D01*
X60959696Y-125947593D01*
X61054071Y-125806350D01*
X61087211Y-125639743D01*
X61054071Y-125473136D01*
X60959696Y-125331893D01*
X59163645Y-123535842D01*
X59022402Y-123441467D01*
X58855795Y-123408327D01*
X58689188Y-123441467D01*
X58547945Y-123535842D01*
X54955842Y-127127945D01*
X54861467Y-127269188D01*
X54828327Y-127435795D01*
X50502000Y-127435795D01*
X50502000Y-117435166D01*
X54956440Y-117435166D01*
X54956440Y-117659672D01*
X55671013Y-118374245D01*
X55904402Y-118470918D01*
X56157021Y-118470919D01*
X56390410Y-118374246D01*
X56569038Y-118195617D01*
X57677740Y-117086916D01*
X57677740Y-116862409D01*
X56603468Y-115788137D01*
X54956440Y-117435166D01*
X50502000Y-117435166D01*
X50502000Y-116054979D01*
X53741081Y-116054979D01*
X53741082Y-116307598D01*
X53837755Y-116540987D01*
X54552328Y-117255560D01*
X54776834Y-117255560D01*
X56423863Y-115608532D01*
X55349591Y-114534260D01*
X55125084Y-114534260D01*
X54016383Y-115642962D01*
X53837754Y-115821590D01*
X53741081Y-116054979D01*
X50502000Y-116054979D01*
X50502000Y-111000000D01*
X54873000Y-111000000D01*
X54882667Y-111048601D01*
X54910197Y-111089803D01*
X56739869Y-112919475D01*
X56637898Y-113021447D01*
X55529196Y-114130148D01*
X55529196Y-114354655D01*
X56603468Y-115428927D01*
X56617610Y-115414784D01*
X56797216Y-115594390D01*
X56783073Y-115608532D01*
X57857345Y-116682804D01*
X58081852Y-116682804D01*
X59190553Y-115574102D01*
X59292525Y-115472131D01*
X60910197Y-117089803D01*
X60951399Y-117117333D01*
X61000000Y-117127000D01*
X61048601Y-117117333D01*
X61089803Y-117089803D01*
X67089803Y-111089803D01*
X67117333Y-111048601D01*
X67127000Y-111000000D01*
X67117333Y-110951399D01*
X67089803Y-110910197D01*
X66370305Y-110190699D01*
X66374713Y-110190699D01*
X66608102Y-110094026D01*
X66786731Y-109915398D01*
X67895432Y-108806696D01*
X67895432Y-108582189D01*
X65852424Y-106539181D01*
X65838282Y-106553324D01*
X65658676Y-106373718D01*
X65672819Y-106359576D01*
X66032029Y-106359576D01*
X68075037Y-108402584D01*
X68299544Y-108402584D01*
X69408246Y-107293883D01*
X69586874Y-107115254D01*
X69683547Y-106881865D01*
X69683546Y-106629246D01*
X69586873Y-106395857D01*
X67903564Y-104712548D01*
X67679058Y-104712548D01*
X66032029Y-106359576D01*
X65672819Y-106359576D01*
X63629811Y-104316568D01*
X63405304Y-104316568D01*
X62296602Y-105425269D01*
X62117974Y-105603898D01*
X62021301Y-105837287D01*
X62021301Y-105841695D01*
X61089803Y-104910197D01*
X61048601Y-104882667D01*
X61000000Y-104873000D01*
X60951399Y-104882667D01*
X60910197Y-104910197D01*
X54910197Y-110910197D01*
X54882667Y-110951399D01*
X54873000Y-111000000D01*
X50502000Y-111000000D01*
X50502000Y-108207936D01*
X54797480Y-103912456D01*
X63809416Y-103912456D01*
X63809416Y-104136963D01*
X65852424Y-106179971D01*
X67499452Y-104532942D01*
X67499452Y-104308436D01*
X65816143Y-102625127D01*
X65582754Y-102528454D01*
X65330135Y-102528453D01*
X65096746Y-102625126D01*
X64918117Y-102803754D01*
X63809416Y-103912456D01*
X54797480Y-103912456D01*
X58497936Y-100212000D01*
X71255500Y-100212000D01*
X71255500Y-112700000D01*
X71312172Y-112984908D01*
X71457974Y-113203116D01*
X71473559Y-113226441D01*
X90669658Y-132422540D01*
X89796027Y-133296170D01*
X89701652Y-133437413D01*
X89687611Y-133508005D01*
X88589803Y-132410197D01*
X88548601Y-132382667D01*
X88500000Y-132373000D01*
X88451399Y-132382667D01*
X88410197Y-132410197D01*
X82410197Y-138410197D01*
X82382667Y-138451399D01*
X82373000Y-138500000D01*
X82382667Y-138548601D01*
X82410197Y-138589803D01*
X84446730Y-140626336D01*
X84315950Y-140713720D01*
X81515808Y-143513862D01*
X81421433Y-143655105D01*
X81388293Y-143821712D01*
X81421433Y-143988319D01*
X81515808Y-144129562D01*
X83170438Y-145784192D01*
X83311681Y-145878567D01*
X83478288Y-145911707D01*
X83644895Y-145878567D01*
X83786138Y-145784192D01*
X86586280Y-142984050D01*
X86673664Y-142853270D01*
X88910197Y-145089803D01*
X88951399Y-145117333D01*
X89000000Y-145127000D01*
X89048601Y-145117333D01*
X89089803Y-145089803D01*
X92671952Y-141507654D01*
X97431951Y-141507654D01*
X97431951Y-141732160D01*
X97920250Y-142220459D01*
X98153639Y-142317132D01*
X98406258Y-142317133D01*
X98639647Y-142220460D01*
X99127947Y-141732160D01*
X99127947Y-141507654D01*
X98279949Y-140659656D01*
X97431951Y-141507654D01*
X92671952Y-141507654D01*
X93825864Y-140353742D01*
X96442867Y-140353742D01*
X96442868Y-140606361D01*
X96539541Y-140839750D01*
X97027840Y-141328049D01*
X97252346Y-141328049D01*
X98100344Y-140480051D01*
X97252346Y-139632053D01*
X97027840Y-139632053D01*
X96539540Y-140120353D01*
X96442867Y-140353742D01*
X93825864Y-140353742D01*
X94951664Y-139227942D01*
X97431951Y-139227942D01*
X97431951Y-139452448D01*
X98279949Y-140300446D01*
X98294092Y-140286304D01*
X98473697Y-140465909D01*
X98459554Y-140480051D01*
X99307552Y-141328049D01*
X99532058Y-141328049D01*
X100020358Y-140839749D01*
X100117031Y-140606360D01*
X100117030Y-140353741D01*
X100020357Y-140120352D01*
X99825311Y-139925306D01*
X100093690Y-139978690D01*
X100582377Y-139881484D01*
X100996665Y-139604665D01*
X101273484Y-139190377D01*
X101370690Y-138701690D01*
X101273484Y-138213004D01*
X101016598Y-137828547D01*
X101401055Y-138085433D01*
X101889741Y-138182639D01*
X102378428Y-138085433D01*
X102792716Y-137808614D01*
X103069535Y-137394326D01*
X103166741Y-136905639D01*
X103069535Y-136416953D01*
X102812647Y-136032493D01*
X103197107Y-136289381D01*
X103685793Y-136386587D01*
X104174480Y-136289381D01*
X104588768Y-136012562D01*
X104865587Y-135598274D01*
X104962793Y-135109587D01*
X104865587Y-134620901D01*
X104588768Y-134206612D01*
X104553388Y-134171232D01*
X104139099Y-133894413D01*
X103650413Y-133797208D01*
X103161727Y-133894413D01*
X102747438Y-134171232D01*
X102470619Y-134585521D01*
X102373414Y-135074207D01*
X102470619Y-135562893D01*
X102727507Y-135947353D01*
X102343047Y-135690465D01*
X101854361Y-135593260D01*
X101365675Y-135690465D01*
X100951386Y-135967284D01*
X100674567Y-136381573D01*
X100577362Y-136870259D01*
X100674567Y-137358945D01*
X100931453Y-137743402D01*
X100546996Y-137486516D01*
X100058310Y-137389311D01*
X99569624Y-137486516D01*
X99155335Y-137763335D01*
X98878516Y-138177624D01*
X98781311Y-138666310D01*
X98834695Y-138934690D01*
X98639648Y-138739643D01*
X98406259Y-138642970D01*
X98153640Y-138642969D01*
X97920251Y-138739642D01*
X97431951Y-139227942D01*
X94951664Y-139227942D01*
X95089803Y-139089803D01*
X95117333Y-139048601D01*
X95127000Y-139000000D01*
X95117333Y-138951399D01*
X95089803Y-138910197D01*
X93791995Y-137612389D01*
X93862587Y-137598348D01*
X94003830Y-137503973D01*
X96803973Y-134703830D01*
X96898348Y-134562587D01*
X96931488Y-134395980D01*
X96898348Y-134229373D01*
X96803973Y-134088130D01*
X93211870Y-130496027D01*
X93070627Y-130401652D01*
X92904020Y-130368512D01*
X92737413Y-130401652D01*
X92596170Y-130496027D01*
X91722540Y-131369658D01*
X72744500Y-112391618D01*
X72744500Y-112358207D01*
X77374816Y-112358207D01*
X77471489Y-112591596D01*
X77959789Y-113079896D01*
X78184295Y-113079896D01*
X79032293Y-112231898D01*
X78184295Y-111383900D01*
X77959789Y-111383900D01*
X77471490Y-111872199D01*
X77374817Y-112105588D01*
X77374816Y-112358207D01*
X72744500Y-112358207D01*
X72744500Y-110979789D01*
X78363900Y-110979789D01*
X78363900Y-111204295D01*
X79211898Y-112052293D01*
X79226041Y-112038151D01*
X79405646Y-112217756D01*
X79391503Y-112231898D01*
X79405646Y-112246041D01*
X79226041Y-112425646D01*
X79211898Y-112411503D01*
X78363900Y-113259501D01*
X78363900Y-113484007D01*
X78852200Y-113972307D01*
X79085589Y-114068980D01*
X79338208Y-114068979D01*
X79571597Y-113972306D01*
X79766644Y-113777259D01*
X79713260Y-114045639D01*
X79810465Y-114534325D01*
X80087284Y-114948614D01*
X80501573Y-115225433D01*
X80990259Y-115322638D01*
X81478945Y-115225433D01*
X81863402Y-114968547D01*
X81606516Y-115353004D01*
X81509311Y-115841690D01*
X81606516Y-116330376D01*
X81883335Y-116744665D01*
X82297624Y-117021484D01*
X82786310Y-117118689D01*
X83274996Y-117021484D01*
X83659456Y-116764596D01*
X83402568Y-117149056D01*
X83305363Y-117637742D01*
X83402568Y-118126428D01*
X83679387Y-118540717D01*
X84093676Y-118817536D01*
X84582362Y-118914741D01*
X85071048Y-118817536D01*
X85485337Y-118540717D01*
X85520717Y-118505337D01*
X85797536Y-118091048D01*
X85854933Y-117802493D01*
X87872976Y-119820535D01*
X87872868Y-119943975D01*
X87983314Y-120211275D01*
X88187644Y-120415961D01*
X88454750Y-120526874D01*
X88743969Y-120527126D01*
X89011269Y-120416680D01*
X89215955Y-120212350D01*
X89326868Y-119945244D01*
X89327120Y-119656025D01*
X89219068Y-119394518D01*
X91369081Y-121544531D01*
X91368864Y-121793975D01*
X91479310Y-122061275D01*
X91683640Y-122265961D01*
X91950746Y-122376874D01*
X92239965Y-122377126D01*
X92507265Y-122266680D01*
X92621400Y-122152744D01*
X92621400Y-123899995D01*
X92621399Y-123900000D01*
X92661637Y-124102287D01*
X92776223Y-124273777D01*
X97176221Y-128673774D01*
X97176223Y-128673777D01*
X97203170Y-128691782D01*
X97347713Y-128788363D01*
X97550000Y-128828601D01*
X97550005Y-128828600D01*
X98500441Y-128828600D01*
X98587650Y-128915961D01*
X98854756Y-129026874D01*
X99143975Y-129027126D01*
X99411275Y-128916680D01*
X99615961Y-128712350D01*
X99726874Y-128445244D01*
X99726996Y-128305288D01*
X99737650Y-128315961D01*
X100004756Y-128426874D01*
X100293975Y-128427126D01*
X100561275Y-128316680D01*
X100765961Y-128112350D01*
X100876874Y-127845244D01*
X100877108Y-127577111D01*
X100893975Y-127577126D01*
X101161275Y-127466680D01*
X101365961Y-127262350D01*
X101476874Y-126995244D01*
X101477126Y-126706025D01*
X101366680Y-126438725D01*
X101162350Y-126234039D01*
X100895244Y-126123126D01*
X100606025Y-126122874D01*
X100338725Y-126233320D01*
X100250492Y-126321400D01*
X97718954Y-126321400D01*
X96326153Y-124928599D01*
X100505815Y-124928597D01*
X100505820Y-124928598D01*
X100708107Y-124888360D01*
X100879597Y-124773774D01*
X103223777Y-122429594D01*
X103261072Y-122373778D01*
X103338363Y-122258103D01*
X103378600Y-122055817D01*
X103378600Y-121649559D01*
X103465961Y-121562350D01*
X103576874Y-121295244D01*
X103577126Y-121006025D01*
X103466680Y-120738725D01*
X103402477Y-120674410D01*
X103476874Y-120495244D01*
X103477126Y-120206025D01*
X103366680Y-119938725D01*
X103162350Y-119734039D01*
X102895244Y-119623126D01*
X102606025Y-119622874D01*
X102584470Y-119631780D01*
X102566680Y-119588725D01*
X102362350Y-119384039D01*
X102095244Y-119273126D01*
X101806025Y-119272874D01*
X101538725Y-119383320D01*
X101334039Y-119587650D01*
X101223126Y-119854756D01*
X101223016Y-119981023D01*
X101111637Y-120147713D01*
X101071399Y-120350000D01*
X101071400Y-120350005D01*
X101071400Y-122081047D01*
X99992269Y-123160177D01*
X96663547Y-123160177D01*
X96367713Y-122864343D01*
X96519971Y-122712350D01*
X96630884Y-122445244D01*
X96631136Y-122156025D01*
X96520690Y-121888725D01*
X96432610Y-121800492D01*
X96432610Y-102663705D01*
X96651900Y-102663705D01*
X96651900Y-102888211D01*
X97140199Y-103376510D01*
X97373588Y-103473183D01*
X97626207Y-103473184D01*
X97859596Y-103376511D01*
X98347896Y-102888211D01*
X98347896Y-102663705D01*
X97499898Y-101815707D01*
X96651900Y-102663705D01*
X96432610Y-102663705D01*
X96432610Y-102484100D01*
X96472295Y-102484100D01*
X97320293Y-101636102D01*
X96472295Y-100788104D01*
X96432610Y-100788104D01*
X96432610Y-100383993D01*
X96651900Y-100383993D01*
X96651900Y-100608499D01*
X97499898Y-101456497D01*
X97514041Y-101442355D01*
X97693646Y-101621960D01*
X97679503Y-101636102D01*
X98527501Y-102484100D01*
X98752007Y-102484100D01*
X98767349Y-102468758D01*
X98767349Y-102585097D01*
X98060991Y-103291455D01*
X97946405Y-103462945D01*
X97906167Y-103665232D01*
X97906168Y-103665237D01*
X97906168Y-103773092D01*
X97656025Y-103772874D01*
X97388725Y-103883320D01*
X97184039Y-104087650D01*
X97073126Y-104354756D01*
X97072874Y-104643975D01*
X97183320Y-104911275D01*
X97271400Y-104999508D01*
X97271400Y-115104444D01*
X97188049Y-115187650D01*
X97077136Y-115454756D01*
X97076884Y-115743975D01*
X97187330Y-116011275D01*
X97391660Y-116215961D01*
X97658766Y-116326874D01*
X97947985Y-116327126D01*
X98215285Y-116216680D01*
X98419971Y-116012350D01*
X98521400Y-115768084D01*
X98521400Y-120302836D01*
X98507627Y-120323449D01*
X98486077Y-120431786D01*
X98380029Y-120537650D01*
X98269116Y-120804756D01*
X98268864Y-121093975D01*
X98379310Y-121361275D01*
X98583640Y-121565961D01*
X98850746Y-121676874D01*
X99053897Y-121677051D01*
X99038725Y-121683320D01*
X98834039Y-121887650D01*
X98723126Y-122154756D01*
X98722874Y-122443975D01*
X98833320Y-122711275D01*
X99037650Y-122915961D01*
X99304756Y-123026874D01*
X99593975Y-123027126D01*
X99861275Y-122916680D01*
X100065961Y-122712350D01*
X100176874Y-122445244D01*
X100177006Y-122294114D01*
X100195817Y-122265961D01*
X100238362Y-122202288D01*
X100278600Y-122000001D01*
X100278599Y-121999996D01*
X100278599Y-118026938D01*
X100493975Y-118027126D01*
X100761275Y-117916680D01*
X100868232Y-117809909D01*
X100976551Y-117788363D01*
X101148041Y-117673777D01*
X102173774Y-116648043D01*
X102173777Y-116648041D01*
X102255173Y-116526223D01*
X102288363Y-116476551D01*
X102328601Y-116274264D01*
X102328600Y-116274259D01*
X102328600Y-106318954D01*
X108718954Y-99928600D01*
X111927995Y-99928600D01*
X111928000Y-99928601D01*
X112130287Y-99888363D01*
X112301777Y-99773777D01*
X112838244Y-99237310D01*
X113258982Y-99321000D01*
X113309018Y-99321000D01*
X113797705Y-99223794D01*
X114211993Y-98946975D01*
X114488812Y-98532687D01*
X114586018Y-98044000D01*
X114488812Y-97555313D01*
X114211993Y-97141025D01*
X113797705Y-96864206D01*
X113344209Y-96774000D01*
X113797705Y-96683794D01*
X114211993Y-96406975D01*
X114488812Y-95992687D01*
X114586018Y-95504000D01*
X114488812Y-95015313D01*
X114211993Y-94601025D01*
X113797705Y-94324206D01*
X113344209Y-94234000D01*
X113797705Y-94143794D01*
X114211993Y-93866975D01*
X114488812Y-93452687D01*
X114586018Y-92964000D01*
X114488812Y-92475313D01*
X114211993Y-92061025D01*
X113797705Y-91784206D01*
X113344209Y-91694000D01*
X113797705Y-91603794D01*
X114211993Y-91326975D01*
X114462143Y-90952600D01*
X136405046Y-90952600D01*
X141294568Y-95842121D01*
X141217363Y-96230258D01*
X141314568Y-96718944D01*
X141571456Y-97103404D01*
X141186996Y-96846516D01*
X140698310Y-96749311D01*
X140209624Y-96846516D01*
X139795335Y-97123335D01*
X139518516Y-97537624D01*
X139421311Y-98026310D01*
X139518516Y-98514996D01*
X139775402Y-98899453D01*
X139390945Y-98642567D01*
X138902259Y-98545362D01*
X138413573Y-98642567D01*
X137999284Y-98919386D01*
X137722465Y-99333675D01*
X137625260Y-99822361D01*
X137678644Y-100090741D01*
X137483597Y-99895694D01*
X137250208Y-99799021D01*
X136997589Y-99799020D01*
X136764200Y-99895693D01*
X136275900Y-100383993D01*
X136275900Y-100608499D01*
X137123898Y-101456497D01*
X137138041Y-101442355D01*
X137317646Y-101621960D01*
X137303503Y-101636102D01*
X138151501Y-102484100D01*
X138376007Y-102484100D01*
X138864307Y-101995800D01*
X138960980Y-101762411D01*
X138960979Y-101509792D01*
X138864306Y-101276403D01*
X138669260Y-101081357D01*
X138937639Y-101134741D01*
X139426326Y-101037535D01*
X139840614Y-100760716D01*
X140117433Y-100346428D01*
X140214639Y-99857741D01*
X140117433Y-99369055D01*
X139860547Y-98984598D01*
X140245004Y-99241484D01*
X140733690Y-99338690D01*
X141222377Y-99241484D01*
X141636665Y-98964665D01*
X141913484Y-98550377D01*
X142010690Y-98061690D01*
X141913484Y-97573004D01*
X141656596Y-97188544D01*
X142041056Y-97445432D01*
X142529742Y-97542638D01*
X143018429Y-97445432D01*
X143432717Y-97168613D01*
X143709536Y-96754325D01*
X143806742Y-96265638D01*
X143709536Y-95776952D01*
X143432717Y-95362663D01*
X143397337Y-95327283D01*
X142983048Y-95050464D01*
X142494362Y-94953259D01*
X142005676Y-95050464D01*
X142001085Y-95053532D01*
X136997777Y-90050223D01*
X136826287Y-89935637D01*
X136624000Y-89895399D01*
X136623995Y-89895400D01*
X114462143Y-89895400D01*
X114211993Y-89521025D01*
X113797705Y-89244206D01*
X113309018Y-89147000D01*
X113258982Y-89147000D01*
X112770295Y-89244206D01*
X112356007Y-89521025D01*
X112229000Y-89711104D01*
X112229000Y-89447690D01*
X112132327Y-89214301D01*
X111953698Y-89035673D01*
X111720309Y-88939000D01*
X111029750Y-88939000D01*
X110871000Y-89097750D01*
X110871000Y-90297000D01*
X110891000Y-90297000D01*
X110891000Y-90551000D01*
X110871000Y-90551000D01*
X110871000Y-90571000D01*
X110617000Y-90571000D01*
X110617000Y-90551000D01*
X109417750Y-90551000D01*
X109259000Y-90709750D01*
X109259000Y-91400310D01*
X109355673Y-91633699D01*
X109534302Y-91812327D01*
X109767691Y-91909000D01*
X110043528Y-91909000D01*
X109816007Y-92061025D01*
X109539188Y-92475313D01*
X109535673Y-92492983D01*
X109441895Y-92511637D01*
X109270405Y-92626223D01*
X99824549Y-102072079D01*
X99824549Y-101022686D01*
X100216614Y-100760716D01*
X100493433Y-100346428D01*
X100590639Y-99857741D01*
X100493433Y-99369055D01*
X100236547Y-98984598D01*
X100621004Y-99241484D01*
X101109690Y-99338690D01*
X101598377Y-99241484D01*
X102012665Y-98964665D01*
X102289484Y-98550377D01*
X102386690Y-98061690D01*
X102289484Y-97573004D01*
X102032596Y-97188544D01*
X102417056Y-97445432D01*
X102905742Y-97542638D01*
X103394429Y-97445432D01*
X103808717Y-97168613D01*
X104085536Y-96754325D01*
X104182742Y-96265638D01*
X104085536Y-95776952D01*
X103808717Y-95362663D01*
X103773337Y-95327283D01*
X103359048Y-95050464D01*
X102870362Y-94953259D01*
X102381676Y-95050464D01*
X101967387Y-95327283D01*
X101690568Y-95741572D01*
X101593363Y-96230258D01*
X101690568Y-96718944D01*
X101947456Y-97103404D01*
X101562996Y-96846516D01*
X101074310Y-96749311D01*
X100585624Y-96846516D01*
X100171335Y-97123335D01*
X99894516Y-97537624D01*
X99797311Y-98026310D01*
X99894516Y-98514996D01*
X100151402Y-98899453D01*
X99766945Y-98642567D01*
X99278259Y-98545362D01*
X98789573Y-98642567D01*
X98375284Y-98919386D01*
X98098465Y-99333675D01*
X98001260Y-99822361D01*
X98054644Y-100090741D01*
X97859597Y-99895694D01*
X97626208Y-99799021D01*
X97373589Y-99799020D01*
X97140200Y-99895693D01*
X96651900Y-100383993D01*
X96432610Y-100383993D01*
X96432610Y-89447690D01*
X109259000Y-89447690D01*
X109259000Y-90138250D01*
X109417750Y-90297000D01*
X110617000Y-90297000D01*
X110617000Y-89097750D01*
X110458250Y-88939000D01*
X109767691Y-88939000D01*
X109534302Y-89035673D01*
X109355673Y-89214301D01*
X109259000Y-89447690D01*
X96432610Y-89447690D01*
X96432610Y-75614944D01*
X101970536Y-70077018D01*
X102093975Y-70077126D01*
X102361275Y-69966680D01*
X102565961Y-69762350D01*
X102676874Y-69495244D01*
X102677126Y-69206025D01*
X102566680Y-68938725D01*
X102362350Y-68734039D01*
X102095244Y-68623126D01*
X101806025Y-68622874D01*
X101538725Y-68733320D01*
X101334039Y-68937650D01*
X101223126Y-69204756D01*
X101223017Y-69329429D01*
X95530233Y-75022213D01*
X95415647Y-75193703D01*
X95375409Y-75395990D01*
X95375410Y-75395995D01*
X95375410Y-114277856D01*
X93078600Y-111981046D01*
X93078600Y-111817902D01*
X93078601Y-111817897D01*
X93038363Y-111615610D01*
X92948596Y-111481265D01*
X92923777Y-111444120D01*
X92923774Y-111444118D01*
X92677082Y-111197426D01*
X92770793Y-110726310D01*
X92673587Y-110237623D01*
X92396768Y-109823335D01*
X91982480Y-109546516D01*
X91493793Y-109449310D01*
X91005107Y-109546516D01*
X90620650Y-109803402D01*
X90877536Y-109418945D01*
X90974742Y-108930259D01*
X90877536Y-108441572D01*
X90600717Y-108027284D01*
X90186429Y-107750465D01*
X89697742Y-107653259D01*
X89209056Y-107750465D01*
X88824597Y-108007352D01*
X89081484Y-107622894D01*
X89178690Y-107134208D01*
X89081484Y-106645521D01*
X88804665Y-106231233D01*
X88390377Y-105954414D01*
X87901690Y-105857208D01*
X87413004Y-105954414D01*
X87028547Y-106211300D01*
X87285433Y-105826843D01*
X87382639Y-105338157D01*
X87285433Y-104849470D01*
X87008614Y-104435182D01*
X86594326Y-104158363D01*
X86105639Y-104061157D01*
X85616953Y-104158363D01*
X85202664Y-104435182D01*
X85167284Y-104470562D01*
X84890465Y-104884851D01*
X84793260Y-105373537D01*
X84837859Y-105597752D01*
X84651596Y-105411489D01*
X84418207Y-105314816D01*
X84165588Y-105314817D01*
X83932199Y-105411490D01*
X83443900Y-105899789D01*
X83443900Y-106124295D01*
X84291898Y-106972293D01*
X84306041Y-106958151D01*
X84485646Y-107137756D01*
X84471503Y-107151898D01*
X84485646Y-107166041D01*
X84306041Y-107345646D01*
X84291898Y-107331503D01*
X83443900Y-108179501D01*
X83443900Y-108404007D01*
X83932200Y-108892307D01*
X84165589Y-108988980D01*
X84418208Y-108988979D01*
X84651597Y-108892306D01*
X84846644Y-108697259D01*
X84793260Y-108965639D01*
X84890465Y-109454325D01*
X85167284Y-109868614D01*
X85559349Y-110130583D01*
X85559349Y-110787944D01*
X85559348Y-110787949D01*
X85599586Y-110990236D01*
X85714172Y-111161726D01*
X89026221Y-114473774D01*
X89026223Y-114473777D01*
X89197714Y-114588363D01*
X89400000Y-114628600D01*
X92281046Y-114628600D01*
X93454597Y-115802151D01*
X93300000Y-115771399D01*
X93299995Y-115771400D01*
X92099559Y-115771400D01*
X92012350Y-115684039D01*
X91745244Y-115573126D01*
X91456025Y-115572874D01*
X91188725Y-115683320D01*
X90984039Y-115887650D01*
X90873126Y-116154756D01*
X90872874Y-116443975D01*
X90983320Y-116711275D01*
X91187650Y-116915961D01*
X91454756Y-117026874D01*
X91743975Y-117027126D01*
X92011275Y-116916680D01*
X92099508Y-116828600D01*
X93081046Y-116828600D01*
X93371400Y-117118954D01*
X93371400Y-117723846D01*
X93227018Y-117579464D01*
X93227126Y-117456025D01*
X93116680Y-117188725D01*
X92912350Y-116984039D01*
X92645244Y-116873126D01*
X92356025Y-116872874D01*
X92088725Y-116983320D01*
X91884039Y-117187650D01*
X91773126Y-117454756D01*
X91772874Y-117743975D01*
X91883320Y-118011275D01*
X92087650Y-118215961D01*
X92354756Y-118326874D01*
X92479429Y-118326983D01*
X92621400Y-118468954D01*
X92621400Y-121147296D01*
X92508340Y-121034039D01*
X92243881Y-120924225D01*
X90639496Y-119319840D01*
X90776849Y-119376874D01*
X91066068Y-119377126D01*
X91333368Y-119266680D01*
X91538054Y-119062350D01*
X91648967Y-118795244D01*
X91649219Y-118506025D01*
X91538773Y-118238725D01*
X91334443Y-118034039D01*
X91067337Y-117923126D01*
X90942664Y-117923017D01*
X83081717Y-110062070D01*
X82910227Y-109947484D01*
X82707940Y-109907246D01*
X82707935Y-109907247D01*
X82190584Y-109907247D01*
X81928614Y-109515182D01*
X81514326Y-109238363D01*
X81025639Y-109141157D01*
X80536953Y-109238363D01*
X80122664Y-109515182D01*
X80087284Y-109550562D01*
X79810465Y-109964851D01*
X79713260Y-110453537D01*
X79757859Y-110677752D01*
X79571596Y-110491489D01*
X79338207Y-110394816D01*
X79085588Y-110394817D01*
X78852199Y-110491490D01*
X78363900Y-110979789D01*
X72744500Y-110979789D01*
X72744500Y-107278207D01*
X82454816Y-107278207D01*
X82551489Y-107511596D01*
X83039789Y-107999896D01*
X83264295Y-107999896D01*
X84112293Y-107151898D01*
X83264295Y-106303900D01*
X83039789Y-106303900D01*
X82551490Y-106792199D01*
X82454817Y-107025588D01*
X82454816Y-107278207D01*
X72744500Y-107278207D01*
X72744500Y-100520382D01*
X81302096Y-91962787D01*
X82571706Y-93232397D01*
X82712949Y-93326772D01*
X82879556Y-93359912D01*
X83046163Y-93326772D01*
X83187406Y-93232397D01*
X85987549Y-90432254D01*
X86081924Y-90291011D01*
X86086815Y-90266421D01*
X86910197Y-91089803D01*
X86951399Y-91117333D01*
X87000000Y-91127000D01*
X87048601Y-91117333D01*
X87089803Y-91089803D01*
X93089803Y-85089803D01*
X93117333Y-85048601D01*
X93127000Y-85000000D01*
X93117333Y-84951399D01*
X93089803Y-84910197D01*
X91294939Y-83115333D01*
X91326383Y-83109079D01*
X91467626Y-83014704D01*
X94267768Y-80214562D01*
X94362143Y-80073319D01*
X94395283Y-79906712D01*
X94362143Y-79740105D01*
X94267768Y-79598862D01*
X92613138Y-77944232D01*
X92471895Y-77849857D01*
X92305288Y-77816717D01*
X92138681Y-77849857D01*
X91997438Y-77944232D01*
X89197296Y-80744374D01*
X89102921Y-80885617D01*
X89096667Y-80917061D01*
X87089803Y-78910197D01*
X87048601Y-78882667D01*
X87000000Y-78873000D01*
X86951399Y-78882667D01*
X86910197Y-78910197D01*
X80910197Y-84910197D01*
X80882667Y-84951399D01*
X80873000Y-85000000D01*
X80882667Y-85048601D01*
X80910197Y-85089803D01*
X81945579Y-86125185D01*
X81920989Y-86130076D01*
X81779746Y-86224451D01*
X78979603Y-89024594D01*
X78885228Y-89165837D01*
X78852088Y-89332444D01*
X78885228Y-89499051D01*
X78979603Y-89640294D01*
X80249214Y-90909905D01*
X71473559Y-99685559D01*
X71312172Y-99927092D01*
X71255500Y-100212000D01*
X58497936Y-100212000D01*
X66954968Y-91754968D01*
X67063788Y-91592108D01*
X67102001Y-91400000D01*
X67063788Y-91207893D01*
X66992044Y-91100521D01*
X66954968Y-91045032D01*
X66954965Y-91045030D01*
X66318229Y-90408294D01*
X66688654Y-85592775D01*
X67391996Y-84713597D01*
X67417926Y-84663594D01*
X67451880Y-84618652D01*
X67462582Y-84577482D01*
X67482166Y-84539716D01*
X67486987Y-84483593D01*
X67501157Y-84429080D01*
X67495289Y-84386949D01*
X67498930Y-84344563D01*
X67481906Y-84290866D01*
X67474137Y-84235083D01*
X66827872Y-82377072D01*
X70597748Y-80761411D01*
X70650396Y-80725297D01*
X70707511Y-80696788D01*
X78707511Y-74496788D01*
X78708901Y-74495188D01*
X78710794Y-74494223D01*
X78773074Y-74421299D01*
X78835948Y-74348906D01*
X78836621Y-74346891D01*
X78837998Y-74345279D01*
X82980638Y-66947707D01*
X91735778Y-60946993D01*
X101481487Y-57168045D01*
X101486397Y-57164924D01*
X101492107Y-57163788D01*
X101568878Y-57112491D01*
X101646786Y-57062966D01*
X101650129Y-57058201D01*
X101654968Y-57054968D01*
X103709936Y-55000000D01*
X142498000Y-55000000D01*
X142688453Y-55957474D01*
X143230819Y-56769181D01*
X144042526Y-57311547D01*
X145000000Y-57502000D01*
X145957474Y-57311547D01*
X146769181Y-56769181D01*
X147311547Y-55957474D01*
X147502000Y-55000000D01*
X147311547Y-54042526D01*
X146769181Y-53230819D01*
X145957474Y-52688453D01*
X145000000Y-52498000D01*
X144042526Y-52688453D01*
X143230819Y-53230819D01*
X142688453Y-54042526D01*
X142498000Y-55000000D01*
X103709936Y-55000000D01*
X108207936Y-50502000D01*
X144950559Y-50502000D01*
X146717546Y-50853475D01*
G36*
X109765509Y-98871400D02*
X108500005Y-98871400D01*
X108500000Y-98871399D01*
X108297713Y-98911637D01*
X108126223Y-99026223D01*
X101426223Y-105726223D01*
X101311637Y-105897713D01*
X101271399Y-106100000D01*
X101271400Y-106100005D01*
X101271400Y-116055311D01*
X100677786Y-116648925D01*
X100495244Y-116573126D01*
X100278599Y-116572937D01*
X100278599Y-115471501D01*
X100411275Y-115416680D01*
X100615961Y-115212350D01*
X100726874Y-114945244D01*
X100727126Y-114656025D01*
X100616680Y-114388725D01*
X100509909Y-114281768D01*
X100488363Y-114173449D01*
X100378600Y-114009177D01*
X100378600Y-104018954D01*
X105824953Y-98572600D01*
X109565857Y-98572600D01*
X109765509Y-98871400D01*
X109765509Y-98871400D01*
G37*
X109765509Y-98871400D02*
X108500005Y-98871400D01*
X108500000Y-98871399D01*
X108297713Y-98911637D01*
X108126223Y-99026223D01*
X101426223Y-105726223D01*
X101311637Y-105897713D01*
X101271399Y-106100000D01*
X101271400Y-106100005D01*
X101271400Y-116055311D01*
X100677786Y-116648925D01*
X100495244Y-116573126D01*
X100278599Y-116572937D01*
X100278599Y-115471501D01*
X100411275Y-115416680D01*
X100615961Y-115212350D01*
X100726874Y-114945244D01*
X100727126Y-114656025D01*
X100616680Y-114388725D01*
X100509909Y-114281768D01*
X100488363Y-114173449D01*
X100378600Y-114009177D01*
X100378600Y-104018954D01*
X105824953Y-98572600D01*
X109565857Y-98572600D01*
X109765509Y-98871400D01*
G36*
X109539188Y-95015313D02*
X109441982Y-95504000D01*
X109539188Y-95992687D01*
X109816007Y-96406975D01*
X110230295Y-96683794D01*
X110683791Y-96774000D01*
X110230295Y-96864206D01*
X109816007Y-97141025D01*
X109565857Y-97515400D01*
X106379244Y-97515400D01*
X109116044Y-94778600D01*
X109697355Y-94778600D01*
X109539188Y-95015313D01*
X109539188Y-95015313D01*
G37*
X109539188Y-95015313D02*
X109441982Y-95504000D01*
X109539188Y-95992687D01*
X109816007Y-96406975D01*
X110230295Y-96683794D01*
X110683791Y-96774000D01*
X110230295Y-96864206D01*
X109816007Y-97141025D01*
X109565857Y-97515400D01*
X106379244Y-97515400D01*
X109116044Y-94778600D01*
X109697355Y-94778600D01*
X109539188Y-95015313D01*
M02*
