G04 #@! TF.GenerationSoftware,KiCad,Pcbnew,(2017-07-14 revision d3b382c)-master*
G04 #@! TF.CreationDate,2017-07-17T01:29:14+02:00*
G04 #@! TF.ProjectId,Bornhack Make Tradition Badge,426F726E6861636B204D616B65205472,rev?*
G04 #@! TF.SameCoordinates,Original
G04 #@! TF.FileFunction,Soldermask,Bot*
G04 #@! TF.FilePolarity,Negative*
%FSLAX46Y46*%
G04 Gerber Fmt 4.6, Leading zero omitted, Abs format (unit mm)*
G04 Created by KiCad (PCBNEW (2017-07-14 revision d3b382c)-master) date Monday, July 17, 2017 'AMt' 01:29:14 AM*
%MOMM*%
%LPD*%
G01*
G04 APERTURE LIST*
%ADD10C,2.940000*%
%ADD11C,0.100000*%
%ADD12C,18.180000*%
%ADD13C,4.360000*%
%ADD14C,2.740000*%
%ADD15C,2.100000*%
%ADD16C,2.100000*%
%ADD17R,2.100000X2.100000*%
%ADD18O,2.100000X2.100000*%
%ADD19C,1.600000*%
%ADD20C,1.600000*%
%ADD21C,1.500000*%
%ADD22C,1.500000*%
G04 APERTURE END LIST*
D10*
X74122231Y-142702231D03*
D11*
G36*
X77099151Y-141804205D02*
X73224205Y-145679151D01*
X71145311Y-143600257D01*
X75020257Y-139725311D01*
X77099151Y-141804205D01*
X77099151Y-141804205D01*
G37*
D10*
X57957769Y-126537769D03*
D11*
G36*
X60934689Y-125639743D02*
X57059743Y-129514689D01*
X54980849Y-127435795D01*
X58855795Y-123560849D01*
X60934689Y-125639743D01*
X60934689Y-125639743D01*
G37*
D12*
X66040000Y-134620000D03*
D13*
X93300000Y-134000000D03*
D11*
G36*
X96778965Y-134395980D02*
X93695980Y-137478965D01*
X89821035Y-133604020D01*
X92904020Y-130521035D01*
X96778965Y-134395980D01*
X96778965Y-134395980D01*
G37*
D13*
X109931152Y-117368848D03*
D11*
G36*
X113410117Y-117764828D02*
X110327132Y-120847813D01*
X106452187Y-116972868D01*
X109535172Y-113889883D01*
X113410117Y-117764828D01*
X113410117Y-117764828D01*
G37*
D14*
X84051044Y-143248956D03*
D11*
G36*
X86561273Y-142676200D02*
X83478288Y-145759185D01*
X81540815Y-143821712D01*
X84623800Y-140738727D01*
X86561273Y-142676200D01*
X86561273Y-142676200D01*
G37*
D14*
X119180108Y-108119892D03*
D11*
G36*
X121690337Y-107547136D02*
X118607352Y-110630121D01*
X116669879Y-108692648D01*
X119752864Y-105609663D01*
X121690337Y-107547136D01*
X121690337Y-107547136D01*
G37*
D14*
X91732532Y-80479468D03*
D11*
G36*
X94242761Y-79906712D02*
X91159776Y-82989697D01*
X89222303Y-81052224D01*
X92305288Y-77969239D01*
X94242761Y-79906712D01*
X94242761Y-79906712D01*
G37*
D14*
X56603468Y-115608532D03*
D11*
G36*
X59113697Y-115035776D02*
X56030712Y-118118761D01*
X54093239Y-116181288D01*
X57176224Y-113098303D01*
X59113697Y-115035776D01*
X59113697Y-115035776D01*
G37*
D13*
X82483576Y-89728424D03*
D11*
G36*
X85962541Y-90124404D02*
X82879556Y-93207389D01*
X79004611Y-89332444D01*
X82087596Y-86249459D01*
X85962541Y-90124404D01*
X85962541Y-90124404D01*
G37*
D13*
X65852424Y-106359576D03*
D11*
G36*
X69331389Y-106755556D02*
X66248404Y-109838541D01*
X62373459Y-105963596D01*
X65456444Y-102880611D01*
X69331389Y-106755556D01*
X69331389Y-106755556D01*
G37*
D15*
X86396103Y-115824000D03*
D16*
X86396103Y-115824000D02*
X86396103Y-115824000D01*
D15*
X84600052Y-117620052D03*
D16*
X84600052Y-117620052D02*
X84600052Y-117620052D01*
D15*
X84600052Y-114027949D03*
D16*
X84600052Y-114027949D02*
X84600052Y-114027949D01*
D15*
X82804000Y-115824000D03*
D16*
X82804000Y-115824000D02*
X82804000Y-115824000D01*
D15*
X82804000Y-112231898D03*
D16*
X82804000Y-112231898D02*
X82804000Y-112231898D01*
D15*
X81007949Y-114027949D03*
D16*
X81007949Y-114027949D02*
X81007949Y-114027949D01*
D15*
X81007949Y-110435847D03*
D16*
X81007949Y-110435847D02*
X81007949Y-110435847D01*
D15*
X79211898Y-112231898D03*
D11*
G36*
X79211898Y-113716822D02*
X77726974Y-112231898D01*
X79211898Y-110746974D01*
X80696822Y-112231898D01*
X79211898Y-113716822D01*
X79211898Y-113716822D01*
G37*
D17*
X110744000Y-90424000D03*
D18*
X113284000Y-90424000D03*
X110744000Y-92964000D03*
X113284000Y-92964000D03*
X110744000Y-95504000D03*
X113284000Y-95504000D03*
X110744000Y-98044000D03*
X113284000Y-98044000D03*
D15*
X91476103Y-110744000D03*
D16*
X91476103Y-110744000D02*
X91476103Y-110744000D01*
D15*
X89680052Y-112540052D03*
D16*
X89680052Y-112540052D02*
X89680052Y-112540052D01*
D15*
X89680052Y-108947949D03*
D16*
X89680052Y-108947949D02*
X89680052Y-108947949D01*
D15*
X87884000Y-110744000D03*
D16*
X87884000Y-110744000D02*
X87884000Y-110744000D01*
D15*
X87884000Y-107151898D03*
D16*
X87884000Y-107151898D02*
X87884000Y-107151898D01*
D15*
X86087949Y-108947949D03*
D16*
X86087949Y-108947949D02*
X86087949Y-108947949D01*
D15*
X86087949Y-105355847D03*
D16*
X86087949Y-105355847D02*
X86087949Y-105355847D01*
D15*
X84291898Y-107151898D03*
D11*
G36*
X84291898Y-108636822D02*
X82806974Y-107151898D01*
X84291898Y-105666974D01*
X85776822Y-107151898D01*
X84291898Y-108636822D01*
X84291898Y-108636822D01*
G37*
D15*
X114064051Y-128759949D03*
D16*
X114064051Y-128759949D02*
X114064051Y-128759949D01*
D15*
X112268000Y-130556000D03*
D11*
G36*
X113752924Y-130556000D02*
X112268000Y-132040924D01*
X110783076Y-130556000D01*
X112268000Y-129071076D01*
X113752924Y-130556000D01*
X113752924Y-130556000D01*
G37*
D15*
X118872000Y-123952000D03*
D11*
G36*
X120356924Y-123952000D02*
X118872000Y-125436924D01*
X117387076Y-123952000D01*
X118872000Y-122467076D01*
X120356924Y-123952000D01*
X120356924Y-123952000D01*
G37*
D15*
X120668051Y-122155949D03*
D16*
X120668051Y-122155949D02*
X120668051Y-122155949D01*
D19*
X132384803Y-106375197D03*
D20*
X132561580Y-106551974D02*
X132208026Y-106198420D01*
D19*
X128524000Y-110236000D03*
D20*
X128700777Y-110412777D02*
X128347223Y-110059223D01*
D21*
X130044279Y-104473080D03*
D22*
X130185700Y-104614501D02*
X129902858Y-104331659D01*
D21*
X126621883Y-107895476D03*
D22*
X126763304Y-108036897D02*
X126480462Y-107754055D01*
D15*
X137123898Y-101636102D03*
D11*
G36*
X138608822Y-101636102D02*
X137123898Y-103121026D01*
X135638974Y-101636102D01*
X137123898Y-100151178D01*
X138608822Y-101636102D01*
X138608822Y-101636102D01*
G37*
D15*
X138919949Y-99840051D03*
D16*
X138919949Y-99840051D02*
X138919949Y-99840051D01*
D15*
X140716000Y-98044000D03*
D16*
X140716000Y-98044000D02*
X140716000Y-98044000D01*
D15*
X142512052Y-96247948D03*
D16*
X142512052Y-96247948D02*
X142512052Y-96247948D01*
D15*
X103668103Y-135091897D03*
D16*
X103668103Y-135091897D02*
X103668103Y-135091897D01*
D15*
X101872051Y-136887949D03*
D16*
X101872051Y-136887949D02*
X101872051Y-136887949D01*
D15*
X100076000Y-138684000D03*
D16*
X100076000Y-138684000D02*
X100076000Y-138684000D01*
D15*
X98279949Y-140480051D03*
D11*
G36*
X99764873Y-140480051D02*
X98279949Y-141964975D01*
X96795025Y-140480051D01*
X98279949Y-138995127D01*
X99764873Y-140480051D01*
X99764873Y-140480051D01*
G37*
D15*
X102888052Y-96247948D03*
D16*
X102888052Y-96247948D02*
X102888052Y-96247948D01*
D15*
X101092000Y-98044000D03*
D16*
X101092000Y-98044000D02*
X101092000Y-98044000D01*
D15*
X99295949Y-99840051D03*
D16*
X99295949Y-99840051D02*
X99295949Y-99840051D01*
D15*
X97499898Y-101636102D03*
D11*
G36*
X98984822Y-101636102D02*
X97499898Y-103121026D01*
X96014974Y-101636102D01*
X97499898Y-100151178D01*
X98984822Y-101636102D01*
X98984822Y-101636102D01*
G37*
M02*
