M48
;DRILL file {KiCad (2017-07-14 revision d3b382c)-master} date Sunday, July 30, 2017 'PMt' 08:27:20 PM
;FORMAT={-:-/ absolute / inch / decimal}
FMAT,2
INCH,TZ
T1C0.016
T2C0.026
T3C0.028
T4C0.039
%
G90
G05
M72
T1
X2.5591Y-3.9272
X2.6102Y-4.5354
X2.705Y-4.295
X2.9429Y-3.4547
X3.2835Y-3.7126
X3.3602Y-4.7559
X3.4882Y-4.7165
X3.4975Y-3.56
X3.5098Y-3.9265
X3.525Y-3.665
X3.5796Y-4.6713
X3.6063Y-4.5787
X3.6258Y-4.7894
X3.6299Y-4.4587
X3.6417Y-4.6299
X3.6713Y-5.0039
X3.68Y-3.2625
X3.68Y-3.755
X3.6875Y-3.37
X3.7075Y-3.47
X3.7155Y-2.9977
X3.7757Y-4.815
X3.8383Y-4.1142
X3.8543Y-4.5256
X3.8583Y-4.5965
X3.8599Y-4.4626
X3.8778Y-4.7289
X3.8975Y-4.7618
X3.8976Y-5.0512
X3.9154Y-4.815
X3.9175Y-3.515
X3.9175Y-4.476
X3.935Y-4.5
X3.9429Y-5.0276
X3.9606Y-4.7362
X3.9626Y-4.6496
X3.9665Y-4.9941
X3.9883Y-4.9685
X3.9921Y-3.248
X3.9926Y-4.4943
X4.0077Y-4.4688
X4.0138Y-2.7303
X4.0138Y-4.7244
X4.0217Y-4.5177
X4.0315Y-4.6811
X4.0433Y-4.626
X4.0452Y-4.7379
X4.0512Y-3.3071
X4.061Y-4.7638
X4.0807Y-4.2579
X4.0807Y-4.6772
X4.1102Y-3.3701
X4.1201Y-4.813
X4.1339Y-2.3622
X4.1378Y-4.9606
X4.1475Y-4.5093
X4.1594Y-4.3051
X4.1693Y-4.2087
X4.2008Y-4.1772
X4.2126Y-4.065
X4.2146Y-4.9016
X4.2225Y-4.4825
X4.2343Y-4.7972
X4.2525Y-3.8175
X4.2756Y-4.0945
X4.2987Y-4.2546
X4.3012Y-5.2657
X4.311Y-4.2815
X4.3492Y-4.3975
X4.3543Y-4.0157
X4.3543Y-4.7933
X4.3602Y-3.9843
X4.4508Y-4.1732
X4.6161Y-2.2638
X4.7933Y-4.8425
X4.8701Y-2.7598
X4.9606Y-3.1496
X4.981Y-4.1815
X5.3514Y-3.2412
X5.42Y-3.8125
X5.4409Y-2.6693
X5.48Y-3.48
T4
X3.8386Y-4.0014
X3.9093Y-3.9307
X3.3186Y-4.2186
X3.3893Y-4.1479
X3.3893Y-4.2893
X3.46Y-4.2186
X3.46Y-4.36
X3.5307Y-4.2893
X3.5307Y-4.4307
X3.6014Y-4.36
X4.0507Y-3.7893
X3.98Y-3.86
X3.1186Y-4.4186
X3.1893Y-4.3479
X3.1893Y-4.4893
X3.26Y-4.4186
X3.26Y-4.56
X3.3307Y-4.4893
X3.3307Y-4.6307
X3.4014Y-4.56
X4.36Y-3.56
X4.36Y-3.66
X4.36Y-3.76
X4.36Y-3.86
X4.46Y-3.56
X4.46Y-3.66
X4.46Y-3.76
X4.46Y-3.86
X5.3986Y-4.0014
X5.4693Y-3.9307
X5.54Y-3.86
X5.6107Y-3.7893
X3.8693Y-5.5307
X3.94Y-5.46
X4.0107Y-5.3893
X4.0814Y-5.3186
T2
X4.9907Y-4.2534G85X4.9795Y-4.2423
G05
X5.1254Y-4.1187G85X5.1143Y-4.1075
G05
T3
X5.067Y-4.347G85X5.053Y-4.333
G05
X5.219Y-4.195G85X5.205Y-4.181
G05
T0
M30
