G04 #@! TF.GenerationSoftware,KiCad,Pcbnew,(2017-07-14 revision d3b382c)-master*
G04 #@! TF.CreationDate,2017-07-30T20:26:54+02:00*
G04 #@! TF.ProjectId,Bornhack Make Tradition Badge,426F726E6861636B204D616B65205472,rev?*
G04 #@! TF.SameCoordinates,Original
G04 #@! TF.FileFunction,Legend,Bot*
G04 #@! TF.FilePolarity,Positive*
%FSLAX46Y46*%
G04 Gerber Fmt 4.6, Leading zero omitted, Abs format (unit mm)*
G04 Created by KiCad (PCBNEW (2017-07-14 revision d3b382c)-master) date Sunday, July 30, 2017 'PMt' 08:26:54 PM*
%MOMM*%
%LPD*%
G01*
G04 APERTURE LIST*
%ADD10C,0.400000*%
%ADD11C,0.300000*%
%ADD12C,0.010000*%
%ADD13C,0.150000*%
%ADD14C,0.200000*%
%ADD15C,0.550000*%
G04 APERTURE END LIST*
D10*
X144387684Y-64569001D02*
X144118310Y-64434314D01*
X143983623Y-64434314D01*
X143781592Y-64501658D01*
X143579562Y-64703688D01*
X143512218Y-64905719D01*
X143512218Y-65040406D01*
X143579562Y-65242436D01*
X144118310Y-65781184D01*
X145532523Y-64366971D01*
X145061119Y-63895566D01*
X144859088Y-63828223D01*
X144724401Y-63828223D01*
X144522371Y-63895566D01*
X144387684Y-64030253D01*
X144320340Y-64232284D01*
X144320340Y-64366971D01*
X144387684Y-64569001D01*
X144859088Y-65040406D01*
X142098005Y-63760879D02*
X142838783Y-63020101D01*
X143040814Y-62952757D01*
X143242844Y-63020101D01*
X143512218Y-63289475D01*
X143579562Y-63491505D01*
X142165348Y-63693536D02*
X142232692Y-63895566D01*
X142569409Y-64232284D01*
X142771440Y-64299627D01*
X142973470Y-64232284D01*
X143108157Y-64097597D01*
X143175501Y-63895566D01*
X143108157Y-63693536D01*
X142771440Y-63356818D01*
X142704096Y-63154788D01*
X140818478Y-62481353D02*
X142232692Y-61067139D01*
X140885822Y-62414009D02*
X140953165Y-62616040D01*
X141222539Y-62885414D01*
X141424570Y-62952757D01*
X141559257Y-62952757D01*
X141761287Y-62885414D01*
X142165348Y-62481353D01*
X142232692Y-62279322D01*
X142232692Y-62144635D01*
X142165348Y-61942605D01*
X141895974Y-61673231D01*
X141693944Y-61605887D01*
X140481761Y-60259017D02*
X139336921Y-61403857D01*
X139269577Y-61605887D01*
X139269577Y-61740574D01*
X139336921Y-61942605D01*
X139538951Y-62144635D01*
X139740982Y-62211979D01*
X139606295Y-61134483D02*
X139673638Y-61336513D01*
X139943013Y-61605887D01*
X140145043Y-61673231D01*
X140279730Y-61673231D01*
X140481761Y-61605887D01*
X140885822Y-61201826D01*
X140953165Y-60999796D01*
X140953165Y-60865109D01*
X140885822Y-60663078D01*
X140616448Y-60393704D01*
X140414417Y-60326361D01*
X138394112Y-59922299D02*
X138461455Y-60124330D01*
X138730829Y-60393704D01*
X138932860Y-60461048D01*
X139134890Y-60393704D01*
X139673638Y-59854956D01*
X139740982Y-59652925D01*
X139673638Y-59450895D01*
X139404264Y-59181521D01*
X139202234Y-59114177D01*
X139000203Y-59181521D01*
X138865516Y-59316208D01*
X139404264Y-60124330D01*
X136575837Y-58238712D02*
X137990051Y-56824498D01*
X137451303Y-57363246D02*
X137383959Y-57161216D01*
X137114585Y-56891842D01*
X136912555Y-56824498D01*
X136777868Y-56824498D01*
X136575837Y-56891842D01*
X136171776Y-57295903D01*
X136104433Y-57497933D01*
X136104433Y-57632620D01*
X136171776Y-57834651D01*
X136441150Y-58104025D01*
X136643181Y-58171368D01*
X136373807Y-56151063D02*
X135094280Y-56757155D01*
X135700372Y-55477628D02*
X135094280Y-56757155D01*
X134892250Y-57228559D01*
X134892250Y-57363246D01*
X134959593Y-57565277D01*
X134353502Y-55747002D02*
X134218815Y-55747002D01*
X134218815Y-55881689D01*
X134353502Y-55881689D01*
X134353502Y-55747002D01*
X134218815Y-55881689D01*
X135094280Y-55006224D02*
X134959593Y-55006224D01*
X134959593Y-55140911D01*
X135094280Y-55140911D01*
X135094280Y-55006224D01*
X134959593Y-55140911D01*
X144778276Y-71114790D02*
X144508902Y-70980103D01*
X144172185Y-70643385D01*
X144104841Y-70441355D01*
X144104841Y-70306668D01*
X144172185Y-70104637D01*
X144306872Y-69969950D01*
X144508902Y-69902607D01*
X144643589Y-69902607D01*
X144845620Y-69969950D01*
X145182337Y-70171981D01*
X145384368Y-70239324D01*
X145519055Y-70239324D01*
X145721085Y-70171981D01*
X145855772Y-70037294D01*
X145923116Y-69835263D01*
X145923116Y-69700576D01*
X145855772Y-69498546D01*
X145519055Y-69161828D01*
X145249681Y-69027141D01*
X143296719Y-69767920D02*
X144239528Y-68825111D01*
X144710933Y-68353706D02*
X144710933Y-68488393D01*
X144576246Y-68488393D01*
X144576246Y-68353706D01*
X144710933Y-68353706D01*
X144576246Y-68488393D01*
X143229376Y-67006836D02*
X143431406Y-67074179D01*
X143633437Y-67276210D01*
X143768124Y-67545584D01*
X143768124Y-67814958D01*
X143700780Y-68016988D01*
X143498750Y-68353706D01*
X143296719Y-68555737D01*
X142960001Y-68757767D01*
X142757971Y-68825111D01*
X142488597Y-68825111D01*
X142219223Y-68690424D01*
X142084536Y-68555737D01*
X141949849Y-68286363D01*
X141949849Y-68151675D01*
X142421253Y-67680271D01*
X142690627Y-67949645D01*
X141209070Y-67680271D02*
X142623284Y-66266057D01*
X140400948Y-66872149D01*
X141815162Y-65457935D01*
X140872353Y-64515126D02*
X140602979Y-64245752D01*
X140400948Y-64178409D01*
X140131574Y-64178409D01*
X139794857Y-64380439D01*
X139323452Y-64851844D01*
X139121422Y-65188561D01*
X139121422Y-65457935D01*
X139188765Y-65659966D01*
X139458139Y-65929340D01*
X139660170Y-65996683D01*
X139929544Y-65996683D01*
X140266261Y-65794653D01*
X140737666Y-65323248D01*
X140939696Y-64986531D01*
X140939696Y-64717157D01*
X140872353Y-64515126D01*
X139660170Y-63302943D02*
X138515330Y-64447783D01*
X138313300Y-64515126D01*
X138178613Y-64515126D01*
X137976582Y-64447783D01*
X137707208Y-64178409D01*
X137639865Y-63976378D01*
X137639865Y-63841691D01*
X137707208Y-63639661D01*
X138852048Y-62494821D01*
X138380643Y-62023417D02*
X137572521Y-61215295D01*
X136562369Y-63033569D02*
X137976582Y-61619356D01*
X135686903Y-62023417D02*
X135619560Y-62090760D01*
X135552216Y-62292791D01*
X135552216Y-62427478D01*
X134676751Y-59666394D02*
X134205346Y-59194990D01*
X133262537Y-59733738D02*
X133935972Y-60407173D01*
X135350186Y-58992959D01*
X134676751Y-58319524D01*
X132791133Y-59127646D02*
X132589102Y-59060303D01*
X132319728Y-58790929D01*
X132252385Y-58588898D01*
X132319728Y-58386868D01*
X132387072Y-58319524D01*
X132589102Y-58252181D01*
X132791133Y-58319524D01*
X132993163Y-58521555D01*
X133195194Y-58588898D01*
X133397224Y-58521555D01*
X133464568Y-58454211D01*
X133531911Y-58252181D01*
X133464568Y-58050150D01*
X133262537Y-57848120D01*
X133060507Y-57780776D01*
X131511606Y-57982807D02*
X132454415Y-57039998D01*
X132319728Y-57174685D02*
X132319728Y-57039998D01*
X132252385Y-56837967D01*
X132050354Y-56635936D01*
X131848324Y-56568593D01*
X131646293Y-56635936D01*
X130905514Y-57376715D01*
X131646293Y-56635936D02*
X131713636Y-56433906D01*
X131646293Y-56231875D01*
X131444262Y-56029845D01*
X131242232Y-55962501D01*
X131040201Y-56029845D01*
X130299423Y-56770623D01*
X129625988Y-56097188D02*
X130568797Y-55154379D01*
X131040201Y-54682975D02*
X131040201Y-54817662D01*
X130905514Y-54817662D01*
X130905514Y-54682975D01*
X131040201Y-54682975D01*
X130905514Y-54817662D01*
X128750522Y-55221723D02*
X128952553Y-55289066D01*
X129154583Y-55221723D01*
X130366766Y-54009540D01*
X140219121Y-71498648D02*
X140959900Y-70757869D01*
X141161930Y-70690526D01*
X141363961Y-70757869D01*
X141633335Y-71027243D01*
X141700678Y-71229274D01*
X140286464Y-71431304D02*
X140353808Y-71633335D01*
X140690526Y-71970052D01*
X140892556Y-72037396D01*
X141094587Y-71970052D01*
X141229274Y-71835365D01*
X141296617Y-71633335D01*
X141229274Y-71431304D01*
X140892556Y-71094587D01*
X140825213Y-70892556D01*
X140488495Y-69882403D02*
X139545686Y-70825213D01*
X140353808Y-70017090D02*
X140353808Y-69882403D01*
X140286464Y-69680373D01*
X140084434Y-69478342D01*
X139882403Y-69410999D01*
X139680373Y-69478342D01*
X138939594Y-70219121D01*
X137660068Y-68939594D02*
X139074281Y-67525381D01*
X137727411Y-68872251D02*
X137794755Y-69074281D01*
X138064129Y-69343655D01*
X138266159Y-69410999D01*
X138400846Y-69410999D01*
X138602877Y-69343655D01*
X139006938Y-68939594D01*
X139074281Y-68737564D01*
X139074281Y-68602877D01*
X139006938Y-68400846D01*
X138737564Y-68131472D01*
X138535533Y-68064129D01*
X137053976Y-66447885D02*
X136515228Y-65909137D01*
X135909137Y-67188663D02*
X137121320Y-65976480D01*
X137188663Y-65774450D01*
X137121320Y-65572419D01*
X136986633Y-65437732D01*
X134898984Y-66178511D02*
X135101015Y-66245854D01*
X135303045Y-66178511D01*
X136515228Y-64966328D01*
X134696954Y-64090862D02*
X133754145Y-65033671D01*
X135303045Y-64696954D02*
X134562267Y-65437732D01*
X134360236Y-65505076D01*
X134158206Y-65437732D01*
X133956175Y-65235702D01*
X133888832Y-65033671D01*
X133888832Y-64898984D01*
X133080710Y-64360236D02*
X134023519Y-63417427D01*
X133888832Y-63552114D02*
X133888832Y-63417427D01*
X133821488Y-63215397D01*
X133619458Y-63013366D01*
X133417427Y-62946023D01*
X133215397Y-63013366D01*
X132474618Y-63754145D01*
X133215397Y-63013366D02*
X133282740Y-62811336D01*
X133215397Y-62609305D01*
X133013366Y-62407275D01*
X132811336Y-62339931D01*
X132609305Y-62407275D01*
X131868527Y-63148053D01*
X131195092Y-62474618D02*
X132137901Y-61531809D01*
X132003214Y-61666496D02*
X132003214Y-61531809D01*
X131935870Y-61329779D01*
X131733840Y-61127748D01*
X131531809Y-61060405D01*
X131329779Y-61127748D01*
X130589000Y-61868527D01*
X131329779Y-61127748D02*
X131397122Y-60925718D01*
X131329779Y-60723687D01*
X131127748Y-60521657D01*
X130925718Y-60454313D01*
X130723687Y-60521657D01*
X129982909Y-61262435D01*
X128838069Y-59982909D02*
X128905412Y-60184939D01*
X129174786Y-60454313D01*
X129376817Y-60521657D01*
X129578848Y-60454313D01*
X130117596Y-59915565D01*
X130184939Y-59713535D01*
X130117596Y-59511504D01*
X129848222Y-59242130D01*
X129646191Y-59174786D01*
X129444161Y-59242130D01*
X129309473Y-59376817D01*
X129848222Y-60184939D01*
X128097290Y-59376817D02*
X129040099Y-58434008D01*
X128770725Y-58703382D02*
X128838069Y-58501351D01*
X128838069Y-58366664D01*
X128770725Y-58164634D01*
X128636038Y-58029947D01*
X138676955Y-79573133D02*
X140091168Y-78158920D01*
X138070863Y-78967042D02*
X138811642Y-78226263D01*
X139013672Y-78158920D01*
X139215703Y-78226263D01*
X139417733Y-78428294D01*
X139485077Y-78630324D01*
X139485077Y-78765011D01*
X138542268Y-77552828D02*
X138003520Y-77014080D01*
X138811642Y-76879393D02*
X137599459Y-78091576D01*
X137397428Y-78158920D01*
X137195398Y-78091576D01*
X137060711Y-77956889D01*
X137734146Y-76744706D02*
X137195398Y-76205958D01*
X138003520Y-76071271D02*
X136791337Y-77283454D01*
X136589306Y-77350798D01*
X136387276Y-77283454D01*
X136252589Y-77148767D01*
X136723993Y-75734554D02*
X135309780Y-77148767D01*
X136656650Y-75801897D02*
X136589306Y-75599867D01*
X136319932Y-75330493D01*
X136117902Y-75263149D01*
X135983215Y-75263149D01*
X135781184Y-75330493D01*
X135377123Y-75734554D01*
X135309780Y-75936584D01*
X135309780Y-76071271D01*
X135377123Y-76273302D01*
X135646497Y-76542676D01*
X135848528Y-76610019D01*
X134636345Y-75397836D02*
X134434314Y-75330493D01*
X134164940Y-75061119D01*
X134097597Y-74859088D01*
X134164940Y-74657058D01*
X134232284Y-74589714D01*
X134434314Y-74522371D01*
X134636345Y-74589714D01*
X134838375Y-74791745D01*
X135040406Y-74859088D01*
X135242436Y-74791745D01*
X135309780Y-74724401D01*
X135377123Y-74522371D01*
X135309780Y-74320340D01*
X135107749Y-74118310D01*
X134905719Y-74050966D01*
X133491505Y-74118310D02*
X133356818Y-74118310D01*
X133356818Y-74252997D01*
X133491505Y-74252997D01*
X133491505Y-74118310D01*
X133356818Y-74252997D01*
X134232284Y-73377531D02*
X134097597Y-73377531D01*
X134097597Y-73512218D01*
X134232284Y-73512218D01*
X134232284Y-73377531D01*
X134097597Y-73512218D01*
X133154788Y-71087852D02*
X132548696Y-74118310D01*
X131673231Y-69606295D02*
X131067139Y-72636753D01*
X129518238Y-70414417D02*
X129720269Y-70481761D01*
X129922299Y-70414417D01*
X131134483Y-69202234D01*
X128373399Y-69269577D02*
X129114177Y-68528799D01*
X129316208Y-68461455D01*
X129518238Y-68528799D01*
X129787612Y-68798173D01*
X129854956Y-69000203D01*
X128440742Y-69202234D02*
X128508086Y-69404264D01*
X128844803Y-69740982D01*
X129046834Y-69808325D01*
X129248864Y-69740982D01*
X129383551Y-69606295D01*
X129450895Y-69404264D01*
X129383551Y-69202234D01*
X129046834Y-68865516D01*
X128979490Y-68663486D01*
X127699964Y-68596142D02*
X129114177Y-67181929D01*
X128575429Y-67720677D02*
X128508086Y-67518646D01*
X128238712Y-67249272D01*
X128036681Y-67181929D01*
X127901994Y-67181929D01*
X127699964Y-67249272D01*
X127295903Y-67653333D01*
X127228559Y-67855364D01*
X127228559Y-67990051D01*
X127295903Y-68192081D01*
X127565277Y-68461455D01*
X127767307Y-68528799D01*
X126420437Y-67316616D02*
X127363246Y-66373807D01*
X127834651Y-65902402D02*
X127834651Y-66037089D01*
X127699964Y-66037089D01*
X127699964Y-65902402D01*
X127834651Y-65902402D01*
X127699964Y-66037089D01*
X126891842Y-65902402D02*
X126353094Y-65363654D01*
X127161216Y-65228967D02*
X125949033Y-66441150D01*
X125747002Y-66508494D01*
X125544972Y-66441150D01*
X125410285Y-66306463D01*
X124332789Y-65228967D02*
X125073567Y-64488189D01*
X125275598Y-64420845D01*
X125477628Y-64488189D01*
X125747002Y-64757563D01*
X125814346Y-64959593D01*
X124400132Y-65161624D02*
X124467476Y-65363654D01*
X124804193Y-65700372D01*
X125006224Y-65767715D01*
X125208254Y-65700372D01*
X125342941Y-65565685D01*
X125410285Y-65363654D01*
X125342941Y-65161624D01*
X125006224Y-64824906D01*
X124938880Y-64622876D01*
X124804193Y-63814754D02*
X124265445Y-63276006D01*
X125073567Y-63141319D02*
X123861384Y-64353502D01*
X123659354Y-64420845D01*
X123457323Y-64353502D01*
X123322636Y-64218815D01*
X122985919Y-63612723D02*
X122851232Y-63612723D01*
X122851232Y-63747410D01*
X122985919Y-63747410D01*
X122985919Y-63612723D01*
X122851232Y-63747410D01*
X121571705Y-62467884D02*
X122985919Y-61053670D01*
X121639049Y-62400540D02*
X121706392Y-62602571D01*
X121975766Y-62871945D01*
X122177797Y-62939288D01*
X122312484Y-62939288D01*
X122514514Y-62871945D01*
X122918575Y-62467884D01*
X122985919Y-62265853D01*
X122985919Y-62131166D01*
X122918575Y-61929136D01*
X122649201Y-61659762D01*
X122447171Y-61592418D01*
X120898270Y-61794449D02*
X122312484Y-60380235D01*
X121302331Y-61121014D02*
X120359522Y-61255701D01*
X121302331Y-60312892D02*
X121302331Y-61390388D01*
D11*
X141591936Y-94180261D02*
X140177723Y-94887367D01*
X140884829Y-93473154D01*
X138965540Y-93473154D02*
X138965540Y-93574169D01*
X139066555Y-93776200D01*
X139167570Y-93877215D01*
X139369601Y-93978230D01*
X139571631Y-93978230D01*
X139723154Y-93927723D01*
X139975692Y-93776200D01*
X140127215Y-93624677D01*
X140278738Y-93372139D01*
X140329245Y-93220616D01*
X140329245Y-93018585D01*
X140228230Y-92816555D01*
X140127215Y-92715540D01*
X139925184Y-92614524D01*
X139824169Y-92614524D01*
X137904879Y-92412494D02*
X137904879Y-92513509D01*
X138005895Y-92715540D01*
X138106910Y-92816555D01*
X138308940Y-92917570D01*
X138510971Y-92917570D01*
X138662494Y-92867062D01*
X138915032Y-92715540D01*
X139066555Y-92564017D01*
X139218078Y-92311479D01*
X139268585Y-92159956D01*
X139268585Y-91957925D01*
X139167570Y-91755895D01*
X139066555Y-91654879D01*
X138864524Y-91553864D01*
X138763509Y-91553864D01*
X135584322Y-99023662D02*
X135735845Y-99074169D01*
X135887367Y-99225692D01*
X135988383Y-99427723D01*
X135988383Y-99629753D01*
X135937875Y-99781276D01*
X135786352Y-100033814D01*
X135634829Y-100185337D01*
X135382291Y-100336860D01*
X135230768Y-100387367D01*
X135028738Y-100387367D01*
X134826707Y-100286352D01*
X134725692Y-100185337D01*
X134624677Y-99983306D01*
X134624677Y-99882291D01*
X134978230Y-99528738D01*
X135180261Y-99730768D01*
X134069093Y-99528738D02*
X135129753Y-98468078D01*
X133463001Y-98922646D01*
X134523662Y-97861986D01*
X132957925Y-98417570D02*
X134018585Y-97356910D01*
X133766047Y-97104372D01*
X133564017Y-97003356D01*
X133361986Y-97003356D01*
X133210463Y-97053864D01*
X132957925Y-97205387D01*
X132806402Y-97356910D01*
X132654879Y-97609448D01*
X132604372Y-97760971D01*
X132604372Y-97963001D01*
X132705387Y-98165032D01*
X132957925Y-98417570D01*
X136730768Y-98589398D02*
X136528738Y-98488383D01*
X136276200Y-98235845D01*
X136225692Y-98084322D01*
X136225692Y-97983306D01*
X136276200Y-97831784D01*
X136377215Y-97730768D01*
X136528738Y-97680261D01*
X136629753Y-97680261D01*
X136781276Y-97730768D01*
X137033814Y-97882291D01*
X137185337Y-97932799D01*
X137286352Y-97932799D01*
X137437875Y-97882291D01*
X137538890Y-97781276D01*
X137589398Y-97629753D01*
X137589398Y-97528738D01*
X137538890Y-97377215D01*
X137286352Y-97124677D01*
X137084322Y-97023662D01*
X136781276Y-96619601D02*
X135468078Y-97427723D01*
X136023662Y-96468078D01*
X135064017Y-97023662D01*
X135872139Y-95710463D01*
X133902341Y-95659956D02*
X133902341Y-95760971D01*
X134003356Y-95963001D01*
X134104372Y-96064017D01*
X134306402Y-96165032D01*
X134508433Y-96165032D01*
X134659956Y-96114524D01*
X134912494Y-95963001D01*
X135064017Y-95811479D01*
X135215540Y-95558940D01*
X135266047Y-95407417D01*
X135266047Y-95205387D01*
X135165032Y-95003356D01*
X135064017Y-94902341D01*
X134861986Y-94801326D01*
X134760971Y-94801326D01*
X132841681Y-94801326D02*
X133346757Y-95306402D01*
X134407417Y-94245742D01*
X132488128Y-94447773D02*
X133548788Y-93387112D01*
X131882036Y-93841681D02*
X132942696Y-93690158D01*
X132942696Y-92781021D02*
X132942696Y-93993204D01*
X138480768Y-96839398D02*
X138278738Y-96738383D01*
X138026200Y-96485845D01*
X137975692Y-96334322D01*
X137975692Y-96233306D01*
X138026200Y-96081784D01*
X138127215Y-95980768D01*
X138278738Y-95930261D01*
X138379753Y-95930261D01*
X138531276Y-95980768D01*
X138783814Y-96132291D01*
X138935337Y-96182799D01*
X139036352Y-96182799D01*
X139187875Y-96132291D01*
X139288890Y-96031276D01*
X139339398Y-95879753D01*
X139339398Y-95778738D01*
X139288890Y-95627215D01*
X139036352Y-95374677D01*
X138834322Y-95273662D01*
X138531276Y-94869601D02*
X137218078Y-95677723D01*
X137773662Y-94718078D01*
X136814017Y-95273662D01*
X137622139Y-93960463D01*
X136157417Y-94617062D02*
X137218078Y-93556402D01*
X136965540Y-93303864D01*
X136763509Y-93202849D01*
X136561479Y-93202849D01*
X136409956Y-93253356D01*
X136157417Y-93404879D01*
X136005895Y-93556402D01*
X135854372Y-93808940D01*
X135803864Y-93960463D01*
X135803864Y-94162494D01*
X135904879Y-94364524D01*
X136157417Y-94617062D01*
X135096757Y-93556402D02*
X136157417Y-92495742D01*
X135450311Y-91788635D02*
X135248280Y-91586605D01*
X135096757Y-91536097D01*
X134894727Y-91536097D01*
X134642189Y-91687620D01*
X134288635Y-92041173D01*
X134137112Y-92293712D01*
X134137112Y-92495742D01*
X134187620Y-92647265D01*
X134389651Y-92849295D01*
X134541173Y-92899803D01*
X134743204Y-92899803D01*
X134995742Y-92748280D01*
X135349295Y-92394727D01*
X135500818Y-92142189D01*
X135500818Y-91940158D01*
X135450311Y-91788635D01*
D12*
G36*
X118652961Y-80634387D02*
X118563782Y-80545943D01*
X118496730Y-80480878D01*
X118447903Y-80435913D01*
X118413398Y-80407770D01*
X118389312Y-80393169D01*
X118371743Y-80388833D01*
X118356790Y-80391481D01*
X118346695Y-80395366D01*
X118315900Y-80412733D01*
X118256071Y-80450616D01*
X118172872Y-80505273D01*
X118071963Y-80572963D01*
X117959006Y-80649945D01*
X117901346Y-80689668D01*
X117785633Y-80769085D01*
X117680195Y-80840344D01*
X117590448Y-80899875D01*
X117521808Y-80944108D01*
X117479689Y-80969472D01*
X117470172Y-80973990D01*
X117442596Y-80968732D01*
X117383873Y-80949681D01*
X117301684Y-80919924D01*
X117203704Y-80882543D01*
X117097613Y-80840622D01*
X116991089Y-80797245D01*
X116891809Y-80755499D01*
X116807452Y-80718465D01*
X116745696Y-80689229D01*
X116714219Y-80670874D01*
X116713188Y-80669917D01*
X116704893Y-80645261D01*
X116690296Y-80584803D01*
X116670638Y-80494395D01*
X116647162Y-80379890D01*
X116621107Y-80247141D01*
X116600424Y-80138073D01*
X116573254Y-79995438D01*
X116547739Y-79866644D01*
X116525116Y-79757539D01*
X116506624Y-79673967D01*
X116493498Y-79621776D01*
X116487887Y-79606705D01*
X116461541Y-79600999D01*
X116400004Y-79596605D01*
X116310397Y-79593475D01*
X116199842Y-79591563D01*
X116075459Y-79590821D01*
X115944368Y-79591205D01*
X115813691Y-79592666D01*
X115690548Y-79595158D01*
X115582061Y-79598634D01*
X115495349Y-79603049D01*
X115437535Y-79608354D01*
X115416205Y-79613734D01*
X115404064Y-79639606D01*
X115387452Y-79698283D01*
X115366016Y-79791434D01*
X115339406Y-79920723D01*
X115307270Y-80087814D01*
X115269256Y-80294373D01*
X115251010Y-80395771D01*
X115232300Y-80491652D01*
X115213598Y-80572632D01*
X115197275Y-80629241D01*
X115187141Y-80651021D01*
X115162428Y-80664411D01*
X115105854Y-80690028D01*
X115025020Y-80724785D01*
X114927528Y-80765590D01*
X114820982Y-80809355D01*
X114712984Y-80852990D01*
X114611138Y-80893407D01*
X114523043Y-80927515D01*
X114456307Y-80952226D01*
X114418529Y-80964450D01*
X114413901Y-80965221D01*
X114392760Y-80953749D01*
X114341822Y-80921551D01*
X114266127Y-80871951D01*
X114170717Y-80808274D01*
X114060632Y-80733846D01*
X113986501Y-80683268D01*
X113868786Y-80602964D01*
X113761721Y-80530460D01*
X113670566Y-80469279D01*
X113600584Y-80422941D01*
X113557036Y-80394965D01*
X113545762Y-80388446D01*
X113531889Y-80389171D01*
X113508446Y-80402426D01*
X113472097Y-80431207D01*
X113419506Y-80478511D01*
X113347339Y-80547331D01*
X113252259Y-80640664D01*
X113135742Y-80756699D01*
X113018806Y-80873913D01*
X112928779Y-80965085D01*
X112862437Y-81033908D01*
X112816554Y-81084071D01*
X112787902Y-81119265D01*
X112773260Y-81143184D01*
X112769399Y-81159516D01*
X112773016Y-81171808D01*
X112792933Y-81203771D01*
X112830551Y-81260348D01*
X112879183Y-81331552D01*
X112902070Y-81364547D01*
X113021559Y-81536736D01*
X113118053Y-81677660D01*
X113193443Y-81790301D01*
X113249619Y-81877642D01*
X113288471Y-81942665D01*
X113311888Y-81988354D01*
X113321758Y-82017691D01*
X113322146Y-82027619D01*
X113312592Y-82057702D01*
X113289479Y-82118378D01*
X113255931Y-82202226D01*
X113215078Y-82301826D01*
X113170048Y-82409757D01*
X113123968Y-82518601D01*
X113079968Y-82620935D01*
X113041174Y-82709341D01*
X113010715Y-82776396D01*
X112991719Y-82814682D01*
X112987963Y-82820349D01*
X112964661Y-82827357D01*
X112905718Y-82840665D01*
X112817146Y-82859040D01*
X112704963Y-82881255D01*
X112575182Y-82906080D01*
X112498726Y-82920356D01*
X112360611Y-82946878D01*
X112235723Y-82972669D01*
X112130358Y-82996282D01*
X112050809Y-83016270D01*
X112003369Y-83031187D01*
X111993442Y-83036497D01*
X111985270Y-83065488D01*
X111978322Y-83131590D01*
X111972846Y-83229588D01*
X111969092Y-83354272D01*
X111967311Y-83500426D01*
X111967248Y-83583624D01*
X111967962Y-83745534D01*
X111969367Y-83870172D01*
X111971964Y-83962598D01*
X111976260Y-84027873D01*
X111982757Y-84071059D01*
X111991962Y-84097214D01*
X112004377Y-84111402D01*
X112020509Y-84118681D01*
X112020592Y-84118706D01*
X112056524Y-84127192D01*
X112127012Y-84141853D01*
X112224967Y-84161286D01*
X112343293Y-84184092D01*
X112474901Y-84208869D01*
X112508807Y-84215162D01*
X112640057Y-84240160D01*
X112757320Y-84263834D01*
X112854141Y-84284773D01*
X112924066Y-84301563D01*
X112960641Y-84312793D01*
X112964094Y-84314815D01*
X112978227Y-84342026D01*
X113001036Y-84400055D01*
X113028872Y-84479216D01*
X113047420Y-84535811D01*
X113078345Y-84625013D01*
X113106763Y-84692820D01*
X113129274Y-84731655D01*
X113138088Y-84737927D01*
X113163571Y-84730085D01*
X113223071Y-84707892D01*
X113311557Y-84673344D01*
X113423996Y-84628439D01*
X113555358Y-84575175D01*
X113700609Y-84515549D01*
X113756263Y-84492525D01*
X113919814Y-84424764D01*
X114084209Y-84356729D01*
X114241594Y-84291667D01*
X114384114Y-84232821D01*
X114503913Y-84183437D01*
X114593134Y-84146761D01*
X114599059Y-84144333D01*
X114695487Y-84103928D01*
X114778061Y-84067660D01*
X114838599Y-84039238D01*
X114868923Y-84022376D01*
X114870089Y-84021360D01*
X114876466Y-83992105D01*
X114874966Y-83933081D01*
X114866014Y-83856030D01*
X114863582Y-83840778D01*
X114840925Y-83602303D01*
X114855829Y-83382808D01*
X114908634Y-83181100D01*
X114999682Y-82995987D01*
X115129315Y-82826276D01*
X115165002Y-82788916D01*
X115327162Y-82651699D01*
X115503784Y-82553259D01*
X115698272Y-82492134D01*
X115914028Y-82466866D01*
X115915572Y-82466814D01*
X116126408Y-82479781D01*
X116325039Y-82530718D01*
X116507635Y-82616094D01*
X116670362Y-82732383D01*
X116809388Y-82876055D01*
X116920884Y-83043582D01*
X117001016Y-83231435D01*
X117045954Y-83436087D01*
X117052823Y-83514043D01*
X117044781Y-83730408D01*
X116996895Y-83932540D01*
X116909434Y-84119741D01*
X116782667Y-84291311D01*
X116735416Y-84341227D01*
X116575212Y-84480088D01*
X116408025Y-84581035D01*
X116229083Y-84645522D01*
X116033616Y-84675006D01*
X115816852Y-84670944D01*
X115700528Y-84657016D01*
X115616067Y-84647100D01*
X115547111Y-84643873D01*
X115504616Y-84647658D01*
X115497602Y-84651083D01*
X115484768Y-84675013D01*
X115457867Y-84733437D01*
X115418919Y-84821691D01*
X115369939Y-84935111D01*
X115312950Y-85069030D01*
X115249967Y-85218784D01*
X115197875Y-85343834D01*
X115128785Y-85510257D01*
X115061876Y-85671214D01*
X114999639Y-85820728D01*
X114944564Y-85952822D01*
X114899142Y-86061522D01*
X114865864Y-86140851D01*
X114852260Y-86173046D01*
X114811433Y-86270490D01*
X114789804Y-86337112D01*
X114791093Y-86381487D01*
X114819019Y-86412194D01*
X114877300Y-86437811D01*
X114969655Y-86466915D01*
X114981181Y-86470431D01*
X115068363Y-86498367D01*
X115140502Y-86523907D01*
X115187745Y-86543436D01*
X115200044Y-86550764D01*
X115209369Y-86576330D01*
X115224918Y-86637423D01*
X115245340Y-86727916D01*
X115269284Y-86841686D01*
X115295395Y-86972609D01*
X115310271Y-87050135D01*
X115336573Y-87187238D01*
X115360805Y-87309994D01*
X115381730Y-87412429D01*
X115398115Y-87488569D01*
X115408721Y-87532440D01*
X115411697Y-87540706D01*
X115434932Y-87543700D01*
X115494609Y-87546492D01*
X115584833Y-87548944D01*
X115699710Y-87550922D01*
X115833350Y-87552292D01*
X115939064Y-87552827D01*
X116083718Y-87552222D01*
X116214889Y-87549712D01*
X116326451Y-87545570D01*
X116412280Y-87540074D01*
X116466248Y-87533499D01*
X116481860Y-87528335D01*
X116493027Y-87500739D01*
X116510006Y-87437716D01*
X116531383Y-87345545D01*
X116555736Y-87230507D01*
X116581648Y-87098887D01*
X116595112Y-87026817D01*
X116620888Y-86889668D01*
X116645239Y-86766346D01*
X116666851Y-86663008D01*
X116684414Y-86585812D01*
X116696617Y-86540915D01*
X116700434Y-86532351D01*
X116727046Y-86516430D01*
X116785449Y-86488008D01*
X116868118Y-86450281D01*
X116967525Y-86406441D01*
X117076146Y-86359682D01*
X117186453Y-86313198D01*
X117290922Y-86270184D01*
X117382027Y-86233833D01*
X117452241Y-86207338D01*
X117494037Y-86193894D01*
X117500413Y-86192863D01*
X117528307Y-86204345D01*
X117585287Y-86236833D01*
X117665876Y-86286881D01*
X117764601Y-86351043D01*
X117875990Y-86425873D01*
X117935363Y-86466655D01*
X118050820Y-86545730D01*
X118156010Y-86616227D01*
X118245528Y-86674648D01*
X118313968Y-86717496D01*
X118355923Y-86741270D01*
X118365356Y-86744921D01*
X118391414Y-86731890D01*
X118440728Y-86693105D01*
X118508386Y-86633502D01*
X118589472Y-86558020D01*
X118679074Y-86471599D01*
X118772276Y-86379176D01*
X118864167Y-86285690D01*
X118949832Y-86196079D01*
X119024356Y-86115281D01*
X119082826Y-86048235D01*
X119120328Y-85999880D01*
X119131950Y-85975154D01*
X119131777Y-85974654D01*
X119116608Y-85949701D01*
X119080935Y-85895142D01*
X119028270Y-85816228D01*
X118962134Y-85718209D01*
X118886042Y-85606335D01*
X118836454Y-85533843D01*
X118756773Y-85416543D01*
X118685864Y-85310117D01*
X118627057Y-85219734D01*
X118583685Y-85150563D01*
X118559078Y-85107771D01*
X118554707Y-85096748D01*
X118563000Y-85065804D01*
X118584858Y-85004078D01*
X118617097Y-84919353D01*
X118656530Y-84819416D01*
X118699971Y-84712047D01*
X118744237Y-84605030D01*
X118786141Y-84506148D01*
X118822499Y-84423186D01*
X118850123Y-84363926D01*
X118865831Y-84336152D01*
X118866092Y-84335879D01*
X118893713Y-84324630D01*
X118956797Y-84307454D01*
X119049119Y-84285774D01*
X119164451Y-84261009D01*
X119296569Y-84234582D01*
X119375400Y-84219617D01*
X119514799Y-84193097D01*
X119641511Y-84167929D01*
X119749168Y-84145463D01*
X119831399Y-84127049D01*
X119881832Y-84114040D01*
X119893698Y-84109684D01*
X119905521Y-84091290D01*
X119914671Y-84048672D01*
X119921386Y-83978193D01*
X119925908Y-83876213D01*
X119928476Y-83739095D01*
X119929325Y-83569079D01*
X119928684Y-83424388D01*
X119926714Y-83293641D01*
X119923619Y-83182829D01*
X119919600Y-83097941D01*
X119914863Y-83044966D01*
X119911016Y-83029834D01*
X119885745Y-83020945D01*
X119824769Y-83005973D01*
X119734072Y-82986191D01*
X119619637Y-82962870D01*
X119487450Y-82937281D01*
X119392335Y-82919576D01*
X119250930Y-82893212D01*
X119122612Y-82868427D01*
X119013521Y-82846476D01*
X118929803Y-82828618D01*
X118877596Y-82816105D01*
X118863425Y-82811409D01*
X118846586Y-82787544D01*
X118817409Y-82732012D01*
X118779226Y-82652473D01*
X118735371Y-82556586D01*
X118689175Y-82452012D01*
X118643971Y-82346410D01*
X118603092Y-82247437D01*
X118569871Y-82162756D01*
X118547639Y-82100025D01*
X118539727Y-82067413D01*
X118551181Y-82040841D01*
X118583579Y-81984723D01*
X118633647Y-81904236D01*
X118698114Y-81804554D01*
X118773703Y-81690855D01*
X118835265Y-81600165D01*
X118917113Y-81480060D01*
X118990707Y-81370971D01*
X119052726Y-81277911D01*
X119099849Y-81205892D01*
X119128755Y-81159928D01*
X119136487Y-81145547D01*
X119123530Y-81124594D01*
X119083801Y-81077872D01*
X119020827Y-81009176D01*
X118938135Y-80922299D01*
X118839256Y-80821033D01*
X118768169Y-80749489D01*
X118652961Y-80634387D01*
X118652961Y-80634387D01*
G37*
X118652961Y-80634387D02*
X118563782Y-80545943D01*
X118496730Y-80480878D01*
X118447903Y-80435913D01*
X118413398Y-80407770D01*
X118389312Y-80393169D01*
X118371743Y-80388833D01*
X118356790Y-80391481D01*
X118346695Y-80395366D01*
X118315900Y-80412733D01*
X118256071Y-80450616D01*
X118172872Y-80505273D01*
X118071963Y-80572963D01*
X117959006Y-80649945D01*
X117901346Y-80689668D01*
X117785633Y-80769085D01*
X117680195Y-80840344D01*
X117590448Y-80899875D01*
X117521808Y-80944108D01*
X117479689Y-80969472D01*
X117470172Y-80973990D01*
X117442596Y-80968732D01*
X117383873Y-80949681D01*
X117301684Y-80919924D01*
X117203704Y-80882543D01*
X117097613Y-80840622D01*
X116991089Y-80797245D01*
X116891809Y-80755499D01*
X116807452Y-80718465D01*
X116745696Y-80689229D01*
X116714219Y-80670874D01*
X116713188Y-80669917D01*
X116704893Y-80645261D01*
X116690296Y-80584803D01*
X116670638Y-80494395D01*
X116647162Y-80379890D01*
X116621107Y-80247141D01*
X116600424Y-80138073D01*
X116573254Y-79995438D01*
X116547739Y-79866644D01*
X116525116Y-79757539D01*
X116506624Y-79673967D01*
X116493498Y-79621776D01*
X116487887Y-79606705D01*
X116461541Y-79600999D01*
X116400004Y-79596605D01*
X116310397Y-79593475D01*
X116199842Y-79591563D01*
X116075459Y-79590821D01*
X115944368Y-79591205D01*
X115813691Y-79592666D01*
X115690548Y-79595158D01*
X115582061Y-79598634D01*
X115495349Y-79603049D01*
X115437535Y-79608354D01*
X115416205Y-79613734D01*
X115404064Y-79639606D01*
X115387452Y-79698283D01*
X115366016Y-79791434D01*
X115339406Y-79920723D01*
X115307270Y-80087814D01*
X115269256Y-80294373D01*
X115251010Y-80395771D01*
X115232300Y-80491652D01*
X115213598Y-80572632D01*
X115197275Y-80629241D01*
X115187141Y-80651021D01*
X115162428Y-80664411D01*
X115105854Y-80690028D01*
X115025020Y-80724785D01*
X114927528Y-80765590D01*
X114820982Y-80809355D01*
X114712984Y-80852990D01*
X114611138Y-80893407D01*
X114523043Y-80927515D01*
X114456307Y-80952226D01*
X114418529Y-80964450D01*
X114413901Y-80965221D01*
X114392760Y-80953749D01*
X114341822Y-80921551D01*
X114266127Y-80871951D01*
X114170717Y-80808274D01*
X114060632Y-80733846D01*
X113986501Y-80683268D01*
X113868786Y-80602964D01*
X113761721Y-80530460D01*
X113670566Y-80469279D01*
X113600584Y-80422941D01*
X113557036Y-80394965D01*
X113545762Y-80388446D01*
X113531889Y-80389171D01*
X113508446Y-80402426D01*
X113472097Y-80431207D01*
X113419506Y-80478511D01*
X113347339Y-80547331D01*
X113252259Y-80640664D01*
X113135742Y-80756699D01*
X113018806Y-80873913D01*
X112928779Y-80965085D01*
X112862437Y-81033908D01*
X112816554Y-81084071D01*
X112787902Y-81119265D01*
X112773260Y-81143184D01*
X112769399Y-81159516D01*
X112773016Y-81171808D01*
X112792933Y-81203771D01*
X112830551Y-81260348D01*
X112879183Y-81331552D01*
X112902070Y-81364547D01*
X113021559Y-81536736D01*
X113118053Y-81677660D01*
X113193443Y-81790301D01*
X113249619Y-81877642D01*
X113288471Y-81942665D01*
X113311888Y-81988354D01*
X113321758Y-82017691D01*
X113322146Y-82027619D01*
X113312592Y-82057702D01*
X113289479Y-82118378D01*
X113255931Y-82202226D01*
X113215078Y-82301826D01*
X113170048Y-82409757D01*
X113123968Y-82518601D01*
X113079968Y-82620935D01*
X113041174Y-82709341D01*
X113010715Y-82776396D01*
X112991719Y-82814682D01*
X112987963Y-82820349D01*
X112964661Y-82827357D01*
X112905718Y-82840665D01*
X112817146Y-82859040D01*
X112704963Y-82881255D01*
X112575182Y-82906080D01*
X112498726Y-82920356D01*
X112360611Y-82946878D01*
X112235723Y-82972669D01*
X112130358Y-82996282D01*
X112050809Y-83016270D01*
X112003369Y-83031187D01*
X111993442Y-83036497D01*
X111985270Y-83065488D01*
X111978322Y-83131590D01*
X111972846Y-83229588D01*
X111969092Y-83354272D01*
X111967311Y-83500426D01*
X111967248Y-83583624D01*
X111967962Y-83745534D01*
X111969367Y-83870172D01*
X111971964Y-83962598D01*
X111976260Y-84027873D01*
X111982757Y-84071059D01*
X111991962Y-84097214D01*
X112004377Y-84111402D01*
X112020509Y-84118681D01*
X112020592Y-84118706D01*
X112056524Y-84127192D01*
X112127012Y-84141853D01*
X112224967Y-84161286D01*
X112343293Y-84184092D01*
X112474901Y-84208869D01*
X112508807Y-84215162D01*
X112640057Y-84240160D01*
X112757320Y-84263834D01*
X112854141Y-84284773D01*
X112924066Y-84301563D01*
X112960641Y-84312793D01*
X112964094Y-84314815D01*
X112978227Y-84342026D01*
X113001036Y-84400055D01*
X113028872Y-84479216D01*
X113047420Y-84535811D01*
X113078345Y-84625013D01*
X113106763Y-84692820D01*
X113129274Y-84731655D01*
X113138088Y-84737927D01*
X113163571Y-84730085D01*
X113223071Y-84707892D01*
X113311557Y-84673344D01*
X113423996Y-84628439D01*
X113555358Y-84575175D01*
X113700609Y-84515549D01*
X113756263Y-84492525D01*
X113919814Y-84424764D01*
X114084209Y-84356729D01*
X114241594Y-84291667D01*
X114384114Y-84232821D01*
X114503913Y-84183437D01*
X114593134Y-84146761D01*
X114599059Y-84144333D01*
X114695487Y-84103928D01*
X114778061Y-84067660D01*
X114838599Y-84039238D01*
X114868923Y-84022376D01*
X114870089Y-84021360D01*
X114876466Y-83992105D01*
X114874966Y-83933081D01*
X114866014Y-83856030D01*
X114863582Y-83840778D01*
X114840925Y-83602303D01*
X114855829Y-83382808D01*
X114908634Y-83181100D01*
X114999682Y-82995987D01*
X115129315Y-82826276D01*
X115165002Y-82788916D01*
X115327162Y-82651699D01*
X115503784Y-82553259D01*
X115698272Y-82492134D01*
X115914028Y-82466866D01*
X115915572Y-82466814D01*
X116126408Y-82479781D01*
X116325039Y-82530718D01*
X116507635Y-82616094D01*
X116670362Y-82732383D01*
X116809388Y-82876055D01*
X116920884Y-83043582D01*
X117001016Y-83231435D01*
X117045954Y-83436087D01*
X117052823Y-83514043D01*
X117044781Y-83730408D01*
X116996895Y-83932540D01*
X116909434Y-84119741D01*
X116782667Y-84291311D01*
X116735416Y-84341227D01*
X116575212Y-84480088D01*
X116408025Y-84581035D01*
X116229083Y-84645522D01*
X116033616Y-84675006D01*
X115816852Y-84670944D01*
X115700528Y-84657016D01*
X115616067Y-84647100D01*
X115547111Y-84643873D01*
X115504616Y-84647658D01*
X115497602Y-84651083D01*
X115484768Y-84675013D01*
X115457867Y-84733437D01*
X115418919Y-84821691D01*
X115369939Y-84935111D01*
X115312950Y-85069030D01*
X115249967Y-85218784D01*
X115197875Y-85343834D01*
X115128785Y-85510257D01*
X115061876Y-85671214D01*
X114999639Y-85820728D01*
X114944564Y-85952822D01*
X114899142Y-86061522D01*
X114865864Y-86140851D01*
X114852260Y-86173046D01*
X114811433Y-86270490D01*
X114789804Y-86337112D01*
X114791093Y-86381487D01*
X114819019Y-86412194D01*
X114877300Y-86437811D01*
X114969655Y-86466915D01*
X114981181Y-86470431D01*
X115068363Y-86498367D01*
X115140502Y-86523907D01*
X115187745Y-86543436D01*
X115200044Y-86550764D01*
X115209369Y-86576330D01*
X115224918Y-86637423D01*
X115245340Y-86727916D01*
X115269284Y-86841686D01*
X115295395Y-86972609D01*
X115310271Y-87050135D01*
X115336573Y-87187238D01*
X115360805Y-87309994D01*
X115381730Y-87412429D01*
X115398115Y-87488569D01*
X115408721Y-87532440D01*
X115411697Y-87540706D01*
X115434932Y-87543700D01*
X115494609Y-87546492D01*
X115584833Y-87548944D01*
X115699710Y-87550922D01*
X115833350Y-87552292D01*
X115939064Y-87552827D01*
X116083718Y-87552222D01*
X116214889Y-87549712D01*
X116326451Y-87545570D01*
X116412280Y-87540074D01*
X116466248Y-87533499D01*
X116481860Y-87528335D01*
X116493027Y-87500739D01*
X116510006Y-87437716D01*
X116531383Y-87345545D01*
X116555736Y-87230507D01*
X116581648Y-87098887D01*
X116595112Y-87026817D01*
X116620888Y-86889668D01*
X116645239Y-86766346D01*
X116666851Y-86663008D01*
X116684414Y-86585812D01*
X116696617Y-86540915D01*
X116700434Y-86532351D01*
X116727046Y-86516430D01*
X116785449Y-86488008D01*
X116868118Y-86450281D01*
X116967525Y-86406441D01*
X117076146Y-86359682D01*
X117186453Y-86313198D01*
X117290922Y-86270184D01*
X117382027Y-86233833D01*
X117452241Y-86207338D01*
X117494037Y-86193894D01*
X117500413Y-86192863D01*
X117528307Y-86204345D01*
X117585287Y-86236833D01*
X117665876Y-86286881D01*
X117764601Y-86351043D01*
X117875990Y-86425873D01*
X117935363Y-86466655D01*
X118050820Y-86545730D01*
X118156010Y-86616227D01*
X118245528Y-86674648D01*
X118313968Y-86717496D01*
X118355923Y-86741270D01*
X118365356Y-86744921D01*
X118391414Y-86731890D01*
X118440728Y-86693105D01*
X118508386Y-86633502D01*
X118589472Y-86558020D01*
X118679074Y-86471599D01*
X118772276Y-86379176D01*
X118864167Y-86285690D01*
X118949832Y-86196079D01*
X119024356Y-86115281D01*
X119082826Y-86048235D01*
X119120328Y-85999880D01*
X119131950Y-85975154D01*
X119131777Y-85974654D01*
X119116608Y-85949701D01*
X119080935Y-85895142D01*
X119028270Y-85816228D01*
X118962134Y-85718209D01*
X118886042Y-85606335D01*
X118836454Y-85533843D01*
X118756773Y-85416543D01*
X118685864Y-85310117D01*
X118627057Y-85219734D01*
X118583685Y-85150563D01*
X118559078Y-85107771D01*
X118554707Y-85096748D01*
X118563000Y-85065804D01*
X118584858Y-85004078D01*
X118617097Y-84919353D01*
X118656530Y-84819416D01*
X118699971Y-84712047D01*
X118744237Y-84605030D01*
X118786141Y-84506148D01*
X118822499Y-84423186D01*
X118850123Y-84363926D01*
X118865831Y-84336152D01*
X118866092Y-84335879D01*
X118893713Y-84324630D01*
X118956797Y-84307454D01*
X119049119Y-84285774D01*
X119164451Y-84261009D01*
X119296569Y-84234582D01*
X119375400Y-84219617D01*
X119514799Y-84193097D01*
X119641511Y-84167929D01*
X119749168Y-84145463D01*
X119831399Y-84127049D01*
X119881832Y-84114040D01*
X119893698Y-84109684D01*
X119905521Y-84091290D01*
X119914671Y-84048672D01*
X119921386Y-83978193D01*
X119925908Y-83876213D01*
X119928476Y-83739095D01*
X119929325Y-83569079D01*
X119928684Y-83424388D01*
X119926714Y-83293641D01*
X119923619Y-83182829D01*
X119919600Y-83097941D01*
X119914863Y-83044966D01*
X119911016Y-83029834D01*
X119885745Y-83020945D01*
X119824769Y-83005973D01*
X119734072Y-82986191D01*
X119619637Y-82962870D01*
X119487450Y-82937281D01*
X119392335Y-82919576D01*
X119250930Y-82893212D01*
X119122612Y-82868427D01*
X119013521Y-82846476D01*
X118929803Y-82828618D01*
X118877596Y-82816105D01*
X118863425Y-82811409D01*
X118846586Y-82787544D01*
X118817409Y-82732012D01*
X118779226Y-82652473D01*
X118735371Y-82556586D01*
X118689175Y-82452012D01*
X118643971Y-82346410D01*
X118603092Y-82247437D01*
X118569871Y-82162756D01*
X118547639Y-82100025D01*
X118539727Y-82067413D01*
X118551181Y-82040841D01*
X118583579Y-81984723D01*
X118633647Y-81904236D01*
X118698114Y-81804554D01*
X118773703Y-81690855D01*
X118835265Y-81600165D01*
X118917113Y-81480060D01*
X118990707Y-81370971D01*
X119052726Y-81277911D01*
X119099849Y-81205892D01*
X119128755Y-81159928D01*
X119136487Y-81145547D01*
X119123530Y-81124594D01*
X119083801Y-81077872D01*
X119020827Y-81009176D01*
X118938135Y-80922299D01*
X118839256Y-80821033D01*
X118768169Y-80749489D01*
X118652961Y-80634387D01*
G36*
X121328553Y-70753853D02*
X121277981Y-70704156D01*
X121238232Y-70666540D01*
X121205447Y-70637832D01*
X121175772Y-70614862D01*
X121145352Y-70594461D01*
X121110329Y-70573457D01*
X121106371Y-70571171D01*
X120973260Y-70505484D01*
X120838498Y-70460891D01*
X120702174Y-70437389D01*
X120564376Y-70434976D01*
X120425192Y-70453651D01*
X120284709Y-70493412D01*
X120143017Y-70554257D01*
X120070304Y-70593411D01*
X120037409Y-70612819D01*
X120009134Y-70631126D01*
X119982171Y-70651098D01*
X119953212Y-70675503D01*
X119918949Y-70707109D01*
X119876073Y-70748683D01*
X119829283Y-70795024D01*
X119765382Y-70859761D01*
X119714502Y-70914620D01*
X119673725Y-70963650D01*
X119640132Y-71010897D01*
X119610804Y-71060412D01*
X119582822Y-71116240D01*
X119558201Y-71171030D01*
X119510073Y-71307245D01*
X119482225Y-71445908D01*
X119474185Y-71585300D01*
X119485480Y-71723705D01*
X119515637Y-71859405D01*
X119564183Y-71990683D01*
X119630648Y-72115822D01*
X119714557Y-72233105D01*
X119815437Y-72340813D01*
X119899922Y-72412714D01*
X120009458Y-72484549D01*
X120127763Y-72538683D01*
X120252139Y-72574647D01*
X120379885Y-72591979D01*
X120508302Y-72590207D01*
X120634689Y-72568867D01*
X120696790Y-72550538D01*
X120756912Y-72527778D01*
X120818932Y-72500358D01*
X120877968Y-72470798D01*
X120929138Y-72441617D01*
X120967563Y-72415339D01*
X120980529Y-72404015D01*
X120985014Y-72398719D01*
X120986366Y-72392583D01*
X120982972Y-72383690D01*
X120973223Y-72370123D01*
X120955509Y-72349965D01*
X120928216Y-72321297D01*
X120889737Y-72282204D01*
X120838458Y-72230767D01*
X120816658Y-72208962D01*
X120637195Y-72029499D01*
X120612300Y-72045763D01*
X120552278Y-72083604D01*
X120504146Y-72109996D01*
X120463181Y-72126615D01*
X120424660Y-72135129D01*
X120383861Y-72137209D01*
X120356982Y-72136107D01*
X120300789Y-72129204D01*
X120250769Y-72114704D01*
X120202702Y-72090320D01*
X120152377Y-72053766D01*
X120095576Y-72002755D01*
X120076151Y-71983805D01*
X120035689Y-71943408D01*
X120007375Y-71913572D01*
X119988145Y-71890143D01*
X119974934Y-71868963D01*
X119964679Y-71845876D01*
X119955471Y-71820111D01*
X119935941Y-71730747D01*
X119935793Y-71635095D01*
X119954776Y-71534767D01*
X119992634Y-71431372D01*
X120027811Y-71362277D01*
X120045159Y-71333198D01*
X120063795Y-71306087D01*
X120086535Y-71277640D01*
X120116190Y-71244555D01*
X120155571Y-71203530D01*
X120207495Y-71151261D01*
X120207733Y-71151024D01*
X120260524Y-71098854D01*
X120302071Y-71059212D01*
X120335701Y-71029277D01*
X120364736Y-71006220D01*
X120392505Y-70987220D01*
X120419824Y-70970873D01*
X120519391Y-70922048D01*
X120612815Y-70893034D01*
X120701377Y-70883821D01*
X120786355Y-70894396D01*
X120869030Y-70924750D01*
X120938780Y-70966325D01*
X120990179Y-71010078D01*
X121041755Y-71067345D01*
X121088155Y-71131209D01*
X121124024Y-71194754D01*
X121134388Y-71218965D01*
X121152562Y-71293960D01*
X121153986Y-71374001D01*
X121139433Y-71453038D01*
X121109672Y-71525025D01*
X121091716Y-71553243D01*
X121065385Y-71589597D01*
X120962493Y-71486705D01*
X120962493Y-71774773D01*
X120962493Y-72062841D01*
X121538629Y-72062841D01*
X121480798Y-72005010D01*
X121451889Y-71975652D01*
X121435776Y-71956716D01*
X121430208Y-71943735D01*
X121432935Y-71932244D01*
X121438990Y-71922042D01*
X121515054Y-71787630D01*
X121570173Y-71655700D01*
X121604375Y-71525857D01*
X121617684Y-71397707D01*
X121610129Y-71270856D01*
X121581734Y-71144906D01*
X121532527Y-71019464D01*
X121502673Y-70961395D01*
X121485078Y-70930881D01*
X121467252Y-70903830D01*
X121446231Y-70876711D01*
X121419050Y-70845990D01*
X121382745Y-70808134D01*
X121334353Y-70759609D01*
X121328553Y-70753853D01*
X121328553Y-70753853D01*
G37*
X121328553Y-70753853D02*
X121277981Y-70704156D01*
X121238232Y-70666540D01*
X121205447Y-70637832D01*
X121175772Y-70614862D01*
X121145352Y-70594461D01*
X121110329Y-70573457D01*
X121106371Y-70571171D01*
X120973260Y-70505484D01*
X120838498Y-70460891D01*
X120702174Y-70437389D01*
X120564376Y-70434976D01*
X120425192Y-70453651D01*
X120284709Y-70493412D01*
X120143017Y-70554257D01*
X120070304Y-70593411D01*
X120037409Y-70612819D01*
X120009134Y-70631126D01*
X119982171Y-70651098D01*
X119953212Y-70675503D01*
X119918949Y-70707109D01*
X119876073Y-70748683D01*
X119829283Y-70795024D01*
X119765382Y-70859761D01*
X119714502Y-70914620D01*
X119673725Y-70963650D01*
X119640132Y-71010897D01*
X119610804Y-71060412D01*
X119582822Y-71116240D01*
X119558201Y-71171030D01*
X119510073Y-71307245D01*
X119482225Y-71445908D01*
X119474185Y-71585300D01*
X119485480Y-71723705D01*
X119515637Y-71859405D01*
X119564183Y-71990683D01*
X119630648Y-72115822D01*
X119714557Y-72233105D01*
X119815437Y-72340813D01*
X119899922Y-72412714D01*
X120009458Y-72484549D01*
X120127763Y-72538683D01*
X120252139Y-72574647D01*
X120379885Y-72591979D01*
X120508302Y-72590207D01*
X120634689Y-72568867D01*
X120696790Y-72550538D01*
X120756912Y-72527778D01*
X120818932Y-72500358D01*
X120877968Y-72470798D01*
X120929138Y-72441617D01*
X120967563Y-72415339D01*
X120980529Y-72404015D01*
X120985014Y-72398719D01*
X120986366Y-72392583D01*
X120982972Y-72383690D01*
X120973223Y-72370123D01*
X120955509Y-72349965D01*
X120928216Y-72321297D01*
X120889737Y-72282204D01*
X120838458Y-72230767D01*
X120816658Y-72208962D01*
X120637195Y-72029499D01*
X120612300Y-72045763D01*
X120552278Y-72083604D01*
X120504146Y-72109996D01*
X120463181Y-72126615D01*
X120424660Y-72135129D01*
X120383861Y-72137209D01*
X120356982Y-72136107D01*
X120300789Y-72129204D01*
X120250769Y-72114704D01*
X120202702Y-72090320D01*
X120152377Y-72053766D01*
X120095576Y-72002755D01*
X120076151Y-71983805D01*
X120035689Y-71943408D01*
X120007375Y-71913572D01*
X119988145Y-71890143D01*
X119974934Y-71868963D01*
X119964679Y-71845876D01*
X119955471Y-71820111D01*
X119935941Y-71730747D01*
X119935793Y-71635095D01*
X119954776Y-71534767D01*
X119992634Y-71431372D01*
X120027811Y-71362277D01*
X120045159Y-71333198D01*
X120063795Y-71306087D01*
X120086535Y-71277640D01*
X120116190Y-71244555D01*
X120155571Y-71203530D01*
X120207495Y-71151261D01*
X120207733Y-71151024D01*
X120260524Y-71098854D01*
X120302071Y-71059212D01*
X120335701Y-71029277D01*
X120364736Y-71006220D01*
X120392505Y-70987220D01*
X120419824Y-70970873D01*
X120519391Y-70922048D01*
X120612815Y-70893034D01*
X120701377Y-70883821D01*
X120786355Y-70894396D01*
X120869030Y-70924750D01*
X120938780Y-70966325D01*
X120990179Y-71010078D01*
X121041755Y-71067345D01*
X121088155Y-71131209D01*
X121124024Y-71194754D01*
X121134388Y-71218965D01*
X121152562Y-71293960D01*
X121153986Y-71374001D01*
X121139433Y-71453038D01*
X121109672Y-71525025D01*
X121091716Y-71553243D01*
X121065385Y-71589597D01*
X120962493Y-71486705D01*
X120962493Y-71774773D01*
X120962493Y-72062841D01*
X121538629Y-72062841D01*
X121480798Y-72005010D01*
X121451889Y-71975652D01*
X121435776Y-71956716D01*
X121430208Y-71943735D01*
X121432935Y-71932244D01*
X121438990Y-71922042D01*
X121515054Y-71787630D01*
X121570173Y-71655700D01*
X121604375Y-71525857D01*
X121617684Y-71397707D01*
X121610129Y-71270856D01*
X121581734Y-71144906D01*
X121532527Y-71019464D01*
X121502673Y-70961395D01*
X121485078Y-70930881D01*
X121467252Y-70903830D01*
X121446231Y-70876711D01*
X121419050Y-70845990D01*
X121382745Y-70808134D01*
X121334353Y-70759609D01*
X121328553Y-70753853D01*
G36*
X125036567Y-74112324D02*
X124970428Y-74067497D01*
X124900427Y-74042755D01*
X124829028Y-74038018D01*
X124758691Y-74053203D01*
X124691877Y-74088229D01*
X124647854Y-74125173D01*
X124601425Y-74184745D01*
X124573413Y-74250409D01*
X124563205Y-74318982D01*
X124570189Y-74387285D01*
X124593753Y-74452137D01*
X124633283Y-74510358D01*
X124688170Y-74558766D01*
X124736475Y-74585592D01*
X124801376Y-74603941D01*
X124870792Y-74605635D01*
X124939579Y-74591907D01*
X125002595Y-74563998D01*
X125054696Y-74523143D01*
X125069896Y-74505364D01*
X125110395Y-74435979D01*
X125130259Y-74362318D01*
X125129332Y-74285449D01*
X125111576Y-74217010D01*
X125095757Y-74180038D01*
X125077019Y-74151748D01*
X125049081Y-74123376D01*
X125036567Y-74112324D01*
X125036567Y-74112324D01*
G37*
X125036567Y-74112324D02*
X124970428Y-74067497D01*
X124900427Y-74042755D01*
X124829028Y-74038018D01*
X124758691Y-74053203D01*
X124691877Y-74088229D01*
X124647854Y-74125173D01*
X124601425Y-74184745D01*
X124573413Y-74250409D01*
X124563205Y-74318982D01*
X124570189Y-74387285D01*
X124593753Y-74452137D01*
X124633283Y-74510358D01*
X124688170Y-74558766D01*
X124736475Y-74585592D01*
X124801376Y-74603941D01*
X124870792Y-74605635D01*
X124939579Y-74591907D01*
X125002595Y-74563998D01*
X125054696Y-74523143D01*
X125069896Y-74505364D01*
X125110395Y-74435979D01*
X125130259Y-74362318D01*
X125129332Y-74285449D01*
X125111576Y-74217010D01*
X125095757Y-74180038D01*
X125077019Y-74151748D01*
X125049081Y-74123376D01*
X125036567Y-74112324D01*
G36*
X124415372Y-74447644D02*
X124351236Y-74384735D01*
X124301474Y-74337300D01*
X124266078Y-74305329D01*
X124245035Y-74288811D01*
X124242989Y-74287596D01*
X124207810Y-74275432D01*
X124169207Y-74271547D01*
X124165245Y-74271796D01*
X124123095Y-74275426D01*
X123495625Y-74902896D01*
X123660263Y-75067533D01*
X122956810Y-75770986D01*
X123176327Y-75990504D01*
X123232377Y-76046226D01*
X123283818Y-76096740D01*
X123328703Y-76140184D01*
X123365082Y-76174693D01*
X123391008Y-76198404D01*
X123404532Y-76209451D01*
X123405822Y-76210022D01*
X123415113Y-76202761D01*
X123437802Y-76181964D01*
X123472366Y-76149110D01*
X123517285Y-76105677D01*
X123571037Y-76053146D01*
X123632099Y-75992994D01*
X123698952Y-75926701D01*
X123762538Y-75863284D01*
X124109276Y-75516546D01*
X124273914Y-75681185D01*
X124577738Y-75377361D01*
X124657602Y-75297406D01*
X124723699Y-75230816D01*
X124777265Y-75176019D01*
X124819534Y-75131449D01*
X124851743Y-75095538D01*
X124875125Y-75066715D01*
X124890917Y-75043414D01*
X124900353Y-75024064D01*
X124904670Y-75007099D01*
X124905101Y-74990949D01*
X124902882Y-74974045D01*
X124901449Y-74966299D01*
X124898908Y-74957050D01*
X124893849Y-74946438D01*
X124884922Y-74932973D01*
X124870769Y-74915165D01*
X124850041Y-74891525D01*
X124821382Y-74860564D01*
X124783442Y-74820791D01*
X124734865Y-74770717D01*
X124674299Y-74708853D01*
X124600391Y-74633709D01*
X124586817Y-74619927D01*
X124493896Y-74526037D01*
X124415372Y-74447644D01*
X124415372Y-74447644D01*
G37*
X124415372Y-74447644D02*
X124351236Y-74384735D01*
X124301474Y-74337300D01*
X124266078Y-74305329D01*
X124245035Y-74288811D01*
X124242989Y-74287596D01*
X124207810Y-74275432D01*
X124169207Y-74271547D01*
X124165245Y-74271796D01*
X124123095Y-74275426D01*
X123495625Y-74902896D01*
X123660263Y-75067533D01*
X122956810Y-75770986D01*
X123176327Y-75990504D01*
X123232377Y-76046226D01*
X123283818Y-76096740D01*
X123328703Y-76140184D01*
X123365082Y-76174693D01*
X123391008Y-76198404D01*
X123404532Y-76209451D01*
X123405822Y-76210022D01*
X123415113Y-76202761D01*
X123437802Y-76181964D01*
X123472366Y-76149110D01*
X123517285Y-76105677D01*
X123571037Y-76053146D01*
X123632099Y-75992994D01*
X123698952Y-75926701D01*
X123762538Y-75863284D01*
X124109276Y-75516546D01*
X124273914Y-75681185D01*
X124577738Y-75377361D01*
X124657602Y-75297406D01*
X124723699Y-75230816D01*
X124777265Y-75176019D01*
X124819534Y-75131449D01*
X124851743Y-75095538D01*
X124875125Y-75066715D01*
X124890917Y-75043414D01*
X124900353Y-75024064D01*
X124904670Y-75007099D01*
X124905101Y-74990949D01*
X124902882Y-74974045D01*
X124901449Y-74966299D01*
X124898908Y-74957050D01*
X124893849Y-74946438D01*
X124884922Y-74932973D01*
X124870769Y-74915165D01*
X124850041Y-74891525D01*
X124821382Y-74860564D01*
X124783442Y-74820791D01*
X124734865Y-74770717D01*
X124674299Y-74708853D01*
X124600391Y-74633709D01*
X124586817Y-74619927D01*
X124493896Y-74526037D01*
X124415372Y-74447644D01*
G36*
X128769005Y-79652158D02*
X128767675Y-79651109D01*
X128662129Y-79577163D01*
X128557829Y-79523069D01*
X128452246Y-79487854D01*
X128342847Y-79470543D01*
X128293069Y-79468349D01*
X128243954Y-79469509D01*
X128193107Y-79473608D01*
X128145088Y-79479917D01*
X128104454Y-79487709D01*
X128075765Y-79496256D01*
X128063579Y-79504830D01*
X128063533Y-79505000D01*
X128066022Y-79517592D01*
X128074300Y-79546928D01*
X128087360Y-79589705D01*
X128104195Y-79642621D01*
X128123794Y-79702374D01*
X128124096Y-79703283D01*
X128186919Y-79892081D01*
X128264731Y-79875387D01*
X128345585Y-79864352D01*
X128415655Y-79869599D01*
X128478660Y-79892346D01*
X128538315Y-79933814D01*
X128585599Y-79980701D01*
X128635904Y-80047401D01*
X128665796Y-80114536D01*
X128675887Y-80184981D01*
X128666792Y-80261615D01*
X128654638Y-80305002D01*
X128622022Y-80377995D01*
X128572887Y-80453402D01*
X128510996Y-80527571D01*
X128440107Y-80596854D01*
X128363982Y-80657599D01*
X128286384Y-80706158D01*
X128211071Y-80738880D01*
X128205856Y-80740522D01*
X128130264Y-80755272D01*
X128058850Y-80750705D01*
X127987192Y-80726837D01*
X127934502Y-80695142D01*
X127880877Y-80649762D01*
X127832729Y-80596864D01*
X127797339Y-80544234D01*
X127775790Y-80485710D01*
X127766708Y-80416655D01*
X127770585Y-80343995D01*
X127779949Y-80299315D01*
X127788008Y-80265988D01*
X127791508Y-80241996D01*
X127790087Y-80233180D01*
X127764984Y-80224016D01*
X127727014Y-80211503D01*
X127680126Y-80196798D01*
X127628268Y-80181062D01*
X127575390Y-80165454D01*
X127525441Y-80151135D01*
X127482371Y-80139263D01*
X127450127Y-80130998D01*
X127432661Y-80127501D01*
X127430733Y-80127649D01*
X127422921Y-80144649D01*
X127414432Y-80178308D01*
X127406125Y-80224172D01*
X127398859Y-80277790D01*
X127395515Y-80310099D01*
X127394893Y-80431390D01*
X127414787Y-80551628D01*
X127454589Y-80668467D01*
X127513686Y-80779562D01*
X127520216Y-80789631D01*
X127560930Y-80843989D01*
X127613688Y-80903765D01*
X127672709Y-80963145D01*
X127732206Y-81016316D01*
X127786395Y-81057466D01*
X127787410Y-81058143D01*
X127899778Y-81121149D01*
X128016810Y-81164340D01*
X128136870Y-81187384D01*
X128258320Y-81189954D01*
X128366869Y-81174622D01*
X128456823Y-81149876D01*
X128539872Y-81115743D01*
X128619765Y-81069978D01*
X128700253Y-81010337D01*
X128785084Y-80934575D01*
X128812277Y-80908034D01*
X128880085Y-80837943D01*
X128933757Y-80775347D01*
X128976460Y-80715550D01*
X129011361Y-80653859D01*
X129041630Y-80585579D01*
X129056520Y-80546109D01*
X129089608Y-80424636D01*
X129102047Y-80303073D01*
X129094301Y-80182854D01*
X129066833Y-80065414D01*
X129020106Y-79952189D01*
X128954583Y-79844615D01*
X128870729Y-79744125D01*
X128769005Y-79652158D01*
X128769005Y-79652158D01*
G37*
X128769005Y-79652158D02*
X128767675Y-79651109D01*
X128662129Y-79577163D01*
X128557829Y-79523069D01*
X128452246Y-79487854D01*
X128342847Y-79470543D01*
X128293069Y-79468349D01*
X128243954Y-79469509D01*
X128193107Y-79473608D01*
X128145088Y-79479917D01*
X128104454Y-79487709D01*
X128075765Y-79496256D01*
X128063579Y-79504830D01*
X128063533Y-79505000D01*
X128066022Y-79517592D01*
X128074300Y-79546928D01*
X128087360Y-79589705D01*
X128104195Y-79642621D01*
X128123794Y-79702374D01*
X128124096Y-79703283D01*
X128186919Y-79892081D01*
X128264731Y-79875387D01*
X128345585Y-79864352D01*
X128415655Y-79869599D01*
X128478660Y-79892346D01*
X128538315Y-79933814D01*
X128585599Y-79980701D01*
X128635904Y-80047401D01*
X128665796Y-80114536D01*
X128675887Y-80184981D01*
X128666792Y-80261615D01*
X128654638Y-80305002D01*
X128622022Y-80377995D01*
X128572887Y-80453402D01*
X128510996Y-80527571D01*
X128440107Y-80596854D01*
X128363982Y-80657599D01*
X128286384Y-80706158D01*
X128211071Y-80738880D01*
X128205856Y-80740522D01*
X128130264Y-80755272D01*
X128058850Y-80750705D01*
X127987192Y-80726837D01*
X127934502Y-80695142D01*
X127880877Y-80649762D01*
X127832729Y-80596864D01*
X127797339Y-80544234D01*
X127775790Y-80485710D01*
X127766708Y-80416655D01*
X127770585Y-80343995D01*
X127779949Y-80299315D01*
X127788008Y-80265988D01*
X127791508Y-80241996D01*
X127790087Y-80233180D01*
X127764984Y-80224016D01*
X127727014Y-80211503D01*
X127680126Y-80196798D01*
X127628268Y-80181062D01*
X127575390Y-80165454D01*
X127525441Y-80151135D01*
X127482371Y-80139263D01*
X127450127Y-80130998D01*
X127432661Y-80127501D01*
X127430733Y-80127649D01*
X127422921Y-80144649D01*
X127414432Y-80178308D01*
X127406125Y-80224172D01*
X127398859Y-80277790D01*
X127395515Y-80310099D01*
X127394893Y-80431390D01*
X127414787Y-80551628D01*
X127454589Y-80668467D01*
X127513686Y-80779562D01*
X127520216Y-80789631D01*
X127560930Y-80843989D01*
X127613688Y-80903765D01*
X127672709Y-80963145D01*
X127732206Y-81016316D01*
X127786395Y-81057466D01*
X127787410Y-81058143D01*
X127899778Y-81121149D01*
X128016810Y-81164340D01*
X128136870Y-81187384D01*
X128258320Y-81189954D01*
X128366869Y-81174622D01*
X128456823Y-81149876D01*
X128539872Y-81115743D01*
X128619765Y-81069978D01*
X128700253Y-81010337D01*
X128785084Y-80934575D01*
X128812277Y-80908034D01*
X128880085Y-80837943D01*
X128933757Y-80775347D01*
X128976460Y-80715550D01*
X129011361Y-80653859D01*
X129041630Y-80585579D01*
X129056520Y-80546109D01*
X129089608Y-80424636D01*
X129102047Y-80303073D01*
X129094301Y-80182854D01*
X129066833Y-80065414D01*
X129020106Y-79952189D01*
X128954583Y-79844615D01*
X128870729Y-79744125D01*
X128769005Y-79652158D01*
G36*
X129898061Y-80781428D02*
X129897579Y-80781047D01*
X129795411Y-80708727D01*
X129695873Y-80655470D01*
X129595670Y-80620022D01*
X129491502Y-80601128D01*
X129414475Y-80597079D01*
X129364694Y-80598339D01*
X129314035Y-80602219D01*
X129266804Y-80608058D01*
X129227310Y-80615198D01*
X129199858Y-80622983D01*
X129188755Y-80630750D01*
X129188721Y-80631616D01*
X129191967Y-80642791D01*
X129200629Y-80670901D01*
X129213696Y-80712711D01*
X129230158Y-80764988D01*
X129249006Y-80824500D01*
X129249159Y-80824984D01*
X129308986Y-81013403D01*
X129388569Y-80996955D01*
X129470486Y-80986961D01*
X129542372Y-80994081D01*
X129607473Y-81019402D01*
X129669038Y-81064011D01*
X129708991Y-81104189D01*
X129758746Y-81171337D01*
X129788551Y-81240609D01*
X129798349Y-81312725D01*
X129788086Y-81388405D01*
X129757705Y-81468373D01*
X129707151Y-81553346D01*
X129670373Y-81602924D01*
X129623065Y-81659115D01*
X129575790Y-81706159D01*
X129522134Y-81751163D01*
X129439014Y-81810240D01*
X129362171Y-81850515D01*
X129289521Y-81872629D01*
X129218977Y-81877227D01*
X129150820Y-81865623D01*
X129116676Y-81854664D01*
X129088699Y-81841227D01*
X129060405Y-81821321D01*
X129025312Y-81790951D01*
X129016512Y-81782908D01*
X128978912Y-81746899D01*
X128953051Y-81717561D01*
X128933975Y-81688542D01*
X128918259Y-81656876D01*
X128897901Y-81590818D01*
X128890581Y-81516673D01*
X128896748Y-81443372D01*
X128905721Y-81407665D01*
X128914131Y-81379482D01*
X128918174Y-81361289D01*
X128918049Y-81358049D01*
X128907810Y-81354402D01*
X128881290Y-81345829D01*
X128842455Y-81333555D01*
X128795276Y-81318807D01*
X128743723Y-81302813D01*
X128691765Y-81286800D01*
X128643371Y-81271994D01*
X128602511Y-81259624D01*
X128573152Y-81250914D01*
X128559266Y-81247093D01*
X128558904Y-81247031D01*
X128552242Y-81256077D01*
X128545167Y-81282067D01*
X128538244Y-81320803D01*
X128532039Y-81368084D01*
X128527118Y-81419710D01*
X128524046Y-81471481D01*
X128523306Y-81511250D01*
X128534044Y-81636947D01*
X128564972Y-81756364D01*
X128616035Y-81869291D01*
X128621130Y-81878286D01*
X128648572Y-81918753D01*
X128688291Y-81968056D01*
X128736066Y-82021773D01*
X128787676Y-82075480D01*
X128838899Y-82124752D01*
X128885515Y-82165169D01*
X128917125Y-82188458D01*
X129032664Y-82251784D01*
X129151323Y-82294493D01*
X129271968Y-82316529D01*
X129393465Y-82317837D01*
X129514678Y-82298360D01*
X129634474Y-82258043D01*
X129699121Y-82227084D01*
X129763628Y-82187783D01*
X129834086Y-82136436D01*
X129904124Y-82078205D01*
X129967375Y-82018255D01*
X129999567Y-81983438D01*
X130086425Y-81870243D01*
X130152291Y-81755018D01*
X130197263Y-81637540D01*
X130221438Y-81517578D01*
X130225625Y-81460847D01*
X130220198Y-81328954D01*
X130194817Y-81203928D01*
X130149698Y-81086216D01*
X130085055Y-80976265D01*
X130001104Y-80874520D01*
X129898061Y-80781428D01*
X129898061Y-80781428D01*
G37*
X129898061Y-80781428D02*
X129897579Y-80781047D01*
X129795411Y-80708727D01*
X129695873Y-80655470D01*
X129595670Y-80620022D01*
X129491502Y-80601128D01*
X129414475Y-80597079D01*
X129364694Y-80598339D01*
X129314035Y-80602219D01*
X129266804Y-80608058D01*
X129227310Y-80615198D01*
X129199858Y-80622983D01*
X129188755Y-80630750D01*
X129188721Y-80631616D01*
X129191967Y-80642791D01*
X129200629Y-80670901D01*
X129213696Y-80712711D01*
X129230158Y-80764988D01*
X129249006Y-80824500D01*
X129249159Y-80824984D01*
X129308986Y-81013403D01*
X129388569Y-80996955D01*
X129470486Y-80986961D01*
X129542372Y-80994081D01*
X129607473Y-81019402D01*
X129669038Y-81064011D01*
X129708991Y-81104189D01*
X129758746Y-81171337D01*
X129788551Y-81240609D01*
X129798349Y-81312725D01*
X129788086Y-81388405D01*
X129757705Y-81468373D01*
X129707151Y-81553346D01*
X129670373Y-81602924D01*
X129623065Y-81659115D01*
X129575790Y-81706159D01*
X129522134Y-81751163D01*
X129439014Y-81810240D01*
X129362171Y-81850515D01*
X129289521Y-81872629D01*
X129218977Y-81877227D01*
X129150820Y-81865623D01*
X129116676Y-81854664D01*
X129088699Y-81841227D01*
X129060405Y-81821321D01*
X129025312Y-81790951D01*
X129016512Y-81782908D01*
X128978912Y-81746899D01*
X128953051Y-81717561D01*
X128933975Y-81688542D01*
X128918259Y-81656876D01*
X128897901Y-81590818D01*
X128890581Y-81516673D01*
X128896748Y-81443372D01*
X128905721Y-81407665D01*
X128914131Y-81379482D01*
X128918174Y-81361289D01*
X128918049Y-81358049D01*
X128907810Y-81354402D01*
X128881290Y-81345829D01*
X128842455Y-81333555D01*
X128795276Y-81318807D01*
X128743723Y-81302813D01*
X128691765Y-81286800D01*
X128643371Y-81271994D01*
X128602511Y-81259624D01*
X128573152Y-81250914D01*
X128559266Y-81247093D01*
X128558904Y-81247031D01*
X128552242Y-81256077D01*
X128545167Y-81282067D01*
X128538244Y-81320803D01*
X128532039Y-81368084D01*
X128527118Y-81419710D01*
X128524046Y-81471481D01*
X128523306Y-81511250D01*
X128534044Y-81636947D01*
X128564972Y-81756364D01*
X128616035Y-81869291D01*
X128621130Y-81878286D01*
X128648572Y-81918753D01*
X128688291Y-81968056D01*
X128736066Y-82021773D01*
X128787676Y-82075480D01*
X128838899Y-82124752D01*
X128885515Y-82165169D01*
X128917125Y-82188458D01*
X129032664Y-82251784D01*
X129151323Y-82294493D01*
X129271968Y-82316529D01*
X129393465Y-82317837D01*
X129514678Y-82298360D01*
X129634474Y-82258043D01*
X129699121Y-82227084D01*
X129763628Y-82187783D01*
X129834086Y-82136436D01*
X129904124Y-82078205D01*
X129967375Y-82018255D01*
X129999567Y-81983438D01*
X130086425Y-81870243D01*
X130152291Y-81755018D01*
X130197263Y-81637540D01*
X130221438Y-81517578D01*
X130225625Y-81460847D01*
X130220198Y-81328954D01*
X130194817Y-81203928D01*
X130149698Y-81086216D01*
X130085055Y-80976265D01*
X130001104Y-80874520D01*
X129898061Y-80781428D01*
G36*
X121921808Y-69973531D02*
X121767218Y-69847866D01*
X121603180Y-69737751D01*
X121431577Y-69645071D01*
X121311862Y-69593100D01*
X121123478Y-69530605D01*
X120927200Y-69487657D01*
X120722858Y-69464222D01*
X120620894Y-69459875D01*
X120415074Y-69464084D01*
X120220025Y-69485647D01*
X120033491Y-69525233D01*
X119853218Y-69583513D01*
X119676949Y-69661157D01*
X119502428Y-69758834D01*
X119408160Y-69820119D01*
X119368210Y-69850175D01*
X119317416Y-69892692D01*
X119259147Y-69944449D01*
X119196774Y-70002220D01*
X119133667Y-70062786D01*
X119073197Y-70122924D01*
X119018735Y-70179410D01*
X118973648Y-70229024D01*
X118947115Y-70260933D01*
X118826655Y-70430331D01*
X118726776Y-70603891D01*
X118647141Y-70782546D01*
X118587410Y-70967233D01*
X118547248Y-71158885D01*
X118526315Y-71358439D01*
X118523399Y-71433401D01*
X118528630Y-71648007D01*
X118553702Y-71856371D01*
X118598314Y-72057743D01*
X118662167Y-72251378D01*
X118744959Y-72436525D01*
X118846392Y-72612439D01*
X118966163Y-72778371D01*
X119103974Y-72933573D01*
X119140381Y-72969805D01*
X119179092Y-73007043D01*
X119215609Y-73041518D01*
X119245343Y-73068933D01*
X119261311Y-73083020D01*
X119423484Y-73205659D01*
X119596056Y-73310171D01*
X119777962Y-73396226D01*
X119968141Y-73463490D01*
X120165530Y-73511633D01*
X120369063Y-73540323D01*
X120577681Y-73549229D01*
X120735399Y-73542834D01*
X120942815Y-73518100D01*
X121138830Y-73475842D01*
X121324539Y-73415555D01*
X121501037Y-73336734D01*
X121669418Y-73238874D01*
X121830779Y-73121472D01*
X121986213Y-72984022D01*
X122019733Y-72951031D01*
X122076914Y-72890204D01*
X121816141Y-72629432D01*
X121773283Y-72671878D01*
X121718378Y-72724307D01*
X121715955Y-72726598D01*
X121620394Y-72812945D01*
X121531026Y-72884544D01*
X121442879Y-72944630D01*
X121350984Y-72996440D01*
X121250369Y-73043209D01*
X121194683Y-73065933D01*
X121038794Y-73116701D01*
X120872662Y-73151608D01*
X120700059Y-73170654D01*
X120524756Y-73173836D01*
X120350526Y-73161156D01*
X120181140Y-73132613D01*
X120020372Y-73088208D01*
X119959328Y-73066005D01*
X119862672Y-73025165D01*
X119773071Y-72980395D01*
X119686588Y-72929155D01*
X119599283Y-72868908D01*
X119507218Y-72797111D01*
X119406452Y-72711228D01*
X119399641Y-72705216D01*
X119386762Y-72691928D01*
X119363533Y-72666221D01*
X119333280Y-72631833D01*
X119300236Y-72593558D01*
X119187365Y-72447686D01*
X119094038Y-72296176D01*
X119019576Y-72137385D01*
X118963298Y-71969668D01*
X118924527Y-71791385D01*
X118905644Y-71639904D01*
X118898251Y-71450087D01*
X118910180Y-71268391D01*
X118941670Y-71093777D01*
X118992961Y-70925204D01*
X119064295Y-70761631D01*
X119139061Y-70628650D01*
X119161406Y-70593083D01*
X119181272Y-70563103D01*
X119201146Y-70535808D01*
X119223514Y-70508302D01*
X119250860Y-70477684D01*
X119285672Y-70441056D01*
X119330436Y-70395518D01*
X119387638Y-70338171D01*
X119391260Y-70334552D01*
X119463050Y-70263699D01*
X119524093Y-70205916D01*
X119577840Y-70158570D01*
X119627744Y-70119028D01*
X119677255Y-70084663D01*
X119729827Y-70052843D01*
X119788910Y-70020938D01*
X119830248Y-69999998D01*
X119987383Y-69933128D01*
X120154522Y-69883142D01*
X120328624Y-69850257D01*
X120506650Y-69834684D01*
X120685560Y-69836638D01*
X120862315Y-69856334D01*
X121033877Y-69893984D01*
X121091391Y-69911205D01*
X121235001Y-69964956D01*
X121371063Y-70032159D01*
X121503563Y-70115079D01*
X121636483Y-70215980D01*
X121655916Y-70232143D01*
X121793109Y-70360847D01*
X121912934Y-70501373D01*
X122014937Y-70652821D01*
X122098667Y-70814292D01*
X122163670Y-70984883D01*
X122209494Y-71163695D01*
X122235686Y-71349826D01*
X122238769Y-71391664D01*
X122240379Y-71579221D01*
X122222348Y-71764499D01*
X122185241Y-71945452D01*
X122129618Y-72120035D01*
X122056046Y-72286203D01*
X121965087Y-72441910D01*
X121938935Y-72480039D01*
X121908348Y-72522273D01*
X121880082Y-72558601D01*
X121850543Y-72592998D01*
X121816141Y-72629432D01*
X122076914Y-72890204D01*
X122132215Y-72831376D01*
X122228368Y-72713341D01*
X122311909Y-72591754D01*
X122386558Y-72461447D01*
X122420978Y-72392923D01*
X122494445Y-72217232D01*
X122550817Y-72031971D01*
X122589983Y-71839882D01*
X122611830Y-71643708D01*
X122616246Y-71446192D01*
X122603121Y-71250076D01*
X122572341Y-71058101D01*
X122523794Y-70873012D01*
X122487201Y-70769246D01*
X122408066Y-70594060D01*
X122310079Y-70425012D01*
X122195119Y-70263987D01*
X122065068Y-70112866D01*
X121921808Y-69973531D01*
X121921808Y-69973531D01*
G37*
X121921808Y-69973531D02*
X121767218Y-69847866D01*
X121603180Y-69737751D01*
X121431577Y-69645071D01*
X121311862Y-69593100D01*
X121123478Y-69530605D01*
X120927200Y-69487657D01*
X120722858Y-69464222D01*
X120620894Y-69459875D01*
X120415074Y-69464084D01*
X120220025Y-69485647D01*
X120033491Y-69525233D01*
X119853218Y-69583513D01*
X119676949Y-69661157D01*
X119502428Y-69758834D01*
X119408160Y-69820119D01*
X119368210Y-69850175D01*
X119317416Y-69892692D01*
X119259147Y-69944449D01*
X119196774Y-70002220D01*
X119133667Y-70062786D01*
X119073197Y-70122924D01*
X119018735Y-70179410D01*
X118973648Y-70229024D01*
X118947115Y-70260933D01*
X118826655Y-70430331D01*
X118726776Y-70603891D01*
X118647141Y-70782546D01*
X118587410Y-70967233D01*
X118547248Y-71158885D01*
X118526315Y-71358439D01*
X118523399Y-71433401D01*
X118528630Y-71648007D01*
X118553702Y-71856371D01*
X118598314Y-72057743D01*
X118662167Y-72251378D01*
X118744959Y-72436525D01*
X118846392Y-72612439D01*
X118966163Y-72778371D01*
X119103974Y-72933573D01*
X119140381Y-72969805D01*
X119179092Y-73007043D01*
X119215609Y-73041518D01*
X119245343Y-73068933D01*
X119261311Y-73083020D01*
X119423484Y-73205659D01*
X119596056Y-73310171D01*
X119777962Y-73396226D01*
X119968141Y-73463490D01*
X120165530Y-73511633D01*
X120369063Y-73540323D01*
X120577681Y-73549229D01*
X120735399Y-73542834D01*
X120942815Y-73518100D01*
X121138830Y-73475842D01*
X121324539Y-73415555D01*
X121501037Y-73336734D01*
X121669418Y-73238874D01*
X121830779Y-73121472D01*
X121986213Y-72984022D01*
X122019733Y-72951031D01*
X122076914Y-72890204D01*
X121816141Y-72629432D01*
X121773283Y-72671878D01*
X121718378Y-72724307D01*
X121715955Y-72726598D01*
X121620394Y-72812945D01*
X121531026Y-72884544D01*
X121442879Y-72944630D01*
X121350984Y-72996440D01*
X121250369Y-73043209D01*
X121194683Y-73065933D01*
X121038794Y-73116701D01*
X120872662Y-73151608D01*
X120700059Y-73170654D01*
X120524756Y-73173836D01*
X120350526Y-73161156D01*
X120181140Y-73132613D01*
X120020372Y-73088208D01*
X119959328Y-73066005D01*
X119862672Y-73025165D01*
X119773071Y-72980395D01*
X119686588Y-72929155D01*
X119599283Y-72868908D01*
X119507218Y-72797111D01*
X119406452Y-72711228D01*
X119399641Y-72705216D01*
X119386762Y-72691928D01*
X119363533Y-72666221D01*
X119333280Y-72631833D01*
X119300236Y-72593558D01*
X119187365Y-72447686D01*
X119094038Y-72296176D01*
X119019576Y-72137385D01*
X118963298Y-71969668D01*
X118924527Y-71791385D01*
X118905644Y-71639904D01*
X118898251Y-71450087D01*
X118910180Y-71268391D01*
X118941670Y-71093777D01*
X118992961Y-70925204D01*
X119064295Y-70761631D01*
X119139061Y-70628650D01*
X119161406Y-70593083D01*
X119181272Y-70563103D01*
X119201146Y-70535808D01*
X119223514Y-70508302D01*
X119250860Y-70477684D01*
X119285672Y-70441056D01*
X119330436Y-70395518D01*
X119387638Y-70338171D01*
X119391260Y-70334552D01*
X119463050Y-70263699D01*
X119524093Y-70205916D01*
X119577840Y-70158570D01*
X119627744Y-70119028D01*
X119677255Y-70084663D01*
X119729827Y-70052843D01*
X119788910Y-70020938D01*
X119830248Y-69999998D01*
X119987383Y-69933128D01*
X120154522Y-69883142D01*
X120328624Y-69850257D01*
X120506650Y-69834684D01*
X120685560Y-69836638D01*
X120862315Y-69856334D01*
X121033877Y-69893984D01*
X121091391Y-69911205D01*
X121235001Y-69964956D01*
X121371063Y-70032159D01*
X121503563Y-70115079D01*
X121636483Y-70215980D01*
X121655916Y-70232143D01*
X121793109Y-70360847D01*
X121912934Y-70501373D01*
X122014937Y-70652821D01*
X122098667Y-70814292D01*
X122163670Y-70984883D01*
X122209494Y-71163695D01*
X122235686Y-71349826D01*
X122238769Y-71391664D01*
X122240379Y-71579221D01*
X122222348Y-71764499D01*
X122185241Y-71945452D01*
X122129618Y-72120035D01*
X122056046Y-72286203D01*
X121965087Y-72441910D01*
X121938935Y-72480039D01*
X121908348Y-72522273D01*
X121880082Y-72558601D01*
X121850543Y-72592998D01*
X121816141Y-72629432D01*
X122076914Y-72890204D01*
X122132215Y-72831376D01*
X122228368Y-72713341D01*
X122311909Y-72591754D01*
X122386558Y-72461447D01*
X122420978Y-72392923D01*
X122494445Y-72217232D01*
X122550817Y-72031971D01*
X122589983Y-71839882D01*
X122611830Y-71643708D01*
X122616246Y-71446192D01*
X122603121Y-71250076D01*
X122572341Y-71058101D01*
X122523794Y-70873012D01*
X122487201Y-70769246D01*
X122408066Y-70594060D01*
X122310079Y-70425012D01*
X122195119Y-70263987D01*
X122065068Y-70112866D01*
X121921808Y-69973531D01*
G36*
X125378859Y-73444685D02*
X125222989Y-73330443D01*
X125048978Y-73227204D01*
X124866663Y-73143164D01*
X124677024Y-73078501D01*
X124481045Y-73033393D01*
X124279707Y-73008018D01*
X124073994Y-73002553D01*
X123864887Y-73017179D01*
X123669481Y-73048710D01*
X123489557Y-73096169D01*
X123312692Y-73163566D01*
X123140563Y-73249712D01*
X122974852Y-73353424D01*
X122817237Y-73473514D01*
X122669400Y-73608799D01*
X122533019Y-73758092D01*
X122409775Y-73920207D01*
X122387068Y-73953736D01*
X122322836Y-74055946D01*
X122269366Y-74154241D01*
X122222961Y-74256233D01*
X122179923Y-74369533D01*
X122167570Y-74405515D01*
X122133370Y-74515675D01*
X122107800Y-74619440D01*
X122089919Y-74722865D01*
X122078785Y-74832009D01*
X122073458Y-74952930D01*
X122072690Y-75015977D01*
X122080066Y-75226586D01*
X122104262Y-75425455D01*
X122145820Y-75614369D01*
X122205280Y-75795117D01*
X122283182Y-75969488D01*
X122380069Y-76139265D01*
X122439560Y-76228369D01*
X122480766Y-76282885D01*
X122533541Y-76346378D01*
X122593949Y-76414633D01*
X122658049Y-76483439D01*
X122721901Y-76548585D01*
X122781569Y-76605860D01*
X122833115Y-76651049D01*
X122840156Y-76656728D01*
X123009096Y-76777922D01*
X123186373Y-76879663D01*
X123371951Y-76961934D01*
X123565795Y-77024719D01*
X123767870Y-77068006D01*
X123795742Y-77072349D01*
X123859797Y-77079501D01*
X123939054Y-77084640D01*
X124028276Y-77087759D01*
X124122228Y-77088850D01*
X124215676Y-77087902D01*
X124303386Y-77084911D01*
X124380119Y-77079867D01*
X124436920Y-77073344D01*
X124637008Y-77033606D01*
X124825255Y-76977070D01*
X125003299Y-76902935D01*
X125172780Y-76810404D01*
X125335339Y-76698680D01*
X125492618Y-76566961D01*
X125510171Y-76550747D01*
X125558948Y-76502239D01*
X125294953Y-76238244D01*
X125238721Y-76293924D01*
X125193637Y-76337257D01*
X125156248Y-76371218D01*
X125123103Y-76398785D01*
X125090748Y-76422935D01*
X125055730Y-76446644D01*
X125045806Y-76453077D01*
X124957128Y-76507558D01*
X124874956Y-76551714D01*
X124790923Y-76589566D01*
X124696664Y-76625141D01*
X124666855Y-76635392D01*
X124511775Y-76677949D01*
X124346284Y-76705250D01*
X124174642Y-76717300D01*
X124001104Y-76714102D01*
X123829929Y-76695664D01*
X123665374Y-76661988D01*
X123570734Y-76634187D01*
X123453840Y-76590446D01*
X123342758Y-76537953D01*
X123233942Y-76474536D01*
X123123845Y-76398026D01*
X123008920Y-76306253D01*
X122946819Y-76252441D01*
X122933955Y-76239150D01*
X122910735Y-76213436D01*
X122880477Y-76179032D01*
X122847257Y-76140548D01*
X122732640Y-75991921D01*
X122637758Y-75836632D01*
X122562151Y-75673585D01*
X122505360Y-75501683D01*
X122466925Y-75319830D01*
X122451566Y-75195746D01*
X122443862Y-75007904D01*
X122455472Y-74825117D01*
X122486158Y-74648751D01*
X122535682Y-74480177D01*
X122603806Y-74320764D01*
X122604005Y-74320366D01*
X122695590Y-74160057D01*
X122803463Y-74010687D01*
X122925915Y-73873769D01*
X123061231Y-73750816D01*
X123207699Y-73643338D01*
X123363607Y-73552848D01*
X123527243Y-73480859D01*
X123573418Y-73464489D01*
X123734071Y-73420463D01*
X123904664Y-73392282D01*
X124080818Y-73380202D01*
X124258154Y-73384476D01*
X124432296Y-73405361D01*
X124469913Y-73412243D01*
X124633887Y-73454752D01*
X124793727Y-73516704D01*
X124947636Y-73596507D01*
X125093820Y-73692564D01*
X125230484Y-73803286D01*
X125355835Y-73927077D01*
X125468077Y-74062344D01*
X125565416Y-74207493D01*
X125646056Y-74360931D01*
X125703905Y-74507899D01*
X125748429Y-74673428D01*
X125775521Y-74846542D01*
X125785423Y-75024035D01*
X125778376Y-75202700D01*
X125754620Y-75379333D01*
X125714399Y-75550728D01*
X125657954Y-75713678D01*
X125604398Y-75829810D01*
X125566210Y-75901116D01*
X125529942Y-75962465D01*
X125492400Y-76018070D01*
X125450391Y-76072150D01*
X125400719Y-76128918D01*
X125340192Y-76192592D01*
X125294953Y-76238244D01*
X125558948Y-76502239D01*
X125627048Y-76434514D01*
X125729242Y-76316563D01*
X125822605Y-76190036D01*
X125839959Y-76164262D01*
X125936835Y-75999722D01*
X126016575Y-75824982D01*
X126079101Y-75642108D01*
X126124343Y-75453168D01*
X126152227Y-75260226D01*
X126162678Y-75065348D01*
X126155624Y-74870603D01*
X126130993Y-74678053D01*
X126088709Y-74489767D01*
X126028699Y-74307809D01*
X125950890Y-74134247D01*
X125914482Y-74067138D01*
X125804961Y-73896070D01*
X125677566Y-73733583D01*
X125534723Y-73582259D01*
X125378859Y-73444685D01*
X125378859Y-73444685D01*
G37*
X125378859Y-73444685D02*
X125222989Y-73330443D01*
X125048978Y-73227204D01*
X124866663Y-73143164D01*
X124677024Y-73078501D01*
X124481045Y-73033393D01*
X124279707Y-73008018D01*
X124073994Y-73002553D01*
X123864887Y-73017179D01*
X123669481Y-73048710D01*
X123489557Y-73096169D01*
X123312692Y-73163566D01*
X123140563Y-73249712D01*
X122974852Y-73353424D01*
X122817237Y-73473514D01*
X122669400Y-73608799D01*
X122533019Y-73758092D01*
X122409775Y-73920207D01*
X122387068Y-73953736D01*
X122322836Y-74055946D01*
X122269366Y-74154241D01*
X122222961Y-74256233D01*
X122179923Y-74369533D01*
X122167570Y-74405515D01*
X122133370Y-74515675D01*
X122107800Y-74619440D01*
X122089919Y-74722865D01*
X122078785Y-74832009D01*
X122073458Y-74952930D01*
X122072690Y-75015977D01*
X122080066Y-75226586D01*
X122104262Y-75425455D01*
X122145820Y-75614369D01*
X122205280Y-75795117D01*
X122283182Y-75969488D01*
X122380069Y-76139265D01*
X122439560Y-76228369D01*
X122480766Y-76282885D01*
X122533541Y-76346378D01*
X122593949Y-76414633D01*
X122658049Y-76483439D01*
X122721901Y-76548585D01*
X122781569Y-76605860D01*
X122833115Y-76651049D01*
X122840156Y-76656728D01*
X123009096Y-76777922D01*
X123186373Y-76879663D01*
X123371951Y-76961934D01*
X123565795Y-77024719D01*
X123767870Y-77068006D01*
X123795742Y-77072349D01*
X123859797Y-77079501D01*
X123939054Y-77084640D01*
X124028276Y-77087759D01*
X124122228Y-77088850D01*
X124215676Y-77087902D01*
X124303386Y-77084911D01*
X124380119Y-77079867D01*
X124436920Y-77073344D01*
X124637008Y-77033606D01*
X124825255Y-76977070D01*
X125003299Y-76902935D01*
X125172780Y-76810404D01*
X125335339Y-76698680D01*
X125492618Y-76566961D01*
X125510171Y-76550747D01*
X125558948Y-76502239D01*
X125294953Y-76238244D01*
X125238721Y-76293924D01*
X125193637Y-76337257D01*
X125156248Y-76371218D01*
X125123103Y-76398785D01*
X125090748Y-76422935D01*
X125055730Y-76446644D01*
X125045806Y-76453077D01*
X124957128Y-76507558D01*
X124874956Y-76551714D01*
X124790923Y-76589566D01*
X124696664Y-76625141D01*
X124666855Y-76635392D01*
X124511775Y-76677949D01*
X124346284Y-76705250D01*
X124174642Y-76717300D01*
X124001104Y-76714102D01*
X123829929Y-76695664D01*
X123665374Y-76661988D01*
X123570734Y-76634187D01*
X123453840Y-76590446D01*
X123342758Y-76537953D01*
X123233942Y-76474536D01*
X123123845Y-76398026D01*
X123008920Y-76306253D01*
X122946819Y-76252441D01*
X122933955Y-76239150D01*
X122910735Y-76213436D01*
X122880477Y-76179032D01*
X122847257Y-76140548D01*
X122732640Y-75991921D01*
X122637758Y-75836632D01*
X122562151Y-75673585D01*
X122505360Y-75501683D01*
X122466925Y-75319830D01*
X122451566Y-75195746D01*
X122443862Y-75007904D01*
X122455472Y-74825117D01*
X122486158Y-74648751D01*
X122535682Y-74480177D01*
X122603806Y-74320764D01*
X122604005Y-74320366D01*
X122695590Y-74160057D01*
X122803463Y-74010687D01*
X122925915Y-73873769D01*
X123061231Y-73750816D01*
X123207699Y-73643338D01*
X123363607Y-73552848D01*
X123527243Y-73480859D01*
X123573418Y-73464489D01*
X123734071Y-73420463D01*
X123904664Y-73392282D01*
X124080818Y-73380202D01*
X124258154Y-73384476D01*
X124432296Y-73405361D01*
X124469913Y-73412243D01*
X124633887Y-73454752D01*
X124793727Y-73516704D01*
X124947636Y-73596507D01*
X125093820Y-73692564D01*
X125230484Y-73803286D01*
X125355835Y-73927077D01*
X125468077Y-74062344D01*
X125565416Y-74207493D01*
X125646056Y-74360931D01*
X125703905Y-74507899D01*
X125748429Y-74673428D01*
X125775521Y-74846542D01*
X125785423Y-75024035D01*
X125778376Y-75202700D01*
X125754620Y-75379333D01*
X125714399Y-75550728D01*
X125657954Y-75713678D01*
X125604398Y-75829810D01*
X125566210Y-75901116D01*
X125529942Y-75962465D01*
X125492400Y-76018070D01*
X125450391Y-76072150D01*
X125400719Y-76128918D01*
X125340192Y-76192592D01*
X125294953Y-76238244D01*
X125558948Y-76502239D01*
X125627048Y-76434514D01*
X125729242Y-76316563D01*
X125822605Y-76190036D01*
X125839959Y-76164262D01*
X125936835Y-75999722D01*
X126016575Y-75824982D01*
X126079101Y-75642108D01*
X126124343Y-75453168D01*
X126152227Y-75260226D01*
X126162678Y-75065348D01*
X126155624Y-74870603D01*
X126130993Y-74678053D01*
X126088709Y-74489767D01*
X126028699Y-74307809D01*
X125950890Y-74134247D01*
X125914482Y-74067138D01*
X125804961Y-73896070D01*
X125677566Y-73733583D01*
X125534723Y-73582259D01*
X125378859Y-73444685D01*
G36*
X130715247Y-78912399D02*
X130645880Y-78846517D01*
X130580765Y-78786730D01*
X130522793Y-78735890D01*
X130474857Y-78696851D01*
X130463816Y-78688561D01*
X130261213Y-78552559D01*
X130052244Y-78436737D01*
X129836826Y-78341064D01*
X129614875Y-78265504D01*
X129386310Y-78210028D01*
X129151719Y-78174672D01*
X129095979Y-78170107D01*
X129025583Y-78166431D01*
X128947031Y-78163865D01*
X128866822Y-78162632D01*
X128803999Y-78162777D01*
X128563399Y-78174756D01*
X128332533Y-78205085D01*
X128110245Y-78254173D01*
X127895376Y-78322428D01*
X127686769Y-78410256D01*
X127483267Y-78518065D01*
X127283713Y-78646263D01*
X127150383Y-78744743D01*
X127099626Y-78786936D01*
X127038758Y-78841891D01*
X126971225Y-78906113D01*
X126900471Y-78976107D01*
X126829942Y-79048379D01*
X126763085Y-79119434D01*
X126703344Y-79185778D01*
X126654163Y-79243915D01*
X126637690Y-79264779D01*
X126497920Y-79462481D01*
X126378682Y-79665069D01*
X126279794Y-79873053D01*
X126201079Y-80086943D01*
X126142358Y-80307246D01*
X126103451Y-80534473D01*
X126084181Y-80769133D01*
X126082120Y-80846726D01*
X126088055Y-81098308D01*
X126112835Y-81340472D01*
X126156630Y-81573759D01*
X126219610Y-81798713D01*
X126301942Y-82015875D01*
X126403798Y-82225788D01*
X126525346Y-82428996D01*
X126617224Y-82560767D01*
X126652266Y-82605525D01*
X126698363Y-82660410D01*
X126752284Y-82721932D01*
X126810801Y-82786604D01*
X126870687Y-82850936D01*
X126928710Y-82911441D01*
X126981645Y-82964631D01*
X127026264Y-83007016D01*
X127047342Y-83025512D01*
X127241547Y-83175943D01*
X127440550Y-83305951D01*
X127645150Y-83415824D01*
X127856148Y-83505853D01*
X128074344Y-83576326D01*
X128300539Y-83627535D01*
X128535534Y-83659767D01*
X128780127Y-83673313D01*
X128838877Y-83673817D01*
X129084789Y-83664850D01*
X129320368Y-83637711D01*
X129546717Y-83592036D01*
X129764940Y-83527466D01*
X129976138Y-83443641D01*
X130181414Y-83340198D01*
X130381871Y-83216777D01*
X130507792Y-83127397D01*
X130551936Y-83092021D01*
X130606720Y-83044405D01*
X130668572Y-82987993D01*
X130733921Y-82926233D01*
X130776582Y-82884619D01*
X130423854Y-82531891D01*
X130347832Y-82604905D01*
X130273574Y-82672199D01*
X130204816Y-82730086D01*
X130146768Y-82773857D01*
X129962411Y-82889827D01*
X129772823Y-82985390D01*
X129577217Y-83060836D01*
X129374800Y-83116453D01*
X129164784Y-83152533D01*
X129090803Y-83160464D01*
X128859845Y-83171975D01*
X128635674Y-83163798D01*
X128418666Y-83136038D01*
X128209193Y-83088796D01*
X128007627Y-83022176D01*
X127814341Y-82936280D01*
X127629709Y-82831210D01*
X127459142Y-82710998D01*
X127405783Y-82666418D01*
X127343340Y-82609215D01*
X127275758Y-82543447D01*
X127206983Y-82473172D01*
X127140959Y-82402447D01*
X127081631Y-82335331D01*
X127032946Y-82275882D01*
X127021603Y-82260954D01*
X126903973Y-82086860D01*
X126805342Y-81906180D01*
X126725399Y-81717941D01*
X126663840Y-81521168D01*
X126620355Y-81314885D01*
X126594638Y-81098120D01*
X126586385Y-80882304D01*
X126594187Y-80675271D01*
X126619034Y-80478534D01*
X126661615Y-80289987D01*
X126722616Y-80107523D01*
X126802725Y-79929037D01*
X126902627Y-79752421D01*
X127004215Y-79601370D01*
X127047912Y-79545431D01*
X127104525Y-79480036D01*
X127170373Y-79408866D01*
X127241773Y-79335600D01*
X127315047Y-79263921D01*
X127386512Y-79197511D01*
X127452488Y-79140048D01*
X127509295Y-79095216D01*
X127513077Y-79092469D01*
X127697662Y-78970901D01*
X127885767Y-78870021D01*
X128078349Y-78789511D01*
X128276362Y-78729047D01*
X128480761Y-78688309D01*
X128692503Y-78666976D01*
X128788918Y-78663644D01*
X129011344Y-78668907D01*
X129222824Y-78691857D01*
X129424617Y-78732886D01*
X129617984Y-78792388D01*
X129804187Y-78870757D01*
X129984486Y-78968387D01*
X130160141Y-79085670D01*
X130175083Y-79096696D01*
X130246615Y-79153717D01*
X130325881Y-79223417D01*
X130408290Y-79301266D01*
X130489255Y-79382735D01*
X130564185Y-79463292D01*
X130628491Y-79538409D01*
X130649573Y-79565085D01*
X130771341Y-79740377D01*
X130873557Y-79923774D01*
X130956216Y-80115256D01*
X131019310Y-80314806D01*
X131062832Y-80522401D01*
X131086776Y-80738022D01*
X131091875Y-80890184D01*
X131083376Y-81118173D01*
X131056178Y-81336558D01*
X131010059Y-81546061D01*
X130944795Y-81747403D01*
X130860163Y-81941308D01*
X130755944Y-82128498D01*
X130670861Y-82256419D01*
X130625143Y-82315423D01*
X130566245Y-82383462D01*
X130497903Y-82456848D01*
X130423854Y-82531891D01*
X130776582Y-82884619D01*
X130799194Y-82862565D01*
X130860820Y-82800438D01*
X130915226Y-82743297D01*
X130958840Y-82694586D01*
X130968723Y-82682818D01*
X131114484Y-82491328D01*
X131240346Y-82294561D01*
X131346726Y-82091435D01*
X131434042Y-81880862D01*
X131502711Y-81661762D01*
X131553151Y-81433047D01*
X131585779Y-81193636D01*
X131596513Y-81052948D01*
X131599900Y-80812432D01*
X131582782Y-80576666D01*
X131545020Y-80344635D01*
X131486475Y-80115327D01*
X131454901Y-80017376D01*
X131389076Y-79844195D01*
X131312612Y-79679677D01*
X131222953Y-79519034D01*
X131117542Y-79357482D01*
X131058886Y-79275891D01*
X131024707Y-79233360D01*
X130977435Y-79179805D01*
X130919963Y-79118077D01*
X130855180Y-79051032D01*
X130785978Y-78981521D01*
X130715247Y-78912399D01*
X130715247Y-78912399D01*
G37*
X130715247Y-78912399D02*
X130645880Y-78846517D01*
X130580765Y-78786730D01*
X130522793Y-78735890D01*
X130474857Y-78696851D01*
X130463816Y-78688561D01*
X130261213Y-78552559D01*
X130052244Y-78436737D01*
X129836826Y-78341064D01*
X129614875Y-78265504D01*
X129386310Y-78210028D01*
X129151719Y-78174672D01*
X129095979Y-78170107D01*
X129025583Y-78166431D01*
X128947031Y-78163865D01*
X128866822Y-78162632D01*
X128803999Y-78162777D01*
X128563399Y-78174756D01*
X128332533Y-78205085D01*
X128110245Y-78254173D01*
X127895376Y-78322428D01*
X127686769Y-78410256D01*
X127483267Y-78518065D01*
X127283713Y-78646263D01*
X127150383Y-78744743D01*
X127099626Y-78786936D01*
X127038758Y-78841891D01*
X126971225Y-78906113D01*
X126900471Y-78976107D01*
X126829942Y-79048379D01*
X126763085Y-79119434D01*
X126703344Y-79185778D01*
X126654163Y-79243915D01*
X126637690Y-79264779D01*
X126497920Y-79462481D01*
X126378682Y-79665069D01*
X126279794Y-79873053D01*
X126201079Y-80086943D01*
X126142358Y-80307246D01*
X126103451Y-80534473D01*
X126084181Y-80769133D01*
X126082120Y-80846726D01*
X126088055Y-81098308D01*
X126112835Y-81340472D01*
X126156630Y-81573759D01*
X126219610Y-81798713D01*
X126301942Y-82015875D01*
X126403798Y-82225788D01*
X126525346Y-82428996D01*
X126617224Y-82560767D01*
X126652266Y-82605525D01*
X126698363Y-82660410D01*
X126752284Y-82721932D01*
X126810801Y-82786604D01*
X126870687Y-82850936D01*
X126928710Y-82911441D01*
X126981645Y-82964631D01*
X127026264Y-83007016D01*
X127047342Y-83025512D01*
X127241547Y-83175943D01*
X127440550Y-83305951D01*
X127645150Y-83415824D01*
X127856148Y-83505853D01*
X128074344Y-83576326D01*
X128300539Y-83627535D01*
X128535534Y-83659767D01*
X128780127Y-83673313D01*
X128838877Y-83673817D01*
X129084789Y-83664850D01*
X129320368Y-83637711D01*
X129546717Y-83592036D01*
X129764940Y-83527466D01*
X129976138Y-83443641D01*
X130181414Y-83340198D01*
X130381871Y-83216777D01*
X130507792Y-83127397D01*
X130551936Y-83092021D01*
X130606720Y-83044405D01*
X130668572Y-82987993D01*
X130733921Y-82926233D01*
X130776582Y-82884619D01*
X130423854Y-82531891D01*
X130347832Y-82604905D01*
X130273574Y-82672199D01*
X130204816Y-82730086D01*
X130146768Y-82773857D01*
X129962411Y-82889827D01*
X129772823Y-82985390D01*
X129577217Y-83060836D01*
X129374800Y-83116453D01*
X129164784Y-83152533D01*
X129090803Y-83160464D01*
X128859845Y-83171975D01*
X128635674Y-83163798D01*
X128418666Y-83136038D01*
X128209193Y-83088796D01*
X128007627Y-83022176D01*
X127814341Y-82936280D01*
X127629709Y-82831210D01*
X127459142Y-82710998D01*
X127405783Y-82666418D01*
X127343340Y-82609215D01*
X127275758Y-82543447D01*
X127206983Y-82473172D01*
X127140959Y-82402447D01*
X127081631Y-82335331D01*
X127032946Y-82275882D01*
X127021603Y-82260954D01*
X126903973Y-82086860D01*
X126805342Y-81906180D01*
X126725399Y-81717941D01*
X126663840Y-81521168D01*
X126620355Y-81314885D01*
X126594638Y-81098120D01*
X126586385Y-80882304D01*
X126594187Y-80675271D01*
X126619034Y-80478534D01*
X126661615Y-80289987D01*
X126722616Y-80107523D01*
X126802725Y-79929037D01*
X126902627Y-79752421D01*
X127004215Y-79601370D01*
X127047912Y-79545431D01*
X127104525Y-79480036D01*
X127170373Y-79408866D01*
X127241773Y-79335600D01*
X127315047Y-79263921D01*
X127386512Y-79197511D01*
X127452488Y-79140048D01*
X127509295Y-79095216D01*
X127513077Y-79092469D01*
X127697662Y-78970901D01*
X127885767Y-78870021D01*
X128078349Y-78789511D01*
X128276362Y-78729047D01*
X128480761Y-78688309D01*
X128692503Y-78666976D01*
X128788918Y-78663644D01*
X129011344Y-78668907D01*
X129222824Y-78691857D01*
X129424617Y-78732886D01*
X129617984Y-78792388D01*
X129804187Y-78870757D01*
X129984486Y-78968387D01*
X130160141Y-79085670D01*
X130175083Y-79096696D01*
X130246615Y-79153717D01*
X130325881Y-79223417D01*
X130408290Y-79301266D01*
X130489255Y-79382735D01*
X130564185Y-79463292D01*
X130628491Y-79538409D01*
X130649573Y-79565085D01*
X130771341Y-79740377D01*
X130873557Y-79923774D01*
X130956216Y-80115256D01*
X131019310Y-80314806D01*
X131062832Y-80522401D01*
X131086776Y-80738022D01*
X131091875Y-80890184D01*
X131083376Y-81118173D01*
X131056178Y-81336558D01*
X131010059Y-81546061D01*
X130944795Y-81747403D01*
X130860163Y-81941308D01*
X130755944Y-82128498D01*
X130670861Y-82256419D01*
X130625143Y-82315423D01*
X130566245Y-82383462D01*
X130497903Y-82456848D01*
X130423854Y-82531891D01*
X130776582Y-82884619D01*
X130799194Y-82862565D01*
X130860820Y-82800438D01*
X130915226Y-82743297D01*
X130958840Y-82694586D01*
X130968723Y-82682818D01*
X131114484Y-82491328D01*
X131240346Y-82294561D01*
X131346726Y-82091435D01*
X131434042Y-81880862D01*
X131502711Y-81661762D01*
X131553151Y-81433047D01*
X131585779Y-81193636D01*
X131596513Y-81052948D01*
X131599900Y-80812432D01*
X131582782Y-80576666D01*
X131545020Y-80344635D01*
X131486475Y-80115327D01*
X131454901Y-80017376D01*
X131389076Y-79844195D01*
X131312612Y-79679677D01*
X131222953Y-79519034D01*
X131117542Y-79357482D01*
X131058886Y-79275891D01*
X131024707Y-79233360D01*
X130977435Y-79179805D01*
X130919963Y-79118077D01*
X130855180Y-79051032D01*
X130785978Y-78981521D01*
X130715247Y-78912399D01*
G36*
X117898702Y-73691828D02*
X117874360Y-73702864D01*
X117837842Y-73720018D01*
X117792540Y-73741640D01*
X117741844Y-73766082D01*
X117689146Y-73791696D01*
X117637836Y-73816833D01*
X117591306Y-73839843D01*
X117552946Y-73859079D01*
X117526149Y-73872893D01*
X117514304Y-73879635D01*
X117514142Y-73879778D01*
X117519260Y-73888737D01*
X117536976Y-73909685D01*
X117564757Y-73939813D01*
X117600065Y-73976315D01*
X117613998Y-73990345D01*
X117651768Y-74027367D01*
X117683857Y-74057407D01*
X117707564Y-74078044D01*
X117720190Y-74086858D01*
X117721512Y-74086632D01*
X117726570Y-74074750D01*
X117739340Y-74046793D01*
X117758415Y-74005784D01*
X117782386Y-73954746D01*
X117809846Y-73896705D01*
X117815430Y-73884950D01*
X117843234Y-73826320D01*
X117867687Y-73774512D01*
X117887420Y-73732444D01*
X117901065Y-73703036D01*
X117907253Y-73689207D01*
X117907477Y-73688557D01*
X117898702Y-73691828D01*
X117898702Y-73691828D01*
G37*
X117898702Y-73691828D02*
X117874360Y-73702864D01*
X117837842Y-73720018D01*
X117792540Y-73741640D01*
X117741844Y-73766082D01*
X117689146Y-73791696D01*
X117637836Y-73816833D01*
X117591306Y-73839843D01*
X117552946Y-73859079D01*
X117526149Y-73872893D01*
X117514304Y-73879635D01*
X117514142Y-73879778D01*
X117519260Y-73888737D01*
X117536976Y-73909685D01*
X117564757Y-73939813D01*
X117600065Y-73976315D01*
X117613998Y-73990345D01*
X117651768Y-74027367D01*
X117683857Y-74057407D01*
X117707564Y-74078044D01*
X117720190Y-74086858D01*
X117721512Y-74086632D01*
X117726570Y-74074750D01*
X117739340Y-74046793D01*
X117758415Y-74005784D01*
X117782386Y-73954746D01*
X117809846Y-73896705D01*
X117815430Y-73884950D01*
X117843234Y-73826320D01*
X117867687Y-73774512D01*
X117887420Y-73732444D01*
X117901065Y-73703036D01*
X117907253Y-73689207D01*
X117907477Y-73688557D01*
X117898702Y-73691828D01*
G36*
X122219197Y-77878385D02*
X122178436Y-77841592D01*
X122147708Y-77817809D01*
X122126982Y-77806179D01*
X122083525Y-77798614D01*
X122040714Y-77808479D01*
X122002483Y-77832288D01*
X121972764Y-77866560D01*
X121955490Y-77907814D01*
X121954593Y-77952566D01*
X121955730Y-77957836D01*
X121961010Y-77974782D01*
X121969775Y-77991754D01*
X121984464Y-78011784D01*
X122007517Y-78037902D01*
X122041376Y-78073136D01*
X122079392Y-78111438D01*
X122193488Y-78225590D01*
X122380576Y-78038502D01*
X122271825Y-77929750D01*
X122219197Y-77878385D01*
X122219197Y-77878385D01*
G37*
X122219197Y-77878385D02*
X122178436Y-77841592D01*
X122147708Y-77817809D01*
X122126982Y-77806179D01*
X122083525Y-77798614D01*
X122040714Y-77808479D01*
X122002483Y-77832288D01*
X121972764Y-77866560D01*
X121955490Y-77907814D01*
X121954593Y-77952566D01*
X121955730Y-77957836D01*
X121961010Y-77974782D01*
X121969775Y-77991754D01*
X121984464Y-78011784D01*
X122007517Y-78037902D01*
X122041376Y-78073136D01*
X122079392Y-78111438D01*
X122193488Y-78225590D01*
X122380576Y-78038502D01*
X122271825Y-77929750D01*
X122219197Y-77878385D01*
G36*
X121939636Y-78228743D02*
X121883738Y-78176027D01*
X121839520Y-78137195D01*
X121804185Y-78110689D01*
X121774936Y-78094954D01*
X121748974Y-78088429D01*
X121723503Y-78089561D01*
X121700089Y-78095397D01*
X121659392Y-78115592D01*
X121621816Y-78147127D01*
X121593096Y-78184097D01*
X121579067Y-78219941D01*
X121576364Y-78249911D01*
X121579394Y-78277239D01*
X121589933Y-78304893D01*
X121609761Y-78335845D01*
X121640656Y-78373066D01*
X121684395Y-78419527D01*
X121720165Y-78455698D01*
X121841761Y-78577317D01*
X122067530Y-78351549D01*
X121939636Y-78228743D01*
X121939636Y-78228743D01*
G37*
X121939636Y-78228743D02*
X121883738Y-78176027D01*
X121839520Y-78137195D01*
X121804185Y-78110689D01*
X121774936Y-78094954D01*
X121748974Y-78088429D01*
X121723503Y-78089561D01*
X121700089Y-78095397D01*
X121659392Y-78115592D01*
X121621816Y-78147127D01*
X121593096Y-78184097D01*
X121579067Y-78219941D01*
X121576364Y-78249911D01*
X121579394Y-78277239D01*
X121589933Y-78304893D01*
X121609761Y-78335845D01*
X121640656Y-78373066D01*
X121684395Y-78419527D01*
X121720165Y-78455698D01*
X121841761Y-78577317D01*
X122067530Y-78351549D01*
X121939636Y-78228743D01*
G36*
X119051876Y-66308042D02*
X118963546Y-66286259D01*
X118876748Y-66285200D01*
X118788702Y-66304862D01*
X118779513Y-66308042D01*
X118706155Y-66334234D01*
X116219662Y-68816816D01*
X115967539Y-69068576D01*
X115730197Y-69305647D01*
X115507408Y-69528260D01*
X115298940Y-69736645D01*
X115104562Y-69931036D01*
X114924043Y-70111664D01*
X114757155Y-70278760D01*
X114603665Y-70432557D01*
X114463343Y-70573284D01*
X114335960Y-70701177D01*
X114221284Y-70816463D01*
X114119085Y-70919376D01*
X114029132Y-71010148D01*
X113951195Y-71089008D01*
X113885043Y-71156192D01*
X113830445Y-71211928D01*
X113787173Y-71256450D01*
X113754994Y-71289988D01*
X113733677Y-71312774D01*
X113722993Y-71325040D01*
X113721634Y-71327081D01*
X113716422Y-71357680D01*
X113720200Y-71381774D01*
X113728165Y-71390632D01*
X113750719Y-71414053D01*
X113787475Y-71451654D01*
X113838044Y-71503043D01*
X113902039Y-71567832D01*
X113979069Y-71645635D01*
X114068749Y-71736061D01*
X114170690Y-71838725D01*
X114284503Y-71953236D01*
X114409800Y-72079208D01*
X114546193Y-72216252D01*
X114693294Y-72363979D01*
X114850715Y-72522003D01*
X115018068Y-72689933D01*
X115194964Y-72867383D01*
X115381015Y-73053964D01*
X115575833Y-73249289D01*
X115779030Y-73452968D01*
X115990218Y-73664614D01*
X116209008Y-73883839D01*
X116435013Y-74110254D01*
X116667844Y-74343471D01*
X116907113Y-74583103D01*
X117152432Y-74828760D01*
X117403413Y-75080056D01*
X117659668Y-75336602D01*
X117920807Y-75598009D01*
X118186444Y-75863890D01*
X118456190Y-76133855D01*
X118729657Y-76407519D01*
X119006456Y-76684491D01*
X119286200Y-76964383D01*
X119568500Y-77246810D01*
X119852969Y-77531380D01*
X120139217Y-77817707D01*
X120426858Y-78105402D01*
X120715502Y-78394077D01*
X121004761Y-78683344D01*
X121294248Y-78972815D01*
X121583574Y-79262102D01*
X121872351Y-79550816D01*
X122160192Y-79838570D01*
X122446706Y-80124975D01*
X122731506Y-80409643D01*
X123014205Y-80692187D01*
X123294415Y-80972216D01*
X123571747Y-81249345D01*
X123845813Y-81523184D01*
X124116223Y-81793346D01*
X124382591Y-82059441D01*
X124644529Y-82321083D01*
X124901647Y-82577883D01*
X125153559Y-82829453D01*
X125399876Y-83075404D01*
X125640209Y-83315349D01*
X125874171Y-83548899D01*
X126101373Y-83775667D01*
X126321427Y-83995263D01*
X126533945Y-84207301D01*
X126738539Y-84411391D01*
X126934820Y-84607146D01*
X127122401Y-84794177D01*
X127300893Y-84972096D01*
X127469909Y-85140516D01*
X127629059Y-85299048D01*
X127777955Y-85447304D01*
X127916211Y-85584895D01*
X128043436Y-85711434D01*
X128159245Y-85826533D01*
X128263247Y-85929803D01*
X128355055Y-86020856D01*
X128434281Y-86099304D01*
X128500536Y-86164758D01*
X128553433Y-86216832D01*
X128592583Y-86255136D01*
X128617598Y-86279283D01*
X128628090Y-86288884D01*
X128628347Y-86289038D01*
X128656295Y-86291386D01*
X128680310Y-86285888D01*
X128688254Y-86279575D01*
X128706457Y-86262890D01*
X128735159Y-86235596D01*
X128774597Y-86197453D01*
X128825012Y-86148224D01*
X128886642Y-86087672D01*
X128959727Y-86015559D01*
X129044504Y-85931646D01*
X129141214Y-85835696D01*
X129250094Y-85727471D01*
X129371385Y-85606734D01*
X129505326Y-85473246D01*
X129652154Y-85326770D01*
X129812110Y-85167067D01*
X129985432Y-84993901D01*
X130172360Y-84807033D01*
X130373131Y-84606225D01*
X130587985Y-84391239D01*
X130817163Y-84161838D01*
X131060901Y-83917784D01*
X131190667Y-83787822D01*
X133637892Y-81336741D01*
X133514386Y-81213235D01*
X130088630Y-84638990D01*
X129552423Y-84102783D01*
X129429999Y-84133772D01*
X129195188Y-84182698D01*
X128953186Y-84212834D01*
X128706658Y-84224123D01*
X128458268Y-84216507D01*
X128210682Y-84189927D01*
X128057065Y-84163566D01*
X127807984Y-84103921D01*
X127567390Y-84024948D01*
X127335645Y-83926864D01*
X127113103Y-83809885D01*
X126900126Y-83674230D01*
X126697072Y-83520113D01*
X126504301Y-83347750D01*
X126322170Y-83157360D01*
X126250521Y-83073978D01*
X126101212Y-82878395D01*
X125968864Y-82671120D01*
X125853830Y-82453589D01*
X125756464Y-82227236D01*
X125677121Y-81993493D01*
X125616154Y-81753795D01*
X125573916Y-81509576D01*
X125550762Y-81262270D01*
X125547046Y-81013309D01*
X125552666Y-80926216D01*
X122709853Y-78083402D01*
X121885746Y-78907509D01*
X121639365Y-78656235D01*
X121572208Y-78587670D01*
X121518258Y-78532286D01*
X121475861Y-78488189D01*
X121443365Y-78453485D01*
X121419116Y-78426282D01*
X121401462Y-78404685D01*
X121388748Y-78386802D01*
X121379324Y-78370740D01*
X121371533Y-78354604D01*
X121367060Y-78344340D01*
X121339706Y-78259052D01*
X121332856Y-78178939D01*
X121346531Y-78103851D01*
X121380749Y-78033633D01*
X121412126Y-77992664D01*
X121473945Y-77934745D01*
X121540002Y-77895646D01*
X121608504Y-77875984D01*
X121677661Y-77876376D01*
X121719482Y-77886755D01*
X121751178Y-77896875D01*
X121773685Y-77902561D01*
X121780996Y-77902901D01*
X121781586Y-77891236D01*
X121779055Y-77865430D01*
X121776127Y-77845039D01*
X121773966Y-77800600D01*
X121778797Y-77753641D01*
X121782197Y-77738855D01*
X121792585Y-77708547D01*
X121807100Y-77682730D01*
X121830085Y-77654935D01*
X121857119Y-77627297D01*
X121910270Y-77581769D01*
X121961258Y-77554002D01*
X122014979Y-77541804D01*
X122049761Y-77541015D01*
X122081809Y-77543500D01*
X122111884Y-77549348D01*
X122141888Y-77559942D01*
X122173724Y-77576668D01*
X122209290Y-77600908D01*
X122250491Y-77634047D01*
X122284266Y-77664138D01*
X121973305Y-77353176D01*
X121962684Y-77356355D01*
X121933752Y-77364071D01*
X121888738Y-77375753D01*
X121829869Y-77390830D01*
X121759377Y-77408733D01*
X121679489Y-77428892D01*
X121592435Y-77450735D01*
X121571068Y-77456079D01*
X121171992Y-77555821D01*
X120853933Y-77873863D01*
X120674328Y-77694258D01*
X120829608Y-77538971D01*
X120951212Y-77417361D01*
X118685783Y-75151931D01*
X118636349Y-75193146D01*
X118567280Y-75237438D01*
X118489443Y-75264202D01*
X118406211Y-75273251D01*
X118320951Y-75264400D01*
X118237031Y-75237462D01*
X118197019Y-75217376D01*
X118115872Y-75163041D01*
X118038951Y-75096171D01*
X117971716Y-75022131D01*
X117919632Y-74946286D01*
X117917978Y-74943358D01*
X117907323Y-74920198D01*
X117691920Y-74704795D01*
X117683552Y-74699163D01*
X117663645Y-74680893D01*
X117635134Y-74652796D01*
X117600950Y-74617685D01*
X117599091Y-74615740D01*
X117510249Y-74522696D01*
X117567607Y-74404008D01*
X117624965Y-74285320D01*
X117307969Y-73976173D01*
X117190732Y-74034800D01*
X117073495Y-74093425D01*
X116980574Y-74000505D01*
X116945677Y-73964761D01*
X116917670Y-73934441D01*
X116899228Y-73912567D01*
X116893027Y-73902154D01*
X116893169Y-73901873D01*
X116903547Y-73896558D01*
X116931476Y-73883274D01*
X116975236Y-73862814D01*
X117033112Y-73835972D01*
X117103383Y-73803541D01*
X117184332Y-73766313D01*
X117274241Y-73725083D01*
X117371393Y-73680643D01*
X117456186Y-73641941D01*
X118013687Y-73387718D01*
X118203293Y-73576843D01*
X118190104Y-73604813D01*
X118183366Y-73619525D01*
X118168782Y-73651677D01*
X118147188Y-73699411D01*
X118119426Y-73760865D01*
X118086336Y-73834180D01*
X118048755Y-73917495D01*
X118007527Y-74008949D01*
X117963488Y-74106683D01*
X117936412Y-74166795D01*
X117891483Y-74266470D01*
X117849142Y-74360237D01*
X117810187Y-74446341D01*
X117775417Y-74523028D01*
X117745626Y-74588541D01*
X117721615Y-74641128D01*
X117704180Y-74679031D01*
X117694118Y-74700498D01*
X117691920Y-74704795D01*
X117907323Y-74920198D01*
X117877319Y-74854985D01*
X117856993Y-74770930D01*
X117856863Y-74690127D01*
X117875421Y-74615135D01*
X117912724Y-74541200D01*
X117963468Y-74480584D01*
X118025098Y-74435263D01*
X118095055Y-74407212D01*
X118155875Y-74398513D01*
X118199508Y-74399018D01*
X118241187Y-74404456D01*
X118284442Y-74416122D01*
X118332809Y-74435310D01*
X118389821Y-74463315D01*
X118459012Y-74501433D01*
X118497730Y-74523784D01*
X118573491Y-74567151D01*
X118633968Y-74599670D01*
X118681477Y-74622263D01*
X118718330Y-74635846D01*
X118746841Y-74641339D01*
X118769323Y-74639661D01*
X118780146Y-74635929D01*
X118815689Y-74609457D01*
X118837248Y-74571094D01*
X118844119Y-74525433D01*
X118835597Y-74477065D01*
X118811546Y-74431351D01*
X118760873Y-74374884D01*
X118706140Y-74335540D01*
X118649631Y-74314072D01*
X118593628Y-74311233D01*
X118540412Y-74327778D01*
X118525084Y-74336797D01*
X118496026Y-74356008D01*
X118405200Y-74269416D01*
X118314373Y-74182824D01*
X118360420Y-74145393D01*
X118429984Y-74101512D01*
X118505336Y-74077573D01*
X118585229Y-74073553D01*
X118668418Y-74089431D01*
X118753661Y-74125181D01*
X118801099Y-74153395D01*
X118886880Y-74219195D01*
X118957339Y-74292797D01*
X119011464Y-74372170D01*
X119048244Y-74455288D01*
X119066667Y-74540124D01*
X119065719Y-74624650D01*
X119057482Y-74666866D01*
X119034048Y-74722260D01*
X118995272Y-74777079D01*
X118946344Y-74825591D01*
X118892452Y-74862068D01*
X118872333Y-74871350D01*
X118825655Y-74885815D01*
X118777980Y-74891290D01*
X118726765Y-74887101D01*
X118669459Y-74872578D01*
X118603517Y-74847048D01*
X118526388Y-74809842D01*
X118435529Y-74760286D01*
X118422275Y-74752730D01*
X118346444Y-74710679D01*
X118285370Y-74680382D01*
X118236585Y-74661284D01*
X118197623Y-74652833D01*
X118166020Y-74654475D01*
X118139308Y-74665657D01*
X118116659Y-74684168D01*
X118087324Y-74726580D01*
X118078005Y-74774387D01*
X118088518Y-74826661D01*
X118118679Y-74882479D01*
X118167525Y-74940128D01*
X118228273Y-74991806D01*
X118289025Y-75025510D01*
X118347953Y-75040769D01*
X118403235Y-75037115D01*
X118453040Y-75014078D01*
X118453639Y-75013652D01*
X118478388Y-74996546D01*
X118496842Y-74984795D01*
X118498835Y-74983692D01*
X118509498Y-74985587D01*
X118529053Y-74999318D01*
X118559219Y-75026279D01*
X118598448Y-75064597D01*
X118685783Y-75151931D01*
X120951212Y-77417361D01*
X120984887Y-77383684D01*
X121077774Y-77012590D01*
X121099548Y-76925551D01*
X121120033Y-76843581D01*
X121138576Y-76769300D01*
X121154523Y-76705326D01*
X121167221Y-76654280D01*
X121176018Y-76618781D01*
X121180066Y-76602259D01*
X121189472Y-76563022D01*
X121392191Y-76765741D01*
X121330276Y-77006910D01*
X121312560Y-77075961D01*
X121296475Y-77138733D01*
X121282814Y-77192130D01*
X121272367Y-77233054D01*
X121265929Y-77258408D01*
X121264328Y-77264821D01*
X121270182Y-77268611D01*
X121291464Y-77267287D01*
X121329215Y-77260648D01*
X121384474Y-77248488D01*
X121458283Y-77230610D01*
X121518064Y-77215475D01*
X121775835Y-77149384D01*
X121876150Y-77249700D01*
X121912718Y-77286711D01*
X121942840Y-77318046D01*
X121963862Y-77340881D01*
X121973136Y-77352393D01*
X121973305Y-77353176D01*
X122284266Y-77664138D01*
X122299229Y-77677468D01*
X122357404Y-77732555D01*
X122426919Y-77800692D01*
X122481973Y-77855523D01*
X122709853Y-78083402D01*
X125552666Y-80926216D01*
X125563122Y-80764130D01*
X125599344Y-80516164D01*
X125608145Y-80471204D01*
X125620243Y-80412907D01*
X125632279Y-80356869D01*
X125642963Y-80308975D01*
X125651008Y-80275108D01*
X125651876Y-80271720D01*
X125666222Y-80216582D01*
X115368493Y-69918853D01*
X117078724Y-68208622D01*
X117268894Y-68018468D01*
X117444682Y-67842729D01*
X117606662Y-67680842D01*
X117755404Y-67532242D01*
X117891481Y-67396366D01*
X118015466Y-67272647D01*
X118127929Y-67160523D01*
X118229444Y-67059427D01*
X118320582Y-66968797D01*
X118401916Y-66888066D01*
X118474017Y-66816671D01*
X118537457Y-66754048D01*
X118592810Y-66699632D01*
X118640647Y-66652859D01*
X118681539Y-66613162D01*
X118716059Y-66579979D01*
X118744780Y-66552745D01*
X118768273Y-66530895D01*
X118787109Y-66513866D01*
X118801862Y-66501092D01*
X118813105Y-66492008D01*
X118821407Y-66486051D01*
X118827342Y-66482656D01*
X118828401Y-66482191D01*
X118894112Y-66466257D01*
X118961954Y-66470013D01*
X118995052Y-66479384D01*
X118997722Y-66480539D01*
X119001040Y-66482397D01*
X119005283Y-66485236D01*
X119010733Y-66489335D01*
X119017668Y-66494972D01*
X119026366Y-66502424D01*
X119037106Y-66511970D01*
X119050170Y-66523889D01*
X119065834Y-66538457D01*
X119084381Y-66555955D01*
X119106086Y-66576659D01*
X119131232Y-66600847D01*
X119160095Y-66628798D01*
X119192956Y-66660790D01*
X119230094Y-66697101D01*
X119271788Y-66738009D01*
X119318318Y-66783794D01*
X119369962Y-66834731D01*
X119427000Y-66891101D01*
X119489710Y-66953180D01*
X119558373Y-67021246D01*
X119633267Y-67095580D01*
X119714672Y-67176458D01*
X119802867Y-67264157D01*
X119898131Y-67358958D01*
X120000743Y-67461137D01*
X120110982Y-67570973D01*
X120229129Y-67688744D01*
X120355461Y-67814728D01*
X120490259Y-67949203D01*
X120633801Y-68092448D01*
X120786366Y-68244741D01*
X120948235Y-68406359D01*
X121119685Y-68577581D01*
X121300996Y-68758685D01*
X121492449Y-68949950D01*
X121694320Y-69151652D01*
X121906891Y-69364071D01*
X122130439Y-69587485D01*
X122365246Y-69822171D01*
X122611589Y-70068409D01*
X122869748Y-70326475D01*
X123140001Y-70596648D01*
X123422630Y-70879207D01*
X123717911Y-71174429D01*
X124026125Y-71482592D01*
X124347551Y-71803976D01*
X124682468Y-72138858D01*
X125031156Y-72487514D01*
X125393893Y-72850226D01*
X125770959Y-73227270D01*
X126162632Y-73618924D01*
X126276615Y-73732901D01*
X133514385Y-80970343D01*
X133533435Y-81031065D01*
X133543838Y-81074394D01*
X133543452Y-81111949D01*
X133533434Y-81152512D01*
X133514386Y-81213235D01*
X133637892Y-81336741D01*
X133673249Y-81301328D01*
X133699441Y-81227971D01*
X133721223Y-81139640D01*
X133722284Y-81052842D01*
X133702622Y-80964796D01*
X133699441Y-80955607D01*
X133673248Y-80882249D01*
X119125233Y-66334234D01*
X119051876Y-66308042D01*
X119051876Y-66308042D01*
G37*
X119051876Y-66308042D02*
X118963546Y-66286259D01*
X118876748Y-66285200D01*
X118788702Y-66304862D01*
X118779513Y-66308042D01*
X118706155Y-66334234D01*
X116219662Y-68816816D01*
X115967539Y-69068576D01*
X115730197Y-69305647D01*
X115507408Y-69528260D01*
X115298940Y-69736645D01*
X115104562Y-69931036D01*
X114924043Y-70111664D01*
X114757155Y-70278760D01*
X114603665Y-70432557D01*
X114463343Y-70573284D01*
X114335960Y-70701177D01*
X114221284Y-70816463D01*
X114119085Y-70919376D01*
X114029132Y-71010148D01*
X113951195Y-71089008D01*
X113885043Y-71156192D01*
X113830445Y-71211928D01*
X113787173Y-71256450D01*
X113754994Y-71289988D01*
X113733677Y-71312774D01*
X113722993Y-71325040D01*
X113721634Y-71327081D01*
X113716422Y-71357680D01*
X113720200Y-71381774D01*
X113728165Y-71390632D01*
X113750719Y-71414053D01*
X113787475Y-71451654D01*
X113838044Y-71503043D01*
X113902039Y-71567832D01*
X113979069Y-71645635D01*
X114068749Y-71736061D01*
X114170690Y-71838725D01*
X114284503Y-71953236D01*
X114409800Y-72079208D01*
X114546193Y-72216252D01*
X114693294Y-72363979D01*
X114850715Y-72522003D01*
X115018068Y-72689933D01*
X115194964Y-72867383D01*
X115381015Y-73053964D01*
X115575833Y-73249289D01*
X115779030Y-73452968D01*
X115990218Y-73664614D01*
X116209008Y-73883839D01*
X116435013Y-74110254D01*
X116667844Y-74343471D01*
X116907113Y-74583103D01*
X117152432Y-74828760D01*
X117403413Y-75080056D01*
X117659668Y-75336602D01*
X117920807Y-75598009D01*
X118186444Y-75863890D01*
X118456190Y-76133855D01*
X118729657Y-76407519D01*
X119006456Y-76684491D01*
X119286200Y-76964383D01*
X119568500Y-77246810D01*
X119852969Y-77531380D01*
X120139217Y-77817707D01*
X120426858Y-78105402D01*
X120715502Y-78394077D01*
X121004761Y-78683344D01*
X121294248Y-78972815D01*
X121583574Y-79262102D01*
X121872351Y-79550816D01*
X122160192Y-79838570D01*
X122446706Y-80124975D01*
X122731506Y-80409643D01*
X123014205Y-80692187D01*
X123294415Y-80972216D01*
X123571747Y-81249345D01*
X123845813Y-81523184D01*
X124116223Y-81793346D01*
X124382591Y-82059441D01*
X124644529Y-82321083D01*
X124901647Y-82577883D01*
X125153559Y-82829453D01*
X125399876Y-83075404D01*
X125640209Y-83315349D01*
X125874171Y-83548899D01*
X126101373Y-83775667D01*
X126321427Y-83995263D01*
X126533945Y-84207301D01*
X126738539Y-84411391D01*
X126934820Y-84607146D01*
X127122401Y-84794177D01*
X127300893Y-84972096D01*
X127469909Y-85140516D01*
X127629059Y-85299048D01*
X127777955Y-85447304D01*
X127916211Y-85584895D01*
X128043436Y-85711434D01*
X128159245Y-85826533D01*
X128263247Y-85929803D01*
X128355055Y-86020856D01*
X128434281Y-86099304D01*
X128500536Y-86164758D01*
X128553433Y-86216832D01*
X128592583Y-86255136D01*
X128617598Y-86279283D01*
X128628090Y-86288884D01*
X128628347Y-86289038D01*
X128656295Y-86291386D01*
X128680310Y-86285888D01*
X128688254Y-86279575D01*
X128706457Y-86262890D01*
X128735159Y-86235596D01*
X128774597Y-86197453D01*
X128825012Y-86148224D01*
X128886642Y-86087672D01*
X128959727Y-86015559D01*
X129044504Y-85931646D01*
X129141214Y-85835696D01*
X129250094Y-85727471D01*
X129371385Y-85606734D01*
X129505326Y-85473246D01*
X129652154Y-85326770D01*
X129812110Y-85167067D01*
X129985432Y-84993901D01*
X130172360Y-84807033D01*
X130373131Y-84606225D01*
X130587985Y-84391239D01*
X130817163Y-84161838D01*
X131060901Y-83917784D01*
X131190667Y-83787822D01*
X133637892Y-81336741D01*
X133514386Y-81213235D01*
X130088630Y-84638990D01*
X129552423Y-84102783D01*
X129429999Y-84133772D01*
X129195188Y-84182698D01*
X128953186Y-84212834D01*
X128706658Y-84224123D01*
X128458268Y-84216507D01*
X128210682Y-84189927D01*
X128057065Y-84163566D01*
X127807984Y-84103921D01*
X127567390Y-84024948D01*
X127335645Y-83926864D01*
X127113103Y-83809885D01*
X126900126Y-83674230D01*
X126697072Y-83520113D01*
X126504301Y-83347750D01*
X126322170Y-83157360D01*
X126250521Y-83073978D01*
X126101212Y-82878395D01*
X125968864Y-82671120D01*
X125853830Y-82453589D01*
X125756464Y-82227236D01*
X125677121Y-81993493D01*
X125616154Y-81753795D01*
X125573916Y-81509576D01*
X125550762Y-81262270D01*
X125547046Y-81013309D01*
X125552666Y-80926216D01*
X122709853Y-78083402D01*
X121885746Y-78907509D01*
X121639365Y-78656235D01*
X121572208Y-78587670D01*
X121518258Y-78532286D01*
X121475861Y-78488189D01*
X121443365Y-78453485D01*
X121419116Y-78426282D01*
X121401462Y-78404685D01*
X121388748Y-78386802D01*
X121379324Y-78370740D01*
X121371533Y-78354604D01*
X121367060Y-78344340D01*
X121339706Y-78259052D01*
X121332856Y-78178939D01*
X121346531Y-78103851D01*
X121380749Y-78033633D01*
X121412126Y-77992664D01*
X121473945Y-77934745D01*
X121540002Y-77895646D01*
X121608504Y-77875984D01*
X121677661Y-77876376D01*
X121719482Y-77886755D01*
X121751178Y-77896875D01*
X121773685Y-77902561D01*
X121780996Y-77902901D01*
X121781586Y-77891236D01*
X121779055Y-77865430D01*
X121776127Y-77845039D01*
X121773966Y-77800600D01*
X121778797Y-77753641D01*
X121782197Y-77738855D01*
X121792585Y-77708547D01*
X121807100Y-77682730D01*
X121830085Y-77654935D01*
X121857119Y-77627297D01*
X121910270Y-77581769D01*
X121961258Y-77554002D01*
X122014979Y-77541804D01*
X122049761Y-77541015D01*
X122081809Y-77543500D01*
X122111884Y-77549348D01*
X122141888Y-77559942D01*
X122173724Y-77576668D01*
X122209290Y-77600908D01*
X122250491Y-77634047D01*
X122284266Y-77664138D01*
X121973305Y-77353176D01*
X121962684Y-77356355D01*
X121933752Y-77364071D01*
X121888738Y-77375753D01*
X121829869Y-77390830D01*
X121759377Y-77408733D01*
X121679489Y-77428892D01*
X121592435Y-77450735D01*
X121571068Y-77456079D01*
X121171992Y-77555821D01*
X120853933Y-77873863D01*
X120674328Y-77694258D01*
X120829608Y-77538971D01*
X120951212Y-77417361D01*
X118685783Y-75151931D01*
X118636349Y-75193146D01*
X118567280Y-75237438D01*
X118489443Y-75264202D01*
X118406211Y-75273251D01*
X118320951Y-75264400D01*
X118237031Y-75237462D01*
X118197019Y-75217376D01*
X118115872Y-75163041D01*
X118038951Y-75096171D01*
X117971716Y-75022131D01*
X117919632Y-74946286D01*
X117917978Y-74943358D01*
X117907323Y-74920198D01*
X117691920Y-74704795D01*
X117683552Y-74699163D01*
X117663645Y-74680893D01*
X117635134Y-74652796D01*
X117600950Y-74617685D01*
X117599091Y-74615740D01*
X117510249Y-74522696D01*
X117567607Y-74404008D01*
X117624965Y-74285320D01*
X117307969Y-73976173D01*
X117190732Y-74034800D01*
X117073495Y-74093425D01*
X116980574Y-74000505D01*
X116945677Y-73964761D01*
X116917670Y-73934441D01*
X116899228Y-73912567D01*
X116893027Y-73902154D01*
X116893169Y-73901873D01*
X116903547Y-73896558D01*
X116931476Y-73883274D01*
X116975236Y-73862814D01*
X117033112Y-73835972D01*
X117103383Y-73803541D01*
X117184332Y-73766313D01*
X117274241Y-73725083D01*
X117371393Y-73680643D01*
X117456186Y-73641941D01*
X118013687Y-73387718D01*
X118203293Y-73576843D01*
X118190104Y-73604813D01*
X118183366Y-73619525D01*
X118168782Y-73651677D01*
X118147188Y-73699411D01*
X118119426Y-73760865D01*
X118086336Y-73834180D01*
X118048755Y-73917495D01*
X118007527Y-74008949D01*
X117963488Y-74106683D01*
X117936412Y-74166795D01*
X117891483Y-74266470D01*
X117849142Y-74360237D01*
X117810187Y-74446341D01*
X117775417Y-74523028D01*
X117745626Y-74588541D01*
X117721615Y-74641128D01*
X117704180Y-74679031D01*
X117694118Y-74700498D01*
X117691920Y-74704795D01*
X117907323Y-74920198D01*
X117877319Y-74854985D01*
X117856993Y-74770930D01*
X117856863Y-74690127D01*
X117875421Y-74615135D01*
X117912724Y-74541200D01*
X117963468Y-74480584D01*
X118025098Y-74435263D01*
X118095055Y-74407212D01*
X118155875Y-74398513D01*
X118199508Y-74399018D01*
X118241187Y-74404456D01*
X118284442Y-74416122D01*
X118332809Y-74435310D01*
X118389821Y-74463315D01*
X118459012Y-74501433D01*
X118497730Y-74523784D01*
X118573491Y-74567151D01*
X118633968Y-74599670D01*
X118681477Y-74622263D01*
X118718330Y-74635846D01*
X118746841Y-74641339D01*
X118769323Y-74639661D01*
X118780146Y-74635929D01*
X118815689Y-74609457D01*
X118837248Y-74571094D01*
X118844119Y-74525433D01*
X118835597Y-74477065D01*
X118811546Y-74431351D01*
X118760873Y-74374884D01*
X118706140Y-74335540D01*
X118649631Y-74314072D01*
X118593628Y-74311233D01*
X118540412Y-74327778D01*
X118525084Y-74336797D01*
X118496026Y-74356008D01*
X118405200Y-74269416D01*
X118314373Y-74182824D01*
X118360420Y-74145393D01*
X118429984Y-74101512D01*
X118505336Y-74077573D01*
X118585229Y-74073553D01*
X118668418Y-74089431D01*
X118753661Y-74125181D01*
X118801099Y-74153395D01*
X118886880Y-74219195D01*
X118957339Y-74292797D01*
X119011464Y-74372170D01*
X119048244Y-74455288D01*
X119066667Y-74540124D01*
X119065719Y-74624650D01*
X119057482Y-74666866D01*
X119034048Y-74722260D01*
X118995272Y-74777079D01*
X118946344Y-74825591D01*
X118892452Y-74862068D01*
X118872333Y-74871350D01*
X118825655Y-74885815D01*
X118777980Y-74891290D01*
X118726765Y-74887101D01*
X118669459Y-74872578D01*
X118603517Y-74847048D01*
X118526388Y-74809842D01*
X118435529Y-74760286D01*
X118422275Y-74752730D01*
X118346444Y-74710679D01*
X118285370Y-74680382D01*
X118236585Y-74661284D01*
X118197623Y-74652833D01*
X118166020Y-74654475D01*
X118139308Y-74665657D01*
X118116659Y-74684168D01*
X118087324Y-74726580D01*
X118078005Y-74774387D01*
X118088518Y-74826661D01*
X118118679Y-74882479D01*
X118167525Y-74940128D01*
X118228273Y-74991806D01*
X118289025Y-75025510D01*
X118347953Y-75040769D01*
X118403235Y-75037115D01*
X118453040Y-75014078D01*
X118453639Y-75013652D01*
X118478388Y-74996546D01*
X118496842Y-74984795D01*
X118498835Y-74983692D01*
X118509498Y-74985587D01*
X118529053Y-74999318D01*
X118559219Y-75026279D01*
X118598448Y-75064597D01*
X118685783Y-75151931D01*
X120951212Y-77417361D01*
X120984887Y-77383684D01*
X121077774Y-77012590D01*
X121099548Y-76925551D01*
X121120033Y-76843581D01*
X121138576Y-76769300D01*
X121154523Y-76705326D01*
X121167221Y-76654280D01*
X121176018Y-76618781D01*
X121180066Y-76602259D01*
X121189472Y-76563022D01*
X121392191Y-76765741D01*
X121330276Y-77006910D01*
X121312560Y-77075961D01*
X121296475Y-77138733D01*
X121282814Y-77192130D01*
X121272367Y-77233054D01*
X121265929Y-77258408D01*
X121264328Y-77264821D01*
X121270182Y-77268611D01*
X121291464Y-77267287D01*
X121329215Y-77260648D01*
X121384474Y-77248488D01*
X121458283Y-77230610D01*
X121518064Y-77215475D01*
X121775835Y-77149384D01*
X121876150Y-77249700D01*
X121912718Y-77286711D01*
X121942840Y-77318046D01*
X121963862Y-77340881D01*
X121973136Y-77352393D01*
X121973305Y-77353176D01*
X122284266Y-77664138D01*
X122299229Y-77677468D01*
X122357404Y-77732555D01*
X122426919Y-77800692D01*
X122481973Y-77855523D01*
X122709853Y-78083402D01*
X125552666Y-80926216D01*
X125563122Y-80764130D01*
X125599344Y-80516164D01*
X125608145Y-80471204D01*
X125620243Y-80412907D01*
X125632279Y-80356869D01*
X125642963Y-80308975D01*
X125651008Y-80275108D01*
X125651876Y-80271720D01*
X125666222Y-80216582D01*
X115368493Y-69918853D01*
X117078724Y-68208622D01*
X117268894Y-68018468D01*
X117444682Y-67842729D01*
X117606662Y-67680842D01*
X117755404Y-67532242D01*
X117891481Y-67396366D01*
X118015466Y-67272647D01*
X118127929Y-67160523D01*
X118229444Y-67059427D01*
X118320582Y-66968797D01*
X118401916Y-66888066D01*
X118474017Y-66816671D01*
X118537457Y-66754048D01*
X118592810Y-66699632D01*
X118640647Y-66652859D01*
X118681539Y-66613162D01*
X118716059Y-66579979D01*
X118744780Y-66552745D01*
X118768273Y-66530895D01*
X118787109Y-66513866D01*
X118801862Y-66501092D01*
X118813105Y-66492008D01*
X118821407Y-66486051D01*
X118827342Y-66482656D01*
X118828401Y-66482191D01*
X118894112Y-66466257D01*
X118961954Y-66470013D01*
X118995052Y-66479384D01*
X118997722Y-66480539D01*
X119001040Y-66482397D01*
X119005283Y-66485236D01*
X119010733Y-66489335D01*
X119017668Y-66494972D01*
X119026366Y-66502424D01*
X119037106Y-66511970D01*
X119050170Y-66523889D01*
X119065834Y-66538457D01*
X119084381Y-66555955D01*
X119106086Y-66576659D01*
X119131232Y-66600847D01*
X119160095Y-66628798D01*
X119192956Y-66660790D01*
X119230094Y-66697101D01*
X119271788Y-66738009D01*
X119318318Y-66783794D01*
X119369962Y-66834731D01*
X119427000Y-66891101D01*
X119489710Y-66953180D01*
X119558373Y-67021246D01*
X119633267Y-67095580D01*
X119714672Y-67176458D01*
X119802867Y-67264157D01*
X119898131Y-67358958D01*
X120000743Y-67461137D01*
X120110982Y-67570973D01*
X120229129Y-67688744D01*
X120355461Y-67814728D01*
X120490259Y-67949203D01*
X120633801Y-68092448D01*
X120786366Y-68244741D01*
X120948235Y-68406359D01*
X121119685Y-68577581D01*
X121300996Y-68758685D01*
X121492449Y-68949950D01*
X121694320Y-69151652D01*
X121906891Y-69364071D01*
X122130439Y-69587485D01*
X122365246Y-69822171D01*
X122611589Y-70068409D01*
X122869748Y-70326475D01*
X123140001Y-70596648D01*
X123422630Y-70879207D01*
X123717911Y-71174429D01*
X124026125Y-71482592D01*
X124347551Y-71803976D01*
X124682468Y-72138858D01*
X125031156Y-72487514D01*
X125393893Y-72850226D01*
X125770959Y-73227270D01*
X126162632Y-73618924D01*
X126276615Y-73732901D01*
X133514385Y-80970343D01*
X133533435Y-81031065D01*
X133543838Y-81074394D01*
X133543452Y-81111949D01*
X133533434Y-81152512D01*
X133514386Y-81213235D01*
X133637892Y-81336741D01*
X133673249Y-81301328D01*
X133699441Y-81227971D01*
X133721223Y-81139640D01*
X133722284Y-81052842D01*
X133702622Y-80964796D01*
X133699441Y-80955607D01*
X133673248Y-80882249D01*
X119125233Y-66334234D01*
X119051876Y-66308042D01*
D13*
X147698453Y-91701309D02*
X146991347Y-90994202D01*
X146822988Y-91162561D01*
X146755644Y-91297248D01*
X146755644Y-91431935D01*
X146789316Y-91532950D01*
X146890331Y-91701309D01*
X146991347Y-91802324D01*
X147159705Y-91903339D01*
X147260721Y-91937011D01*
X147395408Y-91937011D01*
X147530095Y-91869668D01*
X147698453Y-91701309D01*
X146620957Y-92038026D02*
X146385255Y-92273729D01*
X146654629Y-92745133D02*
X146991347Y-92408416D01*
X146284240Y-91701309D01*
X145947522Y-92038026D01*
X145745492Y-92913492D02*
X145678148Y-93048179D01*
X145678148Y-93115522D01*
X145711820Y-93216538D01*
X145812835Y-93317553D01*
X145913851Y-93351225D01*
X145981194Y-93351225D01*
X146082209Y-93317553D01*
X146351583Y-93048179D01*
X145644477Y-92341072D01*
X145408774Y-92576774D01*
X145375103Y-92677790D01*
X145375103Y-92745133D01*
X145408774Y-92846148D01*
X145476118Y-92913492D01*
X145577133Y-92947164D01*
X145644477Y-92947164D01*
X145745492Y-92913492D01*
X145981194Y-92677790D01*
X144937370Y-93048179D02*
X145509790Y-93620599D01*
X145543461Y-93721614D01*
X145543461Y-93788957D01*
X145509790Y-93889973D01*
X145375103Y-94024660D01*
X145274087Y-94058331D01*
X145206744Y-94058331D01*
X145105729Y-94024660D01*
X144533309Y-93452240D01*
X143859874Y-94193018D02*
X143893546Y-94092003D01*
X143994561Y-93990988D01*
X144129248Y-93923644D01*
X144263935Y-93923644D01*
X144364950Y-93957316D01*
X144533309Y-94058331D01*
X144634324Y-94159347D01*
X144735339Y-94327705D01*
X144769011Y-94428721D01*
X144769011Y-94563408D01*
X144701668Y-94698095D01*
X144634324Y-94765438D01*
X144499637Y-94832782D01*
X144432294Y-94832782D01*
X144196591Y-94597079D01*
X144331278Y-94462392D01*
D14*
X103906726Y-124212918D02*
X104512818Y-123606826D01*
X104209772Y-123909872D02*
X103149112Y-122849212D01*
X103401650Y-122899719D01*
X103603680Y-122899719D01*
X103755203Y-122849212D01*
X103351142Y-124566471D02*
X103351142Y-124667486D01*
X103452158Y-124667486D01*
X103452158Y-124566471D01*
X103351142Y-124566471D01*
X103452158Y-124667486D01*
X101381345Y-124616979D02*
X101886421Y-124111902D01*
X102442005Y-124566471D01*
X102340990Y-124566471D01*
X102189467Y-124616979D01*
X101936929Y-124869517D01*
X101886421Y-125021040D01*
X101886421Y-125122055D01*
X101936929Y-125273578D01*
X102189467Y-125526116D01*
X102340990Y-125576624D01*
X102442005Y-125576624D01*
X102593528Y-125526116D01*
X102846066Y-125273578D01*
X102896574Y-125122055D01*
X102896574Y-125021040D01*
X101027791Y-124970532D02*
X101734898Y-126384746D01*
X100320685Y-125677639D01*
X99967131Y-127546421D02*
X99462055Y-128051497D01*
X100371192Y-127748452D02*
X98956979Y-127041345D01*
X99664086Y-128455558D01*
X99057994Y-128455558D02*
X98552918Y-128960635D01*
X99462055Y-128657589D02*
X98047841Y-127950482D01*
X98754948Y-129364696D01*
X98148857Y-129364696D02*
X97643780Y-129869772D01*
X98552918Y-129566726D02*
X97138704Y-128859619D01*
X97845811Y-130273833D01*
D15*
X98219779Y-131773960D02*
X95526039Y-129080220D01*
X107200035Y-122793704D02*
X104506295Y-120099964D01*
X104506295Y-122793704D02*
X107200035Y-120099964D01*
D14*
X76386726Y-96652918D02*
X76992818Y-96046826D01*
X76689772Y-96349872D02*
X75629112Y-95289212D01*
X75881650Y-95339719D01*
X76083680Y-95339719D01*
X76235203Y-95289212D01*
X75831142Y-97006471D02*
X75831142Y-97107486D01*
X75932158Y-97107486D01*
X75932158Y-97006471D01*
X75831142Y-97006471D01*
X75932158Y-97107486D01*
X73861345Y-97056979D02*
X74366421Y-96551902D01*
X74922005Y-97006471D01*
X74820990Y-97006471D01*
X74669467Y-97056979D01*
X74416929Y-97309517D01*
X74366421Y-97461040D01*
X74366421Y-97562055D01*
X74416929Y-97713578D01*
X74669467Y-97966116D01*
X74820990Y-98016624D01*
X74922005Y-98016624D01*
X75073528Y-97966116D01*
X75326066Y-97713578D01*
X75376574Y-97562055D01*
X75376574Y-97461040D01*
X73507791Y-97410532D02*
X74214898Y-98824746D01*
X72800685Y-98117639D01*
X72447131Y-99986421D02*
X71942055Y-100491497D01*
X72851192Y-100188452D02*
X71436979Y-99481345D01*
X72144086Y-100895558D01*
X71537994Y-100895558D02*
X71032918Y-101400635D01*
X71942055Y-101097589D02*
X70527841Y-100390482D01*
X71234948Y-101804696D01*
X70628857Y-101804696D02*
X70123780Y-102309772D01*
X71032918Y-102006726D02*
X69618704Y-101299619D01*
X70325811Y-102713833D01*
D15*
X79752459Y-95153280D02*
X77058719Y-92459540D01*
X77058719Y-95153280D02*
X79752459Y-92459540D01*
X70772203Y-104133536D02*
X68078463Y-101439796D01*
M02*
