G04 #@! TF.GenerationSoftware,KiCad,Pcbnew,(2017-07-14 revision d3b382c)-master*
G04 #@! TF.CreationDate,2017-07-17T01:29:14+02:00*
G04 #@! TF.ProjectId,Bornhack Make Tradition Badge,426F726E6861636B204D616B65205472,rev?*
G04 #@! TF.SameCoordinates,Original
G04 #@! TF.FileFunction,Legend,Bot*
G04 #@! TF.FilePolarity,Positive*
%FSLAX46Y46*%
G04 Gerber Fmt 4.6, Leading zero omitted, Abs format (unit mm)*
G04 Created by KiCad (PCBNEW (2017-07-14 revision d3b382c)-master) date Monday, July 17, 2017 'AMt' 01:29:14 AM*
%MOMM*%
%LPD*%
G01*
G04 APERTURE LIST*
%ADD10C,0.400000*%
%ADD11C,1.000000*%
%ADD12C,2.000000*%
%ADD13C,0.300000*%
%ADD14C,0.150000*%
%ADD15C,0.550000*%
G04 APERTURE END LIST*
D10*
X144387684Y-64569001D02*
X144118310Y-64434314D01*
X143983623Y-64434314D01*
X143781592Y-64501658D01*
X143579562Y-64703688D01*
X143512218Y-64905719D01*
X143512218Y-65040406D01*
X143579562Y-65242436D01*
X144118310Y-65781184D01*
X145532523Y-64366971D01*
X145061119Y-63895566D01*
X144859088Y-63828223D01*
X144724401Y-63828223D01*
X144522371Y-63895566D01*
X144387684Y-64030253D01*
X144320340Y-64232284D01*
X144320340Y-64366971D01*
X144387684Y-64569001D01*
X144859088Y-65040406D01*
X142098005Y-63760879D02*
X142838783Y-63020101D01*
X143040814Y-62952757D01*
X143242844Y-63020101D01*
X143512218Y-63289475D01*
X143579562Y-63491505D01*
X142165348Y-63693536D02*
X142232692Y-63895566D01*
X142569409Y-64232284D01*
X142771440Y-64299627D01*
X142973470Y-64232284D01*
X143108157Y-64097597D01*
X143175501Y-63895566D01*
X143108157Y-63693536D01*
X142771440Y-63356818D01*
X142704096Y-63154788D01*
X140818478Y-62481353D02*
X142232692Y-61067139D01*
X140885822Y-62414009D02*
X140953165Y-62616040D01*
X141222539Y-62885414D01*
X141424570Y-62952757D01*
X141559257Y-62952757D01*
X141761287Y-62885414D01*
X142165348Y-62481353D01*
X142232692Y-62279322D01*
X142232692Y-62144635D01*
X142165348Y-61942605D01*
X141895974Y-61673231D01*
X141693944Y-61605887D01*
X140481761Y-60259017D02*
X139336921Y-61403857D01*
X139269577Y-61605887D01*
X139269577Y-61740574D01*
X139336921Y-61942605D01*
X139538951Y-62144635D01*
X139740982Y-62211979D01*
X139606295Y-61134483D02*
X139673638Y-61336513D01*
X139943013Y-61605887D01*
X140145043Y-61673231D01*
X140279730Y-61673231D01*
X140481761Y-61605887D01*
X140885822Y-61201826D01*
X140953165Y-60999796D01*
X140953165Y-60865109D01*
X140885822Y-60663078D01*
X140616448Y-60393704D01*
X140414417Y-60326361D01*
X138394112Y-59922299D02*
X138461455Y-60124330D01*
X138730829Y-60393704D01*
X138932860Y-60461048D01*
X139134890Y-60393704D01*
X139673638Y-59854956D01*
X139740982Y-59652925D01*
X139673638Y-59450895D01*
X139404264Y-59181521D01*
X139202234Y-59114177D01*
X139000203Y-59181521D01*
X138865516Y-59316208D01*
X139404264Y-60124330D01*
X136575837Y-58238712D02*
X137990051Y-56824498D01*
X137451303Y-57363246D02*
X137383959Y-57161216D01*
X137114585Y-56891842D01*
X136912555Y-56824498D01*
X136777868Y-56824498D01*
X136575837Y-56891842D01*
X136171776Y-57295903D01*
X136104433Y-57497933D01*
X136104433Y-57632620D01*
X136171776Y-57834651D01*
X136441150Y-58104025D01*
X136643181Y-58171368D01*
X136373807Y-56151063D02*
X135094280Y-56757155D01*
X135700372Y-55477628D02*
X135094280Y-56757155D01*
X134892250Y-57228559D01*
X134892250Y-57363246D01*
X134959593Y-57565277D01*
X134353502Y-55747002D02*
X134218815Y-55747002D01*
X134218815Y-55881689D01*
X134353502Y-55881689D01*
X134353502Y-55747002D01*
X134218815Y-55881689D01*
X135094280Y-55006224D02*
X134959593Y-55006224D01*
X134959593Y-55140911D01*
X135094280Y-55140911D01*
X135094280Y-55006224D01*
X134959593Y-55140911D01*
X144778276Y-71114790D02*
X144508902Y-70980103D01*
X144172185Y-70643385D01*
X144104841Y-70441355D01*
X144104841Y-70306668D01*
X144172185Y-70104637D01*
X144306872Y-69969950D01*
X144508902Y-69902607D01*
X144643589Y-69902607D01*
X144845620Y-69969950D01*
X145182337Y-70171981D01*
X145384368Y-70239324D01*
X145519055Y-70239324D01*
X145721085Y-70171981D01*
X145855772Y-70037294D01*
X145923116Y-69835263D01*
X145923116Y-69700576D01*
X145855772Y-69498546D01*
X145519055Y-69161828D01*
X145249681Y-69027141D01*
X143296719Y-69767920D02*
X144239528Y-68825111D01*
X144710933Y-68353706D02*
X144710933Y-68488393D01*
X144576246Y-68488393D01*
X144576246Y-68353706D01*
X144710933Y-68353706D01*
X144576246Y-68488393D01*
X143229376Y-67006836D02*
X143431406Y-67074179D01*
X143633437Y-67276210D01*
X143768124Y-67545584D01*
X143768124Y-67814958D01*
X143700780Y-68016988D01*
X143498750Y-68353706D01*
X143296719Y-68555737D01*
X142960001Y-68757767D01*
X142757971Y-68825111D01*
X142488597Y-68825111D01*
X142219223Y-68690424D01*
X142084536Y-68555737D01*
X141949849Y-68286363D01*
X141949849Y-68151675D01*
X142421253Y-67680271D01*
X142690627Y-67949645D01*
X141209070Y-67680271D02*
X142623284Y-66266057D01*
X140400948Y-66872149D01*
X141815162Y-65457935D01*
X140872353Y-64515126D02*
X140602979Y-64245752D01*
X140400948Y-64178409D01*
X140131574Y-64178409D01*
X139794857Y-64380439D01*
X139323452Y-64851844D01*
X139121422Y-65188561D01*
X139121422Y-65457935D01*
X139188765Y-65659966D01*
X139458139Y-65929340D01*
X139660170Y-65996683D01*
X139929544Y-65996683D01*
X140266261Y-65794653D01*
X140737666Y-65323248D01*
X140939696Y-64986531D01*
X140939696Y-64717157D01*
X140872353Y-64515126D01*
X139660170Y-63302943D02*
X138515330Y-64447783D01*
X138313300Y-64515126D01*
X138178613Y-64515126D01*
X137976582Y-64447783D01*
X137707208Y-64178409D01*
X137639865Y-63976378D01*
X137639865Y-63841691D01*
X137707208Y-63639661D01*
X138852048Y-62494821D01*
X138380643Y-62023417D02*
X137572521Y-61215295D01*
X136562369Y-63033569D02*
X137976582Y-61619356D01*
X135686903Y-62023417D02*
X135619560Y-62090760D01*
X135552216Y-62292791D01*
X135552216Y-62427478D01*
X134676751Y-59666394D02*
X134205346Y-59194990D01*
X133262537Y-59733738D02*
X133935972Y-60407173D01*
X135350186Y-58992959D01*
X134676751Y-58319524D01*
X132791133Y-59127646D02*
X132589102Y-59060303D01*
X132319728Y-58790929D01*
X132252385Y-58588898D01*
X132319728Y-58386868D01*
X132387072Y-58319524D01*
X132589102Y-58252181D01*
X132791133Y-58319524D01*
X132993163Y-58521555D01*
X133195194Y-58588898D01*
X133397224Y-58521555D01*
X133464568Y-58454211D01*
X133531911Y-58252181D01*
X133464568Y-58050150D01*
X133262537Y-57848120D01*
X133060507Y-57780776D01*
X131511606Y-57982807D02*
X132454415Y-57039998D01*
X132319728Y-57174685D02*
X132319728Y-57039998D01*
X132252385Y-56837967D01*
X132050354Y-56635936D01*
X131848324Y-56568593D01*
X131646293Y-56635936D01*
X130905514Y-57376715D01*
X131646293Y-56635936D02*
X131713636Y-56433906D01*
X131646293Y-56231875D01*
X131444262Y-56029845D01*
X131242232Y-55962501D01*
X131040201Y-56029845D01*
X130299423Y-56770623D01*
X129625988Y-56097188D02*
X130568797Y-55154379D01*
X131040201Y-54682975D02*
X131040201Y-54817662D01*
X130905514Y-54817662D01*
X130905514Y-54682975D01*
X131040201Y-54682975D01*
X130905514Y-54817662D01*
X128750522Y-55221723D02*
X128952553Y-55289066D01*
X129154583Y-55221723D01*
X130366766Y-54009540D01*
X140219121Y-71498648D02*
X140959900Y-70757869D01*
X141161930Y-70690526D01*
X141363961Y-70757869D01*
X141633335Y-71027243D01*
X141700678Y-71229274D01*
X140286464Y-71431304D02*
X140353808Y-71633335D01*
X140690526Y-71970052D01*
X140892556Y-72037396D01*
X141094587Y-71970052D01*
X141229274Y-71835365D01*
X141296617Y-71633335D01*
X141229274Y-71431304D01*
X140892556Y-71094587D01*
X140825213Y-70892556D01*
X140488495Y-69882403D02*
X139545686Y-70825213D01*
X140353808Y-70017090D02*
X140353808Y-69882403D01*
X140286464Y-69680373D01*
X140084434Y-69478342D01*
X139882403Y-69410999D01*
X139680373Y-69478342D01*
X138939594Y-70219121D01*
X137660068Y-68939594D02*
X139074281Y-67525381D01*
X137727411Y-68872251D02*
X137794755Y-69074281D01*
X138064129Y-69343655D01*
X138266159Y-69410999D01*
X138400846Y-69410999D01*
X138602877Y-69343655D01*
X139006938Y-68939594D01*
X139074281Y-68737564D01*
X139074281Y-68602877D01*
X139006938Y-68400846D01*
X138737564Y-68131472D01*
X138535533Y-68064129D01*
X137053976Y-66447885D02*
X136515228Y-65909137D01*
X135909137Y-67188663D02*
X137121320Y-65976480D01*
X137188663Y-65774450D01*
X137121320Y-65572419D01*
X136986633Y-65437732D01*
X134898984Y-66178511D02*
X135101015Y-66245854D01*
X135303045Y-66178511D01*
X136515228Y-64966328D01*
X134696954Y-64090862D02*
X133754145Y-65033671D01*
X135303045Y-64696954D02*
X134562267Y-65437732D01*
X134360236Y-65505076D01*
X134158206Y-65437732D01*
X133956175Y-65235702D01*
X133888832Y-65033671D01*
X133888832Y-64898984D01*
X133080710Y-64360236D02*
X134023519Y-63417427D01*
X133888832Y-63552114D02*
X133888832Y-63417427D01*
X133821488Y-63215397D01*
X133619458Y-63013366D01*
X133417427Y-62946023D01*
X133215397Y-63013366D01*
X132474618Y-63754145D01*
X133215397Y-63013366D02*
X133282740Y-62811336D01*
X133215397Y-62609305D01*
X133013366Y-62407275D01*
X132811336Y-62339931D01*
X132609305Y-62407275D01*
X131868527Y-63148053D01*
X131195092Y-62474618D02*
X132137901Y-61531809D01*
X132003214Y-61666496D02*
X132003214Y-61531809D01*
X131935870Y-61329779D01*
X131733840Y-61127748D01*
X131531809Y-61060405D01*
X131329779Y-61127748D01*
X130589000Y-61868527D01*
X131329779Y-61127748D02*
X131397122Y-60925718D01*
X131329779Y-60723687D01*
X131127748Y-60521657D01*
X130925718Y-60454313D01*
X130723687Y-60521657D01*
X129982909Y-61262435D01*
X128838069Y-59982909D02*
X128905412Y-60184939D01*
X129174786Y-60454313D01*
X129376817Y-60521657D01*
X129578848Y-60454313D01*
X130117596Y-59915565D01*
X130184939Y-59713535D01*
X130117596Y-59511504D01*
X129848222Y-59242130D01*
X129646191Y-59174786D01*
X129444161Y-59242130D01*
X129309473Y-59376817D01*
X129848222Y-60184939D01*
X128097290Y-59376817D02*
X129040099Y-58434008D01*
X128770725Y-58703382D02*
X128838069Y-58501351D01*
X128838069Y-58366664D01*
X128770725Y-58164634D01*
X128636038Y-58029947D01*
X138676955Y-79573133D02*
X140091168Y-78158920D01*
X138070863Y-78967042D02*
X138811642Y-78226263D01*
X139013672Y-78158920D01*
X139215703Y-78226263D01*
X139417733Y-78428294D01*
X139485077Y-78630324D01*
X139485077Y-78765011D01*
X138542268Y-77552828D02*
X138003520Y-77014080D01*
X138811642Y-76879393D02*
X137599459Y-78091576D01*
X137397428Y-78158920D01*
X137195398Y-78091576D01*
X137060711Y-77956889D01*
X137734146Y-76744706D02*
X137195398Y-76205958D01*
X138003520Y-76071271D02*
X136791337Y-77283454D01*
X136589306Y-77350798D01*
X136387276Y-77283454D01*
X136252589Y-77148767D01*
X136723993Y-75734554D02*
X135309780Y-77148767D01*
X136656650Y-75801897D02*
X136589306Y-75599867D01*
X136319932Y-75330493D01*
X136117902Y-75263149D01*
X135983215Y-75263149D01*
X135781184Y-75330493D01*
X135377123Y-75734554D01*
X135309780Y-75936584D01*
X135309780Y-76071271D01*
X135377123Y-76273302D01*
X135646497Y-76542676D01*
X135848528Y-76610019D01*
X134636345Y-75397836D02*
X134434314Y-75330493D01*
X134164940Y-75061119D01*
X134097597Y-74859088D01*
X134164940Y-74657058D01*
X134232284Y-74589714D01*
X134434314Y-74522371D01*
X134636345Y-74589714D01*
X134838375Y-74791745D01*
X135040406Y-74859088D01*
X135242436Y-74791745D01*
X135309780Y-74724401D01*
X135377123Y-74522371D01*
X135309780Y-74320340D01*
X135107749Y-74118310D01*
X134905719Y-74050966D01*
X133491505Y-74118310D02*
X133356818Y-74118310D01*
X133356818Y-74252997D01*
X133491505Y-74252997D01*
X133491505Y-74118310D01*
X133356818Y-74252997D01*
X134232284Y-73377531D02*
X134097597Y-73377531D01*
X134097597Y-73512218D01*
X134232284Y-73512218D01*
X134232284Y-73377531D01*
X134097597Y-73512218D01*
X133154788Y-71087852D02*
X132548696Y-74118310D01*
X131673231Y-69606295D02*
X131067139Y-72636753D01*
X129518238Y-70414417D02*
X129720269Y-70481761D01*
X129922299Y-70414417D01*
X131134483Y-69202234D01*
X128373399Y-69269577D02*
X129114177Y-68528799D01*
X129316208Y-68461455D01*
X129518238Y-68528799D01*
X129787612Y-68798173D01*
X129854956Y-69000203D01*
X128440742Y-69202234D02*
X128508086Y-69404264D01*
X128844803Y-69740982D01*
X129046834Y-69808325D01*
X129248864Y-69740982D01*
X129383551Y-69606295D01*
X129450895Y-69404264D01*
X129383551Y-69202234D01*
X129046834Y-68865516D01*
X128979490Y-68663486D01*
X127699964Y-68596142D02*
X129114177Y-67181929D01*
X128575429Y-67720677D02*
X128508086Y-67518646D01*
X128238712Y-67249272D01*
X128036681Y-67181929D01*
X127901994Y-67181929D01*
X127699964Y-67249272D01*
X127295903Y-67653333D01*
X127228559Y-67855364D01*
X127228559Y-67990051D01*
X127295903Y-68192081D01*
X127565277Y-68461455D01*
X127767307Y-68528799D01*
X126420437Y-67316616D02*
X127363246Y-66373807D01*
X127834651Y-65902402D02*
X127834651Y-66037089D01*
X127699964Y-66037089D01*
X127699964Y-65902402D01*
X127834651Y-65902402D01*
X127699964Y-66037089D01*
X126891842Y-65902402D02*
X126353094Y-65363654D01*
X127161216Y-65228967D02*
X125949033Y-66441150D01*
X125747002Y-66508494D01*
X125544972Y-66441150D01*
X125410285Y-66306463D01*
X124332789Y-65228967D02*
X125073567Y-64488189D01*
X125275598Y-64420845D01*
X125477628Y-64488189D01*
X125747002Y-64757563D01*
X125814346Y-64959593D01*
X124400132Y-65161624D02*
X124467476Y-65363654D01*
X124804193Y-65700372D01*
X125006224Y-65767715D01*
X125208254Y-65700372D01*
X125342941Y-65565685D01*
X125410285Y-65363654D01*
X125342941Y-65161624D01*
X125006224Y-64824906D01*
X124938880Y-64622876D01*
X124804193Y-63814754D02*
X124265445Y-63276006D01*
X125073567Y-63141319D02*
X123861384Y-64353502D01*
X123659354Y-64420845D01*
X123457323Y-64353502D01*
X123322636Y-64218815D01*
X122985919Y-63612723D02*
X122851232Y-63612723D01*
X122851232Y-63747410D01*
X122985919Y-63747410D01*
X122985919Y-63612723D01*
X122851232Y-63747410D01*
X121571705Y-62467884D02*
X122985919Y-61053670D01*
X121639049Y-62400540D02*
X121706392Y-62602571D01*
X121975766Y-62871945D01*
X122177797Y-62939288D01*
X122312484Y-62939288D01*
X122514514Y-62871945D01*
X122918575Y-62467884D01*
X122985919Y-62265853D01*
X122985919Y-62131166D01*
X122918575Y-61929136D01*
X122649201Y-61659762D01*
X122447171Y-61592418D01*
X120898270Y-61794449D02*
X122312484Y-60380235D01*
X121302331Y-61121014D02*
X120359522Y-61255701D01*
X121302331Y-60312892D02*
X121302331Y-61390388D01*
D11*
X103955754Y-104890184D02*
X103012945Y-105832993D01*
X104090441Y-107718611D02*
X105437311Y-106371741D01*
X102608884Y-103543314D01*
X101262014Y-104890184D01*
X102878258Y-108930794D02*
X100049831Y-106102367D01*
X99376396Y-106775802D01*
X99107022Y-107314550D01*
X99107022Y-107853298D01*
X99241709Y-108257359D01*
X99645770Y-108930794D01*
X100049831Y-109334855D01*
X100723266Y-109738916D01*
X101127327Y-109873603D01*
X101666075Y-109873603D01*
X102204823Y-109604229D01*
X102878258Y-108930794D01*
X100049831Y-111759221D02*
X97221404Y-108930794D01*
X96278595Y-109873603D02*
X94662351Y-111489847D01*
X98298900Y-113510152D02*
X95470473Y-110681725D01*
X96547969Y-115261083D02*
X93719542Y-112432656D01*
X91833924Y-114318274D02*
X91295176Y-114857022D01*
X91160489Y-115261083D01*
X91160489Y-115799831D01*
X91564550Y-116473266D01*
X92507359Y-117416075D01*
X93180794Y-117820136D01*
X93719542Y-117820136D01*
X94123603Y-117685449D01*
X94662351Y-117146701D01*
X94797038Y-116742640D01*
X94797038Y-116203892D01*
X94392977Y-115530457D01*
X93450168Y-114587648D01*
X92776733Y-114183587D01*
X92237985Y-114183587D01*
X91833924Y-114318274D01*
X92237985Y-119571067D02*
X89409558Y-116742640D01*
X90621741Y-121187311D01*
X87793314Y-118358884D01*
D12*
X124801783Y-77316323D02*
X119144928Y-71659468D01*
X117798058Y-73006338D01*
X117259310Y-74083834D01*
X117259310Y-75161331D01*
X117528684Y-75969453D01*
X118336806Y-77316323D01*
X119144928Y-78124445D01*
X120491798Y-78932567D01*
X121299920Y-79201941D01*
X122377416Y-79201941D01*
X123454913Y-78663193D01*
X124801783Y-77316323D01*
X116181814Y-80010063D02*
X114296196Y-81895681D01*
X116451188Y-85666917D02*
X119144928Y-82973177D01*
X113488074Y-77316323D01*
X110794334Y-80010063D01*
X109178090Y-81626307D02*
X112949326Y-89168779D01*
X105406854Y-85397543D01*
X106214976Y-89976901D02*
X104329358Y-91862519D01*
X106484350Y-95633755D02*
X109178090Y-92940015D01*
X103521236Y-87283161D01*
X100827496Y-89976901D01*
X101366244Y-100751862D02*
X104059984Y-98058122D01*
X98403129Y-92401267D01*
X92746275Y-98058122D02*
X91668779Y-99135618D01*
X91399405Y-99943740D01*
X91399405Y-101021236D01*
X92207527Y-102368106D01*
X94093145Y-104253724D01*
X95440015Y-105061846D01*
X96517511Y-105061846D01*
X97325633Y-104792472D01*
X98403129Y-103714976D01*
X98672503Y-102906854D01*
X98672503Y-101829358D01*
X97864381Y-100482488D01*
X95978763Y-98596870D01*
X94631893Y-97788748D01*
X93554397Y-97788748D01*
X92746275Y-98058122D01*
X93554397Y-108563708D02*
X87897543Y-102906854D01*
X85742551Y-105061846D01*
X85473177Y-105869968D01*
X85473177Y-106408716D01*
X85742551Y-107216838D01*
X86550673Y-108024960D01*
X87358795Y-108294334D01*
X87897543Y-108294334D01*
X88705665Y-108024960D01*
X90860657Y-105869968D01*
X84934429Y-111257448D02*
X83048811Y-113143066D01*
X85203803Y-116914302D02*
X87897543Y-114220562D01*
X82240689Y-108563708D01*
X79546949Y-111257448D01*
X79546949Y-122571157D02*
X78738827Y-117991798D01*
X82779437Y-119338668D02*
X77122583Y-113681814D01*
X74967590Y-115836806D01*
X74698216Y-116644928D01*
X74698216Y-117183676D01*
X74967590Y-117991798D01*
X75775712Y-118799920D01*
X76583834Y-119069294D01*
X77122583Y-119069294D01*
X77930705Y-118799920D01*
X80085697Y-116644928D01*
D13*
X141591936Y-94180261D02*
X140177723Y-94887367D01*
X140884829Y-93473154D01*
X138965540Y-93473154D02*
X138965540Y-93574169D01*
X139066555Y-93776200D01*
X139167570Y-93877215D01*
X139369601Y-93978230D01*
X139571631Y-93978230D01*
X139723154Y-93927723D01*
X139975692Y-93776200D01*
X140127215Y-93624677D01*
X140278738Y-93372139D01*
X140329245Y-93220616D01*
X140329245Y-93018585D01*
X140228230Y-92816555D01*
X140127215Y-92715540D01*
X139925184Y-92614524D01*
X139824169Y-92614524D01*
X137904879Y-92412494D02*
X137904879Y-92513509D01*
X138005895Y-92715540D01*
X138106910Y-92816555D01*
X138308940Y-92917570D01*
X138510971Y-92917570D01*
X138662494Y-92867062D01*
X138915032Y-92715540D01*
X139066555Y-92564017D01*
X139218078Y-92311479D01*
X139268585Y-92159956D01*
X139268585Y-91957925D01*
X139167570Y-91755895D01*
X139066555Y-91654879D01*
X138864524Y-91553864D01*
X138763509Y-91553864D01*
X135584322Y-99023662D02*
X135735845Y-99074169D01*
X135887367Y-99225692D01*
X135988383Y-99427723D01*
X135988383Y-99629753D01*
X135937875Y-99781276D01*
X135786352Y-100033814D01*
X135634829Y-100185337D01*
X135382291Y-100336860D01*
X135230768Y-100387367D01*
X135028738Y-100387367D01*
X134826707Y-100286352D01*
X134725692Y-100185337D01*
X134624677Y-99983306D01*
X134624677Y-99882291D01*
X134978230Y-99528738D01*
X135180261Y-99730768D01*
X134069093Y-99528738D02*
X135129753Y-98468078D01*
X133463001Y-98922646D01*
X134523662Y-97861986D01*
X132957925Y-98417570D02*
X134018585Y-97356910D01*
X133766047Y-97104372D01*
X133564017Y-97003356D01*
X133361986Y-97003356D01*
X133210463Y-97053864D01*
X132957925Y-97205387D01*
X132806402Y-97356910D01*
X132654879Y-97609448D01*
X132604372Y-97760971D01*
X132604372Y-97963001D01*
X132705387Y-98165032D01*
X132957925Y-98417570D01*
X136730768Y-98589398D02*
X136528738Y-98488383D01*
X136276200Y-98235845D01*
X136225692Y-98084322D01*
X136225692Y-97983306D01*
X136276200Y-97831784D01*
X136377215Y-97730768D01*
X136528738Y-97680261D01*
X136629753Y-97680261D01*
X136781276Y-97730768D01*
X137033814Y-97882291D01*
X137185337Y-97932799D01*
X137286352Y-97932799D01*
X137437875Y-97882291D01*
X137538890Y-97781276D01*
X137589398Y-97629753D01*
X137589398Y-97528738D01*
X137538890Y-97377215D01*
X137286352Y-97124677D01*
X137084322Y-97023662D01*
X136781276Y-96619601D02*
X135468078Y-97427723D01*
X136023662Y-96468078D01*
X135064017Y-97023662D01*
X135872139Y-95710463D01*
X133902341Y-95659956D02*
X133902341Y-95760971D01*
X134003356Y-95963001D01*
X134104372Y-96064017D01*
X134306402Y-96165032D01*
X134508433Y-96165032D01*
X134659956Y-96114524D01*
X134912494Y-95963001D01*
X135064017Y-95811479D01*
X135215540Y-95558940D01*
X135266047Y-95407417D01*
X135266047Y-95205387D01*
X135165032Y-95003356D01*
X135064017Y-94902341D01*
X134861986Y-94801326D01*
X134760971Y-94801326D01*
X132841681Y-94801326D02*
X133346757Y-95306402D01*
X134407417Y-94245742D01*
X132488128Y-94447773D02*
X133548788Y-93387112D01*
X131882036Y-93841681D02*
X132942696Y-93690158D01*
X132942696Y-92781021D02*
X132942696Y-93993204D01*
X138480768Y-96839398D02*
X138278738Y-96738383D01*
X138026200Y-96485845D01*
X137975692Y-96334322D01*
X137975692Y-96233306D01*
X138026200Y-96081784D01*
X138127215Y-95980768D01*
X138278738Y-95930261D01*
X138379753Y-95930261D01*
X138531276Y-95980768D01*
X138783814Y-96132291D01*
X138935337Y-96182799D01*
X139036352Y-96182799D01*
X139187875Y-96132291D01*
X139288890Y-96031276D01*
X139339398Y-95879753D01*
X139339398Y-95778738D01*
X139288890Y-95627215D01*
X139036352Y-95374677D01*
X138834322Y-95273662D01*
X138531276Y-94869601D02*
X137218078Y-95677723D01*
X137773662Y-94718078D01*
X136814017Y-95273662D01*
X137622139Y-93960463D01*
X136157417Y-94617062D02*
X137218078Y-93556402D01*
X136965540Y-93303864D01*
X136763509Y-93202849D01*
X136561479Y-93202849D01*
X136409956Y-93253356D01*
X136157417Y-93404879D01*
X136005895Y-93556402D01*
X135854372Y-93808940D01*
X135803864Y-93960463D01*
X135803864Y-94162494D01*
X135904879Y-94364524D01*
X136157417Y-94617062D01*
X135096757Y-93556402D02*
X136157417Y-92495742D01*
X135450311Y-91788635D02*
X135248280Y-91586605D01*
X135096757Y-91536097D01*
X134894727Y-91536097D01*
X134642189Y-91687620D01*
X134288635Y-92041173D01*
X134137112Y-92293712D01*
X134137112Y-92495742D01*
X134187620Y-92647265D01*
X134389651Y-92849295D01*
X134541173Y-92899803D01*
X134743204Y-92899803D01*
X134995742Y-92748280D01*
X135349295Y-92394727D01*
X135500818Y-92142189D01*
X135500818Y-91940158D01*
X135450311Y-91788635D01*
D14*
X57237004Y-136687148D02*
G75*
G02X63974541Y-143510454I-177260J-6913108D01*
G01*
X57149546Y-136685459D02*
G75*
G02X54994285Y-134530197I-89802J2065459D01*
G01*
X66129803Y-145665715D02*
G75*
G02X63974541Y-143510454I-89803J2065459D01*
G01*
X66129803Y-145665715D02*
X69901510Y-145665715D01*
X54994285Y-130758490D02*
X54994285Y-134530197D01*
X62178490Y-123574285D02*
X54994285Y-130758490D01*
X65950197Y-123574285D02*
X62178490Y-123574285D01*
X77085715Y-134709803D02*
X65950197Y-123574285D01*
X77085715Y-138481510D02*
X77085715Y-134709803D01*
X69901510Y-145665715D02*
X77085715Y-138481510D01*
X77382666Y-130819806D02*
X76944933Y-130382073D01*
X76911261Y-130887149D01*
X76810246Y-130786134D01*
X76709231Y-130752462D01*
X76641887Y-130752462D01*
X76540872Y-130786134D01*
X76372513Y-130954493D01*
X76338842Y-131055508D01*
X76338842Y-131122851D01*
X76372513Y-131223867D01*
X76574544Y-131425897D01*
X76675559Y-131459569D01*
X76742903Y-131459569D01*
X76742903Y-130180042D02*
X75800093Y-130651447D01*
X76271498Y-129708638D01*
X74924628Y-129035203D02*
X74789941Y-128967859D01*
X74722597Y-128967859D01*
X74621582Y-129001531D01*
X74520567Y-129102546D01*
X74486895Y-129203561D01*
X74486895Y-129270905D01*
X74520567Y-129371920D01*
X74789941Y-129641294D01*
X75497048Y-128934187D01*
X75261345Y-128698485D01*
X75160330Y-128664813D01*
X75092987Y-128664813D01*
X74991971Y-128698485D01*
X74924628Y-128765829D01*
X74890956Y-128866844D01*
X74890956Y-128934187D01*
X74924628Y-129035203D01*
X75160330Y-129270905D01*
X74251193Y-128159737D02*
X73779788Y-128631142D01*
X74554239Y-128462783D02*
X74183849Y-128833172D01*
X74082834Y-128866844D01*
X73981819Y-128833172D01*
X73880804Y-128732157D01*
X73847132Y-128631142D01*
X73847132Y-128563798D01*
X74015491Y-127924035D02*
X73746117Y-127654661D01*
X74150178Y-127587317D02*
X73544086Y-128193409D01*
X73443071Y-128227081D01*
X73342056Y-128193409D01*
X73274712Y-128126065D01*
X73611430Y-127519974D02*
X73342056Y-127250600D01*
X73746117Y-127183256D02*
X73140025Y-127789348D01*
X73039010Y-127823020D01*
X72937995Y-127789348D01*
X72870651Y-127722004D01*
X72533934Y-127385287D02*
X72634949Y-127418959D01*
X72702292Y-127418959D01*
X72803308Y-127385287D01*
X73005338Y-127183256D01*
X73039010Y-127082241D01*
X73039010Y-127014898D01*
X73005338Y-126913882D01*
X72904323Y-126812867D01*
X72803308Y-126779195D01*
X72735964Y-126779195D01*
X72634949Y-126812867D01*
X72432918Y-127014898D01*
X72399247Y-127115913D01*
X72399247Y-127183256D01*
X72432918Y-127284272D01*
X72533934Y-127385287D01*
X72466590Y-126375134D02*
X71995186Y-126846539D01*
X72399247Y-126442478D02*
X72399247Y-126375134D01*
X72365575Y-126274119D01*
X72264560Y-126173104D01*
X72163544Y-126139432D01*
X72062529Y-126173104D01*
X71692140Y-126543493D01*
X70547300Y-125331310D02*
X70580972Y-125432325D01*
X70715659Y-125567012D01*
X70816674Y-125600684D01*
X70884018Y-125600684D01*
X70985033Y-125567012D01*
X71187064Y-125364982D01*
X71220735Y-125263967D01*
X71220735Y-125196623D01*
X71187064Y-125095608D01*
X71052377Y-124960921D01*
X70951361Y-124927249D01*
X69974880Y-124758890D02*
X70008552Y-124859906D01*
X70143239Y-124994593D01*
X70244254Y-125028264D01*
X70345270Y-124994593D01*
X70614644Y-124725219D01*
X70648316Y-124624203D01*
X70614644Y-124523188D01*
X70479957Y-124388501D01*
X70378941Y-124354829D01*
X70277926Y-124388501D01*
X70210583Y-124455844D01*
X70479957Y-124859906D01*
X69503476Y-124354829D02*
X69604491Y-124388501D01*
X69705506Y-124354829D01*
X70311598Y-123748738D01*
X69133087Y-123984440D02*
X69234102Y-124018112D01*
X69335117Y-123984440D01*
X69941209Y-123378348D01*
X103354484Y-124535278D02*
X103758545Y-124131217D01*
X103556514Y-124333248D02*
X102849408Y-123626141D01*
X103017766Y-123659813D01*
X103152453Y-123659813D01*
X103253469Y-123626141D01*
X102984095Y-124770981D02*
X102984095Y-124838324D01*
X103051438Y-124838324D01*
X103051438Y-124770981D01*
X102984095Y-124770981D01*
X103051438Y-124838324D01*
X101670896Y-124804652D02*
X102007614Y-124467935D01*
X102378003Y-124770981D01*
X102310660Y-124770981D01*
X102209644Y-124804652D01*
X102041286Y-124973011D01*
X102007614Y-125074026D01*
X102007614Y-125141370D01*
X102041286Y-125242385D01*
X102209644Y-125410744D01*
X102310660Y-125444416D01*
X102378003Y-125444416D01*
X102479018Y-125410744D01*
X102647377Y-125242385D01*
X102681049Y-125141370D01*
X102681049Y-125074026D01*
X101435194Y-125040355D02*
X101906599Y-125983164D01*
X100963790Y-125511759D01*
X100728087Y-126757614D02*
X100391370Y-127094331D01*
X100997461Y-126892301D02*
X100054652Y-126420896D01*
X100526057Y-127363705D01*
X100121996Y-127363705D02*
X99785278Y-127700423D01*
X100391370Y-127498392D02*
X99448561Y-127026988D01*
X99919965Y-127969797D01*
X99515904Y-127969797D02*
X99179187Y-128306514D01*
X99785278Y-128104484D02*
X98842469Y-127633079D01*
X99313874Y-128575888D01*
D15*
X98219779Y-131773960D02*
X95526039Y-129080220D01*
X107200035Y-122793704D02*
X104506295Y-120099964D01*
X104506295Y-122793704D02*
X107200035Y-120099964D01*
D14*
X75604484Y-97285278D02*
X76008545Y-96881217D01*
X75806514Y-97083248D02*
X75099408Y-96376141D01*
X75267766Y-96409813D01*
X75402453Y-96409813D01*
X75503469Y-96376141D01*
X75234095Y-97520981D02*
X75234095Y-97588324D01*
X75301438Y-97588324D01*
X75301438Y-97520981D01*
X75234095Y-97520981D01*
X75301438Y-97588324D01*
X73920896Y-97554652D02*
X74257614Y-97217935D01*
X74628003Y-97520981D01*
X74560660Y-97520981D01*
X74459644Y-97554652D01*
X74291286Y-97723011D01*
X74257614Y-97824026D01*
X74257614Y-97891370D01*
X74291286Y-97992385D01*
X74459644Y-98160744D01*
X74560660Y-98194416D01*
X74628003Y-98194416D01*
X74729018Y-98160744D01*
X74897377Y-97992385D01*
X74931049Y-97891370D01*
X74931049Y-97824026D01*
X73685194Y-97790355D02*
X74156599Y-98733164D01*
X73213790Y-98261759D01*
X72978087Y-99507614D02*
X72641370Y-99844331D01*
X73247461Y-99642301D02*
X72304652Y-99170896D01*
X72776057Y-100113705D01*
X72371996Y-100113705D02*
X72035278Y-100450423D01*
X72641370Y-100248392D02*
X71698561Y-99776988D01*
X72169965Y-100719797D01*
X71765904Y-100719797D02*
X71429187Y-101056514D01*
X72035278Y-100854484D02*
X71092469Y-100383079D01*
X71563874Y-101325888D01*
D15*
X79752459Y-95153280D02*
X77058719Y-92459540D01*
X77058719Y-95153280D02*
X79752459Y-92459540D01*
X70772203Y-104133536D02*
X68078463Y-101439796D01*
D14*
X147698453Y-91701309D02*
X146991347Y-90994202D01*
X146822988Y-91162561D01*
X146755644Y-91297248D01*
X146755644Y-91431935D01*
X146789316Y-91532950D01*
X146890331Y-91701309D01*
X146991347Y-91802324D01*
X147159705Y-91903339D01*
X147260721Y-91937011D01*
X147395408Y-91937011D01*
X147530095Y-91869668D01*
X147698453Y-91701309D01*
X146620957Y-92038026D02*
X146385255Y-92273729D01*
X146654629Y-92745133D02*
X146991347Y-92408416D01*
X146284240Y-91701309D01*
X145947522Y-92038026D01*
X145745492Y-92913492D02*
X145678148Y-93048179D01*
X145678148Y-93115522D01*
X145711820Y-93216538D01*
X145812835Y-93317553D01*
X145913851Y-93351225D01*
X145981194Y-93351225D01*
X146082209Y-93317553D01*
X146351583Y-93048179D01*
X145644477Y-92341072D01*
X145408774Y-92576774D01*
X145375103Y-92677790D01*
X145375103Y-92745133D01*
X145408774Y-92846148D01*
X145476118Y-92913492D01*
X145577133Y-92947164D01*
X145644477Y-92947164D01*
X145745492Y-92913492D01*
X145981194Y-92677790D01*
X144937370Y-93048179D02*
X145509790Y-93620599D01*
X145543461Y-93721614D01*
X145543461Y-93788957D01*
X145509790Y-93889973D01*
X145375103Y-94024660D01*
X145274087Y-94058331D01*
X145206744Y-94058331D01*
X145105729Y-94024660D01*
X144533309Y-93452240D01*
X143859874Y-94193018D02*
X143893546Y-94092003D01*
X143994561Y-93990988D01*
X144129248Y-93923644D01*
X144263935Y-93923644D01*
X144364950Y-93957316D01*
X144533309Y-94058331D01*
X144634324Y-94159347D01*
X144735339Y-94327705D01*
X144769011Y-94428721D01*
X144769011Y-94563408D01*
X144701668Y-94698095D01*
X144634324Y-94765438D01*
X144499637Y-94832782D01*
X144432294Y-94832782D01*
X144196591Y-94597079D01*
X144331278Y-94462392D01*
M02*
