G04 #@! TF.GenerationSoftware,KiCad,Pcbnew,(2017-07-14 revision d3b382c)-master*
G04 #@! TF.CreationDate,2017-07-17T01:29:14+02:00*
G04 #@! TF.ProjectId,Bornhack Make Tradition Badge,426F726E6861636B204D616B65205472,rev?*
G04 #@! TF.SameCoordinates,Original
G04 #@! TF.FileFunction,Paste,Bot*
G04 #@! TF.FilePolarity,Positive*
%FSLAX46Y46*%
G04 Gerber Fmt 4.6, Leading zero omitted, Abs format (unit mm)*
G04 Created by KiCad (PCBNEW (2017-07-14 revision d3b382c)-master) date Monday, July 17, 2017 'AMt' 01:29:14 AM*
%MOMM*%
%LPD*%
G01*
G04 APERTURE LIST*
%ADD10C,0.150000*%
%ADD11C,2.540000*%
%ADD12C,0.100000*%
%ADD13C,17.780000*%
%ADD14C,3.960000*%
%ADD15C,2.340000*%
G04 APERTURE END LIST*
D10*
X85812924Y-125630447D02*
G75*
G03X85812924Y-125630447I-141421J0D01*
G01*
D11*
X74122231Y-142702231D03*
D12*
G36*
X76816308Y-141804205D02*
X73224205Y-145396308D01*
X71428154Y-143600257D01*
X75020257Y-140008154D01*
X76816308Y-141804205D01*
X76816308Y-141804205D01*
G37*
D11*
X57957769Y-126537769D03*
D12*
G36*
X60651846Y-125639743D02*
X57059743Y-129231846D01*
X55263692Y-127435795D01*
X58855795Y-123843692D01*
X60651846Y-125639743D01*
X60651846Y-125639743D01*
G37*
D13*
X66040000Y-134620000D03*
D14*
X93300000Y-134000000D03*
D12*
G36*
X96496123Y-134395980D02*
X93695980Y-137196123D01*
X90103877Y-133604020D01*
X92904020Y-130803877D01*
X96496123Y-134395980D01*
X96496123Y-134395980D01*
G37*
D14*
X109931152Y-117368848D03*
D12*
G36*
X113127275Y-117764828D02*
X110327132Y-120564971D01*
X106735029Y-116972868D01*
X109535172Y-114172725D01*
X113127275Y-117764828D01*
X113127275Y-117764828D01*
G37*
D15*
X84051044Y-143248956D03*
D12*
G36*
X86278430Y-142676200D02*
X83478288Y-145476342D01*
X81823658Y-143821712D01*
X84623800Y-141021570D01*
X86278430Y-142676200D01*
X86278430Y-142676200D01*
G37*
D15*
X119180108Y-108119892D03*
D12*
G36*
X121407494Y-107547136D02*
X118607352Y-110347278D01*
X116952722Y-108692648D01*
X119752864Y-105892506D01*
X121407494Y-107547136D01*
X121407494Y-107547136D01*
G37*
D15*
X91732532Y-80479468D03*
D12*
G36*
X93959918Y-79906712D02*
X91159776Y-82706854D01*
X89505146Y-81052224D01*
X92305288Y-78252082D01*
X93959918Y-79906712D01*
X93959918Y-79906712D01*
G37*
D15*
X56603468Y-115608532D03*
D12*
G36*
X58830854Y-115035776D02*
X56030712Y-117835918D01*
X54376082Y-116181288D01*
X57176224Y-113381146D01*
X58830854Y-115035776D01*
X58830854Y-115035776D01*
G37*
D14*
X82483576Y-89728424D03*
D12*
G36*
X85679699Y-90124404D02*
X82879556Y-92924547D01*
X79287453Y-89332444D01*
X82087596Y-86532301D01*
X85679699Y-90124404D01*
X85679699Y-90124404D01*
G37*
D14*
X65852424Y-106359576D03*
D12*
G36*
X69048547Y-106755556D02*
X66248404Y-109555699D01*
X62656301Y-105963596D01*
X65456444Y-103163453D01*
X69048547Y-106755556D01*
X69048547Y-106755556D01*
G37*
M02*
